<?xml version="1.0" encoding="UTF-8" standalone="no"?>
<!-- Created with Inkscape (http://www.inkscape.org/) -->

<svg
   xmlns:dc="http://purl.org/dc/elements/1.1/"
   xmlns:cc="http://creativecommons.org/ns#"
   xmlns:rdf="http://www.w3.org/1999/02/22-rdf-syntax-ns#"
   xmlns:svg="http://www.w3.org/2000/svg"
   xmlns="http://www.w3.org/2000/svg"
   xmlns:sodipodi="http://sodipodi.sourceforge.net/DTD/sodipodi-0.dtd"
   xmlns:inkscape="http://www.inkscape.org/namespaces/inkscape"
   version="1.1"
   id="svg618"
   xml:space="preserve"
   width="576"
   height="864"
   viewBox="0 0 576 864"
   sodipodi:docname="00008.svg"
   inkscape:version="0.92.3 (2405546, 2018-03-11)"
   inkscape:export-filename="C:\Users\kyleb\Documents\SpiderOak Hive\Projects\poee\public\pd\00008.png"
   inkscape:export-xdpi="176.5"
   inkscape:export-ydpi="176.5"><metadata
     id="metadata624"><rdf:RDF><cc:Work
         rdf:about=""><dc:format>image/svg+xml</dc:format><dc:type
           rdf:resource="http://purl.org/dc/dcmitype/StillImage" /><dc:title /></cc:Work></rdf:RDF></metadata><defs
     id="defs622">






</defs><sodipodi:namedview
     pagecolor="#ffffff"
     bordercolor="#666666"
     borderopacity="1"
     objecttolerance="10"
     gridtolerance="10"
     guidetolerance="10"
     inkscape:pageopacity="0"
     inkscape:pageshadow="2"
     inkscape:window-width="1366"
     inkscape:window-height="705"
     id="namedview620"
     showgrid="false"
     inkscape:zoom="1.0925926"
     inkscape:cx="293.14001"
     inkscape:cy="186.87262"
     inkscape:window-x="-8"
     inkscape:window-y="-8"
     inkscape:window-maximized="1"
     inkscape:current-layer="g626" /><g
     id="g626"
     inkscape:groupmode="layer"
     inkscape:label="the_discordia_totalis"
     transform="matrix(1.3333333,0,0,-1.3333333,0,864)"><text
       id="text634"
       style="font-variant:normal;font-weight:normal;font-size:5.67530012px;font-family:AkbarPlain;-inkscape-font-specification:AkbarPlain;writing-mode:lr-tb;fill:#000000;fill-opacity:1;fill-rule:nonzero;stroke:none"
       transform="scale(1,-1)"
       x="271.84766"
       y="-546.01392"><tspan
         style="font-style:normal;font-variant:normal;font-weight:normal;font-stretch:normal;font-size:6px;font-family:Consolas;-inkscape-font-specification:Consolas"
         id="tspan657"
         y="-546.01392"
         x="271.84766"
         sodipodi:role="line">Why is a mouse when it spins.</tspan></text>
<text
       id="text638"
       style="font-variant:normal;font-weight:normal;font-size:9.14820004px;font-family:'Times New Roman';-inkscape-font-specification:TimesNewRomanPSMT;writing-mode:lr-tb;fill:#000000;fill-opacity:1;fill-rule:nonzero;stroke:none"
       transform="scale(1,-1)"
       x="210.6924"
       y="-527.88678"><tspan
         id="tspan636"
         sodipodi:role="line"
         y="-527.88678"
         x="210.6924 213.74059 218.31651">-2-</tspan></text>
<text
       id="text660"
       style="font-style:italic;font-variant:normal;font-size:9.14820004px;font-family:'Times New Roman';-inkscape-font-specification:TimesNewRomanPS-ItalicMT;writing-mode:lr-tb;fill:#000000;fill-opacity:1;fill-rule:nonzero;stroke:none"
       transform="scale(1,-1)"
       x="88.970108"
       y="-506.79562"><tspan
         id="tspan640"
         sodipodi:role="line"
         y="-506.79562"
         x="88.970108 94.057426 98.632439 102.69515 106.25472 110.31744 112.60448 118.70725 123.28226 125.82638 129.97874 134.04146 138.61647 140.90353 143.44765 148.02266 150.56677 155.14178 157.51392 160.05803 164.63304 168.69576 170.9828 174.54237 179.11739 183.77657 190.38248 192.66953 197.24455 199.5316 203.59431 208.16933 210.79669 217.4026 221.97762 226.55263 231.12764 234.68721 238.74992 242.9023 245.19026 247.47731 251.03688 255.61189 260.18692 264.76193 269.42111 273.48383 275.77087 280.34589 284.9209 289.49591 291.78296 296.44214 299.99805 304.06076 308.12347 310.41052 314.98553 319.56055 324.13559 328.79474 331.33887 333.62592 336.17004 340.74506">There walked into the room a chimpanzee, shaggy and grey about the</tspan><tspan
         id="tspan642"
         sodipodi:role="line"
         y="-496.20749"
         x="63.558243 70.164154 74.739174 78.298737 81.858299 84.402412 88.465126 90.753098 93.040146 97.102859 101.16557 103.70969 106.08182 110.65684 115.23185 118.79141 121.33553 125.91055 130.56972 133.11383 135.40088 137.94499 142.52002 144.80707 149.38208 151.92619 155.48576 157.85789 160.40201 164.97702 167.52113 170.06525 172.35229 174.89641 177.44052 181.50323 185.56595 187.93808 190.48219 194.54491 198.60764 201.15175 203.43971 205.72676 210.30179 214.96095 219.53596 221.82301 226.39803 230.97304 233.51715 237.07672 241.13943 245.79861 248.08566 254.18843 256.73254 259.27667 263.85168 266.13873 270.79791 275.37201 277.91614 282.49115 286.05069 290.62573 293.16983 295.54196 302.14789 306.7229 309.267 313.32971 316.88928 319.43341 323.49612 325.86826 328.1553 334.7612 338.82391 341.11096 345.17371 349.74872 353.38971 356.94925 359.49338 363.55609">muzzle, yet upright in his full five feet, and poised with natural majesty. He carried</tspan><tspan
         id="tspan644"
         sodipodi:role="line"
         y="-485.61935"
         x="63.558243 68.133255 70.420303 73.979874 78.042587 81.60215 86.177162 88.721275 91.265396 93.552444 98.127457 102.78664 107.36165 109.6487 115.75146 120.32648 122.8706 126.93331 131.08568 135.66069 137.94774 140.49185 145.06688 147.35393 149.89804 154.47305 158.53577 160.9079 164.97061 169.54562 174.12064 178.69566 183.27068 185.64281 192.24872 196.31143 200.88646">a scroll and walked to the young men.</tspan><tspan
         id="tspan646"
         sodipodi:role="line"
         y="-464.52728"
         x="88.970108 92.867241 99.47316 103.53587 108.11089 110.65501 113.19912 117.26183 123.86775 127.93047 132.50548 134.79344 138.69058 140.97763 145.55264 149.61536 151.9024 155.46198 160.03699 162.5811 167.15611 169.52824 171.81529 175.71243 181.81154 186.38655 190.44926 192.73631 197.31133 201.88634 205.94907 209.50862 211.88075 217.47121 220.01534 224.07805 228.14076 232.20348 235.76305 238.30716 242.88217 247.54135 250.58861 254.14818 256.43524 264.05661 268.63162 273.2908 277.86581 280.15286 284.72787 289.30289 291.58994 296.16495 300.82413 305.39914 309.97415 312.51828 314.80533 317.34943 321.92447 324.21152 327.85248 331.91519 335.97791 340.04065 343.60019 347.15976">&quot;Gentlemen,&quot; he said, &quot;why does Pickering’s Moon go about in reverse</tspan><tspan
         id="tspan648"
         sodipodi:role="line"
         y="-454.02423"
         x="63.558243 68.133255 71.692818 76.267838 78.811951 81.356064 85.931076 88.218124 94.824043 98.886757 103.54594 106.09005 108.63417 112.69688 119.3028 123.36551 127.94053 130.22849 132.60062 135.14473 139.71974 143.78247 147.34203 151.40474 153.6918 158.26682 161.90779 165.9705 168.25757 172.83258 175.37669 179.95171 184.52672 187.07083 191.22321 194.78276 197.06982 201.64484 206.21985 208.5069 212.56961 217.22879 221.8038 225.36337 227.65042 231.71313 236.28815 240.35086 243.91043 246.5378 250.09735 253.14462 255.43167 260.00668 264.5817 266.86874 270.93149 275.59064 280.16568 282.45273 287.02774 289.57184 293.63455 297.69727 299.98431 306.67441 309.21667 311.7608 315.82352 320.39853 322.68558 328.27606 332.85107 337.51025 339.7973 345.90005 350.47507 355.05008 357.59421">orbit? Gentlemen, there are nipples on your chests; do you give milk? And what,</tspan><tspan
         id="tspan650"
         sodipodi:role="line"
         y="-443.4361"
         x="63.558243 68.132339 71.690994 76.265091 80.326889 82.613937 85.157143 89.218941 91.762138 94.305344 96.592392 98.87944 105.56952 109.63681 114.21091 116.75411 119.29731 123.35911 129.96411 134.11647 138.69058 140.97763 143.26468 145.80788 149.36653 151.65358 154.19678 158.77087 161.14301 165.7171 169.7789 172.06596 176.64006 181.21416 185.78825 189.85005 192.2222 196.79628 201.37039 205.94449 210.51859 213.06178 215.43391 222.03891 226.10071 228.64391 232.20256 236.26436 240.83846 245.41257 249.56493 253.12358 257.69769 260.74405 264.30267 266.58975 271.67615 276.33533 282.43716 287.01126 290.90839 293.19543 299.80045 303.86224 306.14929 310.72339 315.29749 319.95667 323.51532 327.57712 332.15121">pray tell, Gentlemen, is to be done about Heisenberg’s Law?&quot; He paused.</tspan><tspan
         id="tspan652"
         sodipodi:role="line"
         y="-432.93304"
         x="63.558243 67.455376 72.029472 78.634476 86.254921 91.844475 97.434029 104.03902 110.64403 115.81001 118.09706 124.70206 130.29161 136.89662 139.18367 144.27007 150.96014 153.24719 158.83675 165.44174 170.52814 172.90027 178.48982 183.57622 188.66263 190.94968 197.63976 203.23204 205.51909 210.6055 217.21049 220.25684 224.91602 227.20306 233.30492 239.90991 246.01176 251.60132 258.29141 262.86551 265.91187 272.51685 278.70013 280.98718 287.59216 293.18173 298.77127 304.36084 307.40717">&quot;SOMEBODY HAD TO PUT ALL OF THIS CONFUSION HERE!&quot;</tspan><tspan
         id="tspan654"
         sodipodi:role="line"
         y="-411.75681"
         x="88.970108 94.560577 99.13559 103.7106 105.99766 112.10042 114.64453 117.18865 121.76366 124.05071 126.67808 131.2531 135.82811 138.37222 140.65927 145.23428 149.297 151.58405 155.22504 159.28775 163.35046 167.41318 171.98819 174.53232 178.59503 183.17004 185.54218 190.11719 192.66129 196.22087 198.50792 202.06747 206.13019 209.68976 214.34894 216.89305 219.43716 221.72513 224.01218 227.05945 229.60356 231.89061 238.07387 242.64798 246.20753 248.49458 253.06961 255.35666 259.93167 262.4758 267.13498 271.70999 275.26956 279.84457 286.45047 288.73843 291.02548 293.65286 296.19513 300.25784 304.32059 306.60764 311.18265 313.4697 317.53241 320.07651 324.73569 327.78296 331.84567 336.42068 340.9957 345.57074 347.85779 354.04105 356.58517 359.12927">And with that he revealed his scroll. It was a diagram, like a yin-yang with</tspan><tspan
         id="tspan656"
         sodipodi:role="line"
         y="-401.25375"
         x="63.558243 68.133255 70.420303 74.995323 79.058037 83.633049 86.177162 90.752182 95.327194 99.902206 104.56139 106.84843 111.42345 115.99847 118.28551 122.86053 127.43555 131.49826 133.87039 137.42996 139.97408 144.54909 148.6118 150.89885 155.47386 160.13304 164.70805 166.99512 171.57013 176.14514 178.43219 183.0072 187.66638 192.24141 194.78551 198.84822 201.13528 205.7103 210.28531 212.57236 215.19972 219.77382 223.83653 226.12358 230.69859 233.24271 237.81772 241.88045 245.52142 247.80939 250.09644 255.6869 260.26193 264.83694 267.12399 269.75134 274.32547 278.38818 282.9632 285.25024 289.82526 293.88797 296.17502 300.23773 304.39011 308.96512 311.50922 316.08423 320.65927 324.72198 329.297 331.66913 336.24414 340.81915 345.39417 347.68121 350.22534 354.80035">a pentagon on one side and an apple on the other. And then he exploded and the</tspan><tspan
         id="tspan658"
         sodipodi:role="line"
         y="-390.66562"
         x="63.558243 66.10144 72.203293 76.77739 79.064438 81.607635 86.18174 89.740387 92.283585 94.570641 98.632439 103.29162 107.86572 111.42437 115.48617 118.02937 122.60347 127.26264 130.82129 135.3954 139.4572 143.01584 146.57449">two lost consciousness.</tspan></text>
<text
       id="text664"
       style="font-variant:normal;font-weight:normal;font-size:9.14820004px;font-family:'Times New Roman';-inkscape-font-specification:TimesNewRomanPSMT;writing-mode:lr-tb;fill:#000000;fill-opacity:1;fill-rule:nonzero;stroke:none"
       transform="scale(1,-1)"
       x="63.558239"
       y="-359.0705"><tspan
         id="tspan662"
         sodipodi:role="line"
         y="-359.0705"
         x="63.558239 69.147789 75.249641 78.29599 83.382393 85.669441 88.71579 91.002838 97.692917 104.29792 110.90292 117.50792 123.09747 128.26346 133.34985 135.6369 142.24191 147.32831 149.61536 155.79863 162.40363 169.00864 175.6987 180.78511 183.07216 185.35919 191.9642 195.01056 200.17654 206.2784 212.88339 218.98524 225.59024 227.96237 235.07968 237.36673 243.46857 250.15865 256.76364 261.85004 268.45505 273.54144 276.67563 283.28061">ERIS - GODDESS OF CHAOS, DISCORD &amp; CONFUSION</tspan></text>
<path
       inkscape:connector-curvature="0"
       id="path666"
       style="fill:none;stroke:#000000;stroke-width:0.42399999;stroke-linecap:butt;stroke-linejoin:miter;stroke-miterlimit:10;stroke-dasharray:none;stroke-opacity:1"
       d="m 63.558,357.84 h 226.25" /><text
       id="text696"
       style="font-variant:normal;font-weight:normal;font-size:9.14820004px;font-family:'Times New Roman';-inkscape-font-specification:TimesNewRomanPSMT;writing-mode:lr-tb;fill:#000000;fill-opacity:1;fill-rule:nonzero;stroke:none"
       transform="scale(1,-1)"
       x="88.9701"
       y="-337.8916"><tspan
         id="tspan668"
         sodipodi:role="line"
         y="-337.8916"
         x="88.9701 94.560562 99.135582 103.37211 107.77697 110.06402 114.12673 120.73265 125.30766 129.88268 134.03505 136.3221 138.86621 143.44122 145.72827 148.27238 152.84741 156.91013 159.28224 162.84181 167.41682 171.99184 176.56685 181.14188 183.42892 188.00394 191.13811 193.42516 198.00018 200.54428 205.11931 208.67886 210.96591 215.02864 217.65599 221.7187 224.26282 226.80693 230.86966 233.91692 236.46103 241.03604 245.61107 247.98318 250.27023 254.33296 258.90799 263.483 265.77005 268.90421 273.47922 278.05426 282.62927 287.20428 289.49133 292.03543 296.61044 300.67316 303.04529 307.6203 312.19534 318.80124 321.34537 325.40808 328.45535 332.01489 334.38702 338.44974 343.02475 347.59976 351.66248 356.23749 360.3002">They awoke to the sound of pins clattering, and found the bowlers engaged</tspan><tspan
         id="tspan670"
         sodipodi:role="line"
         y="-327.38855"
         x="63.558231 66.102341 70.677361 72.964409 75.508522 80.083542 84.146255 86.690369 89.737633 92.024681 96.599701 100.75207 107.87028 111.933 114.22005 118.28276 122.85777 127.43279 129.71983 132.26396 136.92313 140.98586 143.2729 149.87881 153.94153 156.48564 159.02975 162.07703 166.22939 169.78896 173.34853 175.63557 180.21059 184.7856 188.51074 192.9156 195.28772 201.89365 204.43776 206.98187 211.55688 213.92902 221.04723 225.10994 229.68497 232.22908 236.80409 241.3791 243.66615 247.81853 252.39262 255.52679 258.66098 262.72369 266.78641 269.07437 271.36142 274.40869 276.95279 279.23987 285.84576 289.90848 293.46805 295.7551 299.81781 304.39282 308.96783 313.03055 316.07782 320.14053 324.71555 327.25967 329.54672 332.09082 336.66586 340.72858 343.27267 345.64481 348.1889 352.76392 356.82663 359.37076">in their game and the waitress busy with making coffee. It was apparent that their</tspan><tspan
         id="tspan672"
         sodipodi:role="line"
         y="-316.80042"
         x="63.558231 67.622772 72.199615 76.776466 80.841011 83.890106 86.43605 90.500595 95.077438 99.141983 103.20653 105.49358 110.07042 114.22279 118.79964 121.08669 125.66353 129.72807 133.79262 138.36946 140.74159 145.31844 148.36754 150.91348 155.49031 159.55487 162.10081 166.16536">experience had been private.</tspan><tspan
         id="tspan674"
         sodipodi:role="line"
         y="-295.70834"
         x="88.9701 94.560562 99.135582 103.37211 107.77697 110.06402 114.63903 117.18315 120.74271 124.80543 129.4646 133.02417 136.58374 140.64645 145.22147 147.50851 150.05263 154.62764 158.78001 161.32413 164.37138 166.65845 170.218 172.76212 175.80939 179.8721 184.44711 189.10629 193.16901 195.45605 199.51878 204.0938 208.15651 212.73152 217.30653 221.96571 224.50983 228.57254 231.61981 233.90686 237.96957 242.54459 247.1196 249.40665 252.54082 256.60355 260.66626 265.24127 269.81628 273.37585 275.91998 278.96722 283.6264 287.68912 290.23325 294.29596 298.87097 301.15802 304.29221 307.34131 312.00046 319.03268 321.40482 328.43704 332.58942 339.62164 344.28082 347.32806 351.81708 354.18921 356.73334 361.30835">They discussed their strange encounter and reconstructed from memory the</tspan><tspan
         id="tspan676"
         sodipodi:role="line"
         y="-285.20529"
         x="63.558231 67.621857 72.197792 74.82515 81.857376 86.433304 90.496933 95.072861 99.136497 103.20013 107.26376 110.39793 113.9584 116.24546 120.82139 123.36642 127.43005 132.00598 135.05415 139.20653 146.32565 148.61453 150.90158 157.50841 162.08434 166.14796 169.19615 171.56828 174.11331 178.68924 182.75287 185.03992 189.61584 193.67947 198.2554 200.88277 203.16982 206.304 208.84628 213.42221 217.48584 219.77289 224.34882 228.50119 232.90604 236.54703 238.83408 241.3791 245.95503 250.19156 254.59642 256.88348 260.52448 264.5881 268.65173 271.69992 275.76355 280.33948 284.40311 288.97903 291.26608 293.89343 296.43573 301.01166 304.05984 308.12347 311.17163 313.71667 317.7803 321.34079 323.62784 326.25519 330.82928 333.11633 336.25052 338.79282 343.36874 347.94467 350.23172 352.77673 357.35266">chimpanzee’s diagram. Over the next five days they searched libraries to find the</tspan><tspan
         id="tspan678"
         sodipodi:role="line"
         y="-274.61716"
         x="63.558231 67.117798 69.661911 74.236923 78.811935 81.356056 84.490227 87.03434 91.097054 95.159775 99.734787 103.7975 107.86021 110.14727 114.72228 117.85645 120.14351 122.68762 125.23174 127.5197 129.80675 134.38176 138.95677 141.50089 143.78795 150.39386 154.45657 157.50383 161.56656 163.85361 168.51279 171.05507 174.61462 178.67735 183.25237 187.82738 192.40239 195.02974 199.60477 202.14888 206.21159 210.78661 213.07367 215.61778 220.19279 222.56491 227.13994 231.71495 235.77766 240.35268 244.92769 248.9904 252.03767 254.40981 257.45706 261.51978 264.65396 268.71667 271.76395 275.82666 280.40167 284.46439 288.5271 292.08667 294.37372 298.94873 303.52374 306.23621 310.64105 312.9281 315.47223 320.13138 322.41846 328.00891 332.07162 336.64664 339.19077 342.83173 349.94995 352.23792 354.52496 357.06906 361.64407">significance of it, but were disappointed to uncover references only to Taoism, the</tspan><tspan
         id="tspan680"
         sodipodi:role="line"
         y="-264.02902"
         x="63.558231 70.164146 74.739159 77.786423 81.849144 85.911858 90.48687 92.773918 95.908096 98.450378 102.51309 107.08811 109.37608 111.66312 115.72584 120.30086 124.87587 127.16292 132.75339 136.8161 140.96846 145.54349 150.1185 154.69351 158.75623 161.8035 165.86621 170.10274 174.5076 176.87973 179.16678 182.21404 184.75815 187.04521 193.65112 197.71384 201.27341 203.64552 208.22054 212.79556 215.33968 217.62672 222.20174 226.77675 229.40411 231.94823 234.49234 236.77939 239.3235 243.89851 248.13506 252.5399 254.82697 257.37109 260.50525 264.56796 268.63068 272.69339 277.2684 279.55548 282.09958 286.67459 290.7373 293.10944 299.71536 302.76263 306.82535 310.88806 315.46307 317.75012 324.44019 327.48929 330.03342 332.57751 335.12164 339.69666 344.27167 346.55872 351.2179">Korean flag, and Technocracy. It was not until they traced the Greek writing on</tspan><tspan
         id="tspan682"
         sodipodi:role="line"
         y="-253.52599"
         x="63.558231 66.102341 70.677361 74.740074 77.027122 81.089844 85.664856 90.239868 92.783981 96.846703 99.133751 101.67786 106.33704 110.39976 112.94387 115.23092 117.77504 122.35005 126.58658 130.99144 133.27849 137.93767 140.47995 144.03952 148.10223 152.67725 157.25226 161.31497 164.36224 168.51462 173.08963 175.37668 177.92079 182.4958 186.55852 188.84557 192.90828 197.48331 201.63567 204.17978 208.24249 212.81752 215.36163 217.64867 224.25459 228.91377 233.48878 238.0638 242.12651 245.68608 249.24564 251.53268 256.19186 260.76691 265.34192 271.94781 276.52283 278.80988 281.43726 286.01135 288.2984 290.84253 295.41754 299.48026 301.7673 308.3732 311.42047 315.57285 319.63556 324.21057 327.77014 330.05719 334.1199 337.67947 340.05161 345.64206 351.74481 354.79208">the apple that they discovered the ancient Goddess known to the Greeks as ERIS</tspan><tspan
         id="tspan684"
         sodipodi:role="line"
         y="-242.93785"
         x="63.558231 67.620949 72.195961 76.770973 79.058022 81.602142 86.177155 88.464203 91.008316 95.583336 99.646049 102.01818 108.12094 112.78012 119.81234 123.87963 128.45465 132.09563 134.38268 138.44539 142.00496 144.29201 150.89792 153.94519 159.11118 165.21394 171.81985 177.92262 184.6127 187.65996 194.26587 196.55385 198.8409 204.43137 209.00638 211.63374 215.19331 217.48035 224.08626 228.14897 231.70854 233.99559 238.65477 243.22887 245.51591 248.06003 252.63506 256.69778 258.98483 262.11899 264.66129 267.79544 270.33774 274.91275 277.1998 281.77481 284.31894 288.89395 293.46896 296.01309 298.30106 300.5881 304.65082 309.22583 313.80084 316.08789 322.69382 327.35297 331.41571 335.99072 338.27777 340.82187 345.39688 349.63342">and to the Romans as DISCORDIA. This was on the fifth night, and when they</tspan><tspan
         id="tspan686"
         sodipodi:role="line"
         y="-232.43481"
         x="63.558231 67.117798 69.661911 73.724625 78.299637 80.843758 83.130806 85.674919 90.249931 94.312653 96.856766 99.143814 103.80299 106.34528 110.92029 115.49531 118.03942 120.32738 122.61443 126.67715 130.73987 134.89223 139.46725 141.7543 146.32932 150.39203 154.96704 157.25409 161.3168 163.68893 168.26395 170.80806 175.38307 177.9272 182.50221 184.78926 189.36427 192.41153 196.5639 200.71628 207.74849 210.03555 214.61055 217.74474 220.03178 224.0945 226.38155 229.94112 234.51613 237.06024 241.12296 245.69797 250.27298 252.90034 257.47537 259.76242 266.36835 271.02753 278.05972 282.2121 286.78711 289.07416 295.68008 300.2551 304.83011 308.4711 312.53381 314.82086 319.0574 323.46225 327.52496 331.08453 333.37158 340.06165 344.12894 347.17621 351.23892 353.52597 357.58868">slept that night, each had a vivid dream of a splendid woman whose eyes were as</tspan><tspan
         id="tspan688"
         sodipodi:role="line"
         y="-221.84668"
         x="63.558231 67.118706 71.694641 74.828812 77.37384 79.660889 83.724525 87.285004 89.572052 93.635681 95.922729 99.056908 103.12054 107.18417 109.72919 114.30512 118.36875 121.41693 123.70399 127.76762 132.34355 136.91948 139.20653 143.27016 146.83063 149.11769 153.69362 157.75725 161.82088 166.3968 168.68385 172.83623 176.39212 178.67917 182.74281 185.28784 189.35147 192.39964 196.97557 199.5206 202.23305 206.63791 209.01003 211.55507 214.1001 217.66057 221.7242 224.26923 227.4034 229.69228 231.97932 236.04295 240.6189 245.19482 247.48187 254.0887 258.74789 263.32382 266.88431 270.94794 273.23499 277.81091 282.38684 287.13019 291.53503 293.90717 300.51398 304.57764 308.13809 310.42514 313.05252 317.62662 321.69025 323.97729 327.53778 332.11371 336.17734 340.24097 342.78598 346.84961 351.00198 355.57791 358.12296 362.18658">soft as a feather and as deep as eternity itself, and whose body was the spectacular</tspan><tspan
         id="tspan690"
         sodipodi:role="line"
         y="-211.34363"
         x="63.558231 68.134163 72.197792 76.77372 80.837349 84.900978 87.188034 91.763962 94.898132 97.185181 101.24882 103.79385 108.45302 115.48524 119.04572 121.33277 125.3964 129.97234 134.54826 136.92039 141.49632 146.07225 148.61728 153.19321 157.25684 160.30502 163.86549 168.01787 171.57834 173.86722 176.15427 181.40442 185.80928 188.85747 193.51665 196.06168 200.12529 204.18892 208.76486 213.34079 215.88583 219.94945 223.59042 225.87749 230.45341 233.58759 235.87463 240.45056 245.02649 248.07468 252.13831 254.42535 258.48898 263.06491 267.12854 270.17673 274.92007 279.32492 281.61197 284.74615 289.32025 292.45444 299.48666 303.55029 308.12622 310.41327 314.9892 319.14157 322.18973 324.47678 327.61096 330.15326 334.72919 341.336 343.88104 348.45697">dance of atoms and universes. Pyrotechnics of pure energy formed her flowing</tspan><tspan
         id="tspan692"
         sodipodi:role="line"
         y="-200.75551"
         x="63.558231 68.133247 72.195961 74.740074 77.787338 80.075302 82.362358 86.425072 91.000084 95.575104 97.862152 100.90942 104.97213 107.59949 112.17451 116.74953 121.32454 127.93045 131.49002 133.86215 140.98036 145.04308 149.61809 152.1622 155.29637 159.35909 162.91866 165.46277 169.52548 174.10049 176.38756 180.45027 185.02528 189.6003 191.88734 196.54652 199.08881 202.64838 206.20793 210.78296 213.32707 217.90208 222.05444 226.62946 228.91652 232.97923 236.53879 238.82584 242.38541 246.96042 251.11279 253.39984 256.95941 261.53442 266.10944 270.68445 274.74716 277.03421 279.66159 284.23569 286.52274 290.58545 292.8725 299.47842 303.54114 306.67529 313.79352 316.08057 320.14328 324.71829 329.2933 331.58035 336.15536 340.30774 344.88275 347.42688 349.97098">hair, and rainbows manifested and dissolved as she spoke in a warm and gentle</tspan><tspan
         id="tspan694"
         sodipodi:role="line"
         y="-190.16739"
         x="63.558231 68.135071 72.711922 75.257866 79.322411 83.386955">voice:</tspan></text>
<text
       id="text700"
       style="font-style:italic;font-variant:normal;font-size:9.14820004px;font-family:'Times New Roman';-inkscape-font-specification:TimesNewRomanPS-ItalicMT;writing-mode:lr-tb;fill:#000000;fill-opacity:1;fill-rule:nonzero;stroke:none"
       transform="scale(1,-1)"
       x="88.9701"
       y="-169.07529"><tspan
         id="tspan698"
         sodipodi:role="line"
         y="-169.07529"
         x="88.9701 92.017365 94.304413 98.879433 103.45444 107.51716 111.57987 113.86693 117.92964 122.50465 129.11057 133.17328 135.54541 138.08952 142.66455 144.9516 147.49571 151.55843 154.10254 156.64665 158.9337 163.08607 167.66109 172.2361 174.52315 177.06726 181.64227 186.21729 188.76141 191.13353 195.19624 199.77127 204.34628 206.63333 211.20834 214.76791 218.83063 221.20274 223.74686 227.30643 231.36914 235.43185 237.71982 240.00688 247.62823 252.28741 256.86243 260.92517 263.21222 267.78723 272.36224 276.42496 279.98453 282.35666 286.93167 291.50668 296.0817 298.36966 300.65671 308.36499 312.43228 314.71933 318.78204 323.35706 327.93207 331.49164 335.55435 338.1817 342.75671 347.33173 350.8913 355.46631 359.52902 363.08859">I have come to tell you that you are free. Many ages ago, My consciousness</tspan></text>
<text
       id="text704"
       style="font-variant:normal;font-weight:normal;font-size:14.14589977px;font-family:TTE264C6E9t00;-inkscape-font-specification:TTE264C6E9t00;writing-mode:lr-tb;fill:#000000;fill-opacity:1;fill-rule:nonzero;stroke:none"
       transform="scale(1,-1)"
       x="198.5795"
       y="-120.8753"><tspan
         style="font-style:normal;font-variant:normal;font-weight:normal;font-stretch:normal;font-family:'Special Elite';-inkscape-font-specification:'Special Elite'"
         y="-120.8753"
         x="198.5795"
         id="tspan702"
         sodipodi:role="line">00008</tspan></text>
<text
       xml:space="preserve"
       style="font-style:normal;font-weight:normal;font-size:10px;line-height:1.25;font-family:sans-serif;letter-spacing:0px;word-spacing:0px;fill:#000000;fill-opacity:1;stroke:none;stroke-width:0.75"
       x="68.644073"
       y="-129.05084"
       id="text701"
       transform="scale(1,-1)"><tspan
         sodipodi:role="line"
         id="tspan699"
         x="68.644073"
         y="-129.05084"
         style="font-style:normal;font-variant:normal;font-weight:normal;font-stretch:normal;font-size:20px;font-family:Georgia;-inkscape-font-specification:Georgia;stroke-width:0.75">🎳</tspan></text>
</g></svg>