<?xml version="1.0" encoding="UTF-8" standalone="no"?>
<!-- Created with Inkscape (http://www.inkscape.org/) -->

<svg
   xmlns:dc="http://purl.org/dc/elements/1.1/"
   xmlns:cc="http://creativecommons.org/ns#"
   xmlns:rdf="http://www.w3.org/1999/02/22-rdf-syntax-ns#"
   xmlns:svg="http://www.w3.org/2000/svg"
   xmlns="http://www.w3.org/2000/svg"
   xmlns:sodipodi="http://sodipodi.sourceforge.net/DTD/sodipodi-0.dtd"
   xmlns:inkscape="http://www.inkscape.org/namespaces/inkscape"
   version="1.1"
   id="svg424"
   xml:space="preserve"
   width="576"
   height="864"
   viewBox="0 0 576 864"
   sodipodi:docname="00015.svg"
   inkscape:version="0.92.3 (2405546, 2018-03-11)"><metadata
     id="metadata430"><rdf:RDF><cc:Work
         rdf:about=""><dc:format>image/svg+xml</dc:format><dc:type
           rdf:resource="http://purl.org/dc/dcmitype/StillImage" /><dc:title></dc:title></cc:Work></rdf:RDF></metadata><defs
     id="defs428" /><sodipodi:namedview
     pagecolor="#ffffff"
     bordercolor="#666666"
     borderopacity="1"
     objecttolerance="10"
     gridtolerance="10"
     guidetolerance="10"
     inkscape:pageopacity="0"
     inkscape:pageshadow="2"
     inkscape:window-width="1366"
     inkscape:window-height="705"
     id="namedview426"
     showgrid="false"
     inkscape:zoom="0.77257963"
     inkscape:cx="288"
     inkscape:cy="432"
     inkscape:window-x="-8"
     inkscape:window-y="-8"
     inkscape:window-maximized="1"
     inkscape:current-layer="g432" /><g
     id="g432"
     inkscape:groupmode="layer"
     inkscape:label="the_discordia_totalis"
     transform="matrix(1.3333333,0,0,-1.3333333,0,864)"><g
       id="g434"><text
         transform="matrix(1,0,0,-1,63.5581,530.428)"
         style="font-variant:normal;font-weight:normal;font-size:6.35290003px;font-family:AkbarPlain;-inkscape-font-specification:AkbarPlain;writing-mode:lr-tb;fill:#000000;fill-opacity:1;fill-rule:nonzero;stroke:none"
         id="text440"><tspan
           x="0 3.6306825 7.1038127 9.6545019 11.602937 15.919732 17.511133 20.899136 23.101686 25.304235 26.744438 29.878325 33.266327 34.857727 36.80616 41.637543 44.771427 47.322117 49.872807 53.319256 55.521805 57.470238 62.128822 64.669983 67.803864 70.345024 72.293457 76.286255 80.005882 83.733131 85.681564 87.121765 91.103127 95.423096 97.032288 100.42156 102.97225 106.96505 110.09893 112.64962"
           y="0"
           sodipodi:role="line"
           id="tspan436">The Classical Greeks were not influenced</tspan><tspan
           x="0 3.9127512 7.1965652 9.1449995 12.872246 16.345377 18.898607 20.847042 25.166378 26.760321 30.148323 32.350872 34.553425 35.993626 39.12751 42.515514 44.109455 46.057888 50.891811 54.025696 56.578926 59.132156 62.581146"
           y="9.3177986"
           sodipodi:role="line"
           id="tspan438">by the Classical Greeks</tspan></text>
<text
         transform="matrix(1,0,0,-1,122.3442,445.1292)"
         style="font-variant:normal;font-weight:normal;font-size:9.91059971px;font-family:'Times New Roman';-inkscape-font-specification:TimesNewRomanPSMT;writing-mode:lr-tb;fill:#000000;fill-opacity:1;fill-rule:nonzero;stroke:none"
         id="text476"><tspan
           x="0 9.2346973 16.432766 23.563442 29.594042 32.13512 41.369816 47.469791 49.926628 57.057308 64.187981 71.386055 80.716881 83.173721 90.304398 96.889992 104.02067 111.21873 117.24934 119.70618 125.73677 132.32237 135.59782 141.08334 143.54018 146.81563 151.81354 156.81146 159.60823 162.06506 169.60605 174.60396 178.97949 183.9774"
           y="0"
           sodipodi:role="line"
           id="tspan442">WHAT WE KNOW ABOUT ERIS (not much)</tspan><tspan
           x="-58.785713 -52.769981 -47.772064 -43.347973 -40.891136 -34.256981 -29.277895 -21.736919 -17.312828 -12.333742 -8.4547329 -5.9978952 -3.2853639 1.1208888 4.4449043 7.2238364 9.6806746 14.104766 16.476372 19.255304 21.967836 26.946922 31.268934 36.24802 40.570034 44.449039 48.328049 50.699657 55.678741 59.002758 61.459595 68.573425 72.979675 76.303688 78.760529 81.979492 86.977409 90.301422 92.758263 97.670944 102.66886 106.47948 109.27626 113.70035 116.91931 119.63184 122.42861 127.25706 129.7139 133.03792 136.36192 138.81877 144.35284 149.33192 153.75603 156.21286 163.32669 167.73294 171.61195 174.06879 177.87941 182.85851 187.83759 194.86618 199.84526 202.30211 206.7262 210.60521 213.06204"
           y="34.05183"
           sodipodi:role="line"
           id="tspan444">The Romans left a likeness of Her for posterity -- She was shown as a</tspan><tspan
           x="-58.785713 -53.800682 -50.470722 -45.558037 -42.773159 -38.451145 -34.640522 -29.655489 -24.670456 -20.240417 -17.783581 -10.754983 -5.7570677 1.783908 6.1901608 11.175193 13.63203 20.745859 23.530737 26.315617 31.300648 33.757484 38.187523 40.559132 45.544163 49.974201 52.686733 57.116772 59.573608 64.003647 68.916328 73.90136 76.272972 81.258003 86.243034 90.565048 94.375671 97.160553 99.945427 104.77387 107.23071 110.01559 114.92828 119.91331 124.89834 127.35517 129.81201 136.92584 141.33209 144.66205 147.03366 152.01869 156.44873 159.77869 167.31967 171.74971 176.73474 179.51962 181.97646 184.68898 188.58385 191.0407 194.37065 197.15553 202.06822 206.9809 211.38715 216.37218 218.82903 223.15103 228.06372"
           y="45.402439"
           sodipodi:role="line"
           id="tspan446">grotesque woman with a pale and ghastly look, Her garment is ripped and</tspan><tspan
           x="-58.785713 -55.99588 -51.005894 -47.78693 -42.796944 -40.340107 -37.88327 -33.562248 -28.57226 -23.582273 -21.125435 -16.803423 -12.908557 -10.451718 -6.1297059 -1.139719 3.8502681 8.1712894 12.606283 17.041277 19.753807 22.466339 27.456326 32.446312 34.903152 39.338146 41.709751 46.699738 51.021751 56.011738 60.924423 65.359413 68.694336 71.151169 73.863701 78.861618 81.318459 88.432281 92.838539 96.173454 98.630295 105.15246 110.15038 114.04028 119.03027 126.57124 129.02808 131.48492 138.59875 143.005 145.79483 150.78482 155.10585 157.89568 160.68552 165.51396 167.97079 170.51187 178.05284 183.05077 186.94067 189.73051 192.18735 199.30118 204.29909 211.84007 216.24632 221.23631 223.69315 226.48297 231.39566 236.38565"
           y="56.753052"
           sodipodi:role="line"
           id="tspan448">torn, and as concealing a dagger in Her Bosom. Actually, most women look</tspan><tspan
           x="-58.785713 -53.807621 -49.384521 -46.671989 -42.248886 -39.792049 -35.36895 -30.456264 -25.47817 -23.106564 -18.128469 -13.150375 -8.8283625 -5.0177369 -2.2397957 0.5381456 5.36659 7.8234277 14.937256 19.935171 24.358273 29.336367 31.793205 36.114227 41.112141 46.024826 50.447926 54.871029 59.193039 61.970982 64.68351 69.661606 74.639702 77.096542 81.519638 83.891251 88.314346 93.227036 96.004974 98.717506 101.49545 106.32389 108.78073 113.75882 118.18192 123.0946 128.07271 132.4958 135.81883 138.27567 140.98819 145.98611 148.44295 151.15549 156.1534 160.4754 163.27219 166.5952 168.96681 173.9449 178.85759 182.66821 187.66614 195.20612 199.10098"
           y="68.103661"
           sodipodi:role="line"
           id="tspan450">pale and ghastly when concealing a chilly dagger in their bosoms.</tspan><tspan
           x="-58.785713 -51.671886 -47.265633 -43.945583 -41.488747 -36.513622 -32.093494 -27.180811 -22.760683 -17.848 -15.135468 -10.160347 -5.185226 -0.3567816 2.1000562 4.8750243 8.7500687 11.206906 14.526958 17.74592 22.721041 30.262016 32.718853 35.493824 40.468945 44.889072 47.345909 54.45974 57.762939 62.183067 66.603195 71.515884 75.390923 77.847763 82.267891 87.180573 92.155693 94.612534 97.325066 101.21993 103.59154 108.56666 111.27919 114.05416 118.47429 121.69324 124.46822 129.29666 131.75349 136.17363 141.14874 146.12387 149.44392 154.3566 158.23164 162.55267 167.52779 170.02527 172.4821 178.49783 181.2946 184.00714 189.00505 193.32608 196.62927 199.08612 204.61623 209.59135 214.01147 216.46832 223.58214 227.90416"
           y="90.889122"
           sodipodi:role="line"
           id="tspan452">Her geneology is from the Greeks and is utterly confused. Either She was</tspan><tspan
           x="-58.785713 -56.025612 -51.065357 -46.660095 -44.28849 -41.528389 -34.367977 -31.607876 -26.647621 -24.190784 -19.230528 -15.925344 -13.468506 -6.3080969 -3.089134 -0.32903191 3.9919896 7.8521686 10.309006 14.714268 19.674522 24.634779 27.091616 29.851719 34.811974 39.217236 41.58884 46.549099 50.871109 55.831364 60.791622 65.751877 68.511978 72.917236 76.222427 78.67926 83.639519 86.944702 89.401543 95.461876 99.867134 104.82739 108.68757 111.14441 115.54967 120.50993 125.47018 127.92702 135.08742 139.49269 142.79787 147.11989 149.87999 152.33682 157.29707 160.60226 163.0591 168.4792 173.47713 177.88239 180.33922 187.49963 191.82164 195.68182 198.13866 200.89876 205.85902"
           y="102.24072"
           sodipodi:role="line"
           id="tspan454">the twin of Aries and the daughter of Zeus and Hera; or She was the</tspan><tspan
           x="-58.785713 -53.807621 -49.485607 -44.507515 -39.59483 -34.616734 -31.904203 -27.481102 -24.158079 -21.701241 -16.723146 -13.400123 -10.943285 -3.8294559 0.99898851 5.9770827 8.4775276 10.934365 15.912459 20.825144 25.803238 30.715923 35.139023 38.94965 42.827667 45.199272 50.177368 53.500393 55.95723 60.869915 63.666687 68.579369 73.492058 76.288826 78.745667 82.068687 89.182518 94.0952 99.093117 101.54996 108.66378 113.07004 116.94805 119.40489 123.72691 126.52367 129.23621 134.23412 138.65723 141.98024 144.35185 147.12979 152.04248 156.46558 158.92242 163.90051 168.22252 173.13521 178.13312 183.04581 185.84258 190.26569 193.5887 195.96031 200.9384 204.26143 206.71826 213.83209 216.62886 219.95189 224.375 226.7466 231.7247"
           y="113.59232"
           sodipodi:role="line"
           id="tspan456">daughter of Nyx, goddess of night (who was either the daughter or wife of</tspan><tspan
           x="-58.785713 -52.155525 -47.180401 -42.858391 -37.88327 -34.008224 -31.510754 -29.139147 -24.164024 -20.843973 -18.387136 -13.474452 -8.5617676 -5.7649961 -0.78987479 2.5301762 5.0276475 7.4844851 11.806498 16.719183 21.694304 24.15114 31.264969 36.093414 41.068535 44.287498 48.162544 50.619381 55.594501 58.914555 63.889675 66.602203 71.577324 75.997452 79.317505 81.81498 84.271812 90.287552 93.590752 98.01088 102.92356 107.83625 111.73111 114.22858 116.68542 121.10555 126.01823 130.99336 133.4502 140.56403 145.4767 150.45183 154.26245 158.68259 161.13942 166.11453 169.3335 174.24619 177.04295 182.01808 186.34009 189.66014 193.53519 195.99202 200.41216 205.32484 210.29996 212.67157 216.48219 219.27896 223.08958 225.88635 230.30649 233.52545"
           y="124.94393"
           sodipodi:role="line"
           id="tspan458">Chaos, or both), and Nyx’s brother, Erebus, and whose brothers and sisters</tspan><tspan
           x="-58.785713 -56.001827 -51.017788 -46.696766 -43.984234 -38.999203 -34.086517 -29.656479 -27.199642 -20.085814 -15.656766 -11.227718 -8.5151873 -3.5311468 -1.074309 1.3825287 8.496357 13.409041 18.393082 25.934057 28.440449 30.897287 39.736549 44.720592 49.149639 54.133678 58.455692 61.784664 66.613106 69.069946 71.526779 80.366043 83.149933 87.033897 91.462944 94.791916 99.620361 102.07719 106.50625 111.49029 116.47433 118.93117 124.4702 127.79917 130.5117 134.94075 139.85344 144.76611 148.66098 153.57367 156.37044 161.35448 163.81131 166.26816 173.29675 178.28079 183.26483 185.63644 188.42033 193.40437 197.72638 200.51027 202.88188 206.76584 211.74988 216.17892 218.55054 223.53458 227.85658 232.84062 237.16264"
           y="136.29553"
           sodipodi:role="line"
           id="tspan460">include Death, Doom, Mockery, Misery and Friendship. And that she begat</tspan><tspan
           x="-58.785713 -53.244698 -48.258675 -45.039711 -40.053688 -35.622662 -32.91013 -29.580168 -24.667484 -21.882605 -19.170074 -14.185041 -9.8640203 -5.9780741 -2.0921276 0.36471009 2.8215477 9.9353762 14.848061 19.279091 22.610043 25.940996 30.263008 33.048878 36.934826 39.391663 41.848499 47.864235 50.576763 55.007793 58.893742 61.350578 63.807415 68.128441 73.114464 78.100487 80.55732 84.98835 87.359955 92.272644 97.258667 102.24469 106.56571 111.55173 114.00857 118.92126 122.22446 124.6813 129.59398 134.50667 139.50458 143.39052 145.84737 150.16838 155.08107 160.06709 162.52393 167.43661 172.43452 177.34721 182.34512 186.66714 190.56201 194.37263 198.77888 202.66483 205.03644 207.82231 210.53484 215.52086 219.95189 222.3235 225.10938 230.0954 234.4174 237.20328"
           y="147.73038"
           sodipodi:role="line"
           id="tspan462">Forgetfullness, Quarrels, Lies, and a bunch of gods and goddesses like that.</tspan><tspan
           x="-58.785713 -51.671886 -46.673969 -42.25087 -39.794033 -34.815937 -30.392838 -25.564392 -23.107555 -14.274238 -9.8511362 -7.0731955 -3.8542323 1.123862 3.5806997 8.0038004 12.916485 17.82917 21.724035 26.702129 29.414661 32.127193 36.533443 41.511539 43.883144 48.86124 51.573772 55.45179 57.908627 63.328735 66.125504 71.1036 75.424622 79.847725 82.625664 85.082504 92.196327 94.908859 99.331963 104.24464 109.15733 114.15524 116.61208 121.03519 125.94787 130.92596 133.3828 137.70482 141.59969 146.57777 150.89978 155.87788 158.33472 164.35045 167.65366 170.36618 174.26105 176.7179 179.43042 182.73363 185.19046 190.72356 195.70164 200.12474 202.58159 205.80055 210.22365 214.64674 217.35928 220.13722"
           y="170.43159"
           sodipodi:role="line"
           id="tspan464">One day Mal-2 consulted his Pineal Gland* and asked Eris if She really</tspan><tspan
           x="-58.785713 -54.376488 -51.067341 -46.658115 -42.248886 -39.484821 -35.075596 -30.111376 -27.654539 -23.333517 -20.56945 -17.805384 -15.433778 -10.469558 -7.1604085 -4.7888021 -2.0247357 2.9394839 7.9037037 11.714329 16.123554 18.580393 21.34446 25.753685 28.972649 32.281796 35.045864 40.010082 42.774151 47.183376 49.640213 52.404278 57.3685 60.132565 65.096786 70.061005 73.925148 76.41172 78.868553 84.288658 89.286575 93.695801 96.152641 98.91671 103.88093 106.645 111.60921 114.06605 119.03027 121.79433 129.33531 131.79214 134.55621 139.52043 143.92966 146.69373 149.15056 154.57068 159.56859 163.97781 166.34943 171.31364 175.63565 180.59987 183.05672 187.46594 190.23 197.39438 201.8036 206.63205 210.49619 212.95303 215.71709 218.48116 223.44537 227.7674"
           y="181.78221"
           sodipodi:role="line"
           id="tspan466">created all of those terrible things. She told him that She had always liked</tspan><tspan
           x="-58.785713 -55.999844 -51.013821 -46.582794 -44.125954 -37.097359 -34.300587 -29.314564 -26.857725 -19.743896 -16.440695 -12.009665 -7.6876526 -2.7749679 1.1198978 3.5767355 6.0335732 10.946258 15.944173 18.730043 21.10165 23.88752 28.800203 33.231232 36.017101 38.38871 41.17458 46.160603 50.591629 55.420074 57.876911 62.307941 66.738968 71.651657 76.63768 81.550362 84.336235 86.793068 91.705757 96.112007 98.568848 101.35471 104.57368 109.5597 113.44565 116.15818 120.4792 125.46523 127.92206 135.03589 137.74841 140.53429 145.52031 147.89192 152.87794 155.59047 159.40109 162.19788 167.1839 170.40286 173.18872 177.61975 180.0766 187.61757 192.02382 194.80969 197.59557 202.0266 205.24556 209.1315 211.58833 214.04518 218.11942 224.13516 229.12119 233.55222"
           y="193.13281"
           sodipodi:role="line"
           id="tspan468">the Old Greeks, but that they cannot be trusted with historic matters. &quot;They</tspan><tspan
           x="-58.785713 -51.672878 -47.267616 -43.937653 -39.507614 -37.051769 -32.978512 -30.522665 -24.982641 -19.997608 -15.567571 -13.111724 -8.7916937 -3.8799999 1.1050318 5.4250627 10.410094 12.865941 15.321788 19.395044 24.306738 27.091616 31.412638 34.197517 36.982395 44.522381 48.407333 50.863182 55.848213 59.178173 61.634022 64.345558 69.342484 74.254181 76.965721 81.962646 86.283669 90.177544 92.889084 95.68486 100.59656 105.59348 108.04932 110.50517 115.33263 120.31766 125.30269 127.75854 132.67023 137.65526 142.64029 149.75313 152.20898"
           y="204.48343"
           sodipodi:role="line"
           id="tspan470">were,&quot; She added, &quot;victims of indigestion, you know.&quot;</tspan><tspan
           x="-58.785713 -53.252628 -48.274532 -44.951508 -41.732544 -38.954605 -34.531502 -30.108402 -27.651566 -24.939034 -22.142263 -19.685425 -16.972893 -11.974978 -9.6033716 -5.7253537 -1.3022529 3.5261915 5.9830294 8.7609701 13.739065 18.162165 20.940107 23.396944 29.412678 32.631641 35.409584 39.287601 41.659206 44.437149 48.315166 50.686771 55.664867 60.577553 63.355492 65.812332 70.725014 75.131264 77.90921 82.231224 85.554245 90.466927 93.244873 95.701706 100.6798 104.00283 106.45966 114.00064 118.40689 121.18484 123.96278 128.28479 131.06273 135.97542 140.88809 144.78296 147.2834 149.74025 156.37341 161.2861 164.06404 166.52087 172.05396 176.96664 181.38974 183.84659 186.55911 190.45398 192.91083 200.45081 203.24757 207.1256 211.54869 216.52679 219.23932 223.66241 228.5751 233.55319 238.46588 242.3439"
           y="227.26889"
           sodipodi:role="line"
           id="tspan472">Suffice it to say that Eris is not hateful or malicious. But She is mischievous,</tspan><tspan
           x="-58.785713 -54.412167 -49.483627 -44.48571 -42.028873 -37.10033 -32.102417 -27.728868 -23.834002 -21.377165 -16.37925 -12.058227 -9.2614555 -6.8046179 -2.4310701 0.025767559 2.7541556 5.5509272 8.279315 11.007704 13.804475 18.178022 20.634861 25.632776 28.361164 31.089552 35.4631 40.461014 45.289459 47.746296 52.119846 54.916618 57.373455 60.101841 62.898613 70.43959 74.84584 78.740707"
           y="238.61951"
           sodipodi:role="line"
           id="tspan474">and does get a little bitchy at times.</tspan></text>
<text
         transform="matrix(1,0,0,-1,63.558485,183.80848)"
         style="font-style:italic;font-variant:normal;font-size:9.91059971px;font-family:'Times New Roman';-inkscape-font-specification:TimesNewRomanPS-ItalicMT;writing-mode:lr-tb;fill:#000000;fill-opacity:1;fill-rule:nonzero;stroke:none"
         id="text486"><tspan
           x="0 4.9552999 10.465593 17.621046 23.676424 26.133261 32.188637 35.488869 42.099239 48.154613 54.209991 59.720284 62.177124 69.332573 74.842873 80.898247 87.508614 94.66407 97.120903 99.876053 103.73128 106.18812 112.79848 117.75378 122.0758 125.93102 130.33133 132.78816 137.18848 142.14377 146.54408 151.49937 153.87099 158.82628 163.78159 168.73688 171.19373 175.59402 179.91605 184.31635 188.17157 192.57188 194.94348 199.89879 204.85408 209.25439 211.71123 216.66653 219.42168 221.87851 226.83382 230.68904 233.14587 237.46788 242.42319 247.37848 249.75009 252.50523 257.46054 260.2157 264.616 266.98761 269.74274 274.69806 277.15488 283.21027 287.06549 289.82062 293.67584 296.1535 298.61035 301.91058"
           y="0"
           sodipodi:role="line"
           id="tspan478">*THE PINEAL GLAND is where each and every one of us can talk to Eris. If</tspan><tspan
           x="0 4.3646283 9.2842503 14.282166 16.739004 21.658625 26.65654 31.02117 35.385796 37.757404 40.554176 44.364799 49.362717 54.282337 59.201962 61.99873 66.363358 68.820198 73.739822 78.104446 80.823914 83.620689 87.985313 92.983231 95.702698 98.499474 103.41909 108.41701 110.87385 115.23847 120.1581 125.15601 129.05087 131.50772 137.52742 140.24689 145.2448 149.60942 154.60735 157.40411 159.84708 162.21869 165.01546 170.01337 174.37799 179.37592 181.74751 184.5443 188.43916 192.80379 195.1754 197.97217 202.88484 207.24948 209.70631 214.62593 219.62386 224.54347 228.9081 233.82773 238.74734 241.54411 245.90874 248.36559 254.94028 259.9382 262.73495 267.05698 272.0549 274.51172 279.43134 284.42926 288.79388"
           y="11.35061"
           sodipodi:role="line"
           id="tspan480">you have trouble activating your Pineal, then try the appendix which does</tspan><tspan
           x="0 4.9979157 7.7946868 14.823284 19.821199 23.6457 26.442472 28.899309 33.823887 37.718754 40.175591 46.755238 51.124821 53.921593 56.718365 59.175201 61.632038 67.656693 72.026276 74.750702 79.120285 83.015152 87.384735 92.382652 96.752235 101.12182 104.39132 106.84816 113.97289 121.09762 128.22235 136.44716 142.47182 144.92865 148.19815 150.64508 153.10193 161.32674 167.35138 172.83095 178.93092 184.95558 192.08031 197.66989 202.6678 205.93732 212.51695 217.51488 219.97171 224.89629 229.89421 232.34114 234.79797 238.9297 244.40927 249.40718 253.77676 256.23361 259.50311 264.4277 269.35226 274.27686 278.64642 281.37085 285.26572 287.99014 292.98807"
           y="22.70122"
           sodipodi:role="line"
           id="tspan482">almost as well. Reference: DOGMA I, METAPHYSICS #3, &quot;The Indoctrine</tspan><tspan
           x="0 4.9909782 7.7818031 10.238641 15.658748 20.656664 25.092648 27.549486 33.56522 36.277752 41.26873 45.589752 50.58073 53.371555 55.828392 62.942219 65.654755 70.567436 75.558411 80.549393 83.006233"
           y="34.13607"
           sodipodi:role="line"
           id="tspan484">of The Pineal Gland.&quot;</tspan></text>
<text
         transform="matrix(1,0,0,-1,333.0923,118.4188)"
         style="font-variant:normal;font-weight:normal;font-size:14.14589977px;font-family:TTE264C6E9t00;-inkscape-font-specification:TTE264C6E9t00;writing-mode:lr-tb;fill:#000000;fill-opacity:1;fill-rule:nonzero;stroke:none"
         id="text490"><tspan
           x="0 6.8565178 13.713036 20.569553 28.189949"
           y="0"
           sodipodi:role="line"
           id="tspan488">00015</tspan></text>
<text
         transform="matrix(1,0,0,-1,231.0218,109.7789)"
         style="font-variant:normal;font-weight:normal;font-size:5.67530012px;font-family:Arial;-inkscape-font-specification:ArialMT;writing-mode:lr-tb;fill:#000000;fill-opacity:1;fill-rule:nonzero;stroke:none"
         id="text496"><tspan
           x="0 4.0652175 5.6753001 9.7405176 13.805735 15.415817 18.889669 20.41519 24.227287 28.03882 32.018906 33.629559 37.103409 38.71349 42.693581 46.50568 49.894966 51.505051 56.163902 60.229122 63.702972 67.515068 70.988922 72.514442 76.897476 80.962692 84.774223 88.839447 92.904663 96.716759 100.10605 103.91758 105.52823 109.59344 113.91462 117.38847 121.45369 125.51891 129.58412 133.64934"
           y="0"
           sodipodi:role="line"
           id="tspan492">DIRUIT AEDIFICAT MUTAT QUADRATA ROTUNDUS</tspan><tspan
           x="106.55943 108.4232 119.26643 123.33789 126.46725 128.33102 131.46037 134.34059"
           y="6.5226221"
           sodipodi:role="line"
           id="tspan494">- Horace</tspan></text>
<path
         d="m 249.064,492.31 h 116.894 v 50.824 H 249.064 Z"
         style="fill:#ffffff;fill-opacity:1;fill-rule:evenodd;stroke:#000000;stroke-width:2.11800003;stroke-linecap:round;stroke-linejoin:miter;stroke-miterlimit:10;stroke-dasharray:none;stroke-opacity:1"
         id="path498"
         inkscape:connector-curvature="0" /><text
         transform="matrix(1,0,0,-1,270.97875,522.5504)"
         style="font-variant:normal;font-weight:900;font-size:15.50119972px;font-family:Arial;-inkscape-font-specification:Arial-Black;writing-mode:lr-tb;fill:#000000;fill-opacity:1;fill-rule:nonzero;stroke:none"
         id="text512"><tspan
           x="0 12.103337 24.978634 30.222691 43.178593 56.134495"
           y="0"
           sodipodi:role="line"
           id="tspan500">DO NOT</tspan><tspan
           x="-15.730618 -0.16896307 11.934374 24.809671 30.053726 43.009628 55.965534 -15.561655 0 12.103337 24.978634 30.222691 43.178593 56.134495"
           y="0.16896307"
           sodipodi:role="line"
           id="tspan502"> DO NOT DO NOT</tspan><tspan
           x="-15.730618 -0.16896307 11.934374 24.809671 30.053726 43.009628 55.965534"
           y="0"
           sodipodi:role="line"
           id="tspan504"> DO NOT</tspan><tspan
           x="-15.561655 -3.4691687 2.5933506 14.685837 26.778322 39.723373 50.095226 62.187714 73.412132"
           y="21.853592"
           sodipodi:role="line"
           id="tspan506">CIRCULATE</tspan><tspan
           x="-15.730618 -3.6381316 2.4243877 14.516873 26.60936 39.554413 49.926266 62.018749 73.243172 -15.561655 -3.4691687 2.5933506 14.685837 26.778322 39.723373 50.095226 62.187714 73.412132"
           y="22.022554"
           sodipodi:role="line"
           id="tspan508">CIRCULATECIRCULATE</tspan><tspan
           x="-15.730618 -3.6381316 2.4243877 14.516873 26.60936 39.554413 49.926266 62.018749 73.243172"
           y="21.853592"
           sodipodi:role="line"
           id="tspan510">CIRCULATE</tspan></text>
</g></g></svg>