<?xml version="1.0" encoding="UTF-8" standalone="no"?>
<!-- Created with Inkscape (http://www.inkscape.org/) -->

<svg
   xmlns:dc="http://purl.org/dc/elements/1.1/"
   xmlns:cc="http://creativecommons.org/ns#"
   xmlns:rdf="http://www.w3.org/1999/02/22-rdf-syntax-ns#"
   xmlns:svg="http://www.w3.org/2000/svg"
   xmlns="http://www.w3.org/2000/svg"
   xmlns:sodipodi="http://sodipodi.sourceforge.net/DTD/sodipodi-0.dtd"
   xmlns:inkscape="http://www.inkscape.org/namespaces/inkscape"
   version="1.1"
   width="628.50012"
   height="705.47229"
   id="svg7743"
   inkscape:version="0.92.3 (2405546, 2018-03-11)"
   sodipodi:docname="floss.svg"
   inkscape:export-filename="/home/doctormo/Desktop/floss.png"
   inkscape:export-xdpi="89.990906"
   inkscape:export-ydpi="89.990906">
  <metadata
     id="metadata12">
    <rdf:RDF>
      <cc:Work
         rdf:about="">
        <dc:format>image/svg+xml</dc:format>
        <dc:type
           rdf:resource="http://purl.org/dc/dcmitype/StillImage" />
        <dc:title />
      </cc:Work>
    </rdf:RDF>
  </metadata>
  <sodipodi:namedview
     pagecolor="#ffffff"
     bordercolor="#666666"
     borderopacity="1"
     objecttolerance="10"
     gridtolerance="10"
     guidetolerance="10"
     inkscape:pageopacity="0"
     inkscape:pageshadow="2"
     inkscape:window-width="1366"
     inkscape:window-height="705"
     id="namedview10"
     showgrid="false"
     inkscape:zoom="0.4576028"
     inkscape:cx="-54.698312"
     inkscape:cy="350.5585"
     inkscape:window-x="-8"
     inkscape:window-y="-8"
     inkscape:window-maximized="1"
     inkscape:current-layer="svg7743"
     showguides="true"
     inkscape:guide-bbox="true"
     fit-margin-top="0"
     fit-margin-left="0"
     fit-margin-right="0"
     fit-margin-bottom="0" />
  <defs
     id="defs7745" />
  <path
     inkscape:connector-curvature="0"
     style="fill:#3c4a88;fill-opacity:1;stroke:#343672;stroke-width:10;stroke-linecap:butt;stroke-linejoin:miter;stroke-miterlimit:4;stroke-opacity:1;stroke-dasharray:none"
     id="path9525"
     d="m 501.22445,35.577169 c -18.80467,-5.407954 -41.12741,-0.895514 -55.5625,7.625 -16.69388,9.853792 -31.56213,10.158379 -45.46875,4.03125 1.87012,9.922261 7.9555,17.351113 23.25,19.21875 22.2756,-0.298959 50.00019,-5.262887 65.65625,9.09375 20.00394,18.343651 22.61691,46.006461 11.125,73.718751 -16.4151,39.58436 -40.75206,19.92209 -56.59375,4.0625 -24.98119,-25.00944 -43.51279,-59.65134 -77.78125,-56.593753 -20.38399,1.81875 -34.48011,8.163293 -45.375,16.468753 -13.4869,-13.02039 -30.66983,-21.95503 -56.625,-18.53125 -31.25768,4.123237 -50.18533,28.38911 -68.71875,52.53125 -20.16762,26.2709 -49.21501,50.67167 -68.6875,21.21875 -28.696298,-43.4043 3.8343,-70.303693 17.1875,-82.84375 21.51766,-20.207339 50.56124,-25.862917 90.90625,-13.125001 22.48927,7.100416 25.40229,-11.014229 34.34375,-17.15625 -41.4956,4.520193 -37.62155,-23.267361 -91.90625,-20.21875 -53.34841,2.99603 -88.016548,24.78239 -107.093748,64.656248 -20.6015,43.059853 -14.26764,83.443113 12.125,119.187503 11.98268,16.22853 28.856258,27.26368 49.281248,31.3125 -7.74923,21.09638 -12,43.90147 -12,67.6875 0,84.10004 52.9023,155.82316 127.21875,183.71875 2.86296,-71.05814 42.91964,-44.35422 45.1875,-120.5625 -25.54588,-9.58785 -43.75,-34.24704 -43.75,-63.15625 0,-37.24544 30.18355,-67.4375 67.40625,-67.4375 37.22391,0 67.40625,30.19206 67.40625,67.4375 0,28.90921 -18.17311,53.5684 -43.71875,63.15625 1.7185,78.10383 40.81822,36.71169 45.15625,120.5625 74.31525,-27.89559 127.21875,-99.61871 127.21875,-183.71875 0,-32.82599 -8.06899,-63.74959 -22.3125,-90.9375 16.52596,-1.00037 32.20472,-8.29742 46.46875,-24.1875 21.82284,-24.31056 29.18448,-53.85672 22.21875,-88.875 -7.5779,-38.095812 -24.18869,-69.033503 -56.5625,-78.343751 z"
     sodipodi:nodetypes="ssccsssscssssscssscsccsssccscsss" />
  <text
     style="color:#000000;font-style:normal;font-variant:normal;font-weight:normal;font-stretch:normal;font-size:170.89004517px;line-height:0%;font-family:FreeSans;-inkscape-font-specification:FreeSans;text-align:center;text-anchor:middle;clip-rule:nonzero;display:inline;overflow:visible;visibility:visible;color-interpolation:sRGB;color-interpolation-filters:linearRGB;fill:#3c4a88;fill-opacity:1;fill-rule:nonzero;stroke:#343672;stroke-width:4;stroke-linecap:butt;stroke-linejoin:miter;stroke-miterlimit:4;stroke-dasharray:none;stroke-dashoffset:0;stroke-opacity:1;marker:none;color-rendering:auto;image-rendering:auto;shape-rendering:auto;text-rendering:auto;enable-background:accumulate"
     xml:space="preserve"
     id="text9528"
     y="665.45947"
     x="307.05862"><tspan
       style="color:#000000;font-style:normal;font-variant:normal;font-weight:bold;font-stretch:normal;font-family:Ubuntu;-inkscape-font-specification:'Ubuntu Bold';clip-rule:nonzero;display:inline;overflow:visible;visibility:visible;color-interpolation:sRGB;color-interpolation-filters:linearRGB;fill:#3c4a88;fill-opacity:1;fill-rule:nonzero;stroke:#343672;stroke-width:4;stroke-linecap:butt;stroke-linejoin:miter;stroke-miterlimit:4;stroke-dasharray:none;stroke-dashoffset:0;stroke-opacity:1;marker:none;color-rendering:auto;image-rendering:auto;shape-rendering:auto;text-rendering:auto;enable-background:accumulate"
       id="tspan9530"
       y="665.45947"
       x="307.05862">FLOSS</tspan></text>
</svg>
