<?xml version="1.0" encoding="UTF-8" standalone="no"?>
<!-- Created with Inkscape (http://www.inkscape.org/) -->

<svg
   xmlns:dc="http://purl.org/dc/elements/1.1/"
   xmlns:cc="http://creativecommons.org/ns#"
   xmlns:rdf="http://www.w3.org/1999/02/22-rdf-syntax-ns#"
   xmlns:svg="http://www.w3.org/2000/svg"
   xmlns="http://www.w3.org/2000/svg"
   xmlns:sodipodi="http://sodipodi.sourceforge.net/DTD/sodipodi-0.dtd"
   xmlns:inkscape="http://www.inkscape.org/namespaces/inkscape"
   width="499.51352"
   height="499.96274"
   id="svg2"
   version="1.1"
   inkscape:version="0.48.4 r9939"
   sodipodi:docname="growth.svg">
  <defs
     id="defs4" />
  <sodipodi:namedview
     id="base"
     pagecolor="#ffffff"
     bordercolor="#666666"
     borderopacity="1.0"
     inkscape:pageopacity="0.0"
     inkscape:pageshadow="2"
     inkscape:zoom="0.70710678"
     inkscape:cx="921.02913"
     inkscape:cy="108.00244"
     inkscape:document-units="px"
     inkscape:current-layer="g3767"
     showgrid="true"
     inkscape:window-width="1918"
     inkscape:window-height="1030"
     inkscape:window-x="0"
     inkscape:window-y="0"
     inkscape:window-maximized="1"
     showguides="false"
     fit-margin-top="0"
     fit-margin-left="0"
     fit-margin-right="0"
     fit-margin-bottom="0"
     inkscape:snap-global="false">
    <inkscape:grid
       type="xygrid"
       id="grid3148"
       empspacing="5"
       visible="true"
       enabled="true"
       snapvisiblegridlinesonly="true"
       originx="68.339949px"
       originy="-268.99567px" />
  </sodipodi:namedview>
  <metadata
     id="metadata7">
    <rdf:RDF>
      <cc:Work
         rdf:about="">
        <dc:format>image/svg+xml</dc:format>
        <dc:type
           rdf:resource="http://purl.org/dc/dcmitype/StillImage" />
        <dc:title></dc:title>
      </cc:Work>
    </rdf:RDF>
  </metadata>
  <g
     inkscape:label="Layer 1"
     inkscape:groupmode="layer"
     id="layer1"
     transform="translate(68.339949,-283.40378)">
    <g
       id="g3767">
      <path
         style="fill:#0b1200;fill-opacity:0"
         d="m 3845.2278,2267.8263 c -37.0027,-3.9459 -66.2537,-12.0436 -94.2278,-26.0855 l -7.7278,-3.8791 -49.5222,0 -49.5222,0 0,-49.525 0,-49.5249 -3.549,-7.0475 c -8.6764,-17.229 -17.0639,-41.2247 -21.2879,-60.9026 -1.1216,-5.225 -3.029,-18.275 -4.2386,-29 -2.0026,-17.7556 -2.0991,-21.023 -1.0787,-36.5256 2.4176,-36.7321 10.7568,-68.8118 25.539,-98.245 l 4.6152,-9.1894 0,-49.52 0,-49.52 49.3601,0 49.36,0 13.5066,-6.495 c 49.7401,-23.9188 108.7632,-30.2558 163.1799,-17.5197 18.4294,4.3134 39.351,11.8482 55.6423,20.0393 l 7.9067,3.9754 49.5222,0 49.5222,0 0,49.525 0,49.5249 3.3729,6.7251 c 15.6642,31.2324 25.2032,69.5936 27.1601,109.225 1.7459,35.3577 -8.756,81.6433 -26.5576,117.0489 l -3.9754,7.9067 0,49.5222 0,49.5222 -49.5285,0 -49.5285,0 -6.0541,3.0561 c -33.2494,16.7842 -70.3384,26.14 -108.3889,27.3413 -8.25,0.2605 -18.825,0.066 -23.5,-0.4328 z m 52.4188,-9.443 c 28.108,-4.4617 54.4561,-12.9021 73.7929,-23.6391 l 8.7931,-4.8825 46.9976,0 46.9976,0 0.019,-46.75 0.019,-46.75 5.0666,-9.5 c 15.9444,-29.8965 25.895,-70.3559 25.895,-105.2905 0,-38.5693 -9.2726,-78.8092 -25.5571,-110.9095 l -5.4429,-10.729 0,-46.5355 0,-46.5355 -46.1564,0 -46.1564,0 -10.085,-5.1042 c -36.4907,-18.4686 -84.3326,-28.6708 -120.9925,-25.8015 -35.9706,2.8153 -64.0177,10.0875 -92.3431,23.9433 l -14.2334,6.9624 -46.0166,0 -46.0166,0 0,45.8927 0,45.8928 -6.9504,14.3572 c -20.0935,41.5068 -27.5626,86.0773 -22.1804,132.3573 3.4393,29.5733 10.6822,54.6431 22.7498,78.744 l 6.381,12.7439 0,46.5061 0,46.506 46.4041,0 46.4041,0 8.8459,4.5726 c 27.1153,14.0165 55.1442,21.9769 90.8459,25.801 8.3428,0.8936 43.3373,-0.3311 52.9188,-1.852 z m -37.4188,-108.5216 0,-28 -5.25,-0.022 c -16.3462,-0.067 -39.639,-9.0812 -56.0003,-21.671 l -5.9554,-4.5826 -19.3906,19.3715 -19.3906,19.3714 -2.7404,-2.7404 -2.7404,-2.7404 19.3797,-19.3988 19.3797,-19.3988 -5.9074,-7.8446 c -10.7331,-14.253 -17.6612,-30.3934 -20.4095,-47.548 -1.7852,-11.1432 -0.7801,-33.104 1.9817,-43.2967 3.0613,-11.2982 10.6371,-26.5732 18.0257,-36.3447 l 6.3097,-8.3448 -19.8799,-19.8985 -19.8799,-19.8986 2.7406,-2.7406 2.7407,-2.7407 19.9219,19.9033 c 18.587,18.5696 20.0531,19.8082 21.8783,18.484 1.0759,-0.7807 4.8206,-3.5143 8.3213,-6.0748 12.6604,-9.2598 28.9935,-15.885 43.8651,-17.793 4.675,-0.5998 9.5125,-1.3153 10.75,-1.5901 l 2.25,-0.4996 0,-27.9809 0,-27.981 4,0 4,0 0,28.3564 0,28.3564 6.75,0.6274 c 18.9858,1.7647 39.5744,10.5969 55.3183,23.7308 l 4.5683,3.811 19.9002,-19.9188 19.9001,-19.9188 2.8091,2.6913 2.8091,2.6913 -20.0258,20.0437 -20.0258,20.0437 5.2509,6.9928 c 15.3177,20.3991 23.5088,49.1421 20.7549,72.8303 -2.2527,19.3767 -9.5956,38.1849 -20.5272,52.5782 l -5.6322,7.4157 19.5818,19.6003 19.5819,19.6002 -2.7409,2.7408 -2.7408,2.7409 -19.572,-19.5536 -19.5719,-19.5536 -4.444,3.8653 c -14.7431,12.8233 -36.5925,22.3788 -54.6641,23.9064 l -7.2799,0.6154 0,27.8532 0,27.8533 -4,0 -4,0 0,-28 z m 0,-78.2438 0,-43.2439 -30.5015,30.4892 c -16.7759,16.7691 -30.3884,30.8231 -30.25,31.2312 0.1383,0.408 2.9515,2.7921 6.2515,5.2981 12.0699,9.1655 30.8109,16.6146 46.3738,18.4324 3.6444,0.4257 6.9637,0.8331 7.3762,0.9054 0.4125,0.072 0.75,-19.3283 0.75,-43.1124 z m 22.7922,40.6585 c 14.9831,-3.0817 31.1883,-10.987 41.0479,-20.0243 l 4.6599,-4.2712 -30.25,-30.3075 -30.25,-30.3076 0,43.248 0,43.2479 3.5422,0 c 1.9482,0 7.0107,-0.7134 11.25,-1.5853 z m -56.5365,-61.1703 32.7444,-32.7557 -32.7801,-32.7688 -32.7802,-32.7689 -3.1186,3.2745 c -4.499,4.7238 -11.9374,16.6614 -15.2704,24.5069 -13.8202,32.5309 -7.9849,71.7418 14.8737,99.9454 1.4165,1.7478 2.8031,3.2103 3.0812,3.25 0.2781,0.04 15.2406,-14.6678 33.25,-32.6834 z m 113.0616,24.8966 c 9.8212,-13.3411 16.5049,-30.1563 18.6717,-46.975 2.1477,-16.67 -1.7061,-37.7035 -9.8845,-53.9478 -3.8919,-7.7304 -12.4443,-20.2182 -13.8467,-20.2182 -0.4104,0 -15.0364,14.2849 -32.5021,31.7442 l -31.7558,31.7442 31.7442,31.7558 c 17.4593,17.4657 32.0853,31.7558 32.5021,31.7558 0.4169,0 2.6988,-2.6365 5.0711,-5.859 z m -11.3465,-127.6348 c -0.057,-1.9704 -13.6163,-11.6188 -22.4708,-15.9896 -9.7152,-4.7958 -20.0445,-7.9208 -30.75,-9.3032 l -6.75,-0.8716 0,43.5728 0,43.5729 30,-29.9875 c 16.5,-16.4931 29.9869,-30.4403 29.9708,-30.9938 z m -68.2099,-26.0678 c -0.1435,-0.1374 -4.7609,0.4083 -10.2609,1.2127 -17.4521,2.5526 -34.4867,9.8167 -45.9021,19.5743 l -4.777,4.0833 30.3395,30.3522 30.3396,30.3521 0.2609,-42.6623 c 0.1434,-23.4643 0.1434,-42.7748 0,-42.9123 z"
         id="path3194"
         inkscape:connector-curvature="0" />
      <path
         style="fill:#000000"
         d="m 163.45208,782.81807 c -37.00273,-3.94589 -66.25366,-12.04356 -94.2278,-26.08552 l -7.72781,-3.87906 -49.52219,0 -49.5222,0 0,-49.52496 0,-49.52497 -3.54903,-7.04743 c -8.6764,-17.22903 -17.06386,-41.22476 -21.28788,-60.90264 -1.1216,-5.225 -3.02895,-18.275 -4.23857,-29 -2.00257,-17.75562 -2.09907,-21.02303 -1.07875,-36.52559 2.41759,-36.73211 10.7568,-68.81185 25.53904,-98.24506 l 4.61519,-9.18939 0,-49.51998 0,-49.51998 49.36005,0 49.36005,0 13.50657,-6.49498 c 49.7401,-23.9188 108.76322,-30.25578 163.17988,-17.51971 18.42943,4.31337 39.351,11.84815 55.64232,20.03926 l 7.90674,3.97543 49.52219,0 49.5222,0 0,49.52496 0,49.52497 3.37286,6.72503 c 15.66425,31.23245 25.20324,69.59368 27.16014,109.22504 1.74587,35.35766 -8.75603,81.64335 -26.55757,117.04887 l -3.97543,7.90674 0,49.52219 0,49.5222 -49.52852,0 -49.52851,0 -6.05403,3.05606 c -33.24943,16.78426 -70.33844,26.14005 -108.38894,27.34137 -8.25,0.26047 -18.825,0.0657 -23.5,-0.43285 z m 52.41884,-9.44301 c 28.10793,-4.46165 54.45603,-12.90211 73.79285,-23.63911 l 8.79307,-4.88246 46.99762,0 46.99762,0 0.0192,-46.75 0.0192,-46.75 5.06658,-9.5 c 15.94445,-29.89645 25.89502,-70.35594 25.89502,-105.29051 0,-38.56933 -9.27256,-78.80918 -25.55712,-110.90948 l -5.44288,-10.72906 0,-46.53547 0,-46.53548 -46.15643,0 -46.15642,0 -10.085,-5.10419 c -36.49069,-18.46856 -84.3326,-28.6708 -120.99249,-25.80152 -35.97055,2.81532 -64.01764,10.08754 -92.34308,23.94326 l -14.23342,6.96245 -46.01658,0 -46.01658,0 0,45.89274 0,45.89273 -6.95039,14.35727 c -20.09351,41.50674 -27.56262,86.07722 -22.18039,132.35726 3.43929,29.57327 10.68214,54.64308 22.74973,78.74396 l 6.38105,12.74396 0,46.50604 0,46.50604 46.4041,0 46.4041,0 8.8459,4.57263 c 27.11532,14.01648 55.14417,21.97689 90.8459,25.80094 8.34279,0.8936 43.33729,-0.3311 52.91884,-1.852 z m -37.41884,-108.52157 0,-28 -5.25,-0.0216 c -16.3462,-0.0674 -39.63899,-9.08122 -56.00035,-21.671 l -5.9554,-4.58258 -19.39057,19.37144 -19.39056,19.37144 -2.74039,-2.74039 -2.74039,-2.74039 19.37968,-19.39882 19.37969,-19.39882 -5.90737,-7.84462 C 89.10326,582.94519 82.17515,566.80484 79.42686,549.65017 77.64165,538.50701 78.6468,516.54618 81.40854,506.35353 84.46985,495.05531 92.04572,479.78029 99.43427,470.00877 l 6.30972,-8.34475 -19.8799,-19.89857 -19.87991,-19.89856 2.74063,-2.74063 2.74063,-2.74063 19.92197,19.90329 c 18.587,18.56957 20.05307,19.80819 21.87826,18.48395 1.07595,-0.78064 4.82056,-3.51428 8.32134,-6.07476 12.66041,-9.25985 28.99343,-15.88502 43.86507,-17.79301 4.675,-0.59979 9.5125,-1.31533 10.75,-1.5901 l 2.25,-0.49961 0,-27.98095 0,-27.98095 4,0 4,0 0,28.3564 0,28.3564 6.75,0.6274 c 18.98582,1.76468 39.57436,10.5969 55.31832,23.73083 l 4.56831,3.81098 19.90014,-19.91881 19.90013,-19.91881 2.8091,2.6913 2.80911,2.69129 -20.02582,20.0437 -20.02581,20.04371 5.2509,6.9928 c 15.31775,20.39915 23.50881,49.14212 20.75491,72.83035 -2.25266,19.37667 -9.59563,38.18486 -20.52723,52.57818 l -5.63218,7.41572 19.58184,19.60022 19.58185,19.60022 -2.74084,2.74085 -2.74085,2.74084 -19.57195,-19.55361 -19.57196,-19.5536 -4.44399,3.86532 c -14.74307,12.82334 -36.59246,22.3788 -54.66405,23.90641 l -7.27993,0.61538 0,27.85327 0,27.85326 -4,0 -4,0 0,-28 z m 0,-78.24385 0,-43.24385 -30.50154,30.48924 c -16.77584,16.76908 -30.38834,30.82308 -30.25,31.23112 0.13835,0.40803 2.95154,2.79218 6.25154,5.29811 12.06993,9.16555 30.8109,16.61462 46.37375,18.43241 3.64444,0.42568 6.96375,0.83311 7.37625,0.90539 0.4125,0.0723 0.75,-19.3283 0.75,-43.11242 z m 22.79216,40.65853 c 14.98314,-3.08168 31.18834,-10.98699 41.04796,-20.02426 l 4.65988,-4.27121 -30.25,-30.30754 -30.25,-30.30754 0,43.24794 0,43.24793 3.54216,0 c 1.94819,0 7.01069,-0.71339 11.25,-1.58532 z m -56.53644,-61.17032 32.74436,-32.75564 -32.78013,-32.76885 -32.78014,-32.76885 -3.11866,3.27449 c -4.499,4.72381 -11.93734,16.66135 -15.27039,24.50691 -13.82014,32.53087 -7.98485,71.74176 14.87369,99.94538 1.41655,1.74779 2.80311,3.21029 3.08123,3.25 0.27813,0.0397 15.24065,-14.66784 33.25004,-32.68344 z m 113.06154,24.89668 c 9.82119,-13.34114 16.50496,-30.15638 18.67177,-46.97503 2.14766,-16.67001 -1.70616,-37.70351 -9.88449,-53.94785 -3.89192,-7.73039 -12.44435,-20.21816 -13.8467,-20.21816 -0.41047,0 -15.03642,14.28488 -32.50211,31.74418 l -31.75582,31.74419 31.74419,31.75581 c 17.4593,17.4657 32.08525,31.75582 32.50211,31.75582 0.41686,0 2.69883,-2.63653 5.07105,-5.85896 z M 246.42291,463.35974 c -0.0571,-1.97044 -13.61635,-11.61887 -22.47083,-15.9897 -9.7152,-4.79571 -20.04447,-7.92075 -30.75,-9.30317 l -6.75,-0.87163 0,43.57287 0,43.57288 30,-29.9875 c 16.5,-16.49312 29.98688,-30.44031 29.97083,-30.99375 z m -68.20997,-26.06782 c -0.14347,-0.13747 -4.76086,0.40823 -10.26086,1.21267 -17.45212,2.55258 -34.48668,9.81674 -45.90208,19.57433 l -4.77703,4.08328 30.33955,30.35215 30.33956,30.35214 0.26086,-42.66231 c 0.14347,-23.46427 0.14347,-42.77479 0,-42.91226 z"
         id="path4032"
         inkscape:connector-curvature="0" />
      <path
         sodipodi:type="arc"
         style="opacity:0;fill:#0b1200;fill-opacity:1"
         id="path4089"
         sodipodi:cx="244.5"
         sodipodi:cy="235.46274"
         sodipodi:rx="146.5"
         sodipodi:ry="164.5"
         d="m 391,235.46274 a 146.5,164.5 0 1 1 -293,0 146.5,164.5 0 1 1 293,0 z"
         transform="translate(-68.339949,283.40378)" />
      <path
         sodipodi:type="arc"
         style="opacity:0;fill:#0b1200;fill-opacity:1"
         id="path4091"
         sodipodi:cx="230"
         sodipodi:cy="255.96274"
         sodipodi:rx="157"
         sodipodi:ry="189"
         d="m 387,255.96274 a 157,189 0 1 1 -314,0 157,189 0 1 1 314,0 z"
         transform="translate(-68.339949,283.40378)" />
      <path
         sodipodi:type="arc"
         style="opacity:0;fill:#0b1200;fill-opacity:1"
         id="path4093"
         sodipodi:cx="381"
         sodipodi:cy="576.46277"
         sodipodi:rx="69"
         sodipodi:ry="75.5"
         d="m 450,576.46277 a 69,75.5 0 1 1 -138,0 69,75.5 0 1 1 138,0 z"
         transform="translate(-68.339949,283.40378)" />
      <path
         sodipodi:type="arc"
         style="opacity:0;fill:#0b1200;fill-opacity:1"
         id="path4095"
         sodipodi:cx="479.5"
         sodipodi:cy="454.96274"
         sodipodi:rx="19.5"
         sodipodi:ry="37"
         d="m 499,454.96274 a 19.5,37 0 1 1 -39,0 19.5,37 0 1 1 39,0 z"
         transform="translate(-68.339949,283.40378)" />
      <rect
         style="opacity:0;fill:#0b1200;fill-opacity:1"
         id="rect4097"
         width="206"
         height="262"
         x="196"
         y="126.96274"
         transform="translate(-68.339949,283.40378)" />
      <rect
         style="opacity:0;fill:#0b1200;fill-opacity:1"
         id="rect4099"
         width="190"
         height="175"
         x="128"
         y="356.96274"
         transform="translate(-68.339949,283.40378)" />
    </g>
  </g>
  <g
     inkscape:groupmode="layer"
     id="layer2"
     inkscape:label="Background"
     transform="translate(68.339949,-283.40378)" />
</svg>
