<?xml version="1.0" encoding="UTF-8" standalone="no"?>
<!-- Created with Inkscape (http://www.inkscape.org/) -->
<svg xmlns:inkscape="http://www.inkscape.org/namespaces/inkscape" xmlns:rdf="http://www.w3.org/1999/02/22-rdf-syntax-ns#" xmlns="http://www.w3.org/2000/svg" xmlns:cc="http://web.resource.org/cc/" xmlns:dc="http://purl.org/dc/elements/1.1/" xmlns:svg="http://www.w3.org/2000/svg" xmlns:sodipodi="http://sodipodi.sourceforge.net/DTD/sodipodi-0.dtd" xmlns:ns1="http://sozi.baierouge.fr" xmlns:xlink="http://www.w3.org/1999/xlink" id="svg2" viewBox="0 0 720 720" version="1.1" inkscape:version="0.91 r13725">
  <g id="layer1" transform="translate(0 -332.36)">
    <path id="path2928" style="fill:#000000" d="m658.23 425.89c82.355 82.355 82.355 215.88 8e-13 298.23l-298.23 298.28-298.23-298.27c-82.355-82.355-82.355-215.88 1.2e-12 -298.23 82.355-82.355 215.88-82.355 298.23 0 82.355-82.355 215.88-82.355 298.23 0z"/>
    <path id="path2911" style="fill:#ffffff" d="m633.38 448.17c75.492 75.492 75.492 197.89 7e-13 273.38l-273.38 273.39-273.38-273.39c-75.492-75.492-75.492-197.89 1.09e-12 -273.38 75.492-75.492 197.89-75.492 273.38 0 75.492-75.492 197.89-75.492 273.38 0z"/>
    <path id="path2913" style="fill:#000000" d="m608.53 470.45c68.629 68.629 68.629 179.9 7e-13 248.53l-248.53 248.53-248.53-248.53c-68.629-68.629-68.629-179.9 9.9e-13 -248.53 68.629-68.629 179.9-68.629 248.53 0 68.629-68.629 179.9-68.629 248.53 0z"/>
    <path id="path2915" style="fill:#ffffff" d="m583.68 492.73c61.766 61.766 61.766 161.91 7e-13 223.68l-223.68 223.67-223.68-223.67c-61.766-61.766-61.766-161.91 9e-13 -223.68 61.766-61.766 161.91-61.766 223.68 0 61.766-61.766 161.91-61.766 223.68 0z"/>
    <path id="path2917" style="fill:#000000" d="m558.82 515.01c54.903 54.903 54.903 143.92 6e-13 198.82l-198.82 198.83-198.82-198.83c-54.903-54.903-54.903-143.92 8e-13 -198.82 54.903-54.903 143.92-54.903 198.82 0 54.903-54.903 143.92-54.903 198.82 0z"/>
    <path id="path2919" style="fill:#ffffff" d="m533.97 537.29c48.04 48.04 48.04 125.93 7e-13 173.97l-173.97 173.97-173.97-173.97c-48.04-48.04-48.04-125.93 7e-13 -173.97s125.93-48.04 173.97 0c48.04-48.04 125.93-48.04 173.97 0z"/>
    <path id="path2921" style="fill:#000000" d="m509.12 559.57c41.177 41.177 41.177 107.94 6e-13 149.12l-149.12 149.11-149.12-149.11c-41.177-41.177-41.177-107.94 6e-13 -149.12 41.177-41.177 107.94-41.177 149.12 0 41.177-41.177 107.94-41.177 149.12 0z"/>
    <path id="path2923" style="fill:#ffffff" d="m484.26 581.85c34.315 34.315 34.315 89.949 5e-13 124.26l-124.26 124.27-124.26-124.27c-34.315-34.315-34.315-89.949 5e-13 -124.26 34.315-34.315 89.949-34.315 124.26 0 34.315-34.315 89.949-34.315 124.26 0z"/>
    <path id="path2925" style="fill:#000000" d="m459.41 604.13c27.452 27.452 27.452 71.96 4e-13 99.411l-99.41 99.41-99.41-99.41c-27.452-27.452-27.452-71.96 4e-13 -99.411 27.452-27.452 71.96-27.452 99.411 0 27.452-27.452 71.96-27.452 99.411 0z"/>
    <path id="path2927" style="fill:#ffffff" d="m434.56 626.41c20.589 20.589 20.589 53.97 3e-13 74.558l-74.56 74.55-74.56-74.55c-20.589-20.589-20.589-53.97 3e-13 -74.558 20.589-20.589 53.97-20.589 74.558 0 20.589-20.589 53.97-20.589 74.558 0z"/>
    <path id="path2929" style="fill:#000000" d="m409.71 648.69c13.726 13.726 13.726 35.98 2e-13 49.706l-49.71 49.7-49.71-49.71c-13.726-13.726-13.726-35.98 2e-13 -49.706s35.98-13.726 49.706 0c13.726-13.726 35.98-13.726 49.706 0z"/>
    <path id="path2931" style="fill:#ffffff" d="m384.85 670.97c6.8629 6.8629 6.8629 17.99 0 24.853l-24.853 24.853-24.853-24.853c-6.8629-6.8629-6.8629-17.99 0-24.853 6.8629-6.8629 17.99-6.8629 24.853 0 6.8629-6.8629 17.99-6.8629 24.853 0z"/>
  </g>
  <metadata>
    <rdf:RDF>
      <cc:Work>
        <dc:format>image/svg+xml</dc:format>
        <dc:type rdf:resource="http://purl.org/dc/dcmitype/StillImage"/>
        <cc:license rdf:resource="http://creativecommons.org/licenses/publicdomain/"/>
        <dc:publisher>
          <cc:Agent rdf:about="http://openclipart.org/">
            <dc:title>Openclipart</dc:title>
          </cc:Agent>
        </dc:publisher>
        <dc:title>geometric zebra heart</dc:title>
        <dc:date>2011-06-30T17:18:08</dc:date>
        <dc:description>This is my favorite of my zebra hearts. I made the heart shape by combining two half circles with a square. Then I scaled and layered hearts alternating between black and white. I used inkscape to make it.\n\nSo while it's very geometric, it's also the common symbol of love.\n\nThe original zebra heart was a valentines gift for a special girl. It had 8 stripes but wasn't near as cool as this one.</dc:description>
        <dc:source>https://openclipart.org/detail/147847/geometric-zebra-heart-by-10binary</dc:source>
        <dc:creator>
          <cc:Agent>
            <dc:title>10binary</dc:title>
          </cc:Agent>
        </dc:creator>
        <dc:subject>
          <rdf:Bag>
            <rdf:li>black</rdf:li>
            <rdf:li>circle</rdf:li>
            <rdf:li>geometry</rdf:li>
            <rdf:li>heart</rdf:li>
            <rdf:li>love</rdf:li>
            <rdf:li>square</rdf:li>
            <rdf:li>white</rdf:li>
            <rdf:li>zebra</rdf:li>
          </rdf:Bag>
        </dc:subject>
      </cc:Work>
      <cc:License rdf:about="http://creativecommons.org/licenses/publicdomain/">
        <cc:permits rdf:resource="http://creativecommons.org/ns#Reproduction"/>
        <cc:permits rdf:resource="http://creativecommons.org/ns#Distribution"/>
        <cc:permits rdf:resource="http://creativecommons.org/ns#DerivativeWorks"/>
      </cc:License>
    </rdf:RDF>
  </metadata>
</svg>