<?xml version="1.0" encoding="UTF-8" standalone="no"?>
<!-- Created with Inkscape (https://www.inkscape.org/) -->
<!-- ClipArt by Arvin61r58 (https://openclipart.org/user-detail/Arvin61r58) -->
<svg xmlns:dc="http://purl.org/dc/elements/1.1/" xmlns:cc="http://creativecommons.org/ns#" xmlns:rdf="http://www.w3.org/1999/02/22-rdf-syntax-ns#" xmlns:svg="http://www.w3.org/2000/svg" xmlns="http://www.w3.org/2000/svg" xmlns:xlink="http://www.w3.org/1999/xlink" id="svg1319" version="1.1" viewBox="0 0 205.84583 11.535833" height="43.599998" width="778">
  <title id="title2016">Grunge Divider 5</title>
  <defs id="defs1313">
    <linearGradient gradientUnits="userSpaceOnUse" y2="72.209236" x2="189.04504" y1="72.209236" x1="24.774435" id="linearGradient915" xlink:href="#linearGradient873"/>
    <linearGradient id="linearGradient873">
      <stop stop-color="#4a4a4a" offset="0" id="stop823"/>
      <stop stop-color="#474747" offset="0.041667" id="stop825"/>
      <stop stop-color="#4c4c4c" offset="0.083333" id="stop827"/>
      <stop stop-color="#5e5e5e" offset="0.125" id="stop829"/>
      <stop stop-color="#4a4a4a" offset="0.166667" id="stop831"/>
      <stop stop-color="#525252" offset="0.208333" id="stop833"/>
      <stop stop-color="#4d4d4d" offset="0.25" id="stop835"/>
      <stop stop-color="#5d5d5d" offset="0.291667" id="stop837"/>
      <stop stop-color="#616161" offset="0.333333" id="stop839"/>
      <stop stop-color="#606060" offset="0.375" id="stop841"/>
      <stop stop-color="#676767" offset="0.416667" id="stop843"/>
      <stop stop-color="#5b5b5b" offset="0.458333" id="stop845"/>
      <stop stop-color="#6a6a6a" offset="0.5" id="stop847"/>
      <stop stop-color="#636363" offset="0.541667" id="stop849"/>
      <stop stop-color="#6f6f6f" offset="0.583333" id="stop851"/>
      <stop stop-color="#6e6e6e" offset="0.625" id="stop853"/>
      <stop stop-color="#565656" offset="0.666667" id="stop855"/>
      <stop stop-color="#444444" offset="0.708333" id="stop857"/>
      <stop stop-color="#4a4a4a" offset="0.75" id="stop859"/>
      <stop stop-color="#535353" offset="0.791667" id="stop861"/>
      <stop stop-color="#494949" offset="0.833333" id="stop863"/>
      <stop stop-color="#646464" offset="0.875" id="stop865"/>
      <stop stop-color="#4f4f4f" offset="0.916667" id="stop867"/>
      <stop stop-color="#4a4a4a" offset="0.958333" id="stop869"/>
      <stop stop-color="#515151" offset="1" id="stop871"/>
    </linearGradient>
    <filter height="1" y="0" width="1" x="0" id="filter1311" style="color-interpolation-filters:sRGB">
      <feTurbulence id="feTurbulence1303" baseFrequency="0.74099999999999999" type="fractalNoise" seed="0" numOctaves="5"/>
      <feGaussianBlur id="feGaussianBlur1305" result="result91" stdDeviation="0.5"/>
      <feDisplacementMap id="feDisplacementMap1307" in2="result91" result="result1" in="SourceGraphic" xChannelSelector="R" yChannelSelector="G" scale="63.2"/>
      <feComposite id="feComposite1309" operator="atop" in2="SourceGraphic" in="result1"/>
    </filter>
  </defs>
  <metadata id="metadata1316">
    <rdf:RDF>
      <cc:Work rdf:about="">
        <dc:format>image/svg+xml</dc:format>
        <dc:type rdf:resource="http://purl.org/dc/dcmitype/StillImage"/>
        <dc:title>Grunge Divider 5</dc:title>
        <cc:license rdf:resource="http://creativecommons.org/publicdomain/zero/1.0/"/>
        <dc:subject>
          <rdf:Bag>
            <rdf:li>abstract</rdf:li>
            <rdf:li>banner</rdf:li>
            <rdf:li>border</rdf:li>
            <rdf:li>divider</rdf:li>
            <rdf:li>footer</rdf:li>
            <rdf:li>frame</rdf:li>
            <rdf:li>grunge</rdf:li>
            <rdf:li>header</rdf:li>
            <rdf:li>horizontal rule</rdf:li>
            <rdf:li>line rule</rdf:li>
            <rdf:li>page rule</rdf:li>
          </rdf:Bag>
        </dc:subject>
        <dc:description>Grunge or abstract style divider rule</dc:description>
        <dc:creator>
          <cc:Agent>
            <dc:title>Arvin61r58</dc:title>
          </cc:Agent>
        </dc:creator>
        <dc:publisher>
          <cc:Agent>
            <dc:title>Openclipart.org</dc:title>
          </cc:Agent>
        </dc:publisher>
        <dc:identifier>https://openclipart.org/</dc:identifier>
        <dc:source>https://openclipart.org/user-detail/Arvin61r58</dc:source>
      </cc:Work>
      <cc:License rdf:about="http://creativecommons.org/publicdomain/zero/1.0/">
        <cc:permits rdf:resource="http://creativecommons.org/ns#Reproduction"/>
        <cc:permits rdf:resource="http://creativecommons.org/ns#Distribution"/>
        <cc:permits rdf:resource="http://creativecommons.org/ns#DerivativeWorks"/>
      </cc:License>
    </rdf:RDF>
  </metadata>
  <g transform="translate(-2.0770842,-142.73209)" id="layer1">
    <path transform="matrix(1.2369833,0,0,0.92307532,-27.245559,81.845444)" id="path889" d="m 187.72292,76.93866 v -0.086 h 0.0718 0.0719 v 0.086 0.086 h -0.0719 -0.0718 z m -0.79462,-0.3182 -0.28356,-0.23221 -0.54231,-0.10156 -0.54231,-0.10156 0.0607,0.11879 0.0607,0.1188 -1.60287,0.0342 -1.60288,0.0342 0.1797,-0.0915 0.17969,-0.0915 v -0.15765 -0.15764 h -0.19335 -0.19335 l -0.23792,-0.31451 -0.23792,-0.31451 v -0.11544 -0.11544 h 0.19601 0.196 l -0.0163,-0.38695 -0.0163,-0.38696 -0.3594,-0.0181 -0.35939,-0.0181 -1.8427,-0.0603 -1.84267,-0.0603 -0.072,-0.13942 -0.072,-0.13943 -0.16976,0.13179 -0.16977,0.13179 -0.64689,0.0235 -0.64692,0.0235 -0.7632,0.0196 -0.7632,0.0195 0.0941,0.18213 0.0941,0.18214 0.30971,-0.0292 0.30973,-0.0292 0.14375,0.0396 0.14376,0.0396 0.64691,0.0224 0.6469,0.0224 -0.0359,0.21498 -0.0359,0.21497 h 0.16384 0.16385 l 0.17354,-0.28396 0.17359,-0.28396 0.44103,0.18393 0.44103,0.18393 0.0895,-0.10712 0.0895,-0.10711 0.36899,-0.0591 0.36898,-0.0591 0.21127,0.30926 0.21127,0.30925 -0.0895,-0.21206 -0.0895,-0.21207 0.70969,0.0191 0.7097,0.0191 0.15983,-0.11818 0.15982,-0.11817 0.15912,0.11763 0.15909,0.11764 -0.19503,0.14421 -0.19505,0.14421 v 0.22125 0.22124 l -0.24105,0.002 -0.24105,0.002 -0.106,0.12679 -0.10597,0.12679 h 0.36574 0.36575 l 0.18169,0.26191 0.1817,0.26191 -0.23862,-0.10955 -0.23863,-0.10954 -0.6802,0.21374 -0.68018,0.21374 -3.48775,-0.0324 -3.48773,-0.0324 -0.32182,-0.0751 -0.32182,-0.0751 -0.49023,-0.11095 -0.49022,-0.11095 -0.18026,0.29492 -0.18027,0.29493 -0.47958,-0.11419 -0.47955,-0.11419 -1.29381,-0.0599 -1.29381,-0.0599 -0.43582,-0.0631 -0.43584,-0.0631 -0.2026,-0.14979 -0.2026,-0.1498 -0.0444,0.15944 -0.0451,0.15943 -4.56429,-0.0389 -4.56429,-0.0389 -1.50946,-0.12749 -1.50944,-0.12749 -0.64691,0.0378 -0.64691,0.0378 -0.75828,0.16183 -0.75826,0.16181 -0.60742,-0.12315 -0.60741,-0.12314 -0.0467,-0.4834 -0.0466,-0.4834 0.23786,-0.59965 0.23785,-0.59965 -0.0716,-0.22319 -0.0717,-0.22318 -0.39803,-0.091 -0.39803,-0.091 -0.18798,0.0863 -0.18798,0.0863 0.0796,0.15396 0.0795,0.15396 -0.40381,0.02 -0.40382,0.02 0.25953,0.0805 0.25953,0.0805 -0.0551,0.20053 -0.0551,0.20053 -0.59978,0.0529 -0.59981,0.0529 v 0.16209 0.1621 h -0.51163 -0.51163 l 0.0954,-0.18468 0.0954,-0.18468 -0.29683,0.22176 -0.29681,0.22176 0.17396,0.13226 0.17396,0.13226 0.25157,0.003 0.25158,0.003 v 0.18565 0.18564 l -0.42454,-0.11155 -0.42453,-0.11154 -0.53154,0.30175 -0.53156,0.30177 -1.5956,0.0266 -1.5956,0.0266 -2.44387,0.0125 -2.44387,0.0126 -1.50945,-0.0681 -1.50945,-0.0681 -1.29381,-2.1e-4 -1.29382,-2.1e-4 -0.93441,0.0452 -0.93442,0.0452 -0.1797,0.1342 -0.17969,0.1342 V 75.97844 75.7713 l -1.47352,0.12632 -1.4735,0.12631 -0.53304,0.041 -0.53303,0.041 -0.43733,-0.21998 -0.43732,-0.21998 v -0.41984 -0.41986 l -0.21563,-0.099 -0.21564,-0.099 v -0.26336 -0.26337 l -0.32345,0.001 -0.32345,10e-4 -0.32346,0.5684 -0.32345,0.5684 v 0.19196 0.19195 l -0.76355,0.11413 -0.76355,0.11413 -0.54703,-0.10401 -0.54704,-0.104 -0.10002,-0.0739 -0.10002,-0.0739 -1.14108,-0.0326 -1.14108,-0.0326 -0.64691,0.18409 -0.64691,0.18408 -1.71511,-0.0675 -1.71509,-0.0675 -0.33924,-0.4377 -0.33926,-0.43769 h -0.28622 -0.2862 l -0.0848,0.26433 -0.0848,0.26433 -0.4067,0.25161 -0.40672,0.25161 h -0.24927 -0.24945 l -0.32606,-0.36646 -0.32607,-0.36645 -0.67133,-0.0669 -0.67134,-0.0669 -0.16192,0.15212 -0.16192,0.15213 -1.43757,0.14965 -1.43757,0.14965 -1.79696,-0.005 -1.79697,-0.005 -1.498829,-0.11692 -1.498843,-0.11691 -0.147176,-0.17608 -0.147177,-0.17607 h -0.104819 -0.104737 l -0.20893,0.24995 -0.20893,0.24995 -1.959751,0.04 -1.959752,0.04 -0.142371,-0.17032 -0.142369,-0.17032 -2.694769,0.0617 -2.69477,0.0617 -1.150056,-0.21635 -1.150055,-0.21635 -0.124826,0.0418 -0.124824,0.0418 0.09465,-0.45114 0.09465,-0.45114 -0.13323,0.0985 -0.133231,0.0985 -0.15656,-0.22568 -0.156559,-0.22567 0.463725,0.0484 0.463724,0.0484 -0.251575,-0.0915 -0.251575,-0.0914 v -0.15938 -0.15936 l 0.46721,-0.02 0.467211,-0.0199 -0.251575,-0.0787 -0.251575,-0.0787 v -0.16952 -0.16952 l -0.144772,0.10704 -0.144773,0.10703 -0.08387,-0.26145 -0.08387,-0.26146 -0.454206,0.10562 -0.454207,0.10563 -0.08987,0.16333 -0.08987,0.16334 -0.269521,-0.0941 -0.269523,-0.0941 -1.437569,-0.10303 -1.43757,-0.10305 -0.175202,-0.27669 -0.175204,-0.27669 -0.206149,0.20468 -0.206149,0.20467 -0.04991,-0.17364 -0.04992,-0.17365 -0.215635,0.16384 -0.215635,0.16383 0.24309,0.003 0.243091,0.003 0.07673,0.14853 0.07674,0.14853 H 79.328975 78.75999 l -0.206849,0.20537 -0.206851,0.20537 -0.76592,-0.0938 -0.76592,-0.0938 -0.982478,-0.0908 -0.982478,-0.0908 -0.562909,0.18133 -0.562909,0.18134 v 0.16535 0.16535 h 0.215635 0.215634 v 0.13743 0.13742 l 0.505815,0.21882 0.505815,0.21881 0.536424,-0.20918 0.536422,-0.20919 0.105617,-0.19005 0.105616,-0.19005 0.0022,0.38695 0.0022,0.38696 h 0.215635 0.215636 v -0.17526 -0.17526 l 0.343709,0.1032 0.343709,0.10321 0.09605,-0.18592 0.09605,-0.18591 H 77.469871 77.173873 V 73.62988 73.5009 h 0.359392 0.359392 v 0.21497 0.21498 h 0.152241 0.15224 l -0.08885,-0.17198 -0.08885,-0.17198 h 0.165699 0.165699 l 0.07477,0.34202 0.07476,0.34202 0.163352,-0.10928 0.163353,-0.10929 -0.172669,0.2232 -0.172668,0.2232 -0.636278,0.11552 -0.636277,0.11552 -0.628624,-0.22498 -0.628622,-0.22498 -0.682846,0.10563 -0.682846,0.10562 v 0.16416 0.16415 l -0.178237,-0.0711 -0.178235,-0.0711 -0.647587,0.23316 -0.647584,0.23315 -0.180477,-0.29526 -0.180477,-0.29528 V 74.24189 73.9308 h 0.113179 0.113178 l 0.0321,-0.50395 0.0321,-0.50394 -1.115635,0.031 -1.115637,0.031 -0.390814,0.34396 -0.390813,0.34396 -0.0045,0.11845 -0.0045,0.11845 0.682846,0.13657 0.682845,0.13658 0.336571,-0.049 0.336571,-0.049 -0.08181,0.15835 -0.08181,0.15836 -0.60044,0.11487 -0.600443,0.11486 -0.157469,0.11787 -0.157468,0.11786 -0.215635,0.0631 -0.215636,0.0631 -1.172717,0.08 -1.172716,0.08 -0.0871,-0.16859 -0.08709,-0.16859 -0.429332,0.14731 -0.42934,0.1473 v -0.24596 -0.24597 l -0.179696,-0.0222 -0.179697,-0.0222 -0.640283,-0.0498 -0.640283,-0.0498 -0.15038,-0.23962 -0.15038,-0.23963 -0.260686,-0.11711 -0.260686,-0.11711 0.08947,-0.1732 0.08948,-0.17319 H 64.008484 63.90803 l -0.192813,0.30096 -0.192812,0.30097 -0.117307,-0.21164 -0.117309,-0.21163 -0.927662,-0.0728 -0.927661,-0.0728 -0.308073,-0.0166 -0.308073,-0.0166 -0.09578,-0.30096 -0.09578,-0.30096 0.181024,0.21497 0.181026,0.21497 h 0.452947 0.452945 l 0.471428,-0.1966 0.471429,-0.19661 0.132194,0.2826 0.132196,0.28259 h 0.297972 0.297973 l -0.178961,-0.25797 -0.178962,-0.25797 h 0.132609 0.132607 l 0.147122,0.17601 0.147122,0.176 0.338286,0.0779 0.338286,0.0779 0.147122,0.17601 0.147122,0.176 0.294703,0.003 0.294702,0.003 -0.211607,0.1601 -0.211607,0.16009 0.211607,0.0847 0.211607,0.0847 0.357467,-0.0324 0.357467,-0.0324 0.04841,-0.30096 0.04841,-0.30096 H 66.04323 65.817054 v -0.15334 -0.15333 l 0.369605,-0.11098 0.369605,-0.11098 -0.05431,-0.1949 -0.05431,-0.19489 -3.1545,-0.046 -3.154498,-0.0459 -0.215636,-0.0229 -0.215636,-0.0229 0.287514,-0.1421 0.287515,-0.1421 0.683219,0.0811 0.683223,0.0811 0.09245,-0.28823 0.09245,-0.28822 -0.200644,-0.15199 -0.200644,-0.15198 -0.09755,-0.003 -0.09755,-0.003 -0.225904,0.27026 -0.225904,0.27025 v -0.19442 -0.19441 l -0.143757,0.10629 -0.143757,0.10629 v -0.16807 -0.16806 l -0.08021,-0.25007 -0.08021,-0.25009 0.36773,-0.0841 0.367731,-0.0841 2.87e-4,0.10514 2.88e-4,0.10513 0.466924,0.0302 0.466921,0.0302 -0.323454,-0.15362 -0.323453,-0.15362 v -0.17752 -0.17752 h 0.399284 0.399285 l 0.326353,-0.27346 0.326353,-0.27346 -0.168211,-0.24248 -0.168212,-0.24247 h 0.15136 0.151361 l 0.04594,-0.38696 0.04594,-0.38695 0.862541,0.0233 0.862542,0.0233 0.575027,0.17189 0.575028,0.17188 -0.287514,0.0388 -0.287514,0.0388 -0.323452,-0.0313 -0.323454,-0.0313 v 0.18429 0.18428 h 0.634927 0.634926 l 0.07483,0.21498 0.07483,0.21497 0.218093,-0.32307 0.218092,-0.32308 0.291155,0.0911 0.291156,0.0911 0.291717,-0.56467 0.291719,-0.56468 0.394059,-0.17609 0.39406,-0.1761 0.269797,-0.10507 0.269795,-0.10508 0.217696,0.21614 0.217695,0.21614 1.646566,0.002 1.646566,0.002 0.06672,-0.12898 0.06672,-0.12899 0.889997,0.008 0.889997,0.008 0.718784,0.23002 0.718786,0.23003 0.17812,-0.17112 0.178121,-0.17112 0.540664,0.13771 0.540663,0.13771 0.287515,0.0482 0.287514,0.0482 1.86884,0.008 1.86884,0.008 3.306409,-0.0354 3.30641,-0.0354 2.515746,0.1338 2.515746,0.13379 0.75186,0.0279 0.751862,0.0279 0.22665,0.38696 0.22665,0.38695 h -0.102323 -0.102315 l 0.239996,0.31725 0.239995,0.31725 0.574431,0.2268 0.57443,0.2268 0.321974,-0.18721 0.321974,-0.18721 0.745489,-0.10333 0.745498,-0.10333 0.117041,0.24002 0.117051,0.24001 0.862539,0.11019 0.862541,0.11018 0.14376,-0.007 0.14376,-0.007 1.72508,-0.0918 1.72509,-0.0918 0.35938,-0.30313 0.3594,-0.30313 0.13786,-0.36224 0.13787,-0.36223 0.36528,-0.20041 0.36528,-0.20041 0.50316,-0.0872 0.50314,-0.0872 2.04474,-0.007 2.04473,-0.006 0.21944,0.21787 0.21943,0.21787 0.25101,-0.23603 0.25102,-0.23604 0.19052,-0.21497 0.19053,-0.21497 0.45695,1.3e-4 0.45695,1.4e-4 0.52022,0.5588 0.52022,0.55879 0.11338,0.42995 0.1134,0.42995 0.0331,0.48235 0.0331,0.48235 0.0766,0.0917 0.0766,0.0917 0.85888,0.0932 0.85889,0.0932 0.18148,-0.40565 0.18147,-0.40567 0.19294,-0.2308 0.19292,-0.23081 0.006,-0.37467 0.006,-0.37467 0.33455,-0.48924 0.33454,-0.48924 1.1338,0.21222 1.13379,0.21221 0.22695,0.23404 0.22696,0.23402 0.20431,2.1e-4 0.20432,2e-4 0.39533,0.40676 0.39533,0.40675 v 0.2708 0.27081 l 0.10782,0.076 0.10783,0.0759 0.32344,-0.14624 0.32345,-0.14625 v -0.26351 -0.2635 h 0.12689 0.12688 l 0.37898,-0.92668 0.37898,-0.92667 0.28465,-0.0891 0.28465,-0.0891 0.0917,0.17758 0.0917,0.17758 0.87876,-0.11538 0.87876,-0.11539 0.71256,-0.0872 0.71254,-0.0873 0.23889,0.37888 0.23889,0.37887 0.52242,-0.47668 0.5224,-0.47668 0.18111,0.17981 0.1811,0.17981 0.82485,0.3692 0.82486,0.36921 v 0.29078 0.29079 l 0.35939,0.32287 0.3594,0.32288 v 0.1603 0.16029 l -0.82662,-0.0911 -0.8266,-0.0911 0.31118,0.15373 0.31117,0.15373 0.1201,0.25526 0.1201,0.25525 0.39533,0.11832 0.39534,0.11833 v -0.19062 -0.19062 h 0.42277 0.4228 l 0.0903,0.17478 0.0904,0.17479 0.11875,-0.0878 0.11877,-0.0878 0.0824,0.25698 0.0824,0.25698 0.18421,-0.002 0.1842,-0.002 0.61722,-0.68577 0.61721,-0.68577 h 0.0521 0.0521 l 0.0994,0.86498 0.0994,0.86498 -0.17403,0.25085 -0.17401,0.25085 0.23214,0.10657 0.23215,0.10657 0.37133,-0.11149 0.37131,-0.11149 0.34715,-0.44811 0.34714,-0.44811 v -0.30869 -0.3087 l 0.14581,-0.1078 0.14581,-0.10781 0.29097,-0.68232 0.29097,-0.68233 0.1251,0.0925 0.12509,0.0925 -0.0307,0.64954 -0.0307,0.64955 -0.0788,0.16693 -0.0788,0.16692 0.12677,0.55894 0.12676,0.55893 h 0.25593 0.25592 l 0.22439,-0.21497 0.22438,-0.21498 0.34218,-0.8599 0.34218,-0.85989 0.10783,-0.0573 0.10782,-0.0573 V 69.7747 69.60118 l 0.29625,-0.45058 0.29628,-0.45059 -0.0753,0.85341 -0.0752,0.8534 -0.0682,0.34396 -0.0684,0.34396 -0.0697,0.62961 -0.0697,0.62962 0.36349,0.10914 0.3635,0.10915 0.32212,-0.25249 0.32212,-0.2525 0.19331,-0.57226 0.19331,-0.57225 0.18813,-0.13753 0.18813,-0.13753 v -0.17571 -0.17573 l 0.20538,-0.24568 0.20536,-0.24568 h 0.0786 0.0786 l -0.0844,0.50491 -0.0845,0.50492 0.18507,0.50022 0.18509,0.50021 0.58577,0.15735 0.58576,0.15734 0.57503,-0.20368 0.57502,-0.20368 0.56949,-0.35687 0.56949,-0.35687 h 1.05627 1.05626 l -0.10173,-0.19691 -0.10173,-0.19692 0.37641,0.0861 0.37641,0.0861 -0.076,-0.14714 -0.076,-0.14714 h 0.42298 0.42299 l 0.0722,-0.33045 0.0722,-0.33046 0.48362,-0.17241 0.48362,-0.17242 0.48115,-0.17782 0.48115,-0.17782 0.22349,0.68069 0.22351,0.68069 h 0.18185 0.18185 l 0.0729,-0.21497 0.0728,-0.21498 0.14053,0.24068 0.14052,0.24067 0.69702,-0.11278 0.69702,-0.11279 0.17129,-0.27598 0.17128,-0.27598 h 0.92303 0.92303 l 0.30189,0.11462 0.30188,0.11463 0.257,-0.16426 0.25701,-0.16426 2.8516,-0.10422 2.85158,-0.10423 0.14925,0.11035 0.14925,0.11035 1.81503,0.0528 1.81501,0.0529 0.96289,0.0528 0.96289,0.0528 0.0659,0.30096 0.0658,0.30096 -0.23812,0.005 -0.23812,0.005 0.2729,0.24713 0.27291,0.24712 -0.18557,0.2675 -0.18558,0.2675 0.0821,0.0982 0.0821,0.0982 0.4056,-0.10714 0.40561,-0.10714 0.57503,-1.05423 0.57503,-1.05423 0.0969,-0.17677 0.0969,-0.17678 0.22661,0.22497 0.22658,0.22497 v 0.39661 0.39661 l -0.22589,0.27025 -0.22592,0.27025 h 0.14712 0.14712 l 0.43619,-0.75843 0.43618,-0.75843 0.2895,0.0906 0.28951,0.0906 v 0.15191 0.15193 h 0.15797 0.15796 l 0.52489,0.292 0.52487,0.292 0.0983,0.17273 0.0983,0.17273 -0.0709,0.13719 -0.0709,0.1372 h 0.29601 0.29599 v 0.17198 0.17198 l -0.32345,0.003 -0.32346,0.003 -0.18481,0.14029 -0.18482,0.14028 0.58015,0.20794 0.58015,0.20795 v 0.18347 0.18348 l 0.25157,-0.11906 0.25158,-0.11906 1.40162,-0.0872 1.40163,-0.0872 v 0.18789 0.18789 h -0.49139 -0.49138 l -0.2274,0.10439 -0.22739,0.10438 v 0.128 0.12799 l 0.68284,-0.005 0.68285,-0.005 0.53908,0.0847 0.5391,0.0847 v -0.22664 -0.22664 h 0.092 0.092 l 0.15961,0.24733 0.15959,0.24731 0.4024,-0.097 0.40237,-0.097 -0.0465,-0.2793 -0.0465,-0.2793 -0.35585,0.0478 -0.35584,0.0478 0.25271,-0.18612 0.25271,-0.18612 0.14262,0.10545 0.14263,0.10545 v -0.14026 -0.14025 l 0.57276,-0.21386 0.57276,-0.21385 h 0.28978 0.28978 v -0.17198 -0.17198 h 0.2192 0.21919 l 0.13528,-0.38695 0.13528,-0.38695 0.20047,-0.30096 0.20045,-0.30097 h 0.14625 0.14624 l 0.17129,0.24691 0.1713,0.24692 0.38539,0.0876 0.3854,0.0876 0.46846,0.10943 0.46848,0.10942 -0.0952,0.18417 -0.0951,0.18416 0.63297,-0.1154 0.63298,-0.11539 0.47168,-0.0661 0.47168,-0.0661 0.19836,-0.19695 0.19837,-0.19695 0.0982,0.19011 0.0982,0.19011 -0.0974,0.46316 -0.0974,0.46317 -0.046,1.01013 -0.046,1.01013 -0.29991,0.4853 -0.29991,0.48529 0.0801,0.24997 0.0801,0.24996 -0.15355,0.11354 -0.15355,0.11353 v 0.38153 0.38154 l -0.22379,0.38222 -0.22379,0.38222 h -0.17549 -0.1755 l -0.28357,-0.2322 z m -24.93788,-0.8958 v -0.26812 l -0.14376,0.10629 -0.14375,0.10628 v 0.16183 0.16184 h 0.14375 0.14376 z m 18.40089,0.18213 v -0.086 h -0.0719 -0.0718 v 0.086 0.086 h 0.0718 0.0719 z m -2.44386,-0.17199 v -0.086 h -0.0718 -0.0718 v 0.086 0.086 h 0.0718 0.0718 z m -16.43621,-0.20064 -0.0958,-0.11465 -0.0958,0.11465 -0.0958,0.11465 h 0.19167 0.19168 z m -7.35701,-0.23211 -0.0904,-0.17478 -0.13381,0.0989 -0.13383,0.099 v 0.0758 0.0758 h 0.22411 0.22412 z M 106.644,74.95075 v -0.18213 l -0.14375,0.10629 -0.14375,0.10629 v 0.0758 0.0758 h 0.14375 0.14375 z m 46.57725,0.0961 v -0.086 h -0.0718 -0.0719 v 0.086 0.086 h 0.0719 0.0718 z m 20.92511,-0.51047 0.27904,-0.2525 -0.5306,-0.005 -0.53061,-0.005 -0.0812,0.15729 -0.0812,0.1573 0.18059,0.0871 0.18059,0.0871 0.15223,0.0136 0.1522,0.0136 0.27907,-0.2525 z m -83.746884,-0.005 v -0.086 h -0.07188 -0.07188 v 0.086 0.086 h 0.07188 0.07188 z m 18.640484,-0.0287 -0.0958,-0.11465 -0.0958,0.11465 -0.0958,0.11465 h 0.19168 0.19167 z m 37.1372,0.0287 v -0.086 h -0.0718 -0.0718 v 0.086 0.086 h 0.0718 0.0718 z m 21.16608,-0.0357 -0.32559,-0.0749 0.094,-0.182 0.094,-0.18199 -0.19073,0.0761 -0.19072,0.0761 -0.0569,0.20423 -0.0569,0.20422 0.47918,-0.0234 0.47919,-0.0234 z m -76.65625,-0.1365 v -0.086 h -0.07188 -0.07188 v 0.086 0.086 h 0.07188 0.07188 z m 41.83326,0 v -0.086 h -0.0718 -0.0719 v 0.086 0.086 h 0.0719 0.0718 z m 0.43127,0 v -0.086 h -0.0719 -0.0718 v 0.086 0.086 h 0.0718 0.0719 z m 39.82068,-0.086 v -0.17199 h -0.29599 -0.296 l 0.0889,0.17199 0.0889,0.17197 h 0.20715 0.20716 z m -66.20007,-0.17199 -0.0889,-0.17198 h -0.0634 -0.0634 v 0.17198 0.17199 h 0.15224 0.15224 z m 40.89885,-0.10358 v -0.19225 l -0.82614,-0.10201 -0.82614,-0.102 -0.12452,0.14895 -0.12449,0.14894 0.0872,0.16887 0.0872,0.16885 0.86341,-0.0235 0.86341,-0.0235 z m 0.67086,0.16091 -0.0958,-0.11465 -0.0958,0.11465 -0.0958,0.11466 h 0.19167 0.19168 z m 0.33544,0.0287 v -0.086 h -0.0719 -0.0718 v 0.086 0.086 h 0.0718 0.0719 z m 3.73767,0 v -0.086 h -0.0719 -0.0718 v 0.086 0.086 h 0.0718 0.0719 z m 1.15006,-0.19228 v -0.086 l -0.14376,0.10629 -0.14376,0.10629 v 0.086 0.086 l 0.14376,-0.10629 0.14376,-0.10629 z m 14.32778,0.16362 -0.0958,-0.11466 -0.0958,0.11466 -0.0958,0.11465 h 0.19167 0.19167 z M 64.90658,73.98657 64.81074,73.87192 64.7149,73.98657 64.61906,74.10123 h 0.191674 0.191676 z m 26.163762,0 -0.09584,-0.11465 -0.09584,0.11465 -0.09584,0.11466 h 0.191675 0.191676 z m 8.098306,0.0287 v -0.086 h -0.07184 -0.07184 v 0.086 0.086 h 0.07184 0.07184 z m 8.769162,0 v -0.086 h -0.0719 -0.0719 v 0.086 0.086 h 0.0719 0.0719 z m 44.73537,-0.0315 -0.18868,-0.0903 -0.0868,0.1039 -0.0868,0.10391 0.27553,-0.0136 0.27554,-0.0136 -0.18868,-0.0903 z m -83.453892,-0.3411 -0.09584,-0.11465 v 0.22931 0.2293 l 0.09584,-0.11466 0.09584,-0.11464 z m 21.108309,0.11466 -0.08885,-0.17199 0.260057,-0.0124 0.26006,-0.0124 0.539183,-0.0305 0.539184,-0.0306 0.05382,0.17199 0.05381,0.17198 0.188082,-0.21211 0.188083,-0.21211 -0.0623,-0.071 -0.06229,-0.071 -0.718786,-0.0461 -0.718784,-0.0461 -0.850562,0.0282 -0.850562,0.0282 0.08386,0.10032 0.08386,0.10033 0.119799,0.0182 0.119797,0.0181 0.359392,0.22441 0.359392,0.2244 0.116303,0.001 0.1163,0.001 z m 0.359394,0.086 v -0.086 h -0.07188 -0.07188 v 0.086 0.086 h 0.07188 0.07188 z m 54.771389,-0.086 v -0.17199 h -0.15224 -0.15224 l 0.0889,0.17199 0.0889,0.17197 h 0.0634 0.0634 z m 5.89403,0.086 v -0.086 h -0.0719 -0.0718 v 0.086 0.086 h 0.0718 0.0719 z m 24.82204,-0.0287 -0.0958,-0.11465 -0.0958,0.11465 -0.0958,0.11466 h 0.19167 0.19167 z m 4.50437,-0.15346 v -0.0759 h -0.14376 -0.14375 v 0.18213 0.18213 l 0.14375,-0.10628 0.14376,-0.10629 z m -2.10603,-0.23943 0.12219,-0.14598 -0.48158,-0.0144 -0.48159,-0.0144 -0.21563,-0.0299 -0.21564,-0.0299 -0.27904,0.0271 -0.27907,0.0271 0.27907,0.26147 0.27904,0.26147 0.57503,-0.0983 0.57503,-0.0983 0.12219,-0.14597 z m -104.992876,0.0776 v -0.086 h -0.07188 -0.07187 v 0.086 0.086 h 0.07187 0.07188 z m 14.902804,-0.20065 -0.09584,-0.11465 -0.09584,0.11465 -0.09584,0.11466 h 0.191674 0.191676 z m 48.589842,0 -0.0958,-0.11465 -0.0958,0.11465 -0.0958,0.11466 h 0.19168 0.19167 z m 37.99975,0.0287 v -0.086 h -0.0718 -0.0719 v 0.086 0.086 h 0.0719 0.0718 z m 1.53342,-0.0287 -0.0958,-0.11465 -0.0958,0.11465 -0.0958,0.11466 h 0.19167 0.19167 z m 2.92304,0.0287 v -0.086 h -0.0718 -0.0719 v 0.086 0.086 h 0.0719 0.0718 z m -30.66814,-0.20064 -0.0958,-0.11466 -0.0958,0.11466 -0.0958,0.11465 h 0.19168 0.19168 z m -15.99051,-0.24774 -0.0984,-0.1904 0.28124,0.10679 0.28123,0.10678 0.27587,-0.30334 0.27584,-0.30333 0.0407,-0.29281 0.0407,-0.2928 -0.54381,-0.17316 -0.54384,-0.17316 -0.21562,0.0443 -0.21564,0.0443 -0.32254,0.21216 -0.32252,0.21216 -0.51417,-0.0414 -0.51417,-0.0414 -0.0703,-0.13601 -0.0703,-0.13602 h -0.23426 -0.23425 l 0.27868,0.30635 0.27868,0.30634 0.64691,0.22811 0.64689,0.22811 0.3594,0.23257 0.35939,0.23257 0.1163,0.007 0.1163,0.007 z m -0.0983,-0.43943 0.17969,-0.0867 0.1797,0.0867 0.1797,0.0867 h -0.3594 -0.35939 z m -0.49117,-0.34471 0.0958,-0.11465 0.0959,0.11465 0.0958,0.11466 h -0.19168 -0.19167 z m 13.8965,0.88856 v -0.086 h -0.0718 -0.0718 v 0.086 0.086 h 0.0718 0.0718 z m -68.284537,-0.27452 -0.215636,-0.18325 0.378883,0.0982 0.378884,0.0982 0.167838,-0.24193 0.167841,-0.24194 -0.25921,-0.0677 -0.259208,-0.0677 -0.395332,0.15619 -0.395331,0.15619 v 0.24115 0.24114 l 0.323452,-0.003 0.323454,-0.003 -0.215635,-0.18325 z m 97.898467,0.10254 v -0.086 h -0.0718 -0.0719 v 0.086 0.086 h 0.0719 0.0718 z m -92.866974,-0.47927 0.215634,-0.0955 -0.638443,-0.0136 -0.638442,-0.0136 0.278643,0.24374 0.278643,0.24375 0.144166,-0.13467 0.144163,-0.13466 z m 93.513884,0.2213 -0.0889,-0.17198 h -0.13529 -0.13527 v 0.17198 0.17198 h 0.22412 0.22412 z M 65.192218,72.18647 64.926789,72.0019 l -0.158655,0.1898 -0.158652,0.1898 0.424084,-0.005 0.424082,-0.005 -0.26543,-0.18457 z m 0.696701,0.0231 -0.08885,-0.17199 h -0.135273 -0.135272 v 0.17199 0.17197 h 0.22412 0.224118 z m 11.141163,0.086 v -0.086 h -0.07188 -0.07188 v 0.086 0.086 h 0.07188 0.07188 z m 97.706798,-0.0287 -0.0958,-0.11465 -0.0959,0.11465 -0.0958,0.11465 h 0.19167 0.19167 z M 64.523228,72.12324 v -0.086 h -0.07188 -0.07188 v 0.086 0.086 h 0.07188 0.07188 z m 13.081881,0 v -0.086 h -0.07188 -0.07187 v 0.086 0.086 h 0.07187 0.07188 z m 22.569841,0 v -0.086 h -0.0719 -0.0718 v 0.086 0.086 h 0.0718 0.0719 z m 48.15857,-0.17198 v -0.086 h -0.0718 -0.0719 v 0.086 0.086 h 0.0719 0.0718 z M 79.042678,71.79935 v -0.0659 l -0.287514,-0.0899 -0.287513,-0.0899 v 0.15588 0.15587 h 0.287513 0.287514 z m 4.887736,-0.002 v -0.0676 l -0.223103,-0.10242 -0.223101,-0.10241 0.08783,0.17 0.08783,0.17001 h 0.135274 0.135272 v -0.0676 z m 30.476456,-0.70633 v -0.086 h -0.0718 -0.0719 v 0.086 0.086 h 0.0719 0.0718 z m 71.01594,0 v -0.086 h -0.0718 -0.0719 v 0.086 0.086 h 0.0719 0.0718 z m -54.5318,-0.37262 -0.0958,-0.11466 -0.0958,0.11466 -0.0958,0.11465 h 0.19167 0.19168 z m 38.09559,0 -0.0958,-0.11466 -0.0958,0.11466 -0.0958,0.11465 h 0.19167 0.19167 z m 5.6814,-0.003 -0.18869,-0.0903 -0.0868,0.10391 -0.0868,0.1039 0.27553,-0.0136 0.27553,-0.0136 -0.18867,-0.0903 z m -23.93854,-0.34114 -0.0958,-0.11464 -0.0958,0.11464 -0.0958,0.11466 h 0.19167 0.19167 z m -70.869565,-0.4665 -0.08085,-0.25204 -0.296307,0.0927 -0.296307,0.0927 v 0.13996 0.13996 l 0.323453,0.0618 0.323452,0.0618 0.05369,-0.0425 0.05369,-0.0424 z m -14.522044,-0.0494 -0.09584,-0.11465 -0.09584,0.11465 -0.09584,0.11465 h 0.191676 0.191676 z m 12.554772,0.0287 v -0.086 h -0.07188 -0.07188 v 0.086 0.086 h 0.07188 0.07188 z m 0.527108,-0.0287 -0.09584,-0.11465 -0.09584,0.11465 -0.09584,0.11465 h 0.191674 0.191676 z m -0.958379,-0.3153 v -0.086 h -0.07188 -0.07188 v 0.086 0.086 h 0.07188 0.07188 z m -14.204983,-0.20347 -0.18868,-0.0903 -0.08685,0.1039 -0.08685,0.10391 0.275533,-0.0136 0.275534,-0.0136 -0.188681,-0.0903 z m -38.15048,5.61006 -0.331454,-0.0967 0.0175,-0.33321 0.0175,-0.3332 0.09201,-0.94588 0.09201,-0.94589 0.05871,-1.15505 0.05871,-1.15506 0.06349,-0.13479 0.06349,-0.13478 0.105242,-0.51594 0.105242,-0.51594 0.05503,-0.33132 0.05502,-0.33131 0.183064,-0.139 0.183064,-0.13899 0.190711,-0.003 0.190709,-0.003 -0.02558,0.55894 -0.02558,0.55892 0.01457,0.45783 0.01457,0.45783 0.575413,0.1163 0.575412,0.1163 0.323069,0.0606 0.323068,0.0606 0.612979,0.1836 0.612979,0.18361 1.300117,-0.17619 1.300118,-0.1762 0.674528,0.0261 0.674529,0.0261 0.52998,-0.26787 0.529979,-0.26787 0.176132,-0.70329 0.176132,-0.70328 0.164005,-0.16284 0.164003,-0.16283 0.379587,0.23559 0.379588,0.2356 0.22712,-0.41468 0.227119,-0.41468 h 0.238996 0.238996 l 0.322333,0.36227 0.322334,0.36226 -0.06833,0.21302 -0.06833,0.21301 0.512675,0.46781 0.512675,0.4678 -0.08306,0.16077 -0.08306,0.16077 h 0.367877 0.367876 v -0.23957 -0.23957 l 0.179697,-0.0828 0.179696,-0.0828 0.197815,-0.80463 0.197814,-0.80463 0.305335,0.0521 0.305334,0.0521 0.0076,1.20385 0.0076,1.20386 0.117701,0.48155 0.117703,0.48154 0.234184,-0.0534 0.234186,-0.0534 0.04972,-0.42819 0.04972,-0.42819 0.146064,-0.21278 0.146066,-0.21279 -0.09112,-0.28405 -0.09112,-0.28406 0.303491,-0.75001 0.303493,-0.75001 h 0.114166 0.114168 l 0.08668,0.38695 0.08668,0.38696 0.0019,0.90289 0.0019,0.90289 h 0.114498 0.114497 l -0.0076,0.38695 -0.0076,0.38695 -0.108991,0.20269 -0.108995,0.20267 0.314325,0.0553 0.314324,0.0553 0.05918,0.21498 0.05918,0.21497 H 42.61232 42.384706 v 0.17199 0.17197 h -0.369661 -0.369661 l 0.215636,0.25797 0.215635,0.25797 h 0.369661 0.36966 v 0.15192 0.15192 l 0.251576,0.1088 0.251574,0.1088 0.359392,0.25268 0.359393,0.25268 0.754723,0.003 0.754718,0.003 v 0.27637 0.27637 l 0.251575,-0.12421 0.251574,-0.12421 0.484654,-0.13875 0.484652,-0.13875 0.198193,0.091 0.198192,0.091 v -0.29642 -0.29643 l 0.315972,0.0988 0.315975,0.0988 0.174378,-0.17313 0.174377,-0.17314 0.09316,0.18033 0.09316,0.18034 0.243091,-0.003 0.24309,-0.003 -0.215635,-0.16671 -0.215635,-0.16672 0.251574,-0.003 0.251574,-0.003 0.01702,0.21498 0.01702,0.21497 -0.02513,0.1581 -0.02513,0.1581 0.223748,-0.22216 0.223746,-0.22215 0.21487,0.21334 0.214869,0.21334 0.28828,-0.0902 0.28828,-0.0902 v 0.15588 0.15588 l -0.179696,0.0198 -0.179696,0.0198 -0.280783,-0.0365 -0.280784,-0.0365 0.179712,0.25905 0.179711,0.25905 -0.617712,0.15426 -0.617714,0.15425 -4.918464,-0.0203 -4.918462,-0.0204 -0.289729,-0.31367 -0.289728,-0.31368 -0.09026,0.28138 -0.09026,0.28138 H 37.282472 36.379965 L 36.144483,74.5292 35.908999,74.09925 h -0.137694 -0.137704 l -0.0902,0.42995 -0.0902,0.42995 -0.235991,0.0203 -0.23599,0.0204 -0.07693,-0.008 -0.07693,-0.008 -2.582579,-0.10771 -2.582577,-0.10771 -0.420205,0.0144 -0.420204,0.0144 -0.118884,-0.21997 -0.118885,-0.21998 -0.129792,0.24109 -0.129791,0.24108 -1.443535,0.10288 -1.443534,0.10287 z m 3.909376,-0.41919 v -0.086 h -0.07188 -0.07187 v 0.086 0.086 h 0.07187 0.07188 z M 44.397256,74.1865 v -0.086 h -0.07188 -0.07188 v 0.086 0.086 h 0.07188 0.07188 z m -13.198683,-0.89138 -0.188681,-0.0903 -0.08685,0.10391 -0.08685,0.1039 0.275535,-0.0136 0.275534,-0.0136 z m 0.754399,-0.72439 0.07954,-0.15396 -0.227782,-0.10458 -0.227783,-0.10456 -0.130784,0.0967 -0.130784,0.0967 v 0.16183 0.16183 h 0.279029 0.27903 z m 0.656216,-0.018 v -0.17198 h -0.135273 -0.135272 l -0.08885,0.17198 -0.08885,0.17198 h 0.224119 0.224119 z m -1.437569,-0.25797 v -0.086 h -0.07187 -0.07188 v 0.086 0.086 h 0.07188 0.07187 z m -3.018896,-1.28984 v -0.17198 h -0.143757 -0.143757 v 0.17198 0.17198 h 0.143757 0.143757 z m -1.150056,-0.086 v -0.086 h -0.07187 -0.07188 v 0.086 0.086 h 0.07188 0.07187 z m 31.518708,4.08517 -0.610966,-0.0634 v -0.24808 -0.24808 l -0.610967,-0.022 -0.610967,-0.022 -0.310803,-0.0398 -0.310803,-0.0399 -0.228285,-0.1048 -0.228286,-0.1048 v -0.17737 -0.17738 h 0.215635 0.215636 v 0.17198 0.17198 h 0.143756 0.143757 v -0.42995 -0.42994 h 0.143758 0.143757 v 0.26877 0.26878 l 0.251574,-0.0306 0.251574,-0.0306 0.431271,0.0224 0.431271,0.0224 -0.215635,0.18326 -0.215636,0.18325 0.395332,-0.10317 0.395332,-0.10318 v 0.17526 0.17526 h -0.143757 -0.143758 v 0.27636 0.27637 l 0.227394,-0.10439 0.227391,-0.10439 h 0.206618 0.206617 l -0.0902,-0.42995 -0.0902,-0.42994 h 0.291121 0.291117 l 0.04951,0.17768 0.04951,0.17769 0.692087,0.0481 0.692085,0.0481 0.09699,0.17935 0.09699,0.17935 0.553238,0.12176 0.553239,0.12177 -0.09451,-0.18295 -0.09451,-0.18294 H 61.703016 61.48738 l 0.08126,-0.1573 0.08126,-0.15728 -0.176884,-0.0705 -0.176884,-0.0705 0.319943,-0.10009 0.319945,-0.10009 -0.07125,0.13792 -0.07125,0.13791 0.226566,0.10402 0.226567,0.10401 h 0.22148 0.221481 l -0.178978,-0.25797 -0.178961,-0.25797 h 0.145979 0.145977 l 0.08726,0.27203 0.08726,0.27204 v 0.17631 0.17632 l -0.233902,-0.10738 -0.233899,-0.10738 -0.185563,0.30395 -0.185562,0.30395 -1.413437,0.0105 -1.413439,0.0105 -0.610968,-0.0634 z m 2.264173,-0.19414 v -0.15048 l -0.449241,-0.10749 -0.44924,-0.10749 h -0.20615 -0.20615 l 0.09246,0.17897 0.09246,0.17898 0.263318,-0.1 0.263318,-0.1 0.09246,0.17897 0.09246,0.17898 h 0.207153 0.207151 z m -1.581327,-0.62343 v -0.086 h -0.07187 -0.07187 v 0.086 0.086 h 0.07187 0.07187 z m -2.443868,-0.17153 v -0.086 h -0.07187 -0.07188 v 0.086 0.086 h 0.07188 0.07187 z m 91.141897,0.77391 v -0.2293 l 0.0958,0.11465 0.0958,0.11465 -0.0958,0.11465 -0.0958,0.11465 z m -63.540565,-0.086 v -0.086 h 0.07188 0.07188 v 0.086 0.086 h -0.07188 -0.07188 z m 0.335432,-0.0287 0.09584,-0.11465 0.09584,0.11465 0.09584,0.11466 H 84.792955 84.60128 Z m -21.252066,-0.40128 0.287514,-0.1478 0.188181,-0.0121 0.188179,-0.0121 -0.08885,0.17198 -0.08885,0.17198 -0.386849,-0.0121 -0.386847,-0.0121 z m 0.790663,0.086 v -0.086 h 0.07187 0.07188 v 0.086 0.086 h -0.07188 -0.07187 z m 16.579966,-0.0287 0.09584,-0.11465 0.09584,0.11465 0.09584,0.11466 h -0.191676 -0.191675 z m -1.725083,-0.17197 0.09584,-0.11466 0.09584,0.11466 0.09584,0.11465 h -0.191675 -0.191674 z m -19.550943,-0.34396 0.09584,-0.11466 0.09584,0.11466 0.09584,0.11465 h -0.191676 -0.191676 z m 1.533407,0.0287 v -0.086 h 0.07188 0.07187 v 0.086 0.086 h -0.07187 -0.07188 z m -14.08818,-0.17198 v -0.086 h 0.07187 0.07187 v 0.086 0.086 h -0.07187 -0.07187 z m 11.304496,-0.17297 -0.08243,-0.25698 h 0.211122 0.211125 v 0.16183 0.16183 l -0.128695,0.0951 -0.128692,0.0952 z m 0.627331,10e-4 v -0.086 h 0.07187 0.07187 v 0.086 0.086 h -0.07187 -0.07187 z m 11.931824,0 v -0.086 h 0.07187 0.07188 v 0.086 0.086 h -0.07188 -0.07187 z m 3.450168,0 v -0.086 h 0.07188 0.07187 v 0.086 0.086 H 74.37058 74.2987 Z m -25.188713,-0.47037 0.328143,-0.18912 0.167819,0.20076 0.167817,0.20077 -0.495962,-0.0116 -0.495961,-0.0116 z m 1.037547,0.0404 0.215635,-0.16671 0.179697,-0.003 0.179695,-0.003 v 0.17197 0.17199 l -0.395331,-0.003 -0.395332,-0.003 z m 5.750277,0.086 v -0.086 h 0.07188 0.07187 v 0.086 0.086 h -0.07187 -0.07188 z m 9.344202,0 v -0.086 h 0.07188 0.07187 v 0.086 0.086 h -0.07187 -0.07188 z m -4.983575,-0.20064 0.09584,-0.11466 0.09584,0.11466 0.09584,0.11465 h -0.191675 -0.191676 z m -9.634238,-0.34402 0.100583,-0.2007 -0.576139,0.0554 -0.576137,0.0554 v -0.22728 -0.22729 l -0.179696,-0.0783 -0.179697,-0.0783 0.551082,-0.12986 0.551083,-0.12985 -0.07042,-0.32213 -0.07042,-0.32213 h 0.108302 0.108303 l 0.32271,-0.33483 0.322708,-0.33483 -0.08409,-0.16276 -0.08409,-0.16276 0.32246,-0.1057 0.32246,-0.1057 0.287514,-0.2996 0.287513,-0.2996 0.211249,-0.48917 0.211249,-0.48917 0.682454,-0.41372 0.682451,-0.41372 h 0.371312 0.37131 l 0.388192,0.22786 0.388193,0.22787 0.486709,0.0346 0.486711,0.0346 0.232074,0.16224 0.232075,0.16224 -0.335432,0.005 -0.335434,0.005 0.06046,0.21498 0.06046,0.21497 0.382788,-0.0553 0.382789,-0.0553 v 0.19444 0.19443 l -0.114683,-0.0848 -0.11468,-0.0848 -0.199528,0.14753 -0.199528,0.14752 0.188055,0.27108 0.188055,0.27107 0.305849,0.005 0.305852,0.005 0.279051,0.2525 0.279052,0.25251 -0.710322,0.003 -0.710323,0.003 -0.215635,0.16671 -0.215635,0.16671 0.575027,0.0354 0.575028,0.0354 0.723858,-0.0257 0.723858,-0.0257 0.02926,0.42289 0.02926,0.42288 h -0.133662 -0.133663 l -0.0855,-0.16549 -0.0855,-0.16549 -0.378781,0.20646 -0.378781,0.20647 -0.05933,-0.21295 -0.05934,-0.21296 h -0.275532 -0.275534 v 0.18631 0.18632 l 0.178412,-0.0712 0.178413,-0.0711 0.191248,0.22879 0.191248,0.22879 h 0.340639 0.340641 l 0.08601,0.1665 0.08601,0.16649 -0.718396,-0.0318 -0.718395,-0.0319 0.153066,-0.11317 0.153067,-0.11318 -0.178034,-0.13163 -0.178035,-0.13163 -0.136432,0.29165 -0.136431,0.29165 -0.204032,-0.20257 -0.204031,-0.20258 -0.0023,0.15005 -0.0023,0.15004 -0.123585,-0.23334 -0.123586,-0.23333 -0.09833,0.19034 -0.09833,0.19034 h 0.15224 0.152241 v 0.26337 0.26336 l -0.234031,0.10744 -0.23403,0.10743 -0.233179,-0.36521 -0.233181,-0.36522 -1.170024,-0.0892 -1.170025,-0.0892 -0.177328,0.25561 -0.17733,0.25562 H 52.286132 52.01622 v 0.15431 0.15432 l -0.539089,-0.0391 -0.539089,-0.039 -0.207291,0.18569 -0.207292,0.18568 z m 5.80072,-1.37577 -0.09584,-0.11466 v 0.22931 0.22931 l 0.09584,-0.11466 0.09584,-0.11465 z m 122.90811,1.23251 -0.0828,-0.25796 h 0.13923 0.13925 v 0.25796 0.25798 h -0.0565 -0.0566 z m -122.956029,-0.0287 0.09584,-0.11465 0.09584,0.11465 0.09584,0.11465 H 56.47284 56.281163 Z m 0.882621,-0.0498 0.08496,-0.16446 0.211031,0.0969 0.211032,0.0969 v 0.0676 0.0676 H 57.47065 57.174654 Z m -2.511865,-0.0935 v -0.086 h 0.07187 0.07187 v 0.086 0.086 h -0.07187 -0.07187 z m 125.068523,0 v -0.086 h 0.0719 0.0719 v 0.086 0.086 h -0.0719 -0.0719 z m 0.3594,-0.086 -0.0889,-0.17198 h 0.15224 0.15224 v 0.17198 0.17198 h -0.0634 -0.0634 z m -4.19292,-0.28663 0.0958,-0.11465 0.0958,0.11465 0.0958,0.11465 h -0.19167 -0.19167 z m -117.314633,-0.16083 0.08685,-0.10391 0.188681,0.0903 0.188681,0.0903 -0.275536,0.0136 -0.275532,0.0136 0.08685,-0.10391 z m 0.538295,-0.78465 -0.0022,-0.28664 -0.179697,-0.0867 -0.179696,-0.0867 0.24309,-0.0136 0.243092,-0.0136 0.07087,0.13719 0.07087,0.1372 -0.13207,0.24975 -0.13207,0.24976 -0.0022,-0.28663 z m 41.543558,-0.57327 v -0.086 h 0.0718 0.0719 v 0.086 0.086 h -0.0719 -0.0718 z m 37.52056,-1.37584 v -0.086 h 0.0718 0.0719 v 0.086 0.086 h -0.0719 -0.0718 z" style="fill:url(#linearGradient915);fill-opacity:1;stroke-width:0.93583548;filter:url(#filter1311)">
      <title id="title3905">Grunge Divider  --  by Arvin61r58</title>
    </path>
  </g>
</svg>