<?xml version="1.0" encoding="UTF-8" standalone="no"?>
<!-- Created with Inkscape (http://www.inkscape.org/) -->
<svg xmlns:dc="http://purl.org/dc/elements/1.1/" xmlns:cc="http://creativecommons.org/ns#" xmlns:rdf="http://www.w3.org/1999/02/22-rdf-syntax-ns#" xmlns:svg="http://www.w3.org/2000/svg" xmlns="http://www.w3.org/2000/svg" xmlns:xlink="http://www.w3.org/1999/xlink" xmlns:sodipodi="http://sodipodi.sourceforge.net/DTD/sodipodi-0.dtd" xmlns:inkscape="http://www.inkscape.org/namespaces/inkscape" id="svg5444" sodipodi:docname="stool_01.svg" viewBox="0 0 800 800" version="1.1" inkscape:version="0.48.2 r9819">
  <defs id="defs5446">
    <linearGradient id="linearGradient7215" y2="130.07001" gradientUnits="userSpaceOnUse" x2="569.34998" y1="286.38" x1="125.89" inkscape:collect="always">
      <stop id="stop7035" style="stop-color:#867850" offset="0"/>
      <stop id="stop7041" style="stop-color:#a08872" offset=".35474"/>
      <stop id="stop7037" style="stop-color:#867850" offset="1"/>
    </linearGradient>
    <linearGradient id="linearGradient7217" y2="335.09" gradientUnits="userSpaceOnUse" x2="411.64001" y1="330.39001" x1="412.44" inkscape:collect="always">
      <stop id="stop7104" style="stop-color:#b8b8b8" offset="0"/>
      <stop id="stop7110" style="stop-color:#e3e3e3" offset=".5"/>
      <stop id="stop7106" style="stop-color:#b9b9b9" offset="1"/>
    </linearGradient>
    <linearGradient id="linearGradient7219" y2="335.09" gradientUnits="userSpaceOnUse" x2="411.64001" gradientTransform="matrix(0.90747,-0.42013,0.42013,0.90747,-96.493,204.08)" y1="330.39001" x1="412.44" inkscape:collect="always">
      <stop id="stop7104-7" style="stop-color:#b8b8b8" offset="0"/>
      <stop id="stop7110-8" style="stop-color:#e3e3e3" offset=".5"/>
      <stop id="stop7106-8" style="stop-color:#b9b9b9" offset="1"/>
    </linearGradient>
    <linearGradient id="linearGradient7221" y2="335.09" gradientUnits="userSpaceOnUse" x2="411.64001" gradientTransform="matrix(-0.96884,-0.24771,0.24771,-0.96884,748.05,756.69)" y1="330.39001" x1="412.44" inkscape:collect="always">
      <stop id="stop7104-5" style="stop-color:#b8b8b8" offset="0"/>
      <stop id="stop7110-4" style="stop-color:#e3e3e3" offset=".5"/>
      <stop id="stop7106-1" style="stop-color:#b9b9b9" offset="1"/>
    </linearGradient>
    <linearGradient inkscape:collect="always" xlink:href="#linearGradient7215" id="linearGradient3309" gradientUnits="userSpaceOnUse" gradientTransform="matrix(2.0416324,0,0,2.0051577,-127.0355,-348.20017)" x1="125.89" y1="286.38" x2="569.34998" y2="130.07001"/>
    <linearGradient inkscape:collect="always" xlink:href="#linearGradient7217" id="linearGradient3311" gradientUnits="userSpaceOnUse" gradientTransform="matrix(2.0416324,0,0,2.0051577,-127.0355,-348.20017)" x1="412.44" y1="330.39001" x2="411.64001" y2="335.09"/>
    <linearGradient inkscape:collect="always" xlink:href="#linearGradient7219" id="linearGradient3313" gradientUnits="userSpaceOnUse" gradientTransform="matrix(1.8527202,-0.8424269,0.85775102,1.8196205,-324.03874,61.012413)" x1="412.44" y1="330.39001" x2="411.64001" y2="335.09"/>
    <linearGradient inkscape:collect="always" xlink:href="#linearGradient7221" id="linearGradient3315" gradientUnits="userSpaceOnUse" gradientTransform="matrix(-1.9780151,-0.49669761,0.50573276,-1.942677,1400.2076,1169.0826)" x1="412.44" y1="330.39001" x2="411.64001" y2="335.09"/>
  </defs>
  <sodipodi:namedview id="base" bordercolor="#666666" inkscape:pageshadow="2" inkscape:window-y="-15" pagecolor="#ffffff" inkscape:window-height="999" inkscape:window-maximized="0" inkscape:zoom="1.0396203" inkscape:window-x="163" showgrid="false" borderopacity="1.0" inkscape:current-layer="layer1" inkscape:cx="380.6499" inkscape:cy="359.75626" inkscape:window-width="1383" inkscape:pageopacity="0.0" inkscape:document-units="px">
    <inkscape:grid type="xygrid" id="grid3850" empspacing="100" visible="true" enabled="true" snapvisiblegridlinesonly="true"/>
  </sodipodi:namedview>
  <g id="layer1" inkscape:label="Layer 1" inkscape:groupmode="layer" transform="translate(-129.82,456.974)">
    <text xml:space="preserve" style="font-size:36px;font-style:normal;font-variant:normal;font-weight:normal;font-stretch:normal;line-height:125%;letter-spacing:0px;word-spacing:0px;fill:#000000;fill-opacity:1;stroke:none;font-family:HGMinchoE;-inkscape-font-specification:HGMinchoE" x="327.50964" y="102.02126" id="text3034" sodipodi:linespacing="125%" transform="translate(129.82,97.675995)">
      <tspan sodipodi:role="line" id="tspan3036" x="327.50964" y="102.02126"/>
    </text>
    <text xml:space="preserve" style="font-size:36px;font-style:normal;font-variant:normal;font-weight:normal;font-stretch:normal;line-height:125%;letter-spacing:0px;word-spacing:0px;fill:#000000;fill-opacity:1;stroke:none;font-family:HGMinchoE;-inkscape-font-specification:HGMinchoE" x="105.47612" y="186.97411" id="text3811" sodipodi:linespacing="125%" transform="translate(129.82,-156.974)">
      <tspan sodipodi:role="line" id="tspan3813" x="105.47612" y="186.97411"/>
    </text>
    <text xml:space="preserve" style="font-size:36px;font-style:normal;font-variant:normal;font-weight:normal;font-stretch:normal;line-height:125%;letter-spacing:0px;word-spacing:0px;fill:#000000;fill-opacity:1;stroke:none;font-family:HGMinchoE;-inkscape-font-specification:HGMinchoE" x="-307.92221" y="590.1651" id="text3833" sodipodi:linespacing="125%" transform="translate(129.82,-156.974)">
      <tspan sodipodi:role="line" id="tspan3835" x="-307.92221" y="590.1651"/>
    </text>
    <text xml:space="preserve" style="font-size:144px;font-style:normal;font-variant:normal;font-weight:normal;font-stretch:normal;line-height:125%;letter-spacing:0px;word-spacing:0px;fill:#000000;fill-opacity:1;stroke:none;font-family:HGMinchoE;-inkscape-font-specification:HGMinchoE" x="-299.41608" y="710.95227" id="text3844" sodipodi:linespacing="125%" transform="translate(129.82,-156.974)">
      <tspan sodipodi:role="line" id="tspan3848" x="-299.41608" y="710.95227"/>
    </text>
    <text xml:space="preserve" style="font-size:144px;font-style:normal;font-variant:normal;font-weight:normal;font-stretch:normal;line-height:125%;letter-spacing:0px;word-spacing:0px;fill:#000000;fill-opacity:1;stroke:none;font-family:HGMinchoE;-inkscape-font-specification:HGMinchoE" x="90.16507" y="246.51707" id="text3867" sodipodi:linespacing="125%" transform="translate(129.82,-156.974)">
      <tspan sodipodi:role="line" id="tspan3869" x="90.16507" y="246.51707"/>
    </text>
    <text xml:space="preserve" style="font-size:144px;font-style:normal;font-variant:normal;font-weight:normal;font-stretch:normal;line-height:125%;letter-spacing:0px;word-spacing:0px;fill:#000000;fill-opacity:1;stroke:none;font-family:HGMinchoE;-inkscape-font-specification:HGMinchoE" x="132.69576" y="238.01093" id="text4010" sodipodi:linespacing="125%" transform="translate(129.82,-156.974)">
      <tspan sodipodi:role="line" id="tspan4012" x="132.69576" y="238.01093"/>
    </text>
    <text xml:space="preserve" style="font-size:47.0534935px;font-style:normal;font-variant:normal;font-weight:normal;font-stretch:normal;line-height:125%;letter-spacing:0px;word-spacing:0px;fill:#fffafa;fill-opacity:1;stroke:none;font-family:HGMinchoE;-inkscape-font-specification:HGMinchoE" x="592.6474" y="264.25369" id="text3860" sodipodi:linespacing="125%" transform="scale(1.0333274,0.96774749)">
      <tspan sodipodi:role="line" id="tspan3862" x="592.6474" y="264.25369"/>
    </text>
    <text xml:space="preserve" style="font-size:46.5856514px;font-style:normal;font-variant:normal;font-weight:normal;font-stretch:normal;line-height:125%;letter-spacing:0px;word-spacing:0px;fill:#ffffff;fill-opacity:1;stroke:none;font-family:HGMinchoE;-inkscape-font-specification:HGMinchoE" x="520.0661" y="123.70082" id="text3881" sodipodi:linespacing="125%" transform="scale(0.89997279,1.1111447)">
      <tspan sodipodi:role="line" id="tspan3883" x="520.0661" y="123.70082"/>
    </text>
    <text xml:space="preserve" style="font-size:144px;font-style:normal;font-variant:normal;font-weight:normal;font-stretch:normal;line-height:125%;letter-spacing:0px;word-spacing:0px;fill:#000000;fill-opacity:1;stroke:none;font-family:HGMinchoE;-inkscape-font-specification:HGMinchoE" x="153.1105" y="212.49251" id="text3889" sodipodi:linespacing="125%" transform="translate(129.82,-156.974)">
      <tspan sodipodi:role="line" id="tspan3891" x="153.1105" y="212.49251"/>
    </text>
    <text xml:space="preserve" style="font-size:53.58699417px;font-style:normal;font-variant:normal;font-weight:normal;font-stretch:normal;line-height:125%;letter-spacing:0px;word-spacing:0px;fill:#ffffff;fill-opacity:1;stroke:none;font-family:HGMinchoE;-inkscape-font-specification:HGMinchoE" x="471.32263" y="284.80295" id="text3911" sodipodi:linespacing="125%" transform="scale(1.1298256,0.88509236)">
      <tspan sodipodi:role="line" id="tspan3913" x="471.32263" y="284.80295"/>
    </text>
    <g id="g3189">
      <g id="g3165">
        <g id="g3142">
          <g id="g3120">
            <path style="fill:#555555;fill-opacity:1;stroke:#000000;stroke-width:0;stroke-linecap:butt;stroke-linejoin:miter;stroke-miterlimit:4;stroke-opacity:1;stroke-dasharray:none" d="m 402.34418,-345.29523 42.08218,5.66912 -38.61082,189.2739 -4.4857,4.54259 -2.45677,7.93435 4.96111,5.69335 -43.58787,230.157069 -3.96271,1.514182 -4.46975,5.657019 4.17849,7.51181 1.48321,4.44917 -23.44478,135.1314 -10.08287,2.55807 -13.28204,-0.87849 -11.83913,-3.00986 z" id="path2993" inkscape:connector-curvature="0" sodipodi:nodetypes="cccccccccccccccc"/>
            <path style="fill:#555555;fill-opacity:1;stroke:#000000;stroke-width:0;stroke-linecap:butt;stroke-linejoin:miter;stroke-miterlimit:4;stroke-opacity:1;stroke-dasharray:none" d="m 586.11109,-338.11191 35.17134,-0.36341 20.30417,622.69597 -17.83146,3.0284 -13.62404,-0.22426 -10.15125,-2.80414 z" id="path2995" inkscape:connector-curvature="0" sodipodi:nodetypes="ccccccc"/>
            <path style="fill:#555555;fill-opacity:1;stroke:#000000;stroke-width:0;stroke-linecap:butt;stroke-linejoin:miter;stroke-miterlimit:4;stroke-opacity:1;stroke-dasharray:none" d="m 405.81554,-150.35221 186.2075,10.59935 0.50729,17.03161 -188.69615,-9.46067 -5.94382,-6.05676 2.00704,-7.19857 z" id="path2997" inkscape:connector-curvature="0" sodipodi:nodetypes="ccccccc"/>
            <path style="fill:#555555;fill-opacity:1;stroke:#000000;stroke-width:0;stroke-linecap:butt;stroke-linejoin:miter;stroke-miterlimit:4;stroke-opacity:1;stroke-dasharray:none" d="m 360.24631,97.975149 -5.95976,1.187102 -5.26648,8.774639 5.31405,7.44541 245.64573,15.90505 -3.96247,-19.68447 z" id="path2999" inkscape:connector-curvature="0" sodipodi:nodetypes="ccccccc"/>
            <path style="fill:#555555;fill-opacity:1;stroke:#000000;stroke-width:0;stroke-linecap:butt;stroke-linejoin:miter;stroke-miterlimit:4;stroke-opacity:1;stroke-dasharray:none" d="m 363.2577,58.981687 -3.96247,21.937605 94.07065,-43.511796 -1.98136,-12.113526 -8.46385,-2.253115 z" id="path3001" inkscape:connector-curvature="0" sodipodi:nodetypes="cccccc"/>
            <path style="fill:#555555;fill-opacity:1;stroke:#000000;stroke-width:0;stroke-linecap:butt;stroke-linejoin:miter;stroke-miterlimit:4;stroke-opacity:1;stroke-dasharray:none" d="m 625.81569,80.943521 2.45677,23.064159 95.49714,-50.307489 -1.96542,-6.056763 -14.83553,-1.150786 -9.90653,0 z" id="path3003" inkscape:connector-curvature="0" sodipodi:nodetypes="ccccccc"/>
            <path style="fill:#555555;fill-opacity:1;stroke:#000000;stroke-width:0;stroke-linecap:butt;stroke-linejoin:miter;stroke-miterlimit:4;stroke-opacity:1;stroke-dasharray:none" d="m 621.32999,-172.68956 50.97413,-20.05999 13.85306,2.30157 3.91419,9.44854 -14.32848,8.67329 -58.32851,24.55414 z" id="path3005" inkscape:connector-curvature="0" sodipodi:nodetypes="ccccccc"/>
            <path style="fill:#555555;fill-opacity:1;stroke:#000000;stroke-width:0;stroke-linecap:butt;stroke-linejoin:miter;stroke-miterlimit:4;stroke-opacity:1;stroke-dasharray:none" d="m 454.38022,-201.45919 13.28465,1.46107 5.52953,5.73437 0.47565,6.42018 -21.65147,10.16326 -45.68006,13.31275 6.43518,-24.21495 z" id="path3007" inkscape:connector-curvature="0" sodipodi:nodetypes="cccccccc"/>
            <path style="fill:#555555;fill-opacity:1;stroke:#000000;stroke-width:0;stroke-linecap:butt;stroke-linejoin:miter;stroke-miterlimit:4;stroke-opacity:1;stroke-dasharray:none" d="m 483.11662,-180.2484 -5.18134,1.74078 -2.26818,8.84644 5.95976,9.07304 110.42805,1.15079 0,-18.17029 z" id="path3009" inkscape:connector-curvature="0" sodipodi:nodetypes="ccccccc"/>
            <path style="fill:#555555;fill-opacity:1;stroke:#000000;stroke-width:0;stroke-linecap:butt;stroke-linejoin:miter;stroke-miterlimit:4;stroke-opacity:1;stroke-dasharray:none" d="m 467.74193,43.864008 -4.46976,10.587221 1.03027,8.309878 134.679,8.709645 -1.98135,-18.170309 z" id="path3011" inkscape:connector-curvature="0" sodipodi:nodetypes="cccccc"/>
            <path style="fill:#555555;fill-opacity:1;stroke:#000000;stroke-width:0;stroke-linecap:butt;stroke-linejoin:miter;stroke-miterlimit:4;stroke-opacity:1;stroke-dasharray:none" d="m 629.2711,61.234802 3.43949,18.121869 3.01139,-1.102328 36.05915,-17.770579 z" id="path3013" inkscape:connector-curvature="0" sodipodi:nodetypes="ccccc"/>
            <path style="fill:#555555;fill-opacity:1;stroke:#000000;stroke-width:0;stroke-linecap:butt;stroke-linejoin:miter;stroke-miterlimit:4;stroke-opacity:1;stroke-dasharray:none" d="M 667.42244,80.180378 702.02323,79.78063 713.81575,67.703437 728.0969,51.883158 z" id="path3015" inkscape:connector-curvature="0" sodipodi:nodetypes="ccccc"/>
            <path style="fill:#555555;fill-opacity:1;stroke:#000000;stroke-width:0;stroke-linecap:butt;stroke-linejoin:miter;stroke-miterlimit:4;stroke-opacity:1;stroke-dasharray:none" d="m 464.0444,-342.06315 14.59723,3.37771 23.2416,-0.1654 -14.83577,159.729 c 0,0 -9.90629,-1.51418 -9.90629,6.05676 0,7.57097 5.94382,10.59935 5.94382,10.59935 l 0,3.02838 -0.99864,16.99529 -33.1743,-2.64076 2.47247,-32.52482 21.79418,-10.59935 -3.96271,-7.57094 -5.94382,-4.54258 -11.88765,0 z" id="path3017" inkscape:connector-curvature="0" sodipodi:nodetypes="ccccscccccccccc"/>
            <path style="fill:#555555;fill-opacity:1;stroke:#000000;stroke-width:0;stroke-linecap:butt;stroke-linejoin:miter;stroke-miterlimit:4;stroke-opacity:1;stroke-dasharray:none" d="m 448.43663,-133.64766 c 0,0 33.21593,-3.38194 33.21593,2.67482 0,6.05676 -12.43657,175.9513 -12.43657,175.9513 l -3.50274,9.460664 1.52163,8.709626 -1.98136,42.39734 c 0,0 -37.70162,5.50448 -35.72027,-2.06649 1.98112,-7.570943 3.96247,-56.025068 3.96247,-56.025068 l 17.8888,-10.047036 0,-10.599327 -15.73496,-1.514199 z" id="path3019" inkscape:connector-curvature="0" sodipodi:nodetypes="csccccsccccc"/>
            <path style="fill:#555555;fill-opacity:1;stroke:#000000;stroke-width:0;stroke-linecap:butt;stroke-linejoin:miter;stroke-miterlimit:4;stroke-opacity:1;stroke-dasharray:none" d="m 429.1311,119.18594 36.61378,0.76315 -4.45383,65.84915 -8.10878,4.86666 -13.93012,-0.11833 -13.62403,-0.80212 z" id="path3021" inkscape:connector-curvature="0" sodipodi:nodetypes="ccccccc"/>
            <path style="fill:#555555;fill-opacity:1;stroke:#000000;stroke-width:0;stroke-linecap:butt;stroke-linejoin:miter;stroke-miterlimit:4;stroke-opacity:1;stroke-dasharray:none" d="m 638.11549,-157.53553 32.15995,-13.6156 0.0238,17.77054 z" id="path3023" inkscape:connector-curvature="0" sodipodi:nodetypes="cccc"/>
            <path style="fill:#555555;fill-opacity:1;stroke:#000000;stroke-width:0;stroke-linecap:butt;stroke-linejoin:miter;stroke-miterlimit:4;stroke-opacity:1;stroke-dasharray:none" d="m 643.56796,-340.35292 c 0,0 39.6254,-6.45651 33.68158,-0.39975 -5.94383,6.05677 78.14333,553.81776 78.14333,553.81776 l -20.68646,4.53116 -9.90653,-1.5142 -3.96247,-3.02838 -21.79394,-134.763011 5.94383,-3.028382 6.89466,-11.33826 8.46409,-10.974864 -1.48999,-4.942312 -7.44952,2.240992 -14.34442,-2.240992 -27.73776,-202.901611 -3.96247,-13.62773 21.79394,-13.62772 -7.92518,-9.08515 -17.83123,4.54258 z" id="path3025" inkscape:connector-curvature="0" sodipodi:nodetypes="csccccccccccccccccc"/>
            <path style="fill:none;stroke:#000000;stroke-width:0;stroke-linecap:butt;stroke-linejoin:miter;stroke-miterlimit:4;stroke-opacity:1;stroke-dasharray:none" d="m 413.74047,-388.08022 118.87621,-1.5142 87.17599,1.5142 55.47551,3.02839 45.56923,10.59934 4.19554,11.75706 1.74828,4.89903 -25.7564,13.62773 -95.10116,6.05676 c 0,0 -81.23192,1.51418 -91.13845,0 -9.90629,-1.5142 -71.32563,-1.5142 -71.32563,-1.5142 l -57.45687,-6.05676 -23.77529,-9.08515 0,-9.08514 1.98135,-13.62771 7.92494,-4.54258 21.79417,-1.5142 z" id="path2987" inkscape:connector-curvature="0" sodipodi:nodetypes="cccccccccscccccccc"/>
            <path style="fill:#6f6f6f;fill-opacity:1;stroke:#000000;stroke-width:0;stroke-linecap:butt;stroke-linejoin:miter;stroke-miterlimit:4;stroke-opacity:1;stroke-dasharray:none" d="m 419.08497,-389.27323 -19.99976,1.59891 -11.19913,2.65271 -8.43627,2.94292 -3.96128,5.65 -2.10716,7.49702 8.28144,1.52845 22.50148,4.03256 22.75786,3.47332 20.68517,1.31346 38.10402,2.74205 36.78715,2.00125 88.22219,-0.38764 48.57515,-1.52513 38.72664,-4.88671 19.84564,-3.17586 -3.22377,-10.61632 -7.92779,-5.02394 -13.79646,-3.94735 -15.50098,-3.27614 -19.92484,-2.30446 -20.8224,-1.33808 -46.8252,-1.14949 -46.44658,0.27962 -56.55716,0.1425 -31.87575,0.41198 z" id="path2989" inkscape:connector-curvature="0" sodipodi:nodetypes="ccccccccccccccccccccccccccc"/>
            <path style="fill:#555555;fill-opacity:1;stroke:#000000;stroke-width:0;stroke-linecap:butt;stroke-linejoin:miter;stroke-miterlimit:4;stroke-opacity:1;stroke-dasharray:none" d="m 374.71749,-369.84847 2.39423,7.99107 4.25856,7.15562 6.14265,4.99769 5.02866,2.51196 23.18024,6.05184 c 0,0 92.51001,4.33041 100.33149,5.30572 1.01981,0.12724 24.416,0.10906 51.01979,-0.46719 51.97254,-1.1258 124.94822,-4.24215 124.94822,-4.24215 l 12.83778,-3.59401 8.97733,-7.6971 3.07156,-12.03456 -9.81473,1.60479 -13.02137,0.7933 -13.07679,0.56762 -21.76564,-0.1305 -30.96224,0.51379 -39.73647,-0.0164 -45.05932,1.38033 -46.46703,-0.62995 -30.92871,-1.46849 -41.25049,-2.53582 -33.10556,-3.74182 z" id="path2991" inkscape:connector-curvature="0" sodipodi:nodetypes="ccccccsscccccccccccccccc"/>
          </g>
        </g>
      </g>
    </g>
  </g>
  <metadata id="metadata30">
    <rdf:RDF>
      <cc:Work>
        <dc:format>image/svg+xml</dc:format>
        <dc:type rdf:resource="http://purl.org/dc/dcmitype/StillImage"/>
        <cc:license rdf:resource="http://creativecommons.org/licenses/publicdomain/"/>
        <dc:publisher>
          <cc:Agent rdf:about="http://openclipart.org/">
            <dc:title>Openclipart</dc:title>
          </cc:Agent>
        </dc:publisher>
        <dc:title/>
        <dc:date>2010-04-21T03:43:54</dc:date>
        <dc:description>A blackboard with chalk and eraser. Drawn in Inkscape.</dc:description>
        <dc:source>https://openclipart.org/detail/49363/blackboard-by-j_alves</dc:source>
        <dc:creator>
          <cc:Agent>
            <dc:title>J_Alves</dc:title>
          </cc:Agent>
        </dc:creator>
        <dc:subject>
          <rdf:Bag>
            <rdf:li>blackboard</rdf:li>
            <rdf:li>chalk</rdf:li>
            <rdf:li>chalkboard</rdf:li>
            <rdf:li>education</rdf:li>
            <rdf:li>school</rdf:li>
          </rdf:Bag>
        </dc:subject>
      </cc:Work>
      <cc:License rdf:about="http://creativecommons.org/licenses/publicdomain/">
        <cc:permits rdf:resource="http://creativecommons.org/ns#Reproduction"/>
        <cc:permits rdf:resource="http://creativecommons.org/ns#Distribution"/>
        <cc:permits rdf:resource="http://creativecommons.org/ns#DerivativeWorks"/>
      </cc:License>
    </rdf:RDF>
  </metadata>
</svg>