<?xml version="1.0" encoding="UTF-8" standalone="no"?>
<!-- Created with Inkscape (http://www.inkscape.org/) -->

<svg
   xmlns:dc="http://purl.org/dc/elements/1.1/"
   xmlns:cc="http://creativecommons.org/ns#"
   xmlns:rdf="http://www.w3.org/1999/02/22-rdf-syntax-ns#"
   xmlns:svg="http://www.w3.org/2000/svg"
   xmlns="http://www.w3.org/2000/svg"
   xmlns:sodipodi="http://sodipodi.sourceforge.net/DTD/sodipodi-0.dtd"
   xmlns:inkscape="http://www.inkscape.org/namespaces/inkscape"
   width="566.84003"
   height="566.68561"
   id="svg2"
   version="1.1"
   inkscape:version="0.48.4 r9939"
   sodipodi:docname="chao.svg">
  <defs
     id="defs4" />
  <sodipodi:namedview
     id="base"
     pagecolor="#ffffff"
     bordercolor="#666666"
     borderopacity="1.0"
     inkscape:pageopacity="0.0"
     inkscape:pageshadow="2"
     inkscape:zoom="0.7"
     inkscape:cx="382.30425"
     inkscape:cy="106.23296"
     inkscape:document-units="px"
     inkscape:current-layer="layer1"
     showgrid="true"
     inkscape:window-width="1918"
     inkscape:window-height="1030"
     inkscape:window-x="0"
     inkscape:window-y="0"
     inkscape:window-maximized="1"
     showguides="false"
     fit-margin-top="0"
     fit-margin-left="0"
     fit-margin-right="0"
     fit-margin-bottom="0">
    <inkscape:grid
       type="xygrid"
       id="grid3148"
       empspacing="5"
       visible="true"
       enabled="true"
       snapvisiblegridlinesonly="true"
       originx="-83.208572px"
       originy="-308.46063px" />
  </sodipodi:namedview>
  <metadata
     id="metadata7">
    <rdf:RDF>
      <cc:Work
         rdf:about="">
        <dc:format>image/svg+xml</dc:format>
        <dc:type
           rdf:resource="http://purl.org/dc/dcmitype/StillImage" />
        <dc:title></dc:title>
      </cc:Work>
    </rdf:RDF>
  </metadata>
  <g
     inkscape:groupmode="layer"
     id="layer2"
     inkscape:label="Background"
     transform="translate(-83.208572,-177.21594)" />
  <g
     inkscape:label="Layer 1"
     inkscape:groupmode="layer"
     id="layer1"
     transform="translate(-83.208572,-177.21594)">
    <rect
       style="fill:#22280b;opacity:0"
       id="rect3221"
       width="566.84003"
       height="566.68561"
       x="83.208572"
       y="177.21594" />
    <path
       style="fill:#f2f1ed;fill-opacity:1"
       d="m 10,112.375 0,670 720,0 0,-670 -720,0 z m 356.78125,65 C 523.19618,177.375 650,304.14757 650,460.5625 650,616.97743 523.19618,743.78125 366.78125,743.78125 210.36632,743.78125 83.5625,616.97743 83.5625,460.5625 83.5625,304.14757 210.36632,177.375 366.78125,177.375 z"
       id="rect3171"
       inkscape:connector-curvature="0" />
    <path
       style="fill:#000000"
       d="m -594.69208,688.23967 c -91.21679,-10.28842 -173.1277,-62.20646 -217.18496,-137.65955 -15.80408,-27.0663 -25.36342,-52.86766 -31.49306,-85.00207 -3.11278,-16.31864 -4.25788,-52.70527 -2.23385,-70.98299 12.4686,-112.59624 99.52816,-205.90515 217.17309,-232.76231 26.64825,-6.08352 35.99642,-7.03054 69.39976,-7.03054 33.40334,0 42.75151,0.94702 69.39976,7.03054 77.57081,17.70864 143.09927,64.38845 182.6739,130.12946 17.70616,29.41331 30.26056,66.38256 34.36907,101.20744 1.54719,13.11433 1.58913,44.67494 0.0766,57.55256 -8.0296,68.35914 -44.38814,132.21122 -100.15255,175.88579 -43.96466,34.43303 -96.17835,55.59795 -152.21556,61.70092 -18.26989,1.98974 -51.85236,1.95644 -69.8121,-0.0692 z m 71.62098,-5.95191 c 50.81051,-6.22424 101.81812,-26.5687 141.52,-56.44544 11.17398,-8.40872 32.32511,-28.10177 41.35067,-38.50011 32.71922,-37.69577 53.44268,-82.9188 60.87394,-132.84 1.97805,-13.28807 1.97805,-51.51193 0,-64.8 -13.05316,-87.68755 -67.42366,-160.29343 -149.97425,-200.27426 -37.83118,-18.32237 -75.32911,-27.55033 -119.29036,-29.35646 -43.29662,-1.77883 -80.49075,11.08609 -109.66263,37.93072 -40.08045,36.88295 -52.4895,92.20818 -31.7572,141.58811 6.34825,15.12019 15.90357,29.00013 28.45757,41.33705 12.2041,11.99308 24.47842,20.55949 39.30226,27.42953 19.78655,9.17 37.29216,13.07992 63.8,14.24989 18.32899,0.80898 26.25905,1.90944 39.49646,5.48093 48.51904,13.09059 86.9508,52.19363 97.25476,98.95348 8.62663,39.14802 -3.42225,81.41837 -31.81109,111.60101 -23.91123,25.42209 -55.01516,40.30597 -92.76013,44.38764 l -13.34,1.44256 13.92,-0.55945 c 7.656,-0.30769 17.835,-1.03903 22.62,-1.6252 z m -51.04,-343.75501 c -32.87193,-10.64955 -47.67477,-44.41559 -32.33037,-73.74723 3.99064,-7.62831 16.32387,-18.74729 25.37423,-22.87604 13.90048,-6.34136 32.02197,-7.00665 45.85509,-1.68347 l 6.92105,2.66332 7.37183,-7.32356 c 9.68302,-9.6196 15.15071,-17.15726 14.39563,-19.84557 -0.74209,-2.64204 -5.73227,-6.37799 -8.5192,-6.37799 -3.32924,0 -8.3079,4.54488 -7.39773,6.75317 1.08294,2.62745 2.61668,2.3551 3.05879,-0.54317 0.47347,-3.10382 4.16324,-3.22149 6.317,-0.20146 1.39542,1.95667 1.30104,2.51663 -0.77369,4.59 -3.20122,3.19913 -7.36162,3.00372 -10.30844,-0.48419 -3.91037,-4.62839 -3.00818,-9.2096 2.31877,-11.77429 6.59836,-3.17682 14.73113,-0.61905 17.91899,5.63555 1.79939,3.53041 1.80354,4.1359 0.057,8.28655 -1.03635,2.46281 -5.80157,9.0385 -10.58938,14.61264 -4.78782,5.57414 -8.43539,10.38592 -8.10573,10.69285 0.63189,0.58832 6.23152,-3.329 35.43622,-24.7901 9.889,-7.26694 17.197,-12.20476 16.24,-10.97293 -2.12585,2.73634 -7.23009,8.89827 -25.32797,30.5764 -7.67772,9.19656 -13.74347,16.92212 -13.47948,17.16791 0.264,0.24579 2.70918,-1.45107 5.43373,-3.77081 12.58522,-10.71529 24.09141,-14.58866 32.0107,-10.77587 8.08779,3.89392 9.91336,11.96948 3.8467,17.0162 -7.05078,5.8654 -14.49164,3.2329 -13.85341,-4.9012 0.30518,-3.88943 0.70307,-4.45725 3.1233,-4.45725 3.79759,0 5.7935,3.08082 3.8617,5.96078 -1.24158,1.85098 -1.16741,2.29556 0.48126,2.88458 2.08521,0.74499 7.38347,-3.99103 7.38347,-6.59994 0,-2.36304 -4.34674,-6.73027 -8.16386,-8.20233 -4.75369,-1.83325 -8.62232,-0.12627 -19.53867,8.62118 -10.8676,8.70839 -11.1914,9.36978 -8.05244,16.44789 3.67275,8.28176 3.65384,26.82808 -0.0363,35.59177 -6.60144,15.67778 -19.34648,27.02231 -36.11677,32.14803 -10.21711,3.12279 -24.5904,2.99008 -34.81197,-0.32142 z m 38.80577,-8.20645 c 13.43372,-5.96916 22.86181,-16.76757 26.89506,-30.80409 5.56334,-19.36157 -5.70787,-41.67974 -25.78434,-51.05566 -24.86048,-11.61011 -54.04283,-2.27368 -66.30382,21.21284 -4.12881,7.90895 -4.30311,8.70214 -4.30311,19.58282 0,10.88068 0.1743,11.67387 4.30311,19.58282 4.84477,9.28041 12.94332,17.02537 22.34109,21.36564 8.24219,3.80659 11.52582,4.35946 23.78299,4.00441 9.69918,-0.28095 12.01019,-0.75224 19.06902,-3.88878 z m -26.88106,-35.68579 c -4.79707,-1.79714 -4.93515,-10.64103 -0.20297,-12.99896 8.13923,-4.05558 15.67114,6.55323 8.42182,11.86227 -3.33668,2.44363 -4.3545,2.5844 -8.21885,1.13669 z m 11.2745,326.28696 c 1.59456,-1.07649 3.61055,-3.69736 4.47997,-5.82415 1.40654,-3.44071 1.34271,-4.32064 -0.5792,-7.984 -2.90305,-5.53348 -9.36534,-8.59352 -14.57636,-6.90222 -4.97831,1.61576 -7.54902,3.96875 -9.09219,8.32213 -1.75203,4.94258 1.35098,10.98951 7.00857,13.65782 4.5074,2.12585 8.28675,1.74979 12.75921,-1.26958 z m -54.52,-38.88 c 1.59456,-1.07649 3.61055,-3.69736 4.47997,-5.82415 1.40654,-3.44071 1.34271,-4.32064 -0.5792,-7.984 -2.90305,-5.53348 -9.36534,-8.59352 -14.57636,-6.90222 -4.97831,1.61576 -7.54902,3.96875 -9.09219,8.32213 -1.75203,4.94258 1.35098,10.98951 7.00857,13.65782 4.5074,2.12585 8.28675,1.74979 12.75921,-1.26958 z m 110.2,0 c 1.59456,-1.07649 3.61055,-3.69736 4.47997,-5.82415 1.40654,-3.44071 1.34271,-4.32064 -0.5792,-7.984 -2.90305,-5.53348 -9.36534,-8.59352 -14.57636,-6.90222 -4.97831,1.61576 -7.54902,3.96875 -9.09219,8.32213 -1.75203,4.94258 1.35098,10.98951 7.00857,13.65782 4.5074,2.12585 8.28675,1.74979 12.75921,-1.26958 z m -89.32,-60.48 c 1.59456,-1.07649 3.61055,-3.69736 4.47997,-5.82415 1.40654,-3.44071 1.34271,-4.32064 -0.5792,-7.984 -2.90305,-5.53348 -9.36534,-8.59352 -14.57636,-6.90222 -4.97831,1.61576 -7.54902,3.96875 -9.09219,8.32213 -1.75203,4.94258 1.35098,10.98951 7.00857,13.65782 4.5074,2.12585 8.28675,1.74979 12.75921,-1.26958 z m 68.44,0 c 1.59456,-1.07649 3.61055,-3.69736 4.47997,-5.82415 1.40654,-3.44071 1.34271,-4.32064 -0.5792,-7.984 -2.90305,-5.53348 -9.36534,-8.59352 -14.57636,-6.90222 -4.97831,1.61576 -7.54902,3.96875 -9.09219,8.32213 -1.75203,4.94258 1.35098,10.98951 7.00857,13.65782 4.5074,2.12585 8.28675,1.74979 12.75921,-1.26958 z"
       id="path3185"
       inkscape:connector-curvature="0" />
    <path
       style="fill:#ffffff"
       d="m 366.46875,183.03125 c -76.57896,0 -138.6875,62.07729 -138.6875,138.65625 0,76.4437 61.88882,138.4375 138.28125,138.65625 0.13516,3.9e-4 0.271,0 0.40625,0 76.57896,0 138.65625,62.07729 138.65625,138.65625 0,75.38241 -60.1688,136.72676 -135.09375,138.625 151.51269,-1.91083 273.75,-125.28445 273.75,-277.25 0,-151.45358 -121.41419,-274.53073 -272.21875,-277.25 -1.69578,-0.0614 -3.38297,-0.0937 -5.09375,-0.0937 z m 3.5625,554.59375 c -1.18928,0.0301 -2.36595,0.0312 -3.5625,0.0312 -0.13525,0 -0.27109,3.9e-4 -0.40625,0 l 0,0.0312 c 0.13578,2e-4 0.27042,0 0.40625,0 1.19139,0 2.37467,-0.0475 3.5625,-0.0625 z m 35.75,-500.46875 c 0.26168,-0.01 0.52096,-0.007 0.78125,0 3.47055,0.0974 6.77973,1.71864 9.46875,4.78125 5.75296,6.55227 3.95476,11.706 -10.125,28.875 -3.529,4.30331 -6.07212,7.92388 -5.65625,8.0625 0.41588,0.13863 12.10485,-8.70672 25.96875,-19.65625 13.86391,-10.94953 25.31525,-19.7903 25.4375,-19.65625 0.12226,0.13405 -8.65963,11.70742 -19.5,25.71875 -10.84035,14.01133 -19.71875,25.58767 -19.71875,25.75 0,0.16232 1.96729,-1.39675 4.375,-3.46875 9.72163,-8.3661 18.50057,-13.12305 24.0625,-13.09375 6.30866,0.0333 12.25555,4.33269 14.21875,10.28125 1.10827,3.35807 0.5871,5.61291 -2,8.6875 -7.25265,8.61929 -18.29095,3.97875 -15.40625,-6.46875 1.16838,-4.23153 6.10411,-4.37641 8.3125,-0.25 0.69483,1.29829 0.57103,2.00548 -0.71875,3.75 -1.55683,2.10569 -1.54806,2.16342 -0.0937,2.625 2.02358,0.64226 4.30711,-0.73688 5.6875,-3.40625 1.59228,-3.07913 1.46012,-4.09398 -0.90625,-6.90625 -2.30687,-2.74156 -5.9381,-4.53125 -9.21875,-4.53125 -2.89411,0 -11.66515,6.18942 -19,13.40625 -6.36646,6.26402 -6.19564,5.32159 -2.6875,14.75 1.96224,5.27364 2.12865,6.53086 2.09375,16.375 -0.0332,9.37818 -0.2638,11.38346 -2,16.59375 -8.87413,26.63104 -36.13521,42.33804 -63.4375,36.59375 -6.96149,-1.46466 -17.93011,-6.82915 -23.1875,-11.34375 -19.49129,-16.73743 -25.14087,-42.83383 -14.125,-65.4375 5.77027,-11.84015 13.29391,-19.36696 25.125,-25.125 14.32328,-6.97097 28.95022,-7.55979 43.96875,-1.78125 7.00914,2.69684 6.13029,3.09559 15.625,-7.3125 12.09363,-13.25702 13.91704,-17.40182 9.34375,-21.25 -3.37428,-2.83927 -6.34828,-3.22912 -9.5,-1.28125 -2.94084,1.81754 -3.94016,3.8975 -2.8125,5.90625 0.70753,1.26033 0.82601,1.26772 1.28125,-0.15625 0.97704,-3.05611 1.70452,-3.8125 3.78125,-3.8125 1.43339,0 2.61241,0.68504 3.6875,2.125 1.45426,1.94784 1.53074,2.27325 0.5,4.09375 -0.6195,1.09418 -2.42347,2.66973 -3.96875,3.46875 -2.33137,1.2055 -3.06707,1.26689 -4.5,0.5 -2.43179,-1.30145 -4.19483,-3.66135 -5.1875,-6.96875 -1.12923,-3.76242 0.42448,-6.85833 4.5,-8.9375 1.8285,-0.93283 3.69946,-1.43058 5.53125,-1.5 z M 367.125,276.4375 c -4.54913,0 -9.0732,0.43579 -12.15625,1.34375 -16.74808,4.93227 -30.05141,18.91023 -33.5,35.1875 -5.06408,23.9024 9.09093,47.98834 32.25,54.84375 7.07243,2.09354 18.05433,2.38273 24.875,0.65625 20.71476,-5.2434 35.4363,-24.21924 35.375,-45.625 -0.0589,-20.58625 -14.27067,-39.05899 -34.65625,-45.0625 -3.08304,-0.90796 -7.63837,-1.34375 -12.1875,-1.34375 z m -0.4375,37.84375 c 4.29763,0 7.78125,3.48362 7.78125,7.78125 0,4.29763 -3.48362,7.78125 -7.78125,7.78125 -4.29763,0 -7.78125,-3.48362 -7.78125,-7.78125 0,-4.29763 3.48362,-7.78125 7.78125,-7.78125 z"
       id="path3181"
       inkscape:connector-curvature="0" />
    <path
       transform="translate(3.2142857,1.4285714)"
       d="m 335,554.86218 c 0,6.90356 -5.59644,12.5 -12.5,12.5 -6.90356,0 -12.5,-5.59644 -12.5,-12.5 0,-6.90356 5.59644,-12.5 12.5,-12.5 6.90356,0 12.5,5.59644 12.5,12.5 z"
       sodipodi:ry="12.5"
       sodipodi:rx="12.5"
       sodipodi:cy="554.86218"
       sodipodi:cx="322.5"
       id="path3231"
       style="opacity:0;fill:#ffffff"
       sodipodi:type="arc" />
    <g
       id="g3255">
      <path
         transform="translate(10.285353,-2.6120388)"
         d="m 335,554.86218 c 0,6.90356 -5.59644,12.5 -12.5,12.5 -6.90356,0 -12.5,-5.59644 -12.5,-12.5 0,-6.90356 5.59644,-12.5 12.5,-12.5 6.90356,0 12.5,5.59644 12.5,12.5 z"
         sodipodi:ry="12.5"
         sodipodi:rx="12.5"
         sodipodi:cy="554.86218"
         sodipodi:cx="322.5"
         id="path3227"
         style="fill:#ffffff"
         sodipodi:type="arc" />
      <path
         sodipodi:type="arc"
         style="fill:#ffffff"
         id="path3233"
         sodipodi:cx="322.5"
         sodipodi:cy="554.86218"
         sodipodi:rx="12.5"
         sodipodi:ry="12.5"
         d="m 335,554.86218 c 0,6.90356 -5.59644,12.5 -12.5,12.5 -6.90356,0 -12.5,-5.59644 -12.5,-12.5 0,-6.90356 5.59644,-12.5 12.5,-12.5 6.90356,0 12.5,5.59644 12.5,12.5 z"
         transform="translate(77.821247,-2.4334673)" />
      <path
         transform="translate(98.744741,61.760333)"
         d="m 335,554.86218 c 0,6.90356 -5.59644,12.5 -12.5,12.5 -6.90356,0 -12.5,-5.59644 -12.5,-12.5 0,-6.90356 5.59644,-12.5 12.5,-12.5 6.90356,0 12.5,5.59644 12.5,12.5 z"
         sodipodi:ry="12.5"
         sodipodi:rx="12.5"
         sodipodi:cy="554.86218"
         sodipodi:cx="322.5"
         id="path3235"
         style="fill:#ffffff"
         sodipodi:type="arc" />
      <path
         sodipodi:type="arc"
         style="fill:#ffffff"
         id="path3237"
         sodipodi:cx="322.5"
         sodipodi:cy="554.86218"
         sodipodi:rx="12.5"
         sodipodi:ry="12.5"
         d="m 335,554.86218 c 0,6.90356 -5.59644,12.5 -12.5,12.5 -6.90356,0 -12.5,-5.59644 -12.5,-12.5 0,-6.90356 5.59644,-12.5 12.5,-12.5 6.90356,0 12.5,5.59644 12.5,12.5 z"
         transform="translate(43.918057,101.50779)" />
      <path
         transform="translate(-10.816715,61.50779)"
         d="m 335,554.86218 c 0,6.90356 -5.59644,12.5 -12.5,12.5 -6.90356,0 -12.5,-5.59644 -12.5,-12.5 0,-6.90356 5.59644,-12.5 12.5,-12.5 6.90356,0 12.5,5.59644 12.5,12.5 z"
         sodipodi:ry="12.5"
         sodipodi:rx="12.5"
         sodipodi:cy="554.86218"
         sodipodi:cx="322.5"
         id="path3239"
         style="fill:#ffffff"
         sodipodi:type="arc" />
    </g>
  </g>
</svg>
