<?xml version="1.0" encoding="UTF-8" standalone="no"?>
<!-- Created with Inkscape (http://www.inkscape.org/) -->

<svg
   xmlns:dc="http://purl.org/dc/elements/1.1/"
   xmlns:cc="http://creativecommons.org/ns#"
   xmlns:rdf="http://www.w3.org/1999/02/22-rdf-syntax-ns#"
   xmlns:svg="http://www.w3.org/2000/svg"
   xmlns="http://www.w3.org/2000/svg"
   xmlns:sodipodi="http://sodipodi.sourceforge.net/DTD/sodipodi-0.dtd"
   xmlns:inkscape="http://www.inkscape.org/namespaces/inkscape"
   version="1.1"
   id="svg272"
   xml:space="preserve"
   width="576"
   height="864"
   viewBox="0 0 576 864"
   sodipodi:docname="00004.svg"
   inkscape:version="0.92.3 (2405546, 2018-03-11)"
   inkscape:export-filename="C:\Users\kyleb\Documents\SpiderOak Hive\Projects\poee\public\pd\00004.png"
   inkscape:export-xdpi="125"
   inkscape:export-ydpi="125"><metadata
     id="metadata278"><rdf:RDF><cc:Work
         rdf:about=""><dc:format>image/svg+xml</dc:format><dc:type
           rdf:resource="http://purl.org/dc/dcmitype/StillImage" /><dc:title /></cc:Work></rdf:RDF></metadata><defs
     id="defs276">





</defs><sodipodi:namedview
     pagecolor="#ffffff"
     bordercolor="#666666"
     borderopacity="1"
     objecttolerance="10"
     gridtolerance="10"
     guidetolerance="10"
     inkscape:pageopacity="0"
     inkscape:pageshadow="2"
     inkscape:window-width="1366"
     inkscape:window-height="705"
     id="namedview274"
     showgrid="false"
     inkscape:zoom="1.0925926"
     inkscape:cx="390.19702"
     inkscape:cy="245.74603"
     inkscape:window-x="-8"
     inkscape:window-y="-8"
     inkscape:window-maximized="1"
     inkscape:current-layer="g280"
     inkscape:snap-text-baseline="false" /><g
     id="g280"
     inkscape:groupmode="layer"
     inkscape:label="the_discordia_totalis"
     transform="matrix(1.3333333,0,0,-1.3333333,0,864)"><text
   id="text286"
   style="font-variant:normal;font-weight:normal;font-size:9.91059971px;font-family:'Times New Roman';-inkscape-font-specification:TimesNewRomanPSMT;writing-mode:lr-tb;fill:#000000;fill-opacity:1;fill-rule:nonzero;stroke:none"
   transform="scale(1,-1)"
   x="105.6571"
   y="-609.62524"><tspan
     id="tspan284"
     sodipodi:role="line"
     y="-609.62524"
     x="105.6571 111.68869 118.82036 124.85195 127.30878 132.79529 136.07175 143.2034 149.235 151.69183 158.27843 165.4101 174.19682 182.98357 190.11523 197.31331 204.44498 213.2317 219.26331 226.39497 232.42654 237.91307 240.3699 243.64635 249.74632 256.87799 262.90958 265.36642 270.85294 276.88452 284.08258 290.11417 297.24585 303.83243 310.96408 317.55069 323.0372">THE FIVE COMMANDMENTS (THE PENTABARF)</tspan></text>

<text
   id="text308"
   style="font-variant:normal;font-weight:normal;font-size:9.91059971px;font-family:'Times New Roman';-inkscape-font-specification:TimesNewRomanPSMT;writing-mode:lr-tb;fill:#000000;fill-opacity:1;fill-rule:nonzero;stroke:none"
   transform="scale(1,-1)"
   x="153.17709"
   y="-566.33069"><tspan
     id="tspan292"
     sodipodi:role="line"
     y="-566.33069"
     x="153.17709 159.19284 164.19075 168.61583 171.07268 176.60774 182.62347 189.7373 195.75304 202.86687 209.47426 216.58809 223.19548 228.73056 231.18739 238.30122 242.70747 246.58748 249.04431 254.02438 256.73691 260.61691 264.93893 269.91901 274.89908 279.2211 282.54611 286.86813 291.84821 294.30502 299.28513 304.11356 306.5704 309.35031 314.33038 318.75546 321.21231 326.19238 330.5144 333.83942 341.37939 344.15933">The PENTABARF was discovered by the hermit</tspan><tspan
     id="tspan294"
     sodipodi:role="line"
     y="-554.89587"
     x="153.17709 160.30382 165.30173 170.22829 174.12315 176.84956 179.64633 184.0179 186.47473 192.50137 196.87294 200.14442 204.51599 207.31276 212.23932 217.16588 222.16379 224.62064 227.34703 232.34496 234.80179 237.59856 242.51125 246.88281 249.33965 254.8212 257.61798 260.88947 263.61588 268.61377 271.07062 278.19733 282.56891 286.94046 290.21194 292.58356 297.58148 300.88467 303.34152 306.06793 311.06586">Apostle Zarathud in the Fifth Year of the</tspan><tspan
     id="tspan296"
     sodipodi:role="line"
     y="-543.54523"
     x="153.17709 159.8073 164.22742 167.00238 171.42252 174.64148 179.55417 182.33508 185.04761 187.82257 192.24271 195.56276 198.06023 200.51706 207.63089 212.03714 214.49399 217.81403 222.72672 227.6394 232.61452 237.58965 240.04648 242.75902 247.67169 252.07794 259.61893 262.07578 266.49588 270.91602 274.23605 279.21118 283.63132 288.60645 291.06329 293.77582 298.77371 301.23056 306.14325 308.85577 311.65256 316.62769 320.94968 325.9248 328.29642 332.17145 334.884 339.8591 344.77179 349.19193">Caterpillar. He found them carved in gilded stone,</tspan><tspan
     id="tspan298"
     sodipodi:role="line"
     y="-532.19464"
     x="153.17709 160.30382 165.30173 168.02814 170.82491 175.19647 177.65331 182.57986 187.50642 190.30319 193.0296 198.02753 200.75392 205.68048 210.67841 213.13524 217.50681 219.96364 223.79012 228.78804 233.78595 236.2428 241.16936 245.54091 249.91248 254.9104 257.36725 260.6387 265.63663 268.90814 271.36496 276.29153 279.01794 282.91281 285.36963 289.74121 294.11276 299.03934 303.41089 305.8598 308.31665 313.24319 318.24112 321.0379 323.40948 326.20627 331.11896 335.49051 338.28729">while building a sun deck for his cave, but their</tspan><tspan
     id="tspan300"
     sodipodi:role="line"
     y="-520.84399"
     x="153.17709 155.96297 163.50395 168.48997 173.476 176.80695 179.59282 182.04965 189.16348 193.56973 197.45567 199.82729 202.61316 207.52583 211.33647 214.13324 216.59007 219.92102 224.90704 228.23801 230.6096 233.39548 238.3815 242.81253 247.64098 250.09781 257.21164 261.61789 264.94885 269.37985 271.8367 278.95056 282.25375 285.03961 287.75214 290.53802 294.86002 299.84604 302.30289 305.01541 310.01334 312.47018">import was lost for they were written in a</tspan><tspan
     id="tspan302"
     sodipodi:role="line"
     y="-509.49338"
     x="153.17709 160.80232 165.63075 169.48994 172.24905 176.65334 179.95752 182.71663 187.6759 192.63516 196.49435 198.95119 203.35545 208.1839 213.14317 218.10243 222.5067 225.8109 228.29251 230.74934 237.90877 242.86803 250.02745 254.34846 259.30774 263.71201 267.0162 269.4978 271.95465 276.35892 279.57788 282.33701 286.74127 290.04547 292.41705 297.37634 302.3356 304.79242 311.95184 316.9111 320.77029 323.22714 330.94156 333.31317 338.27243">mysterious cypher. However, after 10 wks &amp; 11</tspan><tspan
     id="tspan304"
     sodipodi:role="line"
     y="-498.14279"
     x="153.17709 158.1651 161.49805 165.38597 167.75757 172.74557 176.07852 178.53535 181.24788 186.16057 188.95734 193.27936 198.27727 202.08789 204.88466 209.79735 214.2036 216.66045 220.54837 224.98137 228.20033 233.11302 235.90088 238.68872 243.67673 248.50517 250.96202 255.95001 260.38303 262.75464 267.74265 270.45517 274.34311 278.77609 283.09814 286.43106 291.41907 295.74109 300.73007 303.18692 305.89944 310.89737 315.21936 318.01614 320.47299 323.26083 328.17352">hrs of intensive scrutiny he discerned that the</tspan><tspan
     id="tspan306"
     sodipodi:role="line"
     y="-483.99738"
     x="63.558517 71.237251 75.605843 79.50071 83.395576 87.71759 92.7155 97.121758 99.57859 103.94718 108.87077 113.79436 116.59113 121.58904 123.96065 128.95857 133.36482 135.82166 139.09018 143.45877 147.82736 152.75095 155.12254 160.12047 164.94891 167.40575 171.30061 174.09738 178.46597 183.38956 188.38748 191.11092 196.0345 201.03241 203.48926 208.41284 213.41075 215.86758 220.79117 223.5146 227.40947 229.86632 234.86423 239.27048 243.63907 248.63699 251.09383 255.46242 260.38602 265.38394 267.84076 272.76434 275.56113 279.92972 287.05344 289.77689 294.77481 299.77271 302.14432 304.9411 307.73785 310.10947 315.03305 320.03098 323.92584 326.64926 331.57285 335.94144 338.39828 343.32187 348.31979 355.44354 360.44144">message could be read by standing on his head and viewing it upside down.</tspan></text>

<text
   id="text354"
   style="font-variant:normal;font-weight:normal;font-size:7.03060007px;font-family:'Times New Roman';-inkscape-font-specification:TimesNewRomanPSMT;writing-mode:lr-tb;fill:#000000;fill-opacity:1;fill-rule:nonzero;stroke:none"
   transform="scale(1,-1)"
   x="111.8407"
   y="-107.94685"><tspan
     id="tspan352"
     sodipodi:role="line"
     x="111.8407"
     y="-101.72642" /></text>

<text
   id="text362"
   style="font-variant:normal;font-weight:normal;font-size:7.0302px;font-family:AkbarPlain;-inkscape-font-specification:AkbarPlain;writing-mode:lr-tb;fill:#000000;fill-opacity:1;fill-rule:nonzero;stroke:none"
   transform="scale(1,-1)"
   x="111.8407"
   y="-78.171135"><tspan
     id="tspan360"
     sodipodi:role="line"
     x="111.8407"
     y="-71.951057" /></text>

<text
   id="text366"
   style="font-variant:normal;font-weight:normal;font-size:12.70590019px;font-family:TTE264C6E9t00;-inkscape-font-specification:TTE264C6E9t00;writing-mode:lr-tb;fill:#000000;fill-opacity:1;fill-rule:nonzero;stroke:none"
   transform="scale(1,-1)"
   x="331.35019"
   y="-26.41584"><tspan
     id="tspan364"
     sodipodi:role="line"
     y="-26.41584"
     x="331.35019 337.51889 343.68762 349.85632 356.02505">00004</tspan></text>

<path
   style="fill:#000000;stroke-width:0.48144686"
   d="m 74.191993,134.39558 c -0.487046,0.53839 -1.680875,1.42741 -2.652954,1.97561 -2.404919,1.35624 -4.597809,4.17998 -6.513049,8.38671 -1.456422,3.19896 -1.602964,3.91448 -1.605582,7.8396 -0.0026,3.9229 -0.08667,4.33392 -0.91583,4.47829 -0.910767,0.15859 -1.952176,0.59122 -4.118352,1.71088 -1.37345,0.70992 -1.504212,2.25108 -0.228957,2.6985 0.581655,0.20407 0.91583,0.76588 0.91583,1.53968 0,1.23614 1.88524,2.76292 3.41162,2.76292 0.590816,0 0.709612,0.80087 0.709612,4.78387 0,5.99267 0.516751,8.83718 2.763241,15.21057 4.344857,12.32653 4.237689,11.91763 3.841596,14.65787 -0.581291,4.02145 -0.512566,13.56892 0.0993,13.79566 0.364602,0.13511 0.572212,-1.54484 0.687637,-5.56425 0.163877,-5.70661 0.181624,-5.78671 1.99624,-9.00857 l 1.830894,-3.25076 0.07012,-6.97411 c 0.05547,-5.51705 0.227096,-7.23893 0.821467,-8.24169 1.12342,-1.8953 1.668595,-1.04566 1.336036,2.08219 -0.26135,2.45811 -0.155826,2.97872 0.992595,4.89705 0.798202,1.33332 1.365134,3.06801 1.496464,4.57888 0.262265,3.01718 1.00464,2.88322 1.742579,-0.31445 0.302776,-1.312 1.297119,-3.39266 2.20965,-4.62368 1.978857,-2.66952 3.007912,-5.64685 3.007912,-8.70268 0,-1.25147 0.420989,-3.17655 0.954682,-4.36551 1.235233,-2.75186 1.237358,-6.48112 0.0054,-9.46658 -1.208273,-2.92805 -1.192667,-3.70748 0.169144,-8.44793 1.015551,-3.53513 1.061645,-4.04482 0.457914,-5.06336 -0.369217,-0.6229 -0.671305,-1.22349 -0.671305,-1.33465 0,-0.11116 0.928503,-0.34278 2.06334,-0.51473 1.603106,-0.24289 2.394685,-0.0893 3.548839,0.68859 0.817025,0.55067 2.066888,1.00207 2.777474,1.00311 0.710585,0.001 1.601066,0.34357 1.978846,0.76117 0.377779,0.41761 0.981246,0.75928 1.341036,0.75928 0.895924,0 0.867093,-2.83849 -0.03271,-3.22018 -0.37778,-0.16025 -0.686872,-0.60913 -0.686872,-0.9975 0,-1.12375 -2.102416,-3.1614 -8.239833,-7.986 -3.149612,-2.47591 -6.410107,-5.11185 -7.245545,-5.85765 -2.038298,-1.8196 -6.924769,-2.21679 -8.318481,-0.67615 z m 6.403099,1.69422 c 0.611924,1.20396 0.610348,1.50331 -0.01444,2.74344 -0.814184,1.61605 -2.527914,2.00772 -3.85322,0.88067 -0.733821,-0.62406 -0.784366,-0.86932 -0.286196,-1.38875 0.483087,-0.5037 0.647319,-0.50332 0.814898,0.002 0.30394,0.91632 1.943842,0.77712 2.280815,-0.1936 0.15777,-0.45448 0.04827,-1.24864 -0.243328,-1.76479 -0.291603,-0.51628 -0.530185,-1.18844 -0.530185,-1.49382 0,-0.94313 1.108559,-0.20789 1.831659,1.21483 z m -3.663318,-0.38312 c 0,0.47138 -0.311552,0.72961 -0.763405,0.63274 -1.148803,-0.24629 -1.306543,-1.42913 -0.190584,-1.42913 0.562474,0 0.953989,0.32684 0.953989,0.79639 z m 10.188004,4.50495 c 8.404001,6.77224 9.284726,7.60809 9.120624,8.6559 -0.335019,2.13912 -0.987674,1.97745 -8.086455,-2.00317 -7.077364,-3.96862 -8.62835,-5.13336 -7.712441,-5.79185 0.718192,-0.51633 1.52733,-2.42246 1.52733,-3.59801 0,-0.57511 0.102762,-1.04565 0.228359,-1.04565 0.125597,0 2.34076,1.70225 4.922583,3.78278 z M 74.6422,137.92134 c 0,1.97944 1.519561,3.17443 11.127725,8.75093 l 2.656301,1.54169 -1.740472,1.12847 c -0.95726,0.62066 -2.512564,1.40321 -3.456232,1.73901 -2.960994,1.05364 -3.653552,3.4399 -2.65217,9.13826 0.416432,2.3697 -0.259885,4.0495 -1.630398,4.0495 -0.324701,0 -1.142919,0.5254 -1.818262,1.16754 -1.199926,1.14094 -1.210938,1.20378 -0.483449,2.7589 0.993406,2.12355 0.938136,3.02402 -0.210341,3.42696 -0.634393,0.22258 -1.287451,4.6e-4 -1.946138,-0.66192 -1.298171,-1.30543 -2.257287,-1.82909 -5.694414,-3.10904 -3.67308,-1.36782 -4.804266,-2.3886 -4.148325,-3.74344 0.265793,-0.549 0.448103,-2.73047 0.405133,-4.84773 -0.04297,-2.11726 -0.115181,-5.55795 -0.160469,-7.64597 -0.07007,-3.23067 0.10633,-4.22291 1.18373,-6.65841 0.696338,-1.5741 1.932723,-3.66654 2.747522,-4.64987 2.527415,-3.05018 5.820259,-4.39944 5.820259,-2.38488 z m -7.784551,21.6913 c 0,0.35278 3.777686,2.63181 4.36244,2.63181 0.119189,0 0.215935,-0.28473 0.214992,-0.63273 -9.62e-4,-0.34801 -0.878872,-1.03136 -1.95095,-1.51857 -2.175589,-0.9887 -2.626482,-1.07118 -2.626482,-0.48051 z m 19.890346,-6.93556 c 0.41217,0.42527 -0.881577,6.02405 -1.392018,6.02405 -0.126158,0 -0.447062,-0.69027 -0.713119,-1.53394 -0.266057,-0.84367 -1.079584,-1.87455 -1.807838,-2.29084 -1.711264,-0.97822 -1.671448,-1.57369 0.164124,-2.45457 1.46933,-0.70512 2.913332,-0.60679 3.748851,0.2553 z m -3.991882,3.61966 c 0.242826,0.348 0.784579,1.60921 1.203896,2.80267 0.663652,1.88891 0.679931,2.34782 0.125691,3.54332 -0.350188,0.75536 -0.784719,3.24752 -0.965625,5.53815 -0.315149,3.99037 -0.387462,4.19704 -1.727013,4.93574 -1.325334,0.73087 -1.436095,0.71173 -2.128339,-0.36768 -0.401636,-0.62627 -0.854956,-1.93621 -1.007377,-2.911 -0.152421,-0.97477 -0.428083,-2.15954 -0.612583,-2.6328 -0.259419,-0.66543 0.04031,-1.03402 1.322336,-1.62616 2.161178,-0.99819 2.975618,-3.04623 2.494663,-6.27323 -0.501596,-3.3655 -0.484753,-3.64175 0.222047,-3.64175 0.346942,0 0.829479,0.28474 1.072304,0.63274 z m -19.48336,3.24213 c 1.655488,1.65614 0.603752,4.97728 -1.473144,4.65186 -0.613196,-0.0961 -1.18301,-0.57225 -1.266877,-1.05867 -0.107616,-0.62418 0.0574,-0.79505 0.561352,-0.58128 0.970042,0.41148 1.893524,-2.14587 1.138192,-3.15194 -0.732411,-0.97553 0.02759,-0.87325 1.040477,0.14003 z M 60.6758,160.2197 c 0.16051,0.28709 -0.224202,0.50619 -0.888805,0.50619 -0.644496,0 -1.171811,-0.22779 -1.171811,-0.50619 0,-0.2784 0.399962,-0.50619 0.888805,-0.50619 0.488842,0 1.016157,0.22779 1.171811,0.50619 z m 26.101994,8.68814 c 0.248032,1.82835 0.124634,2.45688 -0.713639,3.63492 -0.909474,1.2781 -1.085408,1.34486 -1.713707,0.65033 -0.799097,-0.88334 -0.822352,-4.40722 -0.05001,-7.57786 l 0.485571,-1.99338 0.845948,1.53769 c 0.465271,0.84573 0.980896,2.53246 1.145834,3.7483 z m -20.327772,2.03547 c 0.163571,1.67848 0.760093,3.77276 1.440053,5.05576 0.638445,1.20467 1.396489,3.1584 1.684543,4.34161 0.647625,2.6602 1.401973,2.79551 1.411015,0.2531 0.0037,-1.04402 0.261289,-2.38062 0.572393,-2.97023 0.311104,-0.5896 0.994207,-1.92515 1.518008,-2.96787 0.845528,-1.68319 1.168104,-1.90743 2.875496,-1.99896 2.386234,-0.12793 2.953602,0.55998 3.262962,3.95621 0.277686,3.04852 1.329673,3.53445 1.94734,0.89951 0.270952,-1.15587 0.601536,-1.60214 1.046886,-1.41322 0.360583,0.15295 0.958129,-0.2088 1.339756,-0.81108 0.378879,-0.59795 0.805169,-0.95863 0.94731,-0.8015 0.142142,0.15713 0.289405,2.07955 0.327251,4.27206 0.07337,4.25041 -0.263584,5.38022 -2.425279,8.132 -0.697638,0.88808 -1.479765,2.027 -1.738059,2.53094 -0.447848,0.87377 -0.502,0.86931 -1.167753,-0.0961 -1.512654,-2.19355 -2.019206,-4.01806 -1.68643,-6.07426 0.640562,-3.95797 -1.635065,-5.87553 -3.454085,-2.91058 -0.729052,1.18833 -0.854016,2.39194 -0.854016,8.22556 0,5.54307 -0.150716,7.13815 -0.798094,8.44656 -1.183103,2.39114 -1.572438,2.39734 -1.914821,0.0305 -0.169826,-1.17399 -0.798535,-3.39075 -1.397133,-4.92613 -3.680683,-9.44086 -4.802845,-14.14299 -4.812521,-20.16568 -0.006,-3.74197 0.08285,-4.19418 0.794582,-4.04339 0.608344,0.12889 0.868608,0.85993 1.080596,3.03524 z m 4.772525,-0.87877 c 1.164757,0.53797 1.587994,1.0463 1.587994,1.90725 0,1.2694 -2.048566,4.95212 -2.75469,4.95212 -0.740184,0 -2.282372,-3.91971 -2.282372,-5.801 0,-2.06573 0.761874,-2.29951 3.449068,-1.05837 z m 8.249745,28.47687 c -0.173945,0.77774 -0.864821,2.05149 -1.535279,2.83056 -1.095413,1.27287 -1.227839,1.83476 -1.306045,5.54157 -0.08982,4.25738 0.49202,6.46354 1.941081,7.35997 0.648585,0.40123 0.653749,0.62919 0.04931,2.17645 -0.371335,0.95057 -1.691665,2.88782 -2.934065,4.30503 -1.525029,1.7396 -2.450132,3.33172 -2.8475,4.9006 -0.556788,2.1983 -0.518546,2.47677 0.707778,5.154 0.79694,1.73982 1.522128,2.73438 1.882371,2.58156 0.322301,-0.13671 0.586002,0.086 0.586002,0.49482 0,1.13339 0.724408,0.88865 1.564434,-0.52855 0.730799,-1.23292 0.717449,-1.28728 -0.435061,-1.77166 -0.653946,-0.27484 -1.46869,-0.49971 -1.810543,-0.49971 -0.907119,0 -1.711819,-3.17848 -1.347774,-5.32357 0.207566,-1.22306 1.117657,-2.80919 2.704687,-4.71377 1.315522,-1.57875 2.636175,-3.38297 2.934785,-4.00938 0.780243,-1.63675 2.198567,-1.42478 3.249576,0.48566 1.02468,1.86258 0.836324,3.59982 -0.576919,5.32104 -1.006941,1.22637 -1.21988,4.24403 -0.571785,8.10302 0.586918,3.49473 1.275452,1.94104 0.91837,-2.07232 l -0.321357,-3.61184 1.239492,1.26547 c 2.378428,2.42828 3.245283,6.17416 2.016257,8.7127 -0.408507,0.84377 -0.362957,1.14427 0.228958,1.51044 0.942198,0.58287 0.980525,3.60452 0.05647,4.45226 -0.431859,0.39619 -0.581773,1.06949 -0.408273,1.83364 0.202481,0.89179 0.08458,1.20755 -0.450893,1.20755 -0.562404,0 -0.663045,0.34279 -0.448609,1.52801 0.315764,1.74525 -0.920085,5.83195 -1.957753,6.47388 -0.982745,0.60795 -0.269424,2.12187 0.99977,2.12187 0.869668,0 1.133511,0.34451 1.381081,1.80328 0.168319,0.99181 0.201567,2.82783 0.07388,4.08006 -0.131936,1.29394 0.05059,3.30153 0.422825,4.65062 0.621802,2.25361 0.485045,5.58902 -0.252942,6.1691 -0.722056,0.56755 -2.298634,3.4393 -2.588114,4.71427 -0.410277,1.80701 0.477961,1.78275 1.1309,-0.0309 0.275634,-0.76561 0.417199,-0.93645 0.314589,-0.37964 -0.102609,0.55681 -0.554979,2.07501 -1.005268,3.37379 -0.783282,2.25924 -0.783932,2.52068 -0.01502,6.04222 0.442028,2.02445 1.092281,4.29772 1.445008,5.05173 2.013652,4.30448 0.916396,10.21372 -1.724485,9.28717 -0.654568,-0.22965 -0.862631,-0.12458 -0.717786,0.36246 0.112184,0.37722 0.767001,0.75924 1.455149,0.84893 1.058335,0.13794 1.229338,0.37199 1.109473,1.51856 -0.09462,0.90512 -0.414332,1.35696 -0.962233,1.35992 -0.764428,0.004 -1.674924,1.02381 -1.690992,1.89378 -0.01207,0.65372 1.030324,0.41499 1.874215,-0.42923 0.929095,-0.92945 1.975621,-0.47874 1.574094,0.67793 -0.160277,0.46171 0.106789,1.0711 0.655655,1.49606 1.076247,0.8333 1.279614,2.43648 0.253879,2.00137 -0.78626,-0.33352 -1.393258,0.46353 -0.709006,0.93101 1.217464,0.83176 0.389783,2.96379 -2.395189,6.1698 -2.729948,3.14266 -2.856708,3.4007 -2.775926,5.6508 0.07381,2.05587 -0.136782,2.64944 -1.644675,4.63562 -0.951127,1.25282 -1.966861,2.77172 -2.257186,3.37533 -0.60478,1.25741 -0.218331,4.21489 0.551783,4.22276 0.283335,0.003 1.071746,1.32797 1.752024,2.9446 1.062456,2.52485 2.551624,4.13677 3.821739,4.13677 0.590965,0 0.09188,-0.98468 -0.626899,-1.23687 -0.458871,-0.16099 -1.329869,-1.25831 -1.935552,-2.4385 -1.323821,-2.57949 -1.48854,-7.33421 -0.337075,-9.72989 l 0.725695,-1.50985 1.05291,2.39568 c 0.579101,1.31762 1.32513,2.39567 1.657843,2.39567 0.447395,0 0.364007,-0.52204 -0.320205,-2.00459 -0.899651,-1.94936 -1.272863,-4.83106 -0.5817,-4.49149 3.109069,1.52748 5.154277,4.76528 5.148987,8.15144 -0.0039,2.48704 -0.865813,5.38993 -1.789773,6.02778 -0.67841,0.46834 -0.759607,0.89822 -0.451738,2.39163 0.320887,1.55656 0.137539,2.33464 -1.263977,5.36397 -2.257034,4.87851 -2.258542,9.65068 -0.0047,14.89639 0.732482,1.70483 0.99086,3.24682 0.981461,5.85733 -0.0109,3.02706 -0.234812,4.00494 -1.536812,6.71163 -1.091379,2.26884 -1.441448,3.53214 -1.233083,4.44985 0.39485,1.73905 1.179951,1.06995 1.179951,-1.00561 0,-0.92389 0.290557,-1.94637 0.645682,-2.27216 0.52552,-0.48212 0.702307,-0.30737 0.949953,0.93902 0.657578,3.30955 -0.866557,4.90297 -4.166537,4.35594 -2.233019,-0.37016 -2.440268,-0.80568 -1.092416,-2.29562 1.117789,-1.23563 1.156316,-1.6094 0.145772,-1.41421 -0.59325,0.11459 -0.810914,-0.31615 -0.948003,-1.87602 -0.188448,-2.14426 -1.512199,-4.15202 -2.356984,-3.57487 -0.712352,0.48667 -0.620483,2.30383 0.204936,4.05359 0.592626,1.25629 0.615558,1.86996 0.145621,3.89685 -0.413596,1.78389 -0.426607,2.70691 -0.05034,3.57079 l 0.507438,1.16503 0.03099,-1.1688 c 0.05587,-2.10713 0.946821,-0.59814 0.946821,1.60363 0,2.30399 0.605077,3.36158 1.923242,3.36158 1.816235,0 0.330115,1.92416 -2.474938,3.20443 -1.999167,0.91245 -2.181048,0.6284 -2.100577,-3.28056 0.03303,-1.60464 -0.317118,-3.13543 -1.099955,-4.80879 -1.916975,-4.09765 -1.945286,-5.87672 -0.163467,-10.27225 1.626302,-4.01188 2.098213,-6.18436 1.435603,-6.60892 -0.217253,-0.1392 -0.650493,0.77194 -0.962756,2.02475 -0.312261,1.25282 -1.335857,4.30095 -2.274658,6.77364 -1.014438,2.6719 -1.805761,5.70087 -1.950576,7.46627 -0.134017,1.63377 -0.413681,2.97049 -0.621474,2.97049 -0.747851,0 -2.700398,-3.81051 -2.700398,-5.26999 0,-0.82042 -0.251527,-2.26059 -0.558949,-3.20037 -0.45513,-1.39133 -0.444224,-1.78708 0.05871,-2.13068 0.498328,-0.34045 0.393497,-0.94634 -0.5426,-3.13603 -1.420604,-3.32303 -1.857235,-5.33409 -1.248418,-5.75003 0.252777,-0.17269 0.459595,-1.08152 0.459595,-2.01962 0,-1.58184 0.94235,-3.2965 1.811703,-3.2965 0.204897,0 0.714029,-0.57612 1.131404,-1.28027 0.699498,-1.18011 0.700836,-1.3444 0.01711,-2.10021 -0.441822,-0.4884 -0.637324,-1.24996 -0.483492,-1.88341 0.142043,-0.58491 0.261074,-1.91766 0.264513,-2.96167 0.0044,-1.34677 0.205794,-1.89821 0.693125,-1.89821 0.381595,0 0.686872,-0.44994 0.686872,-1.01237 0,-1.09656 0.8911,-1.34343 1.684292,-0.46662 0.271542,0.30017 1.069594,0.47101 1.773449,0.37964 1.635545,-0.2123 2.080328,-1.43159 0.522231,-1.43159 -0.988028,0 -1.183816,-0.3032 -1.526382,-2.36379 -0.312202,-1.87794 -0.675334,-2.53555 -1.766718,-3.19942 -3.006762,-1.82898 -4.744332,-8.41309 -3.257994,-12.34541 0.406705,-1.07599 0.739464,-2.56835 0.739464,-3.31635 0,-0.748 0.302539,-1.80216 0.672309,-2.34258 0.957116,-1.39882 0.859724,-2.45144 -0.419636,-4.53542 -1.919185,-3.12622 -2.129321,-9.71713 -0.457102,-14.337 0.553208,-1.52836 0.612027,-2.27508 0.239771,-3.04397 -0.271291,-0.56035 -0.493257,-1.71434 -0.493257,-2.56441 0,-1.19588 -0.510929,-2.07866 -2.258119,-3.90152 -1.542171,-1.60897 -2.485867,-3.12563 -2.976446,-4.78361 -0.926489,-3.13118 -0.909286,-3.54754 0.25614,-6.19922 l 0.974467,-2.21719 -1.145305,-2.2255 c -0.629919,-1.22402 -1.516926,-3.40804 -1.971128,-4.85338 l -0.825821,-2.6279 1.230681,-1.96308 c 0.945679,-1.50848 1.165447,-2.32365 0.948988,-3.52004 -0.245185,-1.35517 -0.112309,-1.64642 1.025245,-2.2473 0.751556,-0.39699 1.369119,-1.17233 1.453265,-1.82454 0.13455,-1.0429 1.456374,-1.68317 1.456374,-0.70545 0,0.66112 1.804512,2.80714 2.092619,2.48866 0.140333,-0.15513 -0.263005,-1.38752 -0.896307,-2.73865 -1.033303,-2.20451 -1.102966,-2.70331 -0.678886,-4.86098 0.529242,-2.69273 1.480005,-3.16081 2.313382,-1.13893 0.28688,0.69601 0.799599,1.26547 1.139377,1.26547 0.441902,0 0.279951,-0.71419 -0.568874,-2.50867 -0.652657,-1.37976 -1.118279,-2.89843 -1.034715,-3.37482 0.22752,-1.29706 1.321009,-1.46291 1.60934,-0.2441 0.432479,1.82815 1.201797,1.20768 0.916049,-0.7388 -0.170498,-1.16143 -0.722224,-2.18706 -1.548137,-2.87791 -0.705777,-0.59037 -2.336271,-2.2415 -3.623318,-3.66918 -2.056004,-2.28067 -2.399288,-2.96732 -2.82775,-5.65617 -0.545263,-3.42183 -0.07063,-6.89984 1.144083,-8.38358 0.97705,-1.19344 1.656226,-1.13865 1.063419,0.0858 -0.728407,1.50452 -0.558864,4.69017 0.329736,6.1956 0.439416,0.74445 1.747846,2.56673 2.90762,4.04951 2.544888,3.25367 3.5406,6.26566 4.082896,12.35062 0.511505,5.73947 1.097229,7.67137 2.058478,6.78951 0.575768,-0.52823 0.679283,-0.38233 0.679283,0.95736 0,0.86929 -0.206062,1.58054 -0.457915,1.58054 -0.829943,0 -0.514622,3.44115 0.380032,4.14735 0.460871,0.36379 1.217308,1.30728 1.680973,2.09665 0.661932,1.12692 0.716957,1.52135 0.256151,1.83616 -0.422612,0.28873 -0.499137,1.10613 -0.273408,2.9204 0.243462,1.95679 0.15252,2.69735 -0.407226,3.31611 -0.455308,0.5033 -0.721731,1.69536 -0.723513,3.23721 -0.0016,1.34231 -0.310644,3.093 -0.686872,3.89043 -0.88059,1.86645 -0.865162,1.97211 0.231778,1.58725 0.853982,-0.29961 0.91583,-0.091 0.91583,3.08971 0,2.33574 -0.218556,3.67798 -0.693304,4.25788 -0.618329,0.75527 -0.618654,1.04435 -0.003,2.67313 0.779567,2.06246 0.385952,3.98078 -0.99167,4.83301 -0.452607,0.28 -0.660209,0.68895 -0.461337,0.90879 0.538758,0.59555 1.833964,-0.47536 2.562453,-2.1187 0.48361,-1.09095 0.530423,-1.91094 0.189661,-3.32219 -0.326559,-1.35244 -0.29675,-2.19531 0.107145,-3.02955 0.395434,-0.81677 0.488125,-2.98476 0.315988,-7.3908 -0.231259,-5.91937 -0.19385,-6.28269 0.738984,-7.17701 0.806427,-0.77314 0.98259,-1.50151 0.98259,-4.06259 0,-3.52091 -0.859729,-6.23517 -2.617529,-8.26382 l -1.195202,-1.37937 0.823832,-2.01952 c 0.705704,-1.72996 0.740197,-2.24273 0.240555,-3.57613 -0.320802,-0.85613 -0.977092,-1.86153 -1.458423,-2.2342 -0.67401,-0.52187 -0.968699,-1.65153 -1.282192,-4.91518 -0.604672,-6.295 -1.19258,-7.7646 -5.196656,-12.99006 -2.116119,-2.76161 -2.692106,-4.28543 -2.30144,-6.08865 0.741581,-3.42295 2.423018,-5.26995 3.078524,-3.38164 0.144968,0.4176 0.498154,0.75928 0.784856,0.75928 0.316856,0 0.391905,-0.34738 0.191377,-0.88583 -0.774894,-2.0807 -0.720691,-2.47646 0.417696,-3.04982 0.639485,-0.32209 1.285336,-1.12574 1.435224,-1.7859 0.272117,-1.1985 -1.064282,-5.41459 -1.716295,-5.41459 -0.18544,0 -0.774048,1.12262 -1.308018,2.49473 -0.53397,1.3721 -1.260914,2.61776 -1.615431,2.76814 -0.354517,0.15039 -0.644576,0.57486 -0.644576,0.94327 0,0.36842 -0.930077,1.79922 -2.066838,3.17957 -3.77596,4.58506 -3.888835,9.24825 -0.419844,17.34497 1.996135,4.65904 2.072461,4.99762 1.53352,6.80279 -0.311943,1.04483 -0.791764,1.90855 -1.06627,1.91937 -0.831139,0.0328 -2.595054,4.65625 -2.272037,5.95538 0.211561,0.85085 -0.128674,1.80908 -1.258115,3.54331 -1.231679,1.89122 -1.558994,2.89437 -1.601421,4.90801 -0.02933,1.39202 -0.206548,3.3836 -0.393819,4.42573 -0.21822,1.21437 -0.07808,3.17929 0.390254,5.47175 0.712311,3.48674 0.706523,3.61318 -0.229452,5.01261 -0.528109,0.78961 -1.06741,2.48711 -1.198447,3.77224 -0.196412,1.92626 0.0152,2.90568 1.205071,5.57745 0.793826,1.78247 2.196626,3.972 3.117332,4.86561 0.920706,0.89362 1.70432,1.99508 1.741366,2.44771 0.03704,0.45262 0.22245,1.34167 0.412012,1.97565 0.236544,0.79112 0.0126,1.90261 -0.71391,3.54332 -1.969407,4.4476 -1.087799,10.56301 2.089091,14.49132 1.407695,1.74065 1.379022,1.53522 0.436286,3.1257 -0.646731,1.09108 -0.673076,1.56598 -0.18647,3.36135 0.523359,1.93096 0.492122,2.15291 -0.408724,2.90406 -1.762925,1.46996 -2.766712,3.69658 -2.769886,6.14422 -0.0016,1.27964 -0.346061,3.08677 -0.765338,4.01582 -1.187281,2.63086 -1.840462,9.69873 -1.110176,12.01288 0.885317,2.80542 2.491474,6.39935 3.03623,6.79386 0.312728,0.22648 0.364799,1.79848 0.150766,4.55159 -0.219682,2.8258 -0.161396,4.42614 0.177652,4.87774 0.496731,0.66162 0.88442,4.90706 0.825052,9.03483 -0.04013,2.78986 1.43317,6.47021 3.034374,7.57998 2.177841,1.50943 2.82633,2.51708 3.675438,5.71105 0.449983,1.69264 0.972698,3.07785 1.161588,3.07823 0.487029,10e-4 0.434133,-0.52028 -0.33848,-3.33562 -0.764222,-2.78476 -0.92941,-9.09632 -0.250216,-9.56034 0.242887,-0.16593 0.975489,0.86292 1.628006,2.28635 1.067681,2.32908 1.189415,3.17935 1.216579,8.49739 0.02918,5.71349 0.827859,10.21194 1.813077,10.21194 0.499432,0 0.493495,-0.56964 -0.04373,-4.19555 -0.238769,-1.61154 -0.324333,-3.24635 -0.190142,-3.63291 0.134191,-0.38656 1.163389,-1.18057 2.287107,-1.76446 1.554899,-0.80794 2.475314,-1.81468 3.851761,-4.21301 1.006216,-1.75323 1.810569,-3.79044 1.81299,-4.5918 0.0024,-0.79224 0.441528,-2.11911 0.975858,-2.94862 0.796041,-1.23579 0.910109,-1.88987 0.631556,-3.62145 -0.406718,-2.52832 -0.403894,-4.2201 0.01328,-7.95868 0.347978,-3.11843 -0.776181,-10.56212 -1.885672,-12.48611 -1.123008,-1.94742 -0.787537,-5.0683 0.966655,-8.99277 0.887238,-1.98493 1.702591,-4.27977 1.811894,-5.09964 0.109303,-0.81988 0.51672,-2.60887 0.905371,-3.97553 1.292215,-4.54399 0.699981,-9.40295 -1.404202,-11.52071 -0.644891,-0.64905 -1.74355,-1.76682 -2.441464,-2.48392 l -1.268934,-1.30382 1.97723,-2.89103 c 1.087477,-1.59007 2.115702,-3.73677 2.284946,-4.77044 0.169244,-1.03367 0.589269,-2.4945 0.933388,-3.24628 0.864293,-1.88819 0.78267,-3.44147 -0.24565,-4.67476 -1.065267,-1.2776 -2.052199,-7.5815 -1.39838,-8.93196 0.796114,-1.64437 0.457277,-4.79876 -1.006391,-9.36898 -1.477412,-4.61312 -1.919993,-9.10124 -1.025746,-10.40185 0.260456,-0.37881 0.73654,-1.71378 1.057964,-2.9666 0.321424,-1.25281 0.873696,-3.02587 1.22727,-3.94013 0.789432,-2.04128 0.794872,-4.82991 0.01413,-7.24448 -0.388034,-1.20005 -0.448488,-2.23472 -0.177457,-3.03713 0.57683,-1.70773 0.01685,-5.20531 -1.080239,-6.74707 -1.09139,-1.53374 -0.830041,-3.01002 0.837133,-4.72871 0.977743,-1.00795 1.107221,-1.56157 1.065449,-4.55569 -0.02615,-1.87457 0.08427,-4.37732 0.245379,-5.56167 0.161111,-1.18435 0.1432,-2.55106 -0.0398,-3.03713 -0.183004,-0.48607 -0.293612,-2.06071 -0.245796,-3.49919 0.09571,-2.87951 -0.608722,-4.80826 -2.450959,-6.71075 -1.374528,-1.41948 -1.439364,-1.92138 -0.504245,-3.90341 0.376229,-0.79743 0.685321,-1.8703 0.686872,-2.38415 0.0044,-1.46758 -1.297417,-3.53261 -3.008886,-4.77277 -0.862092,-0.62469 -1.56744,-1.42722 -1.56744,-1.7834 0,-0.35618 -0.405202,-1.52617 -0.900449,-2.59997 l -0.900449,-1.95237 1.12954,-1.4839 c 1.422837,-1.8692 1.673277,-2.98935 1.498407,-6.70194 -0.150186,-3.18856 -0.973236,-4.25833 -1.491934,-1.93916 z m 0.664885,3.97015 c 0,1.78266 -1.243642,4.27746 -2.13229,4.27746 -0.589086,0 -0.681558,-0.36423 -0.465729,-1.83444 0.260761,-1.77628 1.419917,-3.73363 2.211076,-3.73363 0.212818,0 0.386943,0.58077 0.386943,1.29061 z m -9.913615,20.20774 c 0.262186,0.75527 -0.788533,2.2925 -1.566962,2.2925 -0.485933,0 -0.555715,-1.05982 -0.147257,-2.23645 0.349679,-1.00732 1.372389,-1.04075 1.714219,-0.056 z m 14.76014,94.28495 c -0.150787,0.52517 -0.993849,1.72594 -1.87347,2.66838 -1.334954,1.43029 -1.599311,1.55422 -1.599311,0.74974 0,-0.92213 3.175265,-5.00492 3.560896,-4.57864 0.102324,0.11311 0.06267,0.63535 -0.08812,1.16052 z m -18.515669,32.89468 c -1.544362,2.61037 -1.899291,2.60512 -0.697939,-0.0103 0.936515,-2.03887 1.611033,-2.9817 1.902592,-2.65941 0.124638,0.13778 -0.417456,1.33916 -1.204653,2.66973 z m 11.837485,24.75124 c 0,0.41761 -0.206062,0.6185 -0.457915,0.44644 -0.251853,-0.17206 -0.457914,-0.65452 -0.457914,-1.07212 0,-0.41761 0.206061,-0.61851 0.457914,-0.44644 0.251853,0.17206 0.457915,0.65452 0.457915,1.07212 z m 3.212615,6.89704 c 1.727721,0.59606 2.547998,1.90151 1.194815,1.90151 -0.346298,0 -0.75327,0.68335 -0.904382,1.51856 -0.19839,1.09653 -0.536453,1.51857 -1.216398,1.51857 -1.050878,0 -1.198675,-0.33256 -1.518502,-3.41677 -0.246459,-2.37669 -0.170451,-2.42402 2.444467,-1.52187 z M 75.536786,248.10513 c -0.713279,2.07383 -0.04608,5.66013 1.381625,7.42646 0.680915,0.84241 1.460319,1.37979 1.732009,1.19418 0.307963,-0.2104 -0.0088,-0.89332 -0.841289,-1.81352 -1.508414,-1.66744 -1.824198,-4.48445 -0.6484,-5.7842 0.894476,-0.98877 0.868455,-1.19474 -0.233285,-1.84653 -0.789102,-0.46684 -0.987169,-0.34954 -1.39066,0.82361 z m -1.967803,48.38365 c -0.303032,1.28096 -0.115359,1.66021 0.584837,1.18184 0.587676,-0.40149 0.6569,-2.29866 0.08387,-2.29866 -0.222478,0 -0.523398,0.50257 -0.668709,1.11682 z m -0.679617,35.16593 c -0.712002,1.47063 0.538771,7.17929 1.755054,8.01024 0.976576,0.66718 0.975812,-0.16016 -0.0021,-2.27911 -0.619398,-1.34212 -0.932664,-2.84124 -0.851949,-4.077 0.148008,-2.26601 -0.250529,-2.99768 -0.901001,-1.65413 z"
   id="path121"
   inkscape:connector-curvature="0" /><text
   xml:space="preserve"
   style="font-style:normal;font-weight:normal;font-size:10px;line-height:1.25;font-family:sans-serif;letter-spacing:0px;word-spacing:0px;fill:#000000;fill-opacity:1;stroke:none;stroke-width:0.75"
   x="241.62712"
   y="-238.88138"
   id="text301"
   transform="scale(1,-1)"><tspan
     sodipodi:role="line"
     id="tspan299"
     x="241.62712"
     y="-230.03372"
     style="stroke-width:0.75" /></text>

<flowRoot
   xml:space="preserve"
   id="flowRoot303"
   style="font-style:normal;font-weight:normal;font-size:13.33333302px;line-height:1.25;font-family:sans-serif;letter-spacing:0px;word-spacing:0px;fill:#000000;fill-opacity:1;stroke:none"
   transform="matrix(0.75000002,0,0,-0.75000002,3.4322035,652.80511)"><flowRegion
     id="flowRegion305"><rect
       id="rect307"
       width="385.32202"
       height="375.25424"
       x="140.03391"
       y="331.32202" /></flowRegion><flowPara
     id="flowPara309"
     style="font-style:italic;font-variant:normal;font-weight:normal;font-stretch:normal;font-size:10.66666698px;font-family:'DejaVu Serif';-inkscape-font-specification:'DejaVu Serif Italic'">I - There is no god but ERIS and SOPHIA and HADIT and PAN and THOTH and EYSIS and They are Probably Your God(dess)(e)(s). There is no Erisian Movement but The Erisian Movement and it is The Erisian Movement. And every Golden Apple Corps is the beloved home of a Golden Worm named RAY.</flowPara><flowPara
     id="flowPara311"
     style="font-style:italic;font-variant:normal;font-weight:normal;font-stretch:normal;font-size:10.66666698px;font-family:'DejaVu Serif';-inkscape-font-specification:'DejaVu Serif Italic'" /><flowPara
     id="flowPara313"
     style="font-style:italic;font-variant:normal;font-weight:normal;font-stretch:normal;font-size:10.66666698px;font-family:'DejaVu Serif';-inkscape-font-specification:'DejaVu Serif Italic'">II - A Discordian Shall Always use the Official Discordian Numbering System.</flowPara><flowPara
     id="flowPara315"
     style="font-style:italic;font-variant:normal;font-weight:normal;font-stretch:normal;font-size:10.66666698px;font-family:'DejaVu Serif';-inkscape-font-specification:'DejaVu Serif Italic'" /><flowPara
     id="flowPara317"
     style="font-style:italic;font-variant:normal;font-weight:normal;font-stretch:normal;font-size:10.66666698px;font-family:'DejaVu Serif';-inkscape-font-specification:'DejaVu Serif Italic'">III - A Discordian is Required during their early Illumination to Go Off Alone &amp; Partake Joyously of a Vegan Hot Dog with Cheese on a Friday; this Devotive Ceremony to Remonstrate against the popular Paganisms of the Day: of Catholic Christendom (no meat on Friday), of Judaism (no meat of Pork), of Hindic Peoples (no meat of Beef), of Buddhists (no meat of animal), of Discordians (no Hot Dog Buns), of Literalists (no non-Meat), and of Dogmatists (no Cheese).</flowPara><flowPara
     style="font-style:italic;font-variant:normal;font-weight:normal;font-stretch:normal;font-size:10.66666698px;font-family:'DejaVu Serif';-inkscape-font-specification:'DejaVu Serif Italic'"
     id="flowPara331" /><flowPara
     style="font-style:italic;font-variant:normal;font-weight:normal;font-stretch:normal;font-size:10.66666698px;font-family:'DejaVu Serif';-inkscape-font-specification:'DejaVu Serif Italic'"
     id="flowPara335">IV - A Discordian shall Partake of No Hot Dog Buns, for Such was the Solace of Our Goddess when She was Confronted with The Original Snub.</flowPara><flowPara
     style="font-style:italic;font-variant:normal;font-weight:normal;font-stretch:normal;font-size:10.66666698px;font-family:'DejaVu Serif';-inkscape-font-specification:'DejaVu Serif Italic'"
     id="flowPara339" /><flowPara
     style="font-style:italic;font-variant:normal;font-weight:normal;font-stretch:normal;font-size:10.66666698px;font-family:'DejaVu Serif';-inkscape-font-specification:'DejaVu Serif Italic'"
     id="flowPara343">V - A Discordian is Prohibited of Believing what they read.</flowPara><flowPara
     id="flowPara319"
     style="font-style:italic;font-variant:normal;font-weight:normal;font-stretch:normal;font-size:10.66666698px;font-family:'DejaVu Serif';-inkscape-font-specification:'DejaVu Serif Italic'" /><flowPara
     id="flowPara321"
     style="font-style:italic;font-variant:normal;font-weight:normal;font-stretch:normal;font-size:10.66666698px;font-family:'DejaVu Serif';-inkscape-font-specification:'DejaVu Serif Italic'" /><flowPara
     id="flowPara323"
     style="font-style:italic;font-variant:normal;font-weight:normal;font-stretch:normal;font-size:10.66666698px;font-family:'DejaVu Serif';-inkscape-font-specification:'DejaVu Serif Italic'" /><flowPara
     id="flowPara325"
     style="font-style:italic;font-variant:normal;font-weight:normal;font-stretch:normal;font-size:10.66666698px;font-family:'DejaVu Serif';-inkscape-font-specification:'DejaVu Serif Italic'" /></flowRoot><text
   xml:space="preserve"
   style="font-style:normal;font-weight:normal;font-size:10px;line-height:1.25;font-family:sans-serif;letter-spacing:0px;word-spacing:0px;fill:#000000;fill-opacity:1;stroke:none;stroke-width:0.75"
   x="124.9322"
   y="-420.10172"
   id="text349"
   transform="scale(1,-1)"><tspan
     sodipodi:role="line"
     id="tspan347"
     x="124.9322"
     y="-420.10172"
     style="stroke-width:0.75;-inkscape-font-specification:'Trebuchet MS';font-family:'Trebuchet MS';font-weight:normal;font-style:normal;font-stretch:normal;font-variant:normal">KNOW YE THIS O PEEPS OF FAITH!</tspan></text>

<g
   id="g1037"
   transform="translate(-6.864407,1.3728814)"><g
     transform="matrix(0.04891047,0,0,-0.04865203,107.92263,563.58239)"
     id="g2346"><rect
       x="-695.81"
       y="-185.57001"
       width="599.51001"
       height="578.35999"
       ry="0"
       rx="0"
       style="fill:#ffffff;stroke:#000000;stroke-width:44.61999893;stroke-linecap:round;stroke-linejoin:round"
       id="rect2095" /><path
       d="m -552.5,76.422 c 0,-96.6 89.6,-175 200,-175 110.4,0 200,78.4 200,175 0,0 -14.51,-15.412 -33.26,-15.412 -18.75,0 -47.34,15.412 -54.24,15.412 -6.95,0 -23.65,-16.082 -56.25,-16.082 -31.94,0 -51.36,16.082 -56.25,16.082 -4.95,0 -24.32,-14.742 -55.58,-16.082 -30.6,-1.34 -51.36,16.752 -56.92,16.082 -4.91,-0.591 -35.49,-16.752 -54.24,-16.752 -18.75,0 -33.26,16.752 -33.26,16.752 z"
       style="fill:#000000"
       sodipodi:nodetypes="csssssczzzzzzzc"
       id="path1306"
       inkscape:connector-curvature="0" /><path
       d="m -353.38,68.74 0.67,213.08"
       style="fill:none;stroke:#000000;stroke-width:11.39999962"
       id="path1315"
       inkscape:connector-curvature="0" /><path
       d="m -345.47,276.6 h -13.62 c 0,0 1.7,35.75 -13.62,34.8 -15.32,-0.94 -37.26,-28.75 -47.66,-38.58 -10.41,-9.84 -15.7,9.08 -6.81,23.45 8.89,14.38 44.83,31.78 65.82,31.78 21,0 15.89,-51.45 15.89,-51.45 z"
       style="fill:#000000;fill-rule:evenodd;stroke:#000000;stroke-width:1.12909997px"
       sodipodi:nodetypes="cczzzzc"
       id="path2048"
       inkscape:connector-curvature="0" /><path
       d="m -608.56,-10.5 c 3.84,3.3809 8.34,5.9376 10.81,8.9703 2.41,2.9768 2.59,6.8635 -0.07,9.241 -2.6,2.3217 -7.13,1.1908 -9.53,-1.1887 -2.4,-2.3825 -5.04,-7.9191 -7.12,-11.378 -2.09,-3.4578 -10.5,-17.491 -9.73,-18.437 0.72,-0.876 11.74,9.354 15.64,12.792 z"
       style="fill:#000000"
       sodipodi:nodetypes="czzzzzz"
       id="path2078"
       inkscape:connector-curvature="0" /><ellipse
       transform="matrix(0.33571,-0.28177,0.5786,0.68936,-823.63,189.76)"
       style="fill:#000000"
       id="path2080"
       cx="125.4023"
       cy="158.71864"
       rx="20.210466"
       ry="21.914965" /><path
       d="m -567.46,-42.799 c 3.84,3.382 8.35,5.938 10.81,8.971 2.42,2.977 2.59,6.863 -0.07,9.241 -2.6,2.322 -7.13,1.191 -9.52,-1.189 -2.4,-2.382 -5.04,-7.919 -7.13,-11.377 -2.08,-3.459 -10.49,-17.492 -9.72,-18.437 0.71,-0.876 11.73,9.354 15.63,12.791 z"
       style="fill:#000000"
       sodipodi:nodetypes="czzzzzz"
       id="path2083"
       inkscape:connector-curvature="0" /><path
       d="m -526.01,-79.74 c 3.84,3.381 8.34,5.938 10.81,8.971 2.41,2.977 2.59,6.863 -0.07,9.241 -2.6,2.322 -7.13,1.191 -9.53,-1.189 -2.4,-2.382 -5.04,-7.919 -7.12,-11.377 -2.09,-3.459 -10.5,-17.492 -9.73,-18.437 0.72,-0.876 11.74,9.354 15.64,12.791 z"
       style="fill:#000000"
       sodipodi:nodetypes="czzzzzz"
       id="path2085"
       inkscape:connector-curvature="0" /><path
       d="m -618.81,-59.918 c 3.83,3.382 8.34,5.938 10.8,8.971 2.42,2.977 2.6,6.863 -0.07,9.241 -2.59,2.322 -7.12,1.191 -9.52,-1.189 -2.4,-2.382 -5.04,-7.919 -7.12,-11.377 -2.09,-3.459 -10.5,-17.492 -9.73,-18.437 0.72,-0.876 11.74,9.354 15.64,12.791 z"
       style="fill:#000000"
       sodipodi:nodetypes="czzzzzz"
       id="path2087"
       inkscape:connector-curvature="0" /><path
       d="m -576.47,-92.354 c 3.84,3.381 8.35,5.938 10.81,8.971 2.42,2.977 2.59,6.863 -0.07,9.241 -2.6,2.322 -7.13,1.191 -9.52,-1.189 -2.4,-2.382 -5.04,-7.919 -7.13,-11.377 -2.08,-3.459 -10.49,-17.492 -9.72,-18.442 0.71,-0.87 11.73,9.359 15.63,12.796 z"
       style="fill:#000000"
       sodipodi:nodetypes="czzzzzz"
       id="path2089"
       inkscape:connector-curvature="0" /><path
       d="m -633.23,-113.98 c 3.84,3.38 8.34,5.94 10.81,8.97 2.42,2.98 2.59,6.866 -0.07,9.244 -2.6,2.322 -7.13,1.191 -9.53,-1.189 -2.4,-2.382 -5.03,-7.915 -7.12,-11.375 -2.09,-3.46 -10.5,-17.49 -9.72,-18.44 0.71,-0.88 11.73,9.35 15.63,12.79 z"
       style="fill:#000000"
       sodipodi:nodetypes="czzzzzz"
       id="path2091"
       inkscape:connector-curvature="0" /><rect
       x="-367.82001"
       y="248.21001"
       width="30.194"
       height="40.908001"
       ry="36.785999"
       rx="36.785999"
       style="fill:#000000"
       id="rect2093" /></g><g
     transform="matrix(0.20525896,0,0,-0.20416699,63.796257,645.62485)"
     id="g2602"><rect
       x="239.8"
       y="357.62"
       width="142.86"
       height="137.82001"
       ry="0"
       rx="0"
       style="fill:#ffffff;stroke:#000000;stroke-width:10.63300037;stroke-linecap:round;stroke-linejoin:round"
       id="rect2274" /><path
       d="m 252.25,392.7 c 3.76,13.59 14.83,23.45 28.66,27.46 l 12.32,-9.95 -8.18,-16.77 7.83,-11.84 z"
       style="fill:#000000"
       sodipodi:nodetypes="cccccc"
       id="path2276"
       inkscape:connector-curvature="0" /><path
       d="m 304.83,384.54 -11.15,9.47 3.78,18.27 -13,6.43 c 7.73,4.73 17.11,7.53 27.25,7.53 26.31,0 47.66,-18.68 47.66,-41.7 h -47.66 z"
       style="fill:#000000"
       sodipodi:nodetypes="ccccsccc"
       id="path2278"
       inkscape:connector-curvature="0" /><path
       d="m 310.46,423.32 0.16,50.78"
       style="fill:none;stroke:#000000;stroke-width:2.71659994"
       id="path2280"
       inkscape:connector-curvature="0" /><path
       d="m 335.67,473.71 -50.77,0.15"
       style="fill:none;stroke:#000000;stroke-width:3.16339993;stroke-linecap:round"
       id="path2282"
       inkscape:connector-curvature="0" /></g><g
     id="g702"
     transform="matrix(0.06405152,0,0,-0.05952421,103.75817,538.31851)"><g
       id="g2868"
       style="fill:#000000"
       transform="matrix(0.66705,0,0,0.66705,126.9,128.88)"><path
         id="path2853"
         style="fill:#000000"
         d="m 351.48,185.49 c -43.499,1.1021 -78.438,36.735 -78.438,80.5 0,44.459 36.041,80.5 80.5,80.5 -38.503,-22.23 -51.667,-71.466 -29.438,-109.97 14.888,-25.787 41.878,-40.207 69.656,-40.25 -11.835,-6.8412 -25.565,-10.781 -40.219,-10.781 -0.69468,0 -1.372,-0.0175 -2.0625,0 z"
         inkscape:connector-curvature="0" /><path
         id="path2858"
         style="fill:#000000"
         d="m 491.94,264.2 c -22.704,-37.12 -71.032,-49.561 -108.93,-27.679 -38.503,22.23 -51.695,71.462 -29.465,109.97 0,-44.459 36.058,-80.478 80.517,-80.478 29.777,0 55.76,16.164 69.686,40.199 0.007,-13.67 -3.4459,-27.531 -10.773,-40.221 -0.34734,-0.60161 -0.67087,-1.197 -1.0312,-1.7862 z"
         inkscape:connector-curvature="0" /><path
         id="path2860"
         style="fill:#000000"
         d="m 494.01,425.2 c 20.795,-38.222 7.4051,-86.296 -30.496,-108.18 -38.503,-22.23 -87.735,-9.0379 -109.97,29.465 38.503,-22.23 87.725,-9.0122 109.95,29.491 14.888,25.787 13.881,56.371 0.0294,80.449 11.842,-6.8292 22.12,-16.75 29.446,-29.44 0.34734,-0.60161 0.70117,-1.1795 1.0312,-1.7862 z"
         inkscape:connector-curvature="0" /><path
         id="path2862"
         style="fill:#000000"
         d="m 355.61,507.49 c 43.499,-1.1021 78.437,-36.735 78.437,-80.5 0,-44.459 -36.041,-80.5 -80.5,-80.5 38.503,22.23 51.667,71.466 29.437,109.97 -14.888,25.787 -41.878,40.207 -69.656,40.25 11.835,6.8412 25.565,10.781 40.219,10.781 0.69468,0 1.372,0.0175 2.0625,0 z"
         inkscape:connector-curvature="0" /><path
         id="path2864"
         style="fill:#000000"
         d="m 215.15,428.77 c 22.704,37.12 71.032,49.561 108.93,27.679 38.503,-22.23 51.695,-71.462 29.465,-109.97 0,44.459 -36.058,80.478 -80.517,80.478 -29.777,0 -55.76,-16.164 -69.686,-40.199 -0.007,13.67 3.4459,27.531 10.773,40.221 0.34734,0.60161 0.67087,1.197 1.0312,1.7862 z"
         inkscape:connector-curvature="0" /><path
         id="path2866"
         style="fill:#000000"
         d="m 213.08,267.77 c -20.795,38.222 -7.4051,86.296 30.496,108.18 38.503,22.23 87.735,9.0379 109.97,-29.465 -38.503,22.23 -87.725,9.0122 -109.95,-29.491 -14.888,-25.787 -13.881,-56.371 -0.0294,-80.449 -11.842,6.8292 -22.12,16.75 -29.446,29.44 -0.34734,0.60161 -0.70117,1.1795 -1.0312,1.7862 z"
         inkscape:connector-curvature="0" /></g><g
       id="g3078"
       style="fill:#000000"
       transform="matrix(0.66705,0,0,0.66705,293.96,254.72)"><path
         id="path3080"
         style="fill:#000000"
         d="m 351.48,185.49 c -43.499,1.1021 -78.438,36.735 -78.438,80.5 0,44.459 36.041,80.5 80.5,80.5 -38.503,-22.23 -51.667,-71.466 -29.438,-109.97 14.888,-25.787 41.878,-40.207 69.656,-40.25 -11.835,-6.8412 -25.565,-10.781 -40.219,-10.781 -0.69468,0 -1.372,-0.0175 -2.0625,0 z"
         inkscape:connector-curvature="0" /><path
         id="path3082"
         style="fill:#000000"
         d="m 491.94,264.2 c -22.704,-37.12 -71.032,-49.561 -108.93,-27.679 -38.503,22.23 -51.695,71.462 -29.465,109.97 0,-44.459 36.058,-80.478 80.517,-80.478 29.777,0 55.76,16.164 69.686,40.199 0.007,-13.67 -3.4459,-27.531 -10.773,-40.221 -0.34734,-0.60161 -0.67087,-1.197 -1.0312,-1.7862 z"
         inkscape:connector-curvature="0" /><path
         id="path3084"
         style="fill:#000000"
         d="m 494.01,425.2 c 20.795,-38.222 7.4051,-86.296 -30.496,-108.18 -38.503,-22.23 -87.735,-9.0379 -109.97,29.465 38.503,-22.23 87.725,-9.0122 109.95,29.491 14.888,25.787 13.881,56.371 0.0294,80.449 11.842,-6.8292 22.12,-16.75 29.446,-29.44 0.34734,-0.60161 0.70117,-1.1795 1.0312,-1.7862 z"
         inkscape:connector-curvature="0" /><path
         id="path3086"
         style="fill:#000000"
         d="m 355.61,507.49 c 43.499,-1.1021 78.437,-36.735 78.437,-80.5 0,-44.459 -36.041,-80.5 -80.5,-80.5 38.503,22.23 51.667,71.466 29.437,109.97 -14.888,25.787 -41.878,40.207 -69.656,40.25 11.835,6.8412 25.565,10.781 40.219,10.781 0.69468,0 1.372,0.0175 2.0625,0 z"
         inkscape:connector-curvature="0" /><path
         id="path3088"
         style="fill:#000000"
         d="m 215.15,428.77 c 22.704,37.12 71.032,49.561 108.93,27.679 38.503,-22.23 51.695,-71.462 29.465,-109.97 0,44.459 -36.058,80.478 -80.517,80.478 -29.777,0 -55.76,-16.164 -69.686,-40.199 -0.007,13.67 3.4459,27.531 10.773,40.221 0.34734,0.60161 0.67087,1.197 1.0312,1.7862 z"
         inkscape:connector-curvature="0" /><path
         id="path3090"
         style="fill:#000000"
         d="m 213.08,267.77 c -20.795,38.222 -7.4051,86.296 30.496,108.18 38.503,22.23 87.735,9.0379 109.97,-29.465 -38.503,22.23 -87.725,9.0122 -109.95,-29.491 -14.888,-25.787 -13.881,-56.371 -0.0294,-80.449 -11.842,6.8292 -22.12,16.75 -29.446,29.44 -0.34734,0.60161 -0.70117,1.1795 -1.0312,1.7862 z"
         inkscape:connector-curvature="0" /></g><g
       id="g3092"
       style="fill:#000000"
       transform="matrix(0.66705,0,0,0.66705,101.44,336.47)"><path
         id="path3094"
         style="fill:#000000"
         d="m 351.48,185.49 c -43.499,1.1021 -78.438,36.735 -78.438,80.5 0,44.459 36.041,80.5 80.5,80.5 -38.503,-22.23 -51.667,-71.466 -29.438,-109.97 14.888,-25.787 41.878,-40.207 69.656,-40.25 -11.835,-6.8412 -25.565,-10.781 -40.219,-10.781 -0.69468,0 -1.372,-0.0175 -2.0625,0 z"
         inkscape:connector-curvature="0" /><path
         id="path3096"
         style="fill:#000000"
         d="m 491.94,264.2 c -22.704,-37.12 -71.032,-49.561 -108.93,-27.679 -38.503,22.23 -51.695,71.462 -29.465,109.97 0,-44.459 36.058,-80.478 80.517,-80.478 29.777,0 55.76,16.164 69.686,40.199 0.007,-13.67 -3.4459,-27.531 -10.773,-40.221 -0.34734,-0.60161 -0.67087,-1.197 -1.0312,-1.7862 z"
         inkscape:connector-curvature="0" /><path
         id="path3098"
         style="fill:#000000"
         d="m 494.01,425.2 c 20.795,-38.222 7.4051,-86.296 -30.496,-108.18 -38.503,-22.23 -87.735,-9.0379 -109.97,29.465 38.503,-22.23 87.725,-9.0122 109.95,29.491 14.888,25.787 13.881,56.371 0.0294,80.449 11.842,-6.8292 22.12,-16.75 29.446,-29.44 0.34734,-0.60161 0.70117,-1.1795 1.0312,-1.7862 z"
         inkscape:connector-curvature="0" /><path
         id="path3100"
         style="fill:#000000"
         d="m 355.61,507.49 c 43.499,-1.1021 78.437,-36.735 78.437,-80.5 0,-44.459 -36.041,-80.5 -80.5,-80.5 38.503,22.23 51.667,71.466 29.437,109.97 -14.888,25.787 -41.878,40.207 -69.656,40.25 11.835,6.8412 25.565,10.781 40.219,10.781 0.69468,0 1.372,0.0175 2.0625,0 z"
         inkscape:connector-curvature="0" /><path
         id="path3102"
         style="fill:#000000"
         d="m 215.15,428.77 c 22.704,37.12 71.032,49.561 108.93,27.679 38.503,-22.23 51.695,-71.462 29.465,-109.97 0,44.459 -36.058,80.478 -80.517,80.478 -29.777,0 -55.76,-16.164 -69.686,-40.199 -0.007,13.67 3.4459,27.531 10.773,40.221 0.34734,0.60161 0.67087,1.197 1.0312,1.7862 z"
         inkscape:connector-curvature="0" /><path
         id="path3104"
         style="fill:#000000"
         d="m 213.08,267.77 c -20.795,38.222 -7.4051,86.296 30.496,108.18 38.503,22.23 87.735,9.0379 109.97,-29.465 -38.503,22.23 -87.725,9.0122 -109.95,-29.491 -14.888,-25.787 -13.881,-56.371 -0.0294,-80.449 -11.842,6.8292 -22.12,16.75 -29.446,29.44 -0.34734,0.60161 -0.70117,1.1795 -1.0312,1.7862 z"
         inkscape:connector-curvature="0" /></g><g
       id="g3106"
       style="fill:#000000"
       transform="matrix(0.66705,0,0,0.66705,319.41,47.118)"><path
         id="path3108"
         style="fill:#000000"
         d="m 351.48,185.49 c -43.499,1.1021 -78.438,36.735 -78.438,80.5 0,44.459 36.041,80.5 80.5,80.5 -38.503,-22.23 -51.667,-71.466 -29.438,-109.97 14.888,-25.787 41.878,-40.207 69.656,-40.25 -11.835,-6.8412 -25.565,-10.781 -40.219,-10.781 -0.69468,0 -1.372,-0.0175 -2.0625,0 z"
         inkscape:connector-curvature="0" /><path
         id="path3110"
         style="fill:#000000"
         d="m 491.94,264.2 c -22.704,-37.12 -71.032,-49.561 -108.93,-27.679 -38.503,22.23 -51.695,71.462 -29.465,109.97 0,-44.459 36.058,-80.478 80.517,-80.478 29.777,0 55.76,16.164 69.686,40.199 0.007,-13.67 -3.4459,-27.531 -10.773,-40.221 -0.34734,-0.60161 -0.67087,-1.197 -1.0312,-1.7862 z"
         inkscape:connector-curvature="0" /><path
         id="path3112"
         style="fill:#000000"
         d="m 494.01,425.2 c 20.795,-38.222 7.4051,-86.296 -30.496,-108.18 -38.503,-22.23 -87.735,-9.0379 -109.97,29.465 38.503,-22.23 87.725,-9.0122 109.95,29.491 14.888,25.787 13.881,56.371 0.0294,80.449 11.842,-6.8292 22.12,-16.75 29.446,-29.44 0.34734,-0.60161 0.70117,-1.1795 1.0312,-1.7862 z"
         inkscape:connector-curvature="0" /><path
         id="path3114"
         style="fill:#000000"
         d="m 355.61,507.49 c 43.499,-1.1021 78.437,-36.735 78.437,-80.5 0,-44.459 -36.041,-80.5 -80.5,-80.5 38.503,22.23 51.667,71.466 29.437,109.97 -14.888,25.787 -41.878,40.207 -69.656,40.25 11.835,6.8412 25.565,10.781 40.219,10.781 0.69468,0 1.372,0.0175 2.0625,0 z"
         inkscape:connector-curvature="0" /><path
         id="path3116"
         style="fill:#000000"
         d="m 215.15,428.77 c 22.704,37.12 71.032,49.561 108.93,27.679 38.503,-22.23 51.695,-71.462 29.465,-109.97 0,44.459 -36.058,80.478 -80.517,80.478 -29.777,0 -55.76,-16.164 -69.686,-40.199 -0.007,13.67 3.4459,27.531 10.773,40.221 0.34734,0.60161 0.67087,1.197 1.0312,1.7862 z"
         inkscape:connector-curvature="0" /><path
         id="path3118"
         style="fill:#000000"
         d="m 213.08,267.77 c -20.795,38.222 -7.4051,86.296 30.496,108.18 38.503,22.23 87.735,9.0379 109.97,-29.465 -38.503,22.23 -87.725,9.0122 -109.95,-29.491 -14.888,-25.787 -13.881,-56.371 -0.0294,-80.449 -11.842,6.8292 -22.12,16.75 -29.446,29.44 -0.34734,0.60161 -0.70117,1.1795 -1.0312,1.7862 z"
         inkscape:connector-curvature="0" /></g><g
       id="g3120"
       style="fill:#000000"
       transform="matrix(0.66705,0,0,0.66705,152.35,-78.724)"><path
         id="path3122"
         style="fill:#000000"
         d="m 351.48,185.49 c -43.499,1.1021 -78.438,36.735 -78.438,80.5 0,44.459 36.041,80.5 80.5,80.5 -38.503,-22.23 -51.667,-71.466 -29.438,-109.97 14.888,-25.787 41.878,-40.207 69.656,-40.25 -11.835,-6.8412 -25.565,-10.781 -40.219,-10.781 -0.69468,0 -1.372,-0.0175 -2.0625,0 z"
         inkscape:connector-curvature="0" /><path
         id="path3124"
         style="fill:#000000"
         d="m 491.94,264.2 c -22.704,-37.12 -71.032,-49.561 -108.93,-27.679 -38.503,22.23 -51.695,71.462 -29.465,109.97 0,-44.459 36.058,-80.478 80.517,-80.478 29.777,0 55.76,16.164 69.686,40.199 0.007,-13.67 -3.4459,-27.531 -10.773,-40.221 -0.34734,-0.60161 -0.67087,-1.197 -1.0312,-1.7862 z"
         inkscape:connector-curvature="0" /><path
         id="path3126"
         style="fill:#000000"
         d="m 494.01,425.2 c 20.795,-38.222 7.4051,-86.296 -30.496,-108.18 -38.503,-22.23 -87.735,-9.0379 -109.97,29.465 38.503,-22.23 87.725,-9.0122 109.95,29.491 14.888,25.787 13.881,56.371 0.0294,80.449 11.842,-6.8292 22.12,-16.75 29.446,-29.44 0.34734,-0.60161 0.70117,-1.1795 1.0312,-1.7862 z"
         inkscape:connector-curvature="0" /><path
         id="path3128"
         style="fill:#000000"
         d="m 355.61,507.49 c 43.499,-1.1021 78.437,-36.735 78.437,-80.5 0,-44.459 -36.041,-80.5 -80.5,-80.5 38.503,22.23 51.667,71.466 29.437,109.97 -14.888,25.787 -41.878,40.207 -69.656,40.25 11.835,6.8412 25.565,10.781 40.219,10.781 0.69468,0 1.372,0.0175 2.0625,0 z"
         inkscape:connector-curvature="0" /><path
         id="path3130"
         style="fill:#000000"
         d="m 215.15,428.77 c 22.704,37.12 71.032,49.561 108.93,27.679 38.503,-22.23 51.695,-71.462 29.465,-109.97 0,44.459 -36.058,80.478 -80.517,80.478 -29.777,0 -55.76,-16.164 -69.686,-40.199 -0.007,13.67 3.4459,27.531 10.773,40.221 0.34734,0.60161 0.67087,1.197 1.0312,1.7862 z"
         inkscape:connector-curvature="0" /><path
         id="path3132"
         style="fill:#000000"
         d="m 213.08,267.77 c -20.795,38.222 -7.4051,86.296 30.496,108.18 38.503,22.23 87.735,9.0379 109.97,-29.465 -38.503,22.23 -87.725,9.0122 -109.95,-29.491 -14.888,-25.787 -13.881,-56.371 -0.0294,-80.449 -11.842,6.8292 -22.12,16.75 -29.446,29.44 -0.34734,0.60161 -0.70117,1.1795 -1.0312,1.7862 z"
         inkscape:connector-curvature="0" /></g><g
       id="g3134"
       style="fill:#000000"
       transform="matrix(0.66705,0,0,0.66705,-40.163,3.0336)"><g
         id="g650"><path
           d="m 351.48,185.49 c -43.499,1.1021 -78.438,36.735 -78.438,80.5 0,44.459 36.041,80.5 80.5,80.5 -38.503,-22.23 -51.667,-71.466 -29.438,-109.97 14.888,-25.787 41.878,-40.207 69.656,-40.25 -11.835,-6.8412 -25.565,-10.781 -40.219,-10.781 -0.69468,0 -1.372,-0.0175 -2.0625,0 z"
           style="fill:#000000"
           id="path3136"
           inkscape:connector-curvature="0" /><path
           d="m 491.94,264.2 c -22.704,-37.12 -71.032,-49.561 -108.93,-27.679 -38.503,22.23 -51.695,71.462 -29.465,109.97 0,-44.459 36.058,-80.478 80.517,-80.478 29.777,0 55.76,16.164 69.686,40.199 0.007,-13.67 -3.4459,-27.531 -10.773,-40.221 -0.34734,-0.60161 -0.67087,-1.197 -1.0312,-1.7862 z"
           style="fill:#000000"
           id="path3138"
           inkscape:connector-curvature="0" /><path
           d="m 494.01,425.2 c 20.795,-38.222 7.4051,-86.296 -30.496,-108.18 -38.503,-22.23 -87.735,-9.0379 -109.97,29.465 38.503,-22.23 87.725,-9.0122 109.95,29.491 14.888,25.787 13.881,56.371 0.0294,80.449 11.842,-6.8292 22.12,-16.75 29.446,-29.44 0.34734,-0.60161 0.70117,-1.1795 1.0312,-1.7862 z"
           style="fill:#000000"
           id="path3140"
           inkscape:connector-curvature="0" /><path
           d="m 355.61,507.49 c 43.499,-1.1021 78.437,-36.735 78.437,-80.5 0,-44.459 -36.041,-80.5 -80.5,-80.5 38.503,22.23 51.667,71.466 29.437,109.97 -14.888,25.787 -41.878,40.207 -69.656,40.25 11.835,6.8412 25.565,10.781 40.219,10.781 0.69468,0 1.372,0.0175 2.0625,0 z"
           style="fill:#000000"
           id="path3142"
           inkscape:connector-curvature="0" /><path
           d="m 215.15,428.77 c 22.704,37.12 71.032,49.561 108.93,27.679 38.503,-22.23 51.695,-71.462 29.465,-109.97 0,44.459 -36.058,80.478 -80.517,80.478 -29.777,0 -55.76,-16.164 -69.686,-40.199 -0.007,13.67 3.4459,27.531 10.773,40.221 0.34734,0.60161 0.67087,1.197 1.0312,1.7862 z"
           style="fill:#000000"
           id="path3144"
           inkscape:connector-curvature="0" /><path
           d="m 213.08,267.77 c -20.795,38.222 -7.4051,86.296 30.496,108.18 38.503,22.23 87.735,9.0379 109.97,-29.465 -38.503,22.23 -87.725,9.0122 -109.95,-29.491 -14.888,-25.787 -13.881,-56.371 -0.0294,-80.449 -11.842,6.8292 -22.12,16.75 -29.446,29.44 -0.34734,0.60161 -0.70117,1.1795 -1.0312,1.7862 z"
           style="fill:#000000"
           id="path3146"
           inkscape:connector-curvature="0" /></g></g><g
       id="g3148"
       style="fill:#000000"
       transform="matrix(0.66705,0,0,0.66705,-65.616,210.63)"><path
         id="path3150"
         style="fill:#000000"
         d="m 351.48,185.49 c -43.499,1.1021 -78.438,36.735 -78.438,80.5 0,44.459 36.041,80.5 80.5,80.5 -38.503,-22.23 -51.667,-71.466 -29.438,-109.97 14.888,-25.787 41.878,-40.207 69.656,-40.25 -11.835,-6.8412 -25.565,-10.781 -40.219,-10.781 -0.69468,0 -1.372,-0.0175 -2.0625,0 z"
         inkscape:connector-curvature="0" /><path
         id="path3152"
         style="fill:#000000"
         d="m 491.94,264.2 c -22.704,-37.12 -71.032,-49.561 -108.93,-27.679 -38.503,22.23 -51.695,71.462 -29.465,109.97 0,-44.459 36.058,-80.478 80.517,-80.478 29.777,0 55.76,16.164 69.686,40.199 0.007,-13.67 -3.4459,-27.531 -10.773,-40.221 -0.34734,-0.60161 -0.67087,-1.197 -1.0312,-1.7862 z"
         inkscape:connector-curvature="0" /><path
         id="path3154"
         style="fill:#000000"
         d="m 494.01,425.2 c 20.795,-38.222 7.4051,-86.296 -30.496,-108.18 -38.503,-22.23 -87.735,-9.0379 -109.97,29.465 38.503,-22.23 87.725,-9.0122 109.95,29.491 14.888,25.787 13.881,56.371 0.0294,80.449 11.842,-6.8292 22.12,-16.75 29.446,-29.44 0.34734,-0.60161 0.70117,-1.1795 1.0312,-1.7862 z"
         inkscape:connector-curvature="0" /><path
         id="path3156"
         style="fill:#000000"
         d="m 355.61,507.49 c 43.499,-1.1021 78.437,-36.735 78.437,-80.5 0,-44.459 -36.041,-80.5 -80.5,-80.5 38.503,22.23 51.667,71.466 29.437,109.97 -14.888,25.787 -41.878,40.207 -69.656,40.25 11.835,6.8412 25.565,10.781 40.219,10.781 0.69468,0 1.372,0.0175 2.0625,0 z"
         inkscape:connector-curvature="0" /><path
         id="path3158"
         style="fill:#000000"
         d="m 215.15,428.77 c 22.704,37.12 71.032,49.561 108.93,27.679 38.503,-22.23 51.695,-71.462 29.465,-109.97 0,44.459 -36.058,80.478 -80.517,80.478 -29.777,0 -55.76,-16.164 -69.686,-40.199 -0.007,13.67 3.4459,27.531 10.773,40.221 0.34734,0.60161 0.67087,1.197 1.0312,1.7862 z"
         inkscape:connector-curvature="0" /><path
         id="path3160"
         style="fill:#000000"
         d="m 213.08,267.77 c -20.795,38.222 -7.4051,86.296 30.496,108.18 38.503,22.23 87.735,9.0379 109.97,-29.465 -38.503,22.23 -87.725,9.0122 -109.95,-29.491 -14.888,-25.787 -13.881,-56.371 -0.0294,-80.449 -11.842,6.8292 -22.12,16.75 -29.446,29.44 -0.34734,0.60161 -0.70117,1.1795 -1.0312,1.7862 z"
         inkscape:connector-curvature="0" /></g></g><g
     transform="matrix(0.20910585,0,0,-0.21011116,-44.903385,682.33363)"
     id="g2407"><rect
       x="568.29999"
       y="709.53003"
       width="140.03"
       height="139.36"
       ry="0"
       rx="0"
       style="fill:#ffffff;stroke:#000000;stroke-width:10.58600044;stroke-linecap:round;stroke-linejoin:round"
       id="rect2398" /><g
       transform="matrix(0.84941,0,0,0.84941,249.71,145.09)"
       id="g2400"><g
         transform="matrix(-0.084372,0.48243,-0.48243,-0.084372,878.3,543.61)"
         id="g8572"><path
           d="M 495.66,915.66 V 771.78 l 5.35,-5.57 -38.19,-0.21 5.06,5.78 v 143.5 c 0,11.38 6.2,20.31 13.87,20.31 7.67,0 13.91,-8.93 13.91,-19.93 z"
           style="fill:#ffffff;stroke:#000000;stroke-width:5.4000001;stroke-linecap:round;stroke-linejoin:round"
           sodipodi:nodetypes="ccccccsc"
           id="rect7806"
           inkscape:connector-curvature="0" /><path
           d="M 495.63,914.28 V 770.41 l -27.79,70 v 73.5 c 0,11.38 6.21,20.31 13.88,20.31 7.66,0 13.91,-8.93 13.91,-19.94 z"
           style="fill:#000000"
           sodipodi:nodetypes="ccccsc"
           id="path7814"
           inkscape:connector-curvature="0" /></g><path
         d="m 470.96,736.52 c 0,2.81 -1.51,6.24 -3.37,6.24 -1.86,0 -3.36,-3.43 -3.36,-6.24 0,-2.81 1.57,-8.85 3.36,-10.73 1.93,1.88 3.37,7.92 3.37,10.73 z"
         style="fill:#000000"
         sodipodi:nodetypes="csscc"
         id="path8576"
         inkscape:connector-curvature="0" /><path
         d="m 521.75,739.26 c -3.9,-0.96 -9.82,4.22 -19.28,4.17 -9.46,-0.05 -7.4,-10.32 -22.22,-5.47 0,0 -6.72,7.29 -11.43,10.01 -4.87,2.81 -16.42,-0.92 -16.42,-0.92 -14.06,3.76 -12.95,16.2 3.04,11.66 l -41.86,13.37 c -4.05,2.39 -2.82,10.38 7.95,7.52 -2.68,0.9 -9.45,3.06 -12.74,4.32 -4.9,1.69 -1.68,11.32 3.24,9.69 3.82,-1.11 10.77,-3.5 12.69,-4 -7.3,3.85 -4.6,11.32 3.34,9.63 5,-1.2 12.84,-4.36 17.94,-5.79 -7.27,3.89 -5.64,10 2.9,8.98 l 48.37,-15.74 c 15.86,-5.16 8.49,-9.29 15.44,-14.05 6.95,-4.75 13.97,-4.52 16.71,-7.69 2.84,-3.29 -4.03,-24.8 -7.67,-25.69 z"
         style="fill:#000000;fill-rule:evenodd"
         sodipodi:nodetypes="czzzcccccccccczzzz"
         id="path8593"
         inkscape:connector-curvature="0" /></g></g></g><text
   xml:space="preserve"
   style="font-style:normal;font-weight:normal;font-size:10px;line-height:1.25;font-family:sans-serif;letter-spacing:0px;word-spacing:0px;fill:#000000;fill-opacity:1;stroke:none;stroke-width:0.75"
   x="83.059319"
   y="-464.72037"
   id="text937"
   transform="scale(1,-1)"><tspan
     sodipodi:role="line"
     id="tspan935"
     x="83.059319"
     y="-455.87271"
     style="stroke-width:0.75" /></text>

<flowRoot
   xml:space="preserve"
   id="flowRoot943"
   style="font-style:normal;font-weight:normal;font-size:13.33333302px;line-height:1.25;font-family:sans-serif;letter-spacing:0px;word-spacing:0px;fill:#000000;fill-opacity:1;stroke:none"
   transform="matrix(0.75000002,0,0,-0.75000002,-0.6864407,645.25426)"><flowRegion
     id="flowRegion945"><rect
       id="rect947"
       width="395.38983"
       height="54"
       x="86.94915"
       y="233.38983" /></flowRegion><flowPara
     id="flowPara953"
     style="font-style:normal;font-variant:normal;font-weight:normal;font-stretch:normal;font-family:'Times New Roman';-inkscape-font-specification:'Times New Roman, '">The original tablets are since lost to the ages but Zarathud's followers preserved their holesome content down to this very day.</flowPara></flowRoot><flowRoot
   xml:space="preserve"
   id="flowRoot1044"
   style="font-style:normal;font-weight:normal;font-size:13.33333302px;line-height:1.25;font-family:sans-serif;letter-spacing:0px;word-spacing:0px;fill:#000000;fill-opacity:1;stroke:none"
   transform="matrix(0.75000002,0,0,-0.75000002,-23.338983,625.34748)"><flowRegion
     id="flowRegion1046"><rect
       id="rect1048"
       width="265.42374"
       height="63.152542"
       x="147.35593"
       y="745.01697" /></flowRegion><flowPara
     id="flowPara1052"
     style="font-style:normal;font-variant:normal;font-weight:normal;font-stretch:normal;font-size:10px;line-height:0;font-family:'Underwood Champion';-inkscape-font-specification:'Underwood Champion'">TEST QUESTION from TopangaCabal THE TWELVE FAMOUS BUDDHA MINDS SCHOOL : If they are our brothers, how come we cant eat them?</flowPara><flowPara
     id="flowPara1054"
     style="font-style:normal;font-variant:normal;font-weight:normal;font-stretch:normal;font-size:10px;line-height:0;font-family:'Underwood Champion';-inkscape-font-specification:'Underwood Champion'" /></flowRoot><flowRoot
   xml:space="preserve"
   id="flowRoot153"
   style="font-style:normal;font-weight:normal;font-size:13.33333302px;line-height:1.25;font-family:sans-serif;letter-spacing:0px;word-spacing:0px;fill:#000000;fill-opacity:1;stroke:none"
   transform="matrix(0.75000002,0,0,-0.75000002,0,644.56782)"><flowRegion
     id="flowRegion155"><rect
       id="rect157"
       width="346.88135"
       height="50.338982"
       x="144.61017"
       y="703.83051" /></flowRegion><flowPara
     id="flowPara159"
     style="font-style:normal;font-variant:normal;font-weight:normal;font-stretch:normal;font-family:'Trebuchet MS';-inkscape-font-specification:'Trebuchet MS'">IT IS SO WRITTEN! SO BE IT. HAIL DISCORDIA!</flowPara><flowPara
     id="flowPara161"
     style="font-style:normal;font-variant:normal;font-weight:normal;font-stretch:normal;font-family:'Trebuchet MS';-inkscape-font-specification:'Trebuchet MS'">PROSECUTORS WILL BE TRANSGRESSICUTED.</flowPara></flowRoot><text
   xml:space="preserve"
   style="font-style:normal;font-weight:normal;font-size:10px;line-height:1.25;font-family:sans-serif;letter-spacing:0px;word-spacing:0px;fill:#000000;fill-opacity:1;stroke:none;stroke-width:0.75"
   x="96.788147"
   y="-98.161018"
   id="text165"
   transform="scale(1,-1)"><tspan
     sodipodi:role="line"
     id="tspan163"
     x="96.788147"
     y="-89.313362"
     style="stroke-width:0.75"></tspan></text>
</g></svg>