<?xml version="1.0" encoding="UTF-8" standalone="no"?>
<!-- Created with Inkscape (http://www.inkscape.org/) -->

<svg
   xmlns:dc="http://purl.org/dc/elements/1.1/"
   xmlns:cc="http://creativecommons.org/ns#"
   xmlns:rdf="http://www.w3.org/1999/02/22-rdf-syntax-ns#"
   xmlns:svg="http://www.w3.org/2000/svg"
   xmlns="http://www.w3.org/2000/svg"
   xmlns:sodipodi="http://sodipodi.sourceforge.net/DTD/sodipodi-0.dtd"
   xmlns:inkscape="http://www.inkscape.org/namespaces/inkscape"
   version="1.1"
   id="svg618"
   xml:space="preserve"
   width="576"
   height="864"
   viewBox="0 0 576 864"
   sodipodi:docname="00008.svg"
   inkscape:version="0.92.3 (2405546, 2018-03-11)"><metadata
     id="metadata624"><rdf:RDF><cc:Work
         rdf:about=""><dc:format>image/svg+xml</dc:format><dc:type
           rdf:resource="http://purl.org/dc/dcmitype/StillImage" /><dc:title></dc:title></cc:Work></rdf:RDF></metadata><defs
     id="defs622" /><sodipodi:namedview
     pagecolor="#ffffff"
     bordercolor="#666666"
     borderopacity="1"
     objecttolerance="10"
     gridtolerance="10"
     guidetolerance="10"
     inkscape:pageopacity="0"
     inkscape:pageshadow="2"
     inkscape:window-width="732"
     inkscape:window-height="480"
     id="namedview620"
     showgrid="false"
     inkscape:zoom="0.27314815"
     inkscape:cx="288"
     inkscape:cy="432"
     inkscape:window-x="0"
     inkscape:window-y="0"
     inkscape:window-maximized="0"
     inkscape:current-layer="g626" /><g
     id="g626"
     inkscape:groupmode="layer"
     inkscape:label="the_discordia_totalis"
     transform="matrix(1.3333333,0,0,-1.3333333,0,864)"><g
       id="g628"><text
         transform="matrix(1,0,0,-1,311.66122,546.0139)"
         style="font-variant:normal;font-weight:normal;font-size:5.67530012px;font-family:AkbarPlain;-inkscape-font-specification:AkbarPlain;writing-mode:lr-tb;fill:#000000;fill-opacity:1;fill-rule:nonzero;stroke:none"
         id="text634"><tspan
           x="0 3.5794117 6.967566 8.661643 11.724603 12.988492 15.756335 18.975365 20.409513 22.700632 24.394709 26.685827 29.33449 31.625608 34.393452 36.087528 38.855373 41.895634 44.663475 46.954594"
           y="0"
           sodipodi:role="line"
           id="tspan630">no girdle ever cured</tspan><tspan
           x="6.0152507 17.873791 20.923128 22.617205 25.763025 28.528599 30.817446 33.878136 37.455276 40.504616 44.081757 46.847332"
           y="8.3012609"
           sodipodi:role="line"
           id="tspan632"> a pregnancy</tspan></text>
<text
         transform="matrix(1,0,0,-1,210.6924,527.8868)"
         style="font-variant:normal;font-weight:normal;font-size:9.14820004px;font-family:'Times New Roman';-inkscape-font-specification:TimesNewRomanPSMT;writing-mode:lr-tb;fill:#000000;fill-opacity:1;fill-rule:nonzero;stroke:none"
         id="text638"><tspan
           x="0 3.0481803 7.6241097"
           y="0"
           sodipodi:role="line"
           id="tspan636">-2-</tspan></text>
<text
         transform="matrix(1,0,0,-1,88.97011,506.79562)"
         style="font-style:italic;font-variant:normal;font-size:9.14820004px;font-family:'Times New Roman';-inkscape-font-specification:TimesNewRomanPS-ItalicMT;writing-mode:lr-tb;fill:#000000;fill-opacity:1;fill-rule:nonzero;stroke:none"
         id="text660"><tspan
           x="0 5.0873141 9.6623287 13.725044 17.284609 21.347324 23.634375 29.737139 34.312153 36.85627 41.008636 45.07135 49.646366 51.933418 54.477531 59.052547 61.596661 66.171677 68.5438 71.087921 75.662933 79.725647 82.012695 85.572266 90.147278 94.806458 101.41237 103.69942 108.27444 110.56149 114.6242 119.19922 121.82658 128.4325 133.00751 137.58252 142.15753 145.7171 149.77982 153.93219 156.22015 158.5072 162.06677 166.64178 171.2168 175.79181 180.45099 184.5137 186.80075 191.37576 195.95079 200.5258 202.81285 207.47203 211.02794 215.09065 219.15337 221.44041 226.01543 230.59044 235.16547 239.82463 242.36874 244.65581 247.19992 251.77493"
           y="0"
           sodipodi:role="line"
           id="tspan640">There walked into the room a chimpanzee, shaggy and grey about the</tspan><tspan
           x="-25.411869 -18.805954 -14.23094 -10.671375 -7.1118107 -4.5676961 -0.50498062 1.7829841 4.070034 8.1327496 12.195465 14.73958 17.111708 21.686724 26.261738 29.821302 32.365417 36.940434 41.599609 44.143723 46.430775 48.974888 53.549904 55.836952 60.411968 62.956081 66.515648 68.887779 71.431892 76.006905 78.551018 81.095131 83.382187 85.9263 88.470413 92.533127 96.59584 98.967972 101.51208 105.5748 109.63752 112.18163 114.4696 116.75665 121.33167 125.99084 130.56586 132.85291 137.42792 142.00293 144.54704 148.10661 152.16933 156.82851 159.11555 165.21832 167.76244 170.30655 174.88156 177.16861 181.82779 186.40189 188.94601 193.52103 197.08058 201.65561 204.19972 206.57184 213.17776 217.75278 220.29689 224.3596 227.91917 230.46329 234.526 236.89813 239.18518 245.79109 249.85381 252.14085 256.20358 260.77859 264.41959 267.97913 270.52325 274.58597"
           y="10.588127"
           sodipodi:role="line"
           id="tspan642">muzzle, yet upright in his full five feet, and poised with natural majesty. He carried</tspan><tspan
           x="-25.411869 -20.836855 -18.549805 -14.99024 -10.927525 -7.3679605 -2.7929454 -0.24883103 2.2952833 4.5823336 9.1573486 13.816526 18.391541 20.678591 26.781355 31.356371 33.900486 37.9632 42.11557 46.690582 48.977634 51.521748 56.096764 58.383812 60.927925 65.502945 69.565659 71.937782 76.000504 80.575516 85.150528 89.725548 94.30056 96.672691 103.2786 107.34132 111.91634"
           y="21.176252"
           sodipodi:role="line"
           id="tspan644">a scroll and walked to the young men.</tspan><tspan
           x="0 3.8971331 10.503049 14.565764 19.140779 21.684893 24.229008 28.291723 34.89764 38.960354 43.53537 45.823334 49.720467 52.007519 56.582531 60.645248 62.932297 66.491859 71.066879 73.610992 78.186005 80.558136 82.845184 86.742317 92.841423 97.416435 101.47916 103.7662 108.34122 112.91623 116.97895 120.53851 122.91064 128.5011 131.04523 135.10794 139.17065 143.23337 146.79294 149.33705 153.91206 158.57124 161.6185 165.17807 167.46512 175.08649 179.6615 184.32068 188.89569 191.18274 195.75775 200.33278 202.61983 207.19484 211.85402 216.42903 221.00404 223.54816 225.83521 228.37932 232.95435 235.24139 238.88237 242.94508 247.0078 251.07053 254.63008 258.18964"
           y="42.268345"
           sodipodi:role="line"
           id="tspan646">&quot;Gentlemen,&quot; he said, &quot;why does Pickering’s Moon go about in reverse</tspan><tspan
           x="-25.411869 -20.836855 -17.27729 -12.702275 -10.158161 -7.6140471 -3.039032 -0.75198203 5.8539333 9.9166489 14.575827 17.119942 19.664057 23.726772 30.332687 34.395401 38.970417 41.258381 43.630508 46.174625 50.749638 54.812355 58.371922 62.434635 64.721687 69.2967 72.937683 77.000397 79.287453 83.862465 86.406578 90.98159 95.55661 98.100723 102.25309 105.81265 108.09971 112.67472 117.24973 119.53678 123.5995 128.25868 132.83369 136.39326 138.68031 142.74303 147.31804 151.38075 154.94032 157.56769 161.12724 164.17451 166.46156 171.03658 175.61159 177.89864 181.96136 186.62053 191.19556 193.4826 198.05762 200.60173 204.66444 208.72716 211.01421 217.70428 220.24657 222.7907 226.85341 231.42842 233.71547 239.30594 243.88095 248.54013 250.82718 256.92993 261.50494 266.07996 268.62408"
           y="52.771393"
           sodipodi:role="line"
           id="tspan648">orbit? Gentlemen, there are nipples on your chests; do you give milk? And what,</tspan><tspan
           x="-25.411869 -20.83777 -17.279119 -12.70502 -8.643219 -6.3561692 -3.8129697 0.24883103 2.7920306 5.3352304 7.6222801 9.9093304 16.599409 20.666698 25.240799 27.783998 30.327198 34.389 40.993999 45.146366 49.720467 52.007519 54.294567 56.837765 60.396416 62.683468 65.226669 69.800766 72.172897 76.746994 80.808792 83.095848 87.669945 92.244041 96.818146 100.87994 103.25208 107.82617 112.40028 116.97437 121.54848 124.09167 126.4638 133.0688 137.1306 139.6738 143.23245 147.29425 151.86835 156.44246 160.59482 164.15347 168.72757 171.77393 175.33257 177.61963 182.70602 187.3652 193.46704 198.04115 201.93828 204.22533 210.83034 214.89214 217.17918 221.75328 226.32738 230.98656 234.54521 238.60701 243.18111"
           y="63.359516"
           sodipodi:role="line"
           id="tspan650">pray tell, Gentlemen, is to be done about Heisenberg’s Law?&quot; He paused.</tspan><tspan
           x="-25.411869 -21.514736 -16.940638 -10.335636 -2.7151856 2.8743644 8.4639149 15.068915 21.673916 26.839905 29.126953 35.731953 41.321503 47.926506 50.213554 55.299953 61.990032 64.277084 69.866631 76.471634 81.558029 83.930161 89.519714 94.60611 99.692513 101.97956 108.66964 114.26193 116.54898 121.63538 128.24039 131.28673 135.94591 138.23296 144.33481 150.9398 157.04166 162.63121 169.32129 173.89539 176.94174 183.54674 189.73001 192.01706 198.62206 204.21161 209.80116 215.39072 218.43706"
           y="73.862564"
           sodipodi:role="line"
           id="tspan652">&quot;SOMEBODY HAD TO PUT ALL OF THIS CONFUSION HERE!&quot;</tspan><tspan
           x="0 5.5904651 10.16548 14.740495 17.027544 23.130308 25.674423 28.218538 32.793552 35.080601 37.707966 42.282982 46.857994 49.402111 51.689159 56.264175 60.326889 62.613941 66.254921 70.317642 74.380356 78.443069 83.018082 85.562202 89.624916 94.199928 96.57206 101.14707 103.69118 107.25076 109.5378 113.09737 117.16008 120.71965 125.37882 127.92294 130.46706 132.75502 135.04207 138.08934 140.63345 142.9205 149.10376 153.67787 157.23743 159.52448 164.0995 166.38655 170.96156 173.50568 178.16486 182.73987 186.29944 190.87445 197.48036 199.76833 202.05537 204.68274 207.22502 211.28773 215.35046 217.63751 222.21252 224.49957 228.56229 231.1064 235.76558 238.81285 242.87556 247.45058 252.02559 256.60062 258.88766 265.07092 267.61505 270.15915"
           y="95.038818"
           sodipodi:role="line"
           id="tspan654">And with that he revealed his scroll. It was a diagram, like a yin-yang with</tspan><tspan
           x="-25.411869 -20.836855 -18.549805 -13.974791 -9.912075 -5.33706 -2.7929454 1.7820693 6.3570843 10.932099 15.591277 17.878326 22.453342 27.028357 29.315407 33.890423 38.465435 42.528152 44.90028 48.459846 51.00396 55.578976 59.641689 61.928741 66.503754 71.162933 75.737946 78.025002 82.600014 87.175026 89.462074 94.037094 98.696274 103.27129 105.8154 109.87811 112.16517 116.74018 121.31519 123.60224 126.22961 130.80371 134.86642 137.15347 141.72849 144.2726 148.84761 152.91034 156.55132 158.83928 161.12633 166.7168 171.29181 175.86682 178.15387 180.78123 185.35535 189.41806 193.99307 196.28012 200.85513 204.91785 207.2049 211.26761 215.41998 219.995 222.53911 227.11412 231.68915 235.75186 240.32687 242.69901 247.27402 251.84903 256.42404 258.71109 261.25522 265.83023"
           y="105.54187"
           sodipodi:role="line"
           id="tspan656">a pentagon on one side and an apple on the other. And then he exploded and the</tspan><tspan
           x="-25.411869 -22.86867 -16.766821 -12.192721 -9.9056711 -7.3624716 -2.7883713 0.77027845 3.313478 5.6005282 9.6623287 14.321507 18.895607 22.454256 26.516058 29.059258 33.633358 38.292534 41.851185 46.425285 50.487087 54.045734 57.604385"
           y="116.13"
           sodipodi:role="line"
           id="tspan658">two lost consciousness.</tspan></text>
<text
         transform="matrix(1,0,0,-1,63.55824,359.07049)"
         style="font-variant:normal;font-weight:normal;font-size:9.14820004px;font-family:'Times New Roman';-inkscape-font-specification:TimesNewRomanPSMT;writing-mode:lr-tb;fill:#000000;fill-opacity:1;fill-rule:nonzero;stroke:none"
         id="text664"><tspan
           x="0 5.58955 11.6914 14.73775 19.82415 22.1112 25.157551 27.444599 34.134678 40.739677 47.344681 53.94968 59.53923 64.705215 69.791618 72.078667 78.68367 83.770065 86.057114 92.240387 98.845383 105.45039 112.14046 117.22687 119.51392 121.80096 128.40596 131.45232 136.6183 142.72015 149.32515 155.427 162.032 164.40413 171.52144 173.80849 179.91032 186.6004 193.20541 198.29181 204.8968 209.98322 213.11739 219.72238"
           y="0"
           sodipodi:role="line"
           id="tspan662">ERIS - GODDESS OF CHAOS, DISCORD &amp; CONFUSION</tspan></text>
<path
         d="m 63.558,357.84 h 226.25"
         style="fill:none;stroke:#000000;stroke-width:0.42399999;stroke-linecap:butt;stroke-linejoin:miter;stroke-miterlimit:10;stroke-dasharray:none;stroke-opacity:1"
         id="path666"
         inkscape:connector-curvature="0" /><text
         transform="matrix(1,0,0,-1,88.9701,337.8916)"
         style="font-variant:normal;font-weight:normal;font-size:9.14820004px;font-family:'Times New Roman';-inkscape-font-specification:TimesNewRomanPSMT;writing-mode:lr-tb;fill:#000000;fill-opacity:1;fill-rule:nonzero;stroke:none"
         id="text696"><tspan
           x="0 5.5904651 10.16548 14.402011 18.80687 21.09392 25.156635 31.76255 36.337566 40.912579 45.064949 47.351997 49.896111 54.471127 56.758179 59.302292 63.877308 67.940025 70.312149 73.871712 78.446732 83.021744 87.596756 92.171776 94.458824 99.033836 102.16801 104.45506 109.03008 111.57419 116.14921 119.70877 121.99582 126.05854 128.6859 132.74861 135.29272 137.83684 141.89957 144.94682 147.49094 152.06595 156.64098 159.01309 161.30014 165.36287 169.93788 174.51289 176.79994 179.93411 184.50912 189.08415 193.65916 198.23418 200.52122 203.06534 207.64035 211.70306 214.0752 218.65021 223.22523 229.83115 232.37526 236.43797 239.48524 243.0448 245.41693 249.47964 254.05466 258.62967 262.69238 267.2674 271.33011"
           y="0"
           sodipodi:role="line"
           id="tspan668">They awoke to the sound of pins clattering, and found the bowlers engaged</tspan><tspan
           x="-25.411869 -22.867756 -18.29274 -16.005692 -13.461576 -8.8865614 -4.8238459 -2.2797315 0.76753396 3.054584 7.6295986 11.781967 18.900181 22.962896 25.249947 29.312662 33.887676 38.462692 40.749741 43.293858 47.953033 52.015751 54.302799 60.908714 64.971428 67.515549 70.059662 73.106926 77.259293 80.818855 84.378426 86.665474 91.240486 95.815506 99.540649 103.94551 106.31763 112.92355 115.46767 118.01178 122.58679 124.95892 132.07713 136.13985 140.71487 143.25899 147.834 152.40901 154.69606 158.84843 163.42253 166.5567 169.69087 173.75359 177.81631 180.10428 182.39133 185.43858 187.9827 190.26976 196.87567 200.93839 204.49796 206.785 210.84772 215.42273 219.99774 224.06046 227.10773 231.17044 235.74545 238.28957 240.57661 243.12073 247.69576 251.75847 254.30258 256.67471 259.21881 263.79382 267.85654 270.40067"
           y="10.503048"
           sodipodi:role="line"
           id="tspan670">in their game and the waitress busy with making coffee. It was apparent that their</tspan><tspan
           x="-25.411869 -21.347324 -16.770481 -12.193636 -8.1290903 -5.0799956 -2.5340514 1.5304939 6.1073384 10.171884 14.236429 16.523479 21.100323 25.252691 29.829536 32.116585 36.693432 40.757977 44.822521 49.399364 51.771492 56.348339 59.397434 61.943378 66.520218 70.58477 73.130714 77.195259"
           y="21.091175"
           sodipodi:role="line"
           id="tspan672">experience had been private.</tspan><tspan
           x="0 5.5904651 10.16548 14.402011 18.80687 21.09392 25.668934 28.213049 31.772614 35.835327 40.494507 44.054073 47.613636 51.676353 56.251366 58.538418 61.082531 65.657547 69.809914 72.354027 75.401291 77.688347 81.24791 83.792023 86.839287 90.902 95.47702 100.1362 104.19891 106.48596 110.54868 115.1237 119.18641 123.76142 128.33644 132.99562 135.53973 139.60245 142.64972 144.93677 148.99948 153.57449 158.14951 160.43655 163.57072 167.63345 171.69617 176.27118 180.84619 184.40576 186.94987 189.99713 194.65631 198.71902 201.26314 205.32587 209.90088 212.18793 215.3221 218.3712 223.03036 230.06259 232.43472 239.46695 243.61931 250.65154 255.31071 258.35797 262.84698 265.21912 267.76324 272.33826"
           y="42.183266"
           sodipodi:role="line"
           id="tspan674">They discussed their strange encounter and reconstructed from memory the</tspan><tspan
           x="-25.411869 -21.34824 -16.77231 -14.144947 -7.1127257 -2.5367959 1.5268346 6.1027641 10.166394 14.230025 18.293655 21.42783 24.988308 27.275358 31.851288 34.396317 38.459949 43.035877 46.084057 50.236427 57.355556 59.644436 61.931484 68.538315 73.114243 77.177872 80.226051 82.598183 85.143211 89.719139 93.782776 96.069824 100.64575 104.70938 109.28531 111.91267 114.19972 117.3339 119.87618 124.45211 128.51575 130.8028 135.37872 139.5311 143.93594 147.57693 149.86398 152.40901 156.98494 161.22147 165.62633 167.91338 171.55437 175.618 179.68163 182.72981 186.79344 191.36937 195.433 200.00893 202.29597 204.92334 207.46562 212.04155 215.08974 219.15337 222.20154 224.74657 228.81021 232.37068 234.65773 237.2851 241.85919 244.14624 247.28043 249.82271 254.39864 258.97458 261.26163 263.80664 268.38257"
           y="52.686314"
           sodipodi:role="line"
           id="tspan676">chimpanzee’s diagram. Over the next five days they searched libraries to find the</tspan><tspan
           x="-25.411869 -21.852304 -19.308191 -14.733176 -10.158161 -7.6140471 -4.4798737 -1.9357591 2.1269565 6.189672 10.764687 14.827402 18.890118 21.177168 25.752184 28.886356 31.173407 33.717522 36.261635 38.549599 40.836651 45.411663 49.986679 52.530792 54.817844 61.423759 65.486473 68.533737 72.596458 74.883507 79.542686 82.084969 85.644531 89.707253 94.282265 98.857277 103.4323 106.05965 110.63467 113.17879 117.2415 121.81651 124.10357 126.64768 131.2227 133.59482 138.16985 142.74486 146.80757 151.38258 155.9576 160.02031 163.06758 165.43971 168.48697 172.54968 175.68387 179.74658 182.79384 186.85655 191.43158 195.49429 199.55701 203.11658 205.40363 209.97864 214.55365 217.2661 221.67094 223.95799 226.50212 231.16129 233.44835 239.0388 243.10152 247.67654 250.22066 253.86163 260.97986 263.26782 265.55487 268.09897 272.67398"
           y="63.274441"
           sodipodi:role="line"
           id="tspan678">significance of it, but were disappointed to uncover references only to Taoism, the</tspan><tspan
           x="-25.411869 -18.805954 -14.23094 -11.183675 -7.1209588 -3.0582433 1.5167716 3.8038216 6.937995 9.4802799 13.542995 18.11801 20.405975 22.693026 26.755741 31.330755 35.905769 38.192822 43.783287 47.846001 51.998367 56.573383 61.148399 65.723412 69.786125 72.833397 76.896111 81.132645 85.537498 87.90963 90.196678 93.243942 95.788055 98.075111 104.68102 108.74374 112.30331 114.67543 119.25044 123.82546 126.36958 128.65663 133.23164 137.80666 140.43402 142.97813 145.52225 147.8093 150.35341 154.92842 159.16496 163.56981 165.85687 168.40099 171.53516 175.59787 179.66058 183.7233 188.29831 190.58537 193.12949 197.7045 201.76721 204.13934 210.74525 213.79253 217.85524 221.91795 226.49297 228.78001 235.47009 238.5192 241.06331 243.60742 246.15154 250.72655 255.30156 257.58862 262.2478"
           y="73.862564"
           sodipodi:role="line"
           id="tspan680">Korean flag, and Technocracy. It was not until they traced the Greek writing on</tspan><tspan
           x="-25.411869 -22.867756 -18.29274 -14.230025 -11.942975 -7.8802595 -3.3052447 1.2697701 3.8138845 7.8766003 10.163651 12.707765 17.366943 21.429659 23.973772 26.260822 28.804937 33.379951 37.616482 42.021343 44.308392 48.967571 51.509853 55.06942 59.132133 63.70715 68.282166 72.344879 75.392143 79.544518 84.11953 86.406578 88.950691 93.525711 97.588425 99.875473 103.93819 108.51321 112.66557 115.20969 119.2724 123.84742 126.39153 128.67857 135.2845 139.94368 144.51869 149.0937 153.15642 156.71599 160.27554 162.56259 167.22177 171.7968 176.37181 182.97772 187.55273 189.83978 192.46715 197.04124 199.32829 201.87242 206.44743 210.51015 212.7972 219.40311 222.45038 226.60274 230.66547 235.24048 238.80003 241.08708 245.14981 248.70937 251.0815 256.67197 262.77472 265.82199"
           y="84.365616"
           sodipodi:role="line"
           id="tspan682">the apple that they discovered the ancient Goddess known to the Greeks as ERIS</tspan><tspan
           x="-25.411869 -21.349154 -16.774139 -12.199124 -9.912075 -7.3679605 -2.7929454 -0.50589544 2.038219 6.6132336 10.675949 13.048078 19.150843 23.81002 30.842241 34.909531 39.484547 43.12553 45.412579 49.475296 53.034859 55.321911 61.927826 64.97509 70.141083 76.243843 82.849762 88.952522 95.642601 98.689865 105.29578 107.58375 109.8708 115.46127 120.03628 122.66364 126.22321 128.51025 135.11617 139.17888 142.73845 145.0255 149.68468 154.25877 156.54582 159.08994 163.66496 167.72768 170.01472 173.1489 175.69118 178.82535 181.36765 185.94266 188.22971 192.80472 195.34883 199.92384 204.49886 207.04298 209.33095 211.618 215.68071 220.25572 224.83073 227.11778 233.72371 238.38287 242.4456 247.02061 249.30766 251.85178 256.42679 260.66333"
           y="94.953743"
           sodipodi:role="line"
           id="tspan684">and to the Romans as DISCORDIA. This was on the fifth night, and when they</tspan><tspan
           x="-25.411869 -21.852304 -19.308191 -15.245476 -10.670461 -8.1263456 -5.8392959 -3.2951818 1.2798332 5.3425488 7.8866634 10.173714 14.832891 17.375175 21.950191 26.525206 29.069321 31.357285 33.644337 37.70705 41.769768 45.922134 50.49715 52.784199 57.359215 61.421928 65.996948 68.283997 72.34671 74.718842 79.293854 81.837967 86.412979 88.9571 93.532112 95.81916 100.39417 103.44144 107.59381 111.74618 118.7784 121.06545 125.64046 128.77464 131.06169 135.1244 137.41145 140.97102 145.54604 148.09015 152.15286 156.72787 161.30289 163.93025 168.50526 170.79231 177.39824 182.05742 189.08963 193.242 197.81702 200.10406 206.70998 211.285 215.86002 219.50099 223.56371 225.85077 230.0873 234.49216 238.55487 242.11443 244.40147 251.09155 255.15884 258.20612 262.26883 264.55588 268.61859"
           y="105.45679"
           sodipodi:role="line"
           id="tspan686">slept that night, each had a vivid dream of a splendid woman whose eyes were as</tspan><tspan
           x="-25.411869 -21.851391 -17.275461 -14.141288 -11.596258 -9.3092079 -5.2455778 -1.6850984 0.60195154 4.6655822 6.952632 10.086805 14.150435 18.214066 20.759096 25.335026 29.398655 32.446835 34.733887 38.797516 43.373447 47.949375 50.236427 54.300056 57.860535 60.147587 64.723518 68.787148 72.850777 77.426704 79.713753 83.866127 87.422028 89.709076 93.772713 96.317741 100.38137 103.42955 108.00548 110.55051 113.26295 117.66781 120.03993 122.58497 125.13 128.69048 132.7541 135.29913 138.4333 140.72218 143.00923 147.07286 151.6488 156.22473 158.51178 165.11861 169.77779 174.35371 177.9142 181.97783 184.26488 188.84081 193.41673 198.16008 202.56493 204.93706 211.54388 215.60753 219.168 221.45505 224.08241 228.65651 232.72014 235.0072 238.56767 243.1436 247.20723 251.27086 253.81589 257.87952 262.03189 266.60782 269.15286 273.21649"
           y="116.04492"
           sodipodi:role="line"
           id="tspan688">soft as a feather and as deep as eternity itself, and whose body was the spectacular</tspan><tspan
           x="-25.411869 -20.835939 -16.77231 -12.196381 -8.1327496 -4.0691195 -1.7820693 2.7938602 5.9280338 8.2150841 12.278714 14.823743 19.482922 26.515142 30.075623 32.362671 36.426304 41.002232 45.578163 47.950291 52.526218 57.10215 59.647179 64.223106 68.286736 71.334923 74.895401 79.047768 82.608246 84.897125 87.184174 92.434326 96.839188 99.887367 104.54655 107.09158 111.1552 115.21883 119.79476 124.3707 126.91573 130.97935 134.62033 136.90739 141.48332 144.61749 146.90454 151.48047 156.0564 159.10458 163.16821 165.45526 169.51889 174.09482 178.15845 181.20663 185.94997 190.35483 192.64188 195.77605 200.35016 203.48433 210.51656 214.58018 219.15611 221.44316 226.01909 230.17146 233.21964 235.50668 238.64085 241.18315 245.75908 252.36591 254.91093 259.48688"
           y="126.54797"
           sodipodi:role="line"
           id="tspan690">dance of atoms and universes. Pyrotechnics of pure energy formed her flowing</tspan><tspan
           x="-25.411869 -20.836855 -16.774139 -14.230025 -11.182759 -8.8947945 -6.6077447 -2.5450292 2.0299857 6.6050005 8.8920507 11.939316 16.002031 18.629395 23.204409 27.779425 32.354439 38.960354 42.51992 44.892048 52.010262 56.072979 60.647991 63.192108 66.326279 70.388992 73.948563 76.492676 80.555389 85.130402 87.417458 91.480171 96.055183 100.6302 102.91725 107.57643 110.11871 113.67828 117.23784 121.81286 124.35697 128.93199 133.08435 137.65936 139.94643 144.00914 147.5687 149.85574 153.41531 157.99033 162.1427 164.42975 167.98932 172.56433 177.13934 181.71436 185.77707 188.06412 190.69148 195.26558 197.55263 201.61536 203.9024 210.50832 214.57103 217.7052 224.82343 227.11047 231.17319 235.7482 240.32321 242.61026 247.18527 251.33765 255.91266 258.45679 261.00089"
           y="137.13609"
           sodipodi:role="line"
           id="tspan692">hair, and rainbows manifested and dissolved as she spoke in a warm and gentle</tspan><tspan
           x="-25.411869 -20.835026 -16.258181 -13.712237 -9.6476917 -5.5831466"
           y="147.72421"
           sodipodi:role="line"
           id="tspan694">voice:</tspan></text>
<text
         transform="matrix(1,0,0,-1,88.9701,169.07529)"
         style="font-style:italic;font-variant:normal;font-size:9.14820004px;font-family:'Times New Roman';-inkscape-font-specification:TimesNewRomanPS-ItalicMT;writing-mode:lr-tb;fill:#000000;fill-opacity:1;fill-rule:nonzero;stroke:none"
         id="text700"><tspan
           x="0 3.0472655 5.3343153 9.9093304 14.484345 18.54706 22.609776 24.896826 28.959541 33.534557 40.140472 44.203186 46.575317 49.119431 53.694447 55.981495 58.525608 62.588326 65.132439 67.676552 69.9636 74.115974 78.690987 83.265999 85.553055 88.097168 92.67218 97.247192 99.791313 102.16344 106.22615 110.80117 115.37618 117.66323 122.23825 125.79781 129.86053 132.23265 134.77676 138.33633 142.39905 146.46176 148.74973 151.03679 158.65814 163.31732 167.89233 171.95506 174.24211 178.81712 183.39214 187.45485 191.01442 193.38655 197.96156 202.53658 207.11159 209.39955 211.6866 219.39488 223.46217 225.74922 229.81194 234.38695 238.96196 242.52153 246.58424 249.21161 253.78662 258.36163 261.9212 266.49622 270.55893 274.1185"
           y="0"
           sodipodi:role="line"
           id="tspan698">I have come to tell you that you are free. Many ages ago, My consciousness</tspan></text>
<text
         transform="matrix(1,0,0,-1,198.5795,120.8753)"
         style="font-variant:normal;font-weight:normal;font-size:14.14589977px;font-family:TTE264C6E9t00;-inkscape-font-specification:TTE264C6E9t00;writing-mode:lr-tb;fill:#000000;fill-opacity:1;fill-rule:nonzero;stroke:none"
         id="text704"><tspan
           x="0 6.8565178 13.713036 20.569553 27.426071"
           y="0"
           sodipodi:role="line"
           id="tspan702">00008</tspan></text>
</g></g></svg>