<?xml version="1.0" encoding="UTF-8" standalone="no"?>
<!-- Created with Inkscape (http://www.inkscape.org/) -->

<svg
   xmlns:dc="http://purl.org/dc/elements/1.1/"
   xmlns:cc="http://creativecommons.org/ns#"
   xmlns:rdf="http://www.w3.org/1999/02/22-rdf-syntax-ns#"
   xmlns:svg="http://www.w3.org/2000/svg"
   xmlns="http://www.w3.org/2000/svg"
   xmlns:sodipodi="http://sodipodi.sourceforge.net/DTD/sodipodi-0.dtd"
   xmlns:inkscape="http://www.inkscape.org/namespaces/inkscape"
   version="1.1"
   id="svg474"
   xml:space="preserve"
   width="576"
   height="864"
   viewBox="0 0 576 864"
   sodipodi:docname="00007.svg"
   inkscape:version="0.92.3 (2405546, 2018-03-11)"
   inkscape:export-filename="C:\Users\kyleb\Documents\SpiderOak Hive\Projects\poee\public\pd\00007.png"
   inkscape:export-xdpi="162.2"
   inkscape:export-ydpi="162.2"><metadata
     id="metadata480"><rdf:RDF><cc:Work
         rdf:about=""><dc:format>image/svg+xml</dc:format><dc:type
           rdf:resource="http://purl.org/dc/dcmitype/StillImage" /><dc:title /></cc:Work></rdf:RDF></metadata><defs
     id="defs478"><clipPath
       clipPathUnits="userSpaceOnUse"
       id="clipPath576"><path
         d="m 254.146,473.167 h 107.068 v 6.8611 H 254.146 Z"
         id="path574"
         inkscape:connector-curvature="0" /></clipPath><clipPath
       clipPathUnits="userSpaceOnUse"
       id="clipPath592"><path
         d="m 254.146,473.167 h 107.068 v 6.8611 H 254.146 Z"
         id="path590"
         inkscape:connector-curvature="0" /></clipPath><clipPath
       clipPathUnits="userSpaceOnUse"
       id="clipPath608"><path
         d="m 254.146,473.167 h 107.068 v 6.8611 H 254.146 Z"
         id="path606"
         inkscape:connector-curvature="0" /></clipPath></defs><sodipodi:namedview
     pagecolor="#ffffff"
     bordercolor="#666666"
     borderopacity="1"
     objecttolerance="10"
     gridtolerance="10"
     guidetolerance="10"
     inkscape:pageopacity="0"
     inkscape:pageshadow="2"
     inkscape:window-width="1366"
     inkscape:window-height="705"
     id="namedview476"
     showgrid="false"
     inkscape:zoom="1.0925926"
     inkscape:cx="286.61325"
     inkscape:cy="247.1094"
     inkscape:window-x="-8"
     inkscape:window-y="-8"
     inkscape:window-maximized="1"
     inkscape:current-layer="g484" /><g
     id="g482"
     inkscape:groupmode="layer"
     inkscape:label="the_discordia_totalis"
     transform="matrix(1.3333333,0,0,-1.3333333,0,864)"><g
       id="g484"><text
   transform="matrix(1,0,0,-1,125.4783,529.0728)"
   style="font-variant:normal;font-weight:normal;font-size:8.47060013px;font-family:'Times New Roman';-inkscape-font-specification:TimesNewRomanPSMT;writing-mode:lr-tb;fill:#000000;fill-opacity:1;fill-rule:nonzero;stroke:none"
   id="text490"><tspan
     x="0 12.7059 17.87466 23.983656 29.152416 31.270067 36.913181 39.623772 45.266888 50.435646 56.544643 58.746998 64.855995 69.558876 71.676521 76.929993 83.02713 88.195885 90.313538 95.4823 101.2423 103.86819 108.77944 111.49004 117.59904 123.70803 125.82568 133.34927 139.53111 145.64011 150.80887 158.33246 163.50122 169.61021 174.77898 176.89662"
     y="0"
     sodipodi:role="line"
     id="tspan486">-THE BIRTH OF THE ERISIAN MOVEMENT –</tspan><tspan
     x="-61.920086 -56.752174 -50.644024 -45.476109 -43.358459 -37.716194 -32.548279 -26.44013 -21.186665 -16.102612 -10.005473 -4.7520065 -2.0414145 4.1404295"
     y="38.96476"
     sodipodi:role="line"
     id="tspan488">THE REVELATION</tspan></text>

<path
   d="m 63.558,488.965 h 72.085"
   style="fill:none;stroke:#000000;stroke-width:0.42399999;stroke-linecap:butt;stroke-linejoin:miter;stroke-miterlimit:10;stroke-dasharray:none;stroke-opacity:1"
   id="path492"
   inkscape:connector-curvature="0" /><text
   transform="matrix(1,0,0,-1,88.9701,450.4657)"
   style="font-variant:normal;font-weight:normal;font-size:9.14820004px;font-family:'Times New Roman';-inkscape-font-specification:TimesNewRomanPSMT;writing-mode:lr-tb;fill:#000000;fill-opacity:1;fill-rule:nonzero;stroke:none"
   id="text516"><tspan
     x="0 3.5595646 8.1345797 11.694144 14.238258 16.525309 21.100323 24.147589 26.691704 31.266718 34.313984 36.601032 39.228397 43.802498 46.089546 48.633659 53.208675 57.271393 59.558441 64.133453 68.285828 72.348541 76.411255 80.986267 85.048988 87.336037 91.911049 95.045227 97.332275 99.876389 104.4514 108.51412 110.80117 115.37618 117.9203 122.49532 126.55803 129.10214 133.25452 137.31723 141.89224 144.93951 148.49907 151.04318 155.61819 158.16231 160.78967 164.85239 168.41196 170.69992 172.98697 179.5929 184.16791 188.32027 192.89528 195.18234 200.26965 204.84467 209.41968 211.96379 216.62297 219.16708 223.7421 226.02914 232.63507 236.69778 240.25734 242.5444 246.69676 249.24088 253.81589 258.3909 262.45361 264.74066 268.80338 273.46255"
     y="0"
     sodipodi:role="line"
     id="tspan494">Just prior to the decade of the nineteen-sixties, when Sputnik was alone and</tspan><tspan
     x="-25.411869 -20.836855 -16.774139 -10.168224 -7.8802595 -5.5932093 -1.5304939 3.0445209 7.6195359 9.9065857 13.969301 18.628479 23.203495 27.778509 30.322624 32.609673 35.15379 39.728802 43.791519 46.163647 48.70776 51.335125 58.367344 62.434635 64.721687 67.2658 71.840813 75.993179 78.5373 80.824348 87.43026 91.492981 96.067993 98.355042 105.04512 109.11241 112.67197 116.90851 121.31336 123.60042 126.14453 130.71954 135.37872 139.95374 142.24078 146.8158 149.35992 152.91948 155.20653 158.3407 160.883 163.93025 167.48982 170.03394 172.32098 176.3837 180.44641 182.99052 187.56555 189.8526 192.47997 195.52905 198.07317 202.64818 204.93523 208.99794 212.55751 214.84456 218.90727 221.2794 228.39761 232.46034 237.03535 239.57947 243.64218 247.7049"
     y="10.503048"
     sodipodi:role="line"
     id="tspan496">new, and about the time that Ken Kesey took his first acid trip as a medical</tspan><tspan
     x="-25.411869 -20.836855 -16.261841 -13.717726 -9.1427107 -4.5676961 -2.0235817 2.0391338 6.1018496 9.1491146 11.69323 13.980279 18.639458 22.706747 25.840921 30.41502 33.462284 37.525002 39.81205 44.387066 48.962082 53.537098 57.599812 60.647076 65.222092 68.269356 72.844376 77.503548 82.078568 86.65358 88.940628 93.515648 97.578362 104.18427 107.82526 112.40028 116.46299 121.038 125.10072 128.14798 131.70755 133.99551 136.36765 142.97356 145.51767 149.58038 152.1245 154.41156 161.01747 165.16983 172.28806 174.57602 176.86307 180.92578 185.50079 190.07581 192.36285 194.90698 199.05934 201.60345 206.17847 208.46552 213.04054 216.17471 218.46176 222.52448 224.81152 228.37109 232.43381 236.49652 241.07153 245.64655"
     y="21.091175"
     sodipodi:role="line"
     id="tspan498">volunteer; before underground newspapers, Viet Nam, and talk of a second</tspan><tspan
     x="-25.411869 -18.721792 -11.68957 -7.6268544 -4.5795889 -2.0354745 2.0272412 6.0899568 10.664971 12.952022 19.13529 23.202579 27.777594 32.352608 34.896725 39.471737 42.015854 44.643215 49.218231 53.793247 56.33736 58.624409 61.168526 65.743538 68.030586 70.657951 75.232056 79.294769 81.581818 85.644531 90.303711 97.33593 101.91003 106.0624 109.1115 113.17421 115.71832 118.26244 122.83746 126.90017 129.18723 133.84641 138.4205 140.96461 145.02733 147.57144 149.85849 154.4335 157.56769 159.85474 162.39885 166.97386 171.03658 173.32362 175.86774 179.93045 182.47458 186.53729 188.82434 193.39935 196.02672 200.60173 204.66444 207.20856 211.27127 215.33398 219.90901 222.95627 226.09044 228.63455 231.76874 234.31285 236.85696 240.91968 244.47925 246.76721 249.05426 251.59837 256.17337 259.73294"
     y="31.679302"
     sodipodi:role="line"
     id="tspan500">American Revolution; in the comparative quiet of the late nineteen-fifties, just</tspan><tspan
     x="-25.411869 -20.835939 -16.77231 -13.638137 -9.0622072 -6.0140266 -1.9503963 0.33665377 2.8816831 7.4576125 11.521243 13.808293 16.353323 20.929253 24.992882 29.056513 31.343563 35.919491 39.053665 41.340717 47.444393 53.035774 59.642605 66.249435 69.297615 74.4636 79.551834 86.158661 92.765495 98.948761 104.54014 106.82719 111.40312 115.46675 119.53038 123.68275 130.71497 134.78226 137.15439 140.20258 144.2662 146.81123 150.87486 155.45079 159.51442 164.09035 166.63538 169.00751 171.29639"
     y="42.18235"
     sodipodi:role="line"
     id="tspan502">before the idea of RENAISSANCE became relevant...</tspan><tspan
     x="0 5.5904651 12.196381 16.771395 19.227686 23.632545 28.20756 32.782574 37.441753 42.016769 44.303818 50.406582 54.469299 57.013412 59.557526 62.6917 67.266716 70.31398 74.888992 77.433105 81.495827 86.070839 89.630402 91.918365 94.290497 98.865509 103.44053 108.01554 114.62146 119.19647 121.48352 124.11089 128.17818 130.72229 134.785 137.83228 140.11932 144.18204 147.74161 150.02866 156.71873 163.83511 167.89783 170.9451 173.23215 179.33492 183.48727 188.06229 192.125 196.70003 201.27504 205.85005 208.89732 212.45688 215.08424 217.37129 221.43401 226.00902 230.58405 232.87109 241.00476 245.15712 247.70123 251.76395 255.82668 258.37079 262.8598 267.51898 271.07855"
     y="63.274441"
     sodipodi:role="line"
     id="tspan504">Two young Californians, known later as Omar Ravenhurst and Malaclypse</tspan><tspan
     x="-25.411869 -22.867756 -18.29274 -14.230025 -11.942975 -5.33706 -0.76204509 3.8129697 8.3879843 12.962999 17.115368 20.162632 22.450598 24.737648 31.343563 35.406277 38.453545 42.516258 44.80331 47.430672 52.005688 56.580704 61.155716 63.699833 68.274849 70.818962 75.478142 80.053154 82.340202 84.884315 89.459335 91.746384 94.290497 98.865509 103.01788 105.562 108.60926 110.89631 115.47132 119.53404 124.10905 126.65317 129.19728 131.56941 136.14442 139.27859 141.56564 145.12521 147.66933 152.24434 156.81937 159.36348 163.93849 168.5135 170.80055 174.86327 179.43828 182.57246 185.70663 189.76935 193.83206 196.11911 200.18182 202.72594 205.01299 209.07571 213.65073 215.93777 220.00049 222.5446 225.08871 229.66373 232.20784 236.78287 241.35788 243.90199 246.18904 250.84822 255.42232 262.02823 264.57236 267.11646 271.69147"
     y="73.862564"
     sodipodi:role="line"
     id="tspan506">the Younger, were indulging in their habit of sipping coffee at an allnight bowling</tspan><tspan
     x="-25.411869 -21.349154 -18.80504 -16.260925 -12.024394 -7.6195359 -5.3324857 -1.2697701 3.3052447 7.8802595 10.16731 14.742324 18.894691 23.469707 27.532423 30.579689 34.642403 37.18652 39.89896 44.303818 46.590866 50.23185 54.80595 57.350067 61.925079 64.469193 69.044212 73.619225 75.991356 78.535469 83.110481 87.173195 89.460251 96.066162 100.64117 103.68845 106.3158 110.89082 113.93809 117.49765 119.7847 124.35972 127.40698 132.06616 136.64117 139.18529 143.248 150.36623 153.92578 156.21375 158.58588 164.17635 168.75136 171.29547 174.85504 177.14209 181.7171 185.77982 188.82709 191.45444 193.99857 198.06128 202.63629 205.1804 209.24312 212.29039 214.57744 218.64015 223.29933 227.36205 231.93706 234.48117 239.05618 243.63121 245.91826 248.54562 253.11972 257.18243 259.55457 266.58679 270.65408 273.19818"
     y="84.366531"
     sodipodi:role="line"
     id="tspan508">alley and generally solving the world’s problems. This particular evening the main</tspan><tspan
     x="-25.411869 -21.852304 -17.27729 -12.702275 -10.158161 -6.0954456 -2.0327301 0.51138437 2.7984345 7.3734493 10.507623 12.794673 17.369688 19.913801 23.473366 27.536081 32.111095 35.670662 39.230225 41.85759 46.432606 51.007618 53.29467 59.900585 63.963299 67.522865 69.894989 74.470009 77.014122 80.573685 84.636398 89.211418 92.258682 96.833694 99.205826 103.26854 107.84356 112.41857 114.70562 117.24973 121.82475 126.06128 130.46614 132.83827 139.44418 143.5069 146.55417 150.61688 152.90393 156.96664 161.62582 168.74403 173.31905 175.86317 179.92589 182.47 187.04501 189.67238 194.24739 198.8224 201.10945 203.65356 208.22858 210.51564 214.57835 218.64107 222.79343 227.36845 229.6555 234.23051 236.77463 241.34964 245.41235 248.45963 250.83176 255.40677 258.54095 260.828 263.3721 267.94711"
     y="94.954659"
     sodipodi:role="line"
     id="tspan510">subject of discussion was discord and they were complaining to each other of the</tspan><tspan
     x="-25.411869 -20.836855 -16.774139 -13.726874 -10.16731 -5.5922947 -1.0172799 3.0454357 5.58955 7.8766003 11.939316 16.598494 21.17351 24.307682 28.882696 32.442261 34.986378 39.56139 44.136406 46.423454 48.967571 53.542583 57.605301 62.094322 64.381371 67.515549 71.582832 74.126953 76.754311 79.041367 81.58548 86.160492 88.44754 90.991653 95.566673 99.629387 102.1735 105.30768 107.59473 110.64199 114.7047 118.26427 122.83929 126.902 130.96472 133.50883 136.1362 140.71121 144.77393 147.06097 149.60509 152.1492 156.72421 160.78693 164.3465 166.71863 169.00568 172.73906 177.82637 182.40138 184.9455 189.60468 193.66739 195.95444 198.49857 203.07358 207.13629 209.42334 213.99835 217.13252 221.70753 226.28256 228.82668 232.88939 240.0076 242.29465 246.86966"
     y="105.54278"
     sodipodi:role="line"
     id="tspan512">personal confusion they felt in their respective lives. &quot;Solve the problem of</tspan><tspan
     x="-25.411869 -20.836855 -18.29274 -14.733176 -10.670461 -6.0954456 -3.0481803 1.5268346 3.8147993 7.5481796 9.9203081 13.479873 17.542589 20.086702 24.661718 26.948767 31.523783 36.098797 40.161514 42.533642 44.82069 47.364807 51.939819 56.002537 58.289585 62.864601 65.408714 70.067894 74.130608 77.177872 79.465836 81.752892 85.486267 89.548988 94.124001 98.276367 102.85138 106.41095 108.698 112.76071 117.33573 121.91074 124.19779 127.83878 130.38106 133.42833 135.97244 139.10661 143.16933 145.45638 149.51909 152.56636 156.62907 158.91612 161.46024 166.03526 170.09798 172.38503 175.43228 180.00731 184.58232 187.12643 190.76741 193.05446 197.62949 200.76366 203.0507 207.11342 209.65753 212.20164 214.48869 218.55141 223.12643 227.70145 230.83562 235.41063 238.9702 241.51431 246.08932 250.66434 252.9523"
     y="116.04583"
     sodipodi:role="line"
     id="tspan514">discord,&quot; said one, the other, &quot;chaos and strife are the roots of all confusion.&quot;</tspan></text>

<text
   transform="matrix(1,0,0,-1,150.80461,302.48625)"
   style="font-variant:normal;font-weight:normal;font-size:9.14820004px;font-family:Arial;-inkscape-font-specification:ArialMT;writing-mode:lr-tb;fill:#000000;fill-opacity:1;fill-rule:nonzero;stroke:none;text-anchor:middle;text-align:center;"
   id="text522"
   x="64.432716"
   y="0"><tspan
     sodipodi:role="line"
     id="tspan520"
     x="0"
     y="0"
     style="-inkscape-font-specification:'Gentium Book Basic';font-family:'Gentium Book Basic';font-weight:normal;font-style:normal;font-stretch:normal;font-variant:normal;font-size:12.0000003px">FIRST I MUST SPRINKLE YOU</tspan><tspan
     sodipodi:role="line"
     x="0"
     y="11.581519"
     id="tspan757"
     style="-inkscape-font-specification:'Gentium Book Basic';font-family:'Gentium Book Basic';font-weight:normal;font-style:normal;font-stretch:normal;font-variant:normal;font-size:12.0000003px">WITH FAIRY DUST</tspan></text>

<text
   transform="matrix(1,0,0,-1,88.96827,260.5573)"
   style="font-style:italic;font-variant:normal;font-size:9.14820004px;font-family:'Times New Roman';-inkscape-font-specification:TimesNewRomanPS-ItalicMT;writing-mode:lr-tb;fill:#000000;fill-opacity:1;fill-rule:nonzero;stroke:none"
   id="text530"><tspan
     x="0 4.5750146 9.1500292 13.725044 18.300058 22.362776 26.93779 29.481905 33.544621 35.831669 38.375786 43.034962 47.097679 49.384727 53.959743 56.503857 61.078873 65.141586 69.2043 71.576431 76.151443 80.214165 84.276878 88.851891 95.457809 99.520523 101.80757 106.46675 110.52946 114.59219 119.1672 121.71131 126.28632 128.57338 133.14839 135.77576 138.06281 140.60692 143.15103 147.72604 152.30106 154.84518 157.13315 159.50526 164.59259 169.1676 173.23032 177.80533 180.09238 184.66739 189.32657 191.61362 196.18864 198.73276 201.27687 205.33958 208.89914 211.1862 214.82718 217.37129 219.91541 223.97812 228.55315 232.61586 236.67857 238.96562 243.02834 247.60335 251.75572 255.81844 258.36255 262.93756 267.51257 271.57529"
     y="0"
     sodipodi:role="line"
     id="tspan524">Suddenly the place became devoid of light. Then an utter silence enveloped</tspan><tspan
     x="-25.411869 -22.86867 -18.294571 -14.23277 -7.627769 -5.3407192 -3.0536692 1.5204308 6.0945311 10.668631 13.040759 17.614859 19.901909 24.476009 28.034658 32.096458 36.670559 39.21376 41.585888 45.144539 47.687737 50.230938 52.774136 55.317337 59.891438 63.953236 67.594223 71.15287 73.439919 79.541771 84.115868 87.674522 89.961571 92.588936 96.656219 99.199425 101.74262 104.02967 106.31672 111.40312 115.97722 120.12959 124.70369 126.99074 131.05254 135.62663 142.23164 146.29344 148.58049 153.23967 155.52672 160.10081 162.64401 165.18723 169.76132 174.33542 176.96278 181.53688 186.11098 188.39803 190.94122 193.48444 198.05853 201.69951 206.27362 208.56067 213.13477 215.67796 217.96501 220.50821 225.08231 227.62552 231.68732 236.3465 239.90514 243.96695 246.254 248.7972 251.34039 255.91449 260.57367 263.11688 265.40393 267.69098 272.26508"
     y="10.588127"
     sodipodi:role="line"
     id="tspan526">them, and a great stillness was felt. Then came a blinding flash of intense light, as</tspan><tspan
     x="-25.411869 -22.867756 -18.29274 -13.717726 -9.1427107 -4.5676961 0.00731856 2.2943685 4.8384829 9.4134979 13.565866 16.10998 19.669544 21.956594 26.01931 30.082026 33.64159 37.704308 39.991356 44.650536 48.20644 52.269157 56.331871 60.906887 64.969604 68.529167 70.816216 75.475395 80.050407 84.625427 86.912476 91.487488 96.0625 100.63752 104.78989 107.07693 111.65195 116.22697 120.28968 124.8647 127.15266 129.5248 134.61211 139.18712 143.24983 147.82484 150.11189 154.17462 156.71873 160.35971 162.90382 167.47884 172.05386 174.34091 177.90047 181.96318 184.50731 189.16647 192.72604 197.30106 201.36377 205.9388"
     y="21.091175"
     sodipodi:role="line"
     id="tspan528">though their very psyches had gone nova. Then vision returned.</tspan></text>

<text
   transform="matrix(1,0,0,-1,88.96827,218.37404)"
   style="font-variant:normal;font-weight:normal;font-size:9.14820004px;font-family:'Times New Roman';-inkscape-font-specification:TimesNewRomanPSMT;writing-mode:lr-tb;fill:#000000;fill-opacity:1;fill-rule:nonzero;stroke:none"
   id="text544"><tspan
     x="0 5.5913796 10.16731 14.23094 16.51799 19.063019 25.669849 30.245779 32.532829 39.13966 43.292027 46.340206 50.403839 52.690887 57.266819 61.330448 65.394081 69.45771 74.033638 76.320686 80.473053 85.048988 89.624916 91.911964 96.487892 100.55153 103.09656 105.72392 110.29985 114.36348 117.41166 119.78378 126.81601 131.39194 135.96786 140.12024 144.69617 146.98322 151.55914 156.13507 159.18326 161.47031 165.11128 169.68721 174.26315 178.83908 182.90271 185.18976 188.32393 192.89803 195.94621 198.23326 201.79375 205.85738 210.4333 214.49693 217.5451 221.60873 224.15378 226.52589 233.64503 236.19006 240.76599 245.34192 247.88695 251.95058 255.59155 257.88043 260.16748 265.75888 270.33481 274.57132"
     y="0"
     sodipodi:role="line"
     id="tspan532">The two were dazed and neither moved nor spoke for several minutes. They</tspan><tspan
     x="-25.411869 -22.86684 -18.290911 -13.714981 -9.1390514 -5.0754213 -0.49949172 1.7875583 5.8511887 8.8993692 13.475299 18.134478 22.710407 27.286337 29.573385 33.637016 38.212948 42.788876 45.161003 48.721485 52.785114 59.391945 61.678993 64.224022 68.79995 72.863586 75.490944 77.778 80.323029 84.898956 88.962585 91.249634 95.825569 100.4015 107.09158 109.6366 113.70023 116.74841 120.30889 122.59594 129.20277 133.2664 136.40057 140.4642 142.75125 145.88544 148.93452 153.51045 157.57408 161.63771 166.21364 168.5007 171.04573 173.59076 178.16669 182.23032 184.51736 188.07785 190.62288 194.68651 197.31387 201.8898 205.95343 209.5139 211.80095 214.34598 218.92192 221.20897 225.2726 227.64473 232.22066 236.28429 239.33246 241.87749 245.94112 248.65356 253.05843 255.34547 259.92142"
     y="10.588127"
     sodipodi:role="line"
     id="tspan534">looked around and saw that the bowlers were frozen like statues in a variety of</tspan><tspan
     x="-25.411869 -21.349154 -16.689976 -9.6577549 -7.1154699 -3.0527544 -0.76570433 3.8093104 8.384325 11.94389 14.571253 17.115368 19.659481 24.234497 28.809511 32.369076 34.65704 36.944092 41.096458 45.671474 50.246487 52.533539 55.077652 59.652668 63.715382 66.259499 68.546547 72.698914 74.98597 79.560982 84.135994 90.741913 93.286026 95.830139 100.48932 105.06433 107.35138 111.9264 115.98911 118.53323 121.07734 123.44947 130.05539 134.1181 137.67766 139.96472 143.52428 146.06839 150.1311 154.19383 158.76884 161.90302 165.96573 169.5253 172.06941 174.78185 179.18671 181.47375 185.62613 190.20023 194.26294 198.83795 203.41296 206.46024 210.52295 215.09796 217.38501 220.01237 224.58649 226.87354 229.41765 233.99266 238.05537 240.34242 243.47659 246.02071 250.59573 255.17075 258.21802 260.50507 265.08008 269.65509 272.36752"
     y="21.176252"
     sodipodi:role="line"
     id="tspan536">comic positions, and that a bowling ball was steadfastly anchored to the floor only</tspan><tspan
     x="-25.411869 -22.867756 -18.29274 -14.230025 -9.6550102 -5.5922947 -2.0327301 0.25431997 3.3884933 6.4375882 11.012603 18.130817 20.417868 22.961983 27.536997 31.599712 33.886761 38.461777 41.00589 45.66507 49.224636 51.511684 54.055798 58.630814 62.693531 65.23764 67.524696 70.06881 72.696175 74.983223 79.558235 83.620949 88.195969 90.483017 95.058029 99.12075 103.27312 107.84813 110.13518 113.69475 117.75746 122.33247 124.87659 127.16364 129.791 134.3651 136.65215 140.21172 144.27443 148.33714 150.88126 153.42538 157.4881 160.53535 162.82332 165.19545 170.78592 175.36093 179.42365 181.71069 184.25481 190.94489 195.5199 197.80696 200.35107 204.92609 209.5011 214.07611 218.13882 222.798 225.08505 229.14777 231.69189 233.97894 238.04166 242.10437 246.16708 250.7421 253.11423 257.68924 260.23337 264.80838 268.87109 271.91837"
     y="31.679302"
     sodipodi:role="line"
     id="tspan538">inches from the pins that it had been sent to scatter. The two looked at each other,</tspan><tspan
     x="-25.411869 -22.867756 -18.29274 -15.748627 -11.68591 -9.1417961 -6.4293551 -2.0244966 0.26255333 4.8375683 9.4125834 13.564951 18.139965 20.68408 24.746796 27.033846 29.577961 34.152973 36.440025 40.502739 44.565456 48.717823 53.292839 57.867855 62.442867 64.986984 67.274033 70.408203 74.982307 78.029572 80.31662 82.860733 87.435753 91.498466 93.785515 98.360535 102.93555 107.08791 111.66293 116.32211 123.35433 127.42162 131.99663 136.65581 141.23082 143.5188 145.80585 151.3963 155.97131 160.03404 162.32109 166.47345 171.04846 175.62349 180.1985 182.74261 185.28673 187.83084 192.49002 197.06503 199.35208 205.95801 210.02072 213.58028 215.86732 220.5265 225.10062 229.16333 231.45038 236.02539"
     y="42.267429"
     sodipodi:role="line"
     id="tspan540">totally unable to account for the phenomenon. The condition was one of</tspan><tspan
     x="-25.411869 -21.852304 -17.27729 -13.717726 -9.1427107 -5.0799956 -0.50498062 3.054584 5.5986986 10.257876 14.832891 17.120857 19.407906 23.470621 28.045637 32.620651 34.907703 39.566879 44.14098 48.203697 50.490746 55.065762 59.640774 62.184891 64.729004 68.791718 72.944084 77.519104 79.806152 82.350266 86.925285 90.987999 93.532112 95.81916 98.446526 103.02062 107.08334 109.37039 113.43311 115.97722 120.55224 124.61495 129.18997 131.56209 136.13712 140.19983 144.77484 147.06189 150.62146 153.16557 157.82475 162.39977 166.97478 171.03749 175.6125"
     y="52.770477"
     sodipodi:role="line"
     id="tspan542">suspension, and one noticed that the clock had stopped.</tspan></text>

<text
   transform="matrix(1,0,0,-1,63.5581,111.0494)"
   style="font-variant:normal;font-weight:normal;font-size:12.70590019px;font-family:TTE264C6E9t00;-inkscape-font-specification:TTE264C6E9t00;writing-mode:lr-tb;fill:#000000;fill-opacity:1;fill-rule:nonzero;stroke:none"
   id="text548"><tspan
     sodipodi:role="line"
     id="tspan546"
     x="0"
     y="0"
     style="font-size:14.00000035px;-inkscape-font-specification:'Special Elite';font-family:'Special Elite';font-weight:normal;font-style:normal;font-stretch:normal;font-variant:normal">00007</tspan></text>

<text
   transform="matrix(1,0,0,-1,162.41,111.0494)"
   style="font-variant:normal;font-weight:900;font-size:18.38120079px;font-family:Arial;-inkscape-font-specification:Arial-Black;writing-mode:lr-tb;fill:#000000;fill-opacity:1;fill-rule:nonzero;stroke:none"
   id="text552"><tspan
     sodipodi:role="line"
     id="tspan550"
     x="0"
     y="0">New Story of Chaos</tspan></text>

<path
   d="M 396.452,470.541 H 249.064 v 55.906 h 147.388 z"
   style="fill:#ffffff;fill-opacity:1;fill-rule:nonzero;stroke:none"
   id="path554"
   inkscape:connector-curvature="0" /><text
   transform="matrix(1,0,0,-1,254.1465,518.1456)"
   style="font-style:italic;font-variant:normal;font-size:6.35290003px;font-family:'Times New Roman';-inkscape-font-specification:TimesNewRomanPS-ItalicMT;writing-mode:lr-tb;fill:#000000;fill-opacity:1;fill-rule:nonzero;stroke:none"
   id="text568"><tspan
     x="0 3.2190144 6.4380288 8.0472183 9.5719147 13.128268 16.347282 19.143829 20.753019 24.566029 27.785044 30.23218 32.012264 35.164574 36.773762 39.926071 43.145084 46.364098 49.160645 51.957191 54.404331 56.013519 59.165829 62.384842 65.603859 67.213043 68.907997 72.127014 74.923561 76.532753 81.095406 83.891953 87.110962 89.907509 92.704056 95.923073 98.370209 99.979401 102.42654 105.64555 107.34051 109.12059 110.90067 113.69721"
     y="0"
     sodipodi:role="line"
     id="tspan556">10. The Earth quakes and the Heavens rattle;</tspan><tspan
     x="0 1.7997766 5.0098968 7.8064437 9.4156332 12.625753 15.4223 18.63242 21.087816 22.887592 25.342989 26.867685 30.077805 31.877583 33.402279 36.612396 39.822517 41.517471 44.727592 47.182987 49.979534 51.588726 53.3885 55.188278 58.398399 61.194946 63.990856 65.600044 67.294998 70.505119 73.71524 76.511787 78.206741 81.425758 84.222298 86.677696 88.286888 91.497009 94.63089 97.841011 99.450203 101.14516 104.36417"
     y="7.2848706"
     sodipodi:role="line"
     id="tspan558">the beasts of nature flock together and the</tspan><tspan
     x="0 3.2082145 6.416429 8.2143002 9.9092531 13.117468 16.325682 18.781078 20.305775 23.513988 25.311859 26.921049 31.493866 34.290413 37.424297 39.033489 40.83136 42.62923 45.837444 48.633991 51.430538 52.955235 56.163448 59.297333 62.505547 64.960945 66.758812 68.906097 70.515282 73.311829 76.530846 78.328712 81.125259 84.333473 87.467361 90.675575 93.472122 95.927521 97.452217 100.66043 103.11583 106.32404 109.12059 111.57598 113.18517 116.31906"
     y="14.570376"
     sodipodi:role="line"
     id="tspan560">nations of men flock apart; volcanoes usher up</tspan><tspan
     x="0 3.2018616 5.9984083 9.2002697 10.991788 12.600977 16.751328 19.970341 21.76186 23.553377 26.349924 27.959112 30.755659 32.535744 34.991138 37.787685 42.05048 45.252342 48.048889 50.504284 53.300831 54.910019 59.172817 62.37468 64.166199 66.962746 69.418137 71.027328 74.229187 77.025734 79.821648 83.040665 87.61348 90.409393 92.864784 94.473976 96.265495 99.062042 101.85859 103.46777 106.66964 109.80352 113.00539 114.61458 119.18739 121.98331 123.77482 125.56634 128.02173"
     y="21.939739"
     sodipodi:role="line"
     id="tspan562">heat while elsewhere water becomes ice and melts;</tspan><tspan
     x="0 3.2063086 6.4126172 9.5465031 11.155692 12.951657 16.157967 18.869383 22.075693 23.684881 26.818768 30.037783 31.562477 34.768787 36.564751 39.771061 42.567608 45.023003 46.547699 49.754005 52.960316 55.756863 58.212257 59.821449 61.617413 63.413376 64.938072 66.734039 69.940346 72.395744 74.191704 75.800896 78.171799 81.390816 83.186775 86.393089 88.84848"
     y="29.224611"
     sodipodi:role="line"
     id="tspan564">and then on other days it just rains.</tspan><tspan
     x="0 3.202497 6.404994 8.0192661 9.5439615 11.685524 14.819409 18.021906 20.818453 23.615 26.834015 28.443203 31.577089 34.796104 36.405293 40.978111 44.111996 47.314495 50.111038 51.72023 53.512383 56.646267 58.438419 61.572308 64.774803 67.230202 68.839386 71.635933 74.85495 79.427765 82.224312 83.833504 85.625656 88.828156 90.352852 93.555344 96.757843 99.213242 101.66863"
     y="36.50948"
     sodipodi:role="line"
     id="tspan566">11. Indeed do many things come to pass.</tspan></text>

<g
   id="g570"><g
     id="g572"
     clip-path="url(#clipPath576)"><text
   transform="matrix(1,0,0,-1,254.1465,474.3527)"
   style="font-style:italic;font-variant:normal;font-size:6.35290003px;font-family:'Times New Roman';-inkscape-font-specification:TimesNewRomanPS-ItalicMT;writing-mode:lr-tb;fill:#000000;fill-opacity:1;fill-rule:nonzero;stroke:none"
   id="text580"><tspan
     x="0"
     y="0"
     id="tspan578">H</tspan></text>

</g></g><text
   transform="matrix(1,0,0,-1,258.7206,474.3527)"
   style="font-style:italic;font-variant:normal;font-size:6.35290003px;font-family:'Times New Roman';-inkscape-font-specification:TimesNewRomanPS-ItalicMT;writing-mode:lr-tb;fill:#000000;fill-opacity:1;fill-rule:nonzero;stroke:none"
   id="text584"><tspan
     x="0 3.9102099 7.4710102 9.6151142 11.224303 14.785104 17.990143 20.786688 22.395878 26.208889 29.413927 32.618965 35.415512 36.940208"
     y="0"
     sodipodi:role="line"
     id="tspan582">BT; The Book o</tspan></text>

<g
   id="g586"><g
     id="g588"
     clip-path="url(#clipPath592)"><text
   transform="matrix(1,0,0,-1,298.8712,474.3527)"
   style="font-style:italic;font-variant:normal;font-size:6.35290003px;font-family:'Times New Roman';-inkscape-font-specification:TimesNewRomanPS-ItalicMT;writing-mode:lr-tb;fill:#000000;fill-opacity:1;fill-rule:nonzero;stroke:none"
   id="text596"><tspan
     x="0"
     y="0"
     id="tspan594">f</tspan></text>

</g></g><text
   transform="matrix(1,0,0,-1,302.1747,474.3527)"
   style="font-style:italic;font-variant:normal;font-size:6.35290003px;font-family:'Times New Roman';-inkscape-font-specification:TimesNewRomanPS-ItalicMT;writing-mode:lr-tb;fill:#000000;fill-opacity:1;fill-rule:nonzero;stroke:none"
   id="text600"><tspan
     x="0 3.903857 6.3592529 9.1557999 12.374814 14.163156 16.959702 20.158386 21.946728 23.641682 26.840366 30.039053 32.49445 34.019146 35.628334 39.887955 43.021839"
     y="0"
     sodipodi:role="line"
     id="tspan598">Predications, Cha</tspan></text>

<g
   id="g602"><g
     id="g604"
     clip-path="url(#clipPath608)"><text
   transform="matrix(1,0,0,-1,348.4241,474.3527)"
   style="font-style:italic;font-variant:normal;font-size:6.35290003px;font-family:'Times New Roman';-inkscape-font-specification:TimesNewRomanPS-ItalicMT;writing-mode:lr-tb;fill:#000000;fill-opacity:1;fill-rule:nonzero;stroke:none"
   id="text612"><tspan
     x="0"
     y="0"
     id="tspan610">p</tspan></text>

</g></g><text
   transform="matrix(1,0,0,-1,351.6429,474.3527)"
   style="font-style:italic;font-variant:normal;font-size:6.35290003px;font-family:'Times New Roman';-inkscape-font-specification:TimesNewRomanPS-ItalicMT;writing-mode:lr-tb;fill:#000000;fill-opacity:1;fill-rule:nonzero;stroke:none"
   id="text616"><tspan
     x="0 1.524696 3.1338856 6.3529"
     y="0"
     sodipodi:role="line"
     id="tspan614">. 19</tspan></text>

<text
   xml:space="preserve"
   style="font-style:normal;font-weight:normal;font-size:10px;line-height:1.25;font-family:sans-serif;letter-spacing:0px;word-spacing:0px;fill:#000000;fill-opacity:1;stroke:none;stroke-width:0.75"
   x="108.45763"
   y="-296.54239"
   id="text761"
   transform="scale(1,-1)"><tspan
     sodipodi:role="line"
     id="tspan759"
     x="108.45763"
     y="-287.69473"
     style="stroke-width:0.75" /></text>
</g></g></svg>