<?xml version="1.0" encoding="utf-8"?>
<svg version="1.1" id="svg272" width="576" height="864" viewBox="0 0 576 864" xmlns="http://www.w3.org/2000/svg">
  <text style="fill: rgb(204, 204, 204); font-family: Arial, sans-serif; font-size: 12px; letter-spacing: -1px; white-space: pre;" transform="matrix(1, 0, 0, 3.6656, -115.891922, -2444.115479)"><tspan x="117.822" y="665.368" dy="1em">​</tspan><tspan>&lt;path style="fill-opacity: 1; stroke-width: 10; stroke-linecap: butt; stroke-linejoin: miter; stroke-miterlimit: 4; stroke-opacity: </tspan><tspan x="117.822" dy="1em">​</tspan><tspan>1; stroke-dasharray: none; fill: rgb(32, 31, 28); stroke: rgb(78, 38, 127);" id="path9525" d="M 383.599 113.07</tspan><tspan x="117.822" dy="1em">​</tspan><tspan> C 373.873 110.273 362.327 112.607 354.861 117.014 C 346.228 122.11 338.538 122.268 331.345 119.099 </tspan><tspan x="117.822" dy="1em">​</tspan><tspan>C 332.312 124.231 335.46 128.073 343.37 129.039 C 354.891 128.884 369.23 126.317 377.328 133.742 C 387.673 </tspan><tspan x="117.822" dy="1em">​</tspan><tspan>143.23 389.025 157.537 383.081 171.87 C 374.592 192.343 362.004 182.174 353.811 173.971 C 340.89 161.036 331.306 </tspan><tspan x="117.822" dy="1em">​</tspan><tspan>143.119 313.582 144.7 C 303.04 145.641 295.749 148.922 290.114 153.219 C 283.139 146.484 274.252 141.863 260.828 143.634 C 244.661 145.766 234.872 158.317 225.287 170.803 </tspan><tspan x="117.822" dy="1em">​</tspan><tspan>C 214.856 184.39 199.832 197.011 189.761 181.777 C 174.919 159.329 191.744 145.416 198.65 138.931 C 209.779 128.479 224.801 125.554 245.667 132.142 C 257.299 135.815 258.806 1</tspan><tspan x="117.822" dy="1em">​</tspan><tspan>26.445 263.43 123.269 C 241.968 125.607 243.972 111.235 215.896 112.812 C 188.304 114.361 170.374 125.629 160.507 146.252 C 149.852 168.523 153.127 189.409 166.778 207.896 C 172.976 216.289 181.703 2</tspan><tspan x="117.822" dy="1em">​</tspan><tspan>21.997 192.266 224.091 C 188.258 235.002 186.06 246.797 186.06 259.099 C 186.06 302.596 213.421 339.691 251.857 354.119 C 253.338 317.367 274.056 331.179 275.229 291.764 C 262.016 286.805 252.601 274.051 252.601 </tspan><tspan x="117.822" dy="1em">​</tspan><tspan>259.099 C 252.601 239.836 268.212 224.22 287.463 224.22 C 306.716 224.22 322.327 239.836 322.327 259.099 C 322.327 274.051 312.927 286.805 299.715 291.764 C 300.604 332.159 320.826 310.751 323.07 354.119 C 361.506 339.6</tspan><tspan x="117.822" dy="1em">​</tspan><tspan>91 388.868 302.596 388.868 259.099 C 388.868 242.121 384.694 226.128 377.328 212.066 C 385.874 211.549 393.984 207.774 401.361 199.556 C 412.648 186.983 416.456 171.702 412.853 153.59 C 408.934 133.887 400.342 117.885 383.599 113.0</tspan><tspan x="117.822" dy="1em">​</tspan><tspan>7 Z"&gt;&lt;/path&gt;</tspan><tspan x="117.822" dy="1em">​</tspan></text>
  <path style="fill-opacity: 1; stroke-width: 10; stroke-linecap: butt; stroke-linejoin: miter; stroke-miterlimit: 4; stroke-opacity: 1; stroke-dasharray: none; fill: rgb(32, 31, 28); stroke: rgb(78, 38, 127);" id="path9525" d="M 383.599 113.07 C 373.873 110.273 362.327 112.607 354.861 117.014 C 346.228 122.11 338.538 122.268 331.345 119.099 C 332.312 124.231 335.46 128.073 343.37 129.039 C 354.891 128.884 369.23 126.317 377.328 133.742 C 387.673 143.23 389.025 157.537 383.081 171.87 C 374.592 192.343 362.004 182.174 353.811 173.971 C 340.89 161.036 331.306 143.119 313.582 144.7 C 303.04 145.641 295.749 148.922 290.114 153.219 C 283.139 146.484 274.252 141.863 260.828 143.634 C 244.661 145.766 234.872 158.317 225.287 170.803 C 214.856 184.39 199.832 197.011 189.761 181.777 C 174.919 159.329 191.744 145.416 198.65 138.931 C 209.779 128.479 224.801 125.554 245.667 132.142 C 257.299 135.815 258.806 126.445 263.43 123.269 C 241.968 125.607 243.972 111.235 215.896 112.812 C 188.304 114.361 170.374 125.629 160.507 146.252 C 149.852 168.523 153.127 189.409 166.778 207.896 C 172.976 216.289 181.703 221.997 192.266 224.091 C 188.258 235.002 186.06 246.797 186.06 259.099 C 186.06 302.596 213.421 339.691 251.857 354.119 C 253.338 317.367 274.056 331.179 275.229 291.764 C 262.016 286.805 252.601 274.051 252.601 259.099 C 252.601 239.836 268.212 224.22 287.463 224.22 C 306.716 224.22 322.327 239.836 322.327 259.099 C 322.327 274.051 312.927 286.805 299.715 291.764 C 300.604 332.159 320.826 310.751 323.07 354.119 C 361.506 339.691 388.868 302.596 388.868 259.099 C 388.868 242.121 384.694 226.128 377.328 212.066 C 385.874 211.549 393.984 207.774 401.361 199.556 C 412.648 186.983 416.456 171.702 412.853 153.59 C 408.934 133.887 400.342 117.885 383.599 113.07 Z"/>
  <text style="fill: rgb(51, 51, 51); font-family: &quot;Courier New&quot;; font-size: 24px; white-space: pre;" transform="matrix(0.590394, 0, 0, 0.590394, -9.706342, 154.41803)"><tspan x="153.695" y="632.188">FLOSS - Free/Libre Open Source Scripture</tspan><tspan x="153.69500732421875" dy="1em">​</tspan><tspan x="153.69500732421875" dy="1em">​</tspan><tspan>The insights expressed herein are not<tspan x="153.69500732421875" dy="1em">​</tspan>necessarily those of the authors.<tspan x="153.69500732421875" dy="1em">​</tspan></tspan><tspan x="153.69500732421875" dy="1em">​</tspan>prohibited within void<tspan x="153.69500732421875" dy="1em">​</tspan><tspan x="153.69500732421875" dy="1em">​</tspan>subject to subject-subject interaction<tspan x="153.69500732421875" dy="1em">​</tspan><tspan x="153.69500732421875" dy="1em">​</tspan><tspan x="153.69500732421875" dy="1em">​</tspan><tspan x="153.69500732421875" dy="1em">​</tspan>caveat lector notwithstanding hypertextual memetic<tspan x="153.69500732421875" dy="1em">​</tspan>transmission. may lead to emetic transmission talk to your<tspan x="153.69500732421875" dy="1em">​</tspan>doctor about bismuth subsalicylate. talk to your neighbor<tspan x="153.69500732421875" dy="1em">​</tspan>about are you saved? folder no longer exists filetype could<tspan x="153.69500732421875" dy="1em">​</tspan>not be loaded. free as in love or free as in freon? they<tspan x="153.69500732421875" dy="1em">​</tspan>say survival is insufficient and they're right. <tspan x="153.69500732421875" dy="1em">​</tspan><tspan x="153.69500732421875" dy="1em">​</tspan><tspan x="153.69500732421875" dy="1em">​</tspan></text>
  <text style="fill: rgb(51, 51, 51); font-family: Trattatello; font-size: 35.3px; white-space: pre;"><tspan x="187.978" y="762.955">DO YOU REMEMBER?</tspan><tspan x="187.978" dy="1em">​</tspan></text>
</svg>