<?xml version="1.0" encoding="utf-8"?>
<svg version="1.1" id="svg256" width="576" height="864" viewBox="0 0 576 864" xmlns="http://www.w3.org/2000/svg" xmlns:xlink="http://www.w3.org/1999/xlink">
  <defs id="defs260">
    <path id="path-0" d="M 59.197 643.339 C 68.073 656.889 74.48 663.933 81.61 670.354 C 92.496 680.289 100.578 687.356 108.78 694.386 C 118.833 702.347 128.443 707.472 137.695 712.765 C 160.319 725.406 180.763 734.194 201.046 742.598 C 223.796 752.709 242.504 758.022 261.258 761.139 C 281.772 763.861 298.148 763.602 314.815 763.602 C 331.851 763.602 344.166 761.807 357.277 760.063 C 374.774 756.69 387.721 754.404 400.972 750.782 C 417.604 743.783 429.397 737.696 440.368 729.005 C 449.505 720.595 456.029 713.954 463.102 707.774 C 470.925 699.929 475.571 693.165 480.341 685.651 C 483.648 679.845 485.256 675.831 486.48 670.948 C 487.946 662.339 487.495 656.629 488.29 651.002 C 489.082 646.473 490.499 643.161 491.599 639.834 C 493.905 633.915 492.833 627.529 492.833 622.257 L 492.833 619.944 C 492.833 616.604 492.833 613.264 492.833 609.924" style="fill: none;"/>
    <path id="text-path-0" d="M 66.93745613098145 706.971736907959 Q 285.537691116333 689.4850845336914 504.13792610168457 706.971736907959"/>
  </defs>
  <g id="svgg" transform="matrix(0.180596, -0.223017, 0.223017, 0.180596, 214.132813, 404.458618)" style="">
    <path id="path0" d="M327.500 49.073 C 290.650 72.710,250.670 98.343,238.656 106.034 L 216.812 120.019 223.231 112.259 C 239.192 92.968,246.007 77.490,244.610 63.712 C 241.367 31.741,195.844 22.413,182.573 51.000 C 174.713 67.931,185.186 93.464,198.368 89.507 C 198.990 89.320,200.749 88.893,202.275 88.558 C 215.990 85.549,216.696 66.910,203.045 68.222 L 198.000 68.706 198.004 64.603 C 198.014 53.353,209.827 48.407,220.177 55.320 C 235.834 65.778,221.233 93.587,183.068 126.000 C 169.424 137.588,171.561 136.968,161.724 132.189 C 117.636 110.772,62.718 120.853,30.443 156.286 C -34.090 227.134,12.731 340.278,108.000 343.703 C 187.017 346.544,243.318 271.434,218.232 196.644 L 215.500 188.500 226.000 182.180 C 270.865 155.176,304.963 150.397,307.691 170.731 C 309.327 182.932,299.710 191.470,289.547 186.839 C 287.112 185.730,286.072 184.000,287.839 184.000 C 288.301 184.000,289.201 182.854,289.839 181.453 C 294.144 172.006,285.038 164.897,275.530 170.282 C 260.998 178.512,265.363 197.128,283.407 203.879 C 306.652 212.576,327.431 196.200,325.781 170.485 C 323.685 137.828,289.514 130.827,241.068 153.129 L 232.500 157.073 237.000 152.683 C 239.475 150.269,276.002 116.741,318.172 78.178 C 392.393 10.303,397.054 5.944,395.309 6.048 C 394.864 6.074,364.350 25.436,327.500 49.073 M129.681 140.569 C 203.780 155.875,231.443 245.512,178.431 298.535 C 120.930 356.048,22.559 317.654,19.279 236.419 C 16.847 176.184,71.670 128.587,129.681 140.569 M105.655 214.401 C 88.307 220.845,89.395 246.260,107.224 251.060 C 123.637 255.480,137.209 238.606,129.392 223.500 C 125.127 215.258,114.409 211.150,105.655 214.401 " stroke="none" fill="#000000" fill-rule="evenodd"/>
  </g>
  <g id="layer1" transform="matrix(0.721363, 0, 0, 0.721363, 27.571264, -75.493958)" style="">
    <path id="path3562" d="m 156.0536330648733,614.4464352438267 c -8.7274748946225,26.8486694928309 -25.7830848205779,49.9113084551378 -48.1316930701831,66.1810779715016 -0.021869073178,0.015920668363 -0.036533062719,0.042504640195 -0.058412248872,0.058412248871 C 86.00664978385714,696.5773146179363 59.09091163981621,705.9784292255936 30,705.9784292255936 c 33.11175061934692,24.0923975065307 54.67386494380028,63.1621958829653 54.67386494380028,107.2448889282239 0,14.3047011328781 -2.29041045834818,28.0404911060043 -6.48375962474553,40.9469864589787 21.86731870013895,-15.9170883743384 48.74677961246455,-25.3509160102666 77.86352774581824,-25.3509160102666 29.1167481333536,0 56.0546212945509,9.4338276359282 77.9219399946898,25.3509160102666 -4.1942837142583,-12.9077923278785 -6.4837596247455,-26.6406241575511 -6.4837596247455,-40.9469864589787 0,-44.0826930452586 21.5037020755815,-83.1524914216932 54.6154526949284,-107.2448889282239 -29.1078510756849,0 -56.0582143621912,-9.3842669856538 -77.9219399946893,-25.2925037613942 l 0,-0.058412248871 c -22.3498987734,-16.2707090166881 -39.4046773418097,-39.3304237184584 -48.1316930701832,-66.1810779715031 z" style="fill:#000000;fill-opacity:1;stroke:none"/>
    <path style="fill:#000000;fill-opacity:1;stroke:none" d="m 360.0292061244354,762.6383106310295 c -8.7274748946222,26.8486694928309 -25.7830848205779,49.9113084551386 -48.1316930701832,66.1810779715016 -0.021869073178,0.015920668363 -0.036533062719,0.042504640195 -0.058412248871,0.058412248872 -21.8568779619607,15.8913891537375 -48.7726161060013,25.2925037613948 -77.8635277458176,25.2925037613948 33.1117506193469,24.0923975065301 54.6738649437999,63.1621958829653 54.6738649437999,107.2448889282232 0,14.304701132879 -2.2904104583483,28.0404911060051 -6.4837596247456,40.9469864589788 21.8673187001394,-15.9170883743377 48.7467796124649,-25.3509160102668 77.8635277458181,-25.3509160102668 29.1167481333536,0 56.0546212945507,9.4338276359291 77.9219399946898,25.3509160102668 -4.1942837142581,-12.9077923278786 -6.4837596247455,-26.6406241575509 -6.4837596247455,-40.9469864589788 0,-44.0826930452579 21.5037020755816,-83.1524914216932 54.6154526949288,-107.2448889282233 -29.1078510756851,0 -56.0582143621912,-9.3842669856539 -77.92193999469,-25.2925037613949 l 0,-0.058412248872 C 385.8110004212196,812.548679585844 368.7562218528098,789.4889648840737 360.029206124436,762.6383106310287 z" id="path3564"/>
    <path id="path3566" d="M 563.9463669351264,614.446435243827 c -8.7274748946228,26.8486694928314 -25.783084820578,49.9113084551385 -48.1316930701836,66.1810779715015 -0.021869073178,0.015920668363 -0.036533062719,0.042504640195 -0.058412248871,0.058412248871 -21.8568779619607,15.8913891537372 -48.7726161060015,25.2925037613951 -77.863527745818,25.2925037613951 33.1117506193472,24.09239750653 54.6738649438004,63.1621958829654 54.6738649438004,107.2448889282234 0,14.3047011328781 -2.2904104583482,28.0404911060044 -6.4837596247455,40.9469864589786 21.8673187001392,-15.9170883743382 48.7467796124646,-25.3509160102664 77.8635277458178,-25.3509160102664 29.1167481333538,0 56.054621294551,9.4338276359282 77.9219399946901,25.3509160102664 -4.1942837142583,-12.9077923278784 -6.4837596247454,-26.6406241575511 -6.4837596247454,-40.9469864589786 0,-44.082693045258 21.5037020755809,-83.1524914216934 54.6154526949285,-107.2448889282234 -29.1078510756851,0 -56.0582143621916,-9.384266985654 -77.9219399946899,-25.2925037613951 l 0,-0.058412248871 c -22.3498987733996,-16.2707090166873 -39.40467734181,-39.3304237184576 -48.1316930701832,-66.1810779715023 z" style="fill:#000000;fill-opacity:1;stroke:none"/>
    <path style="fill:#000000;fill-opacity:1;stroke:none" d="m 486.0244269404369,374.7225658748566 c -8.7274748946223,26.8486694928313 -25.7830848205781,49.9113084551387 -48.1316930701832,66.1810779715017 -0.021869073178,0.015920668363 -0.036533062719,0.042504640195 -0.058412248872,0.058412248871 -21.8568779619609,15.8913891537373 -48.772616106002,25.2925037613948 -77.8635277458182,25.2925037613948 33.1117506193473,24.09239750653 54.6738649438005,63.1621958829652 54.6738649438005,107.2448889282234 0,14.304701132878 -2.2904104583483,28.0404911060042 -6.4837596247457,40.9469864589787 21.8673187001393,-15.9170883743385 48.746779612465,-25.3509160102667 77.8635277458183,-25.3509160102667 29.1167481333534,0 56.0546212945508,9.4338276359282 77.9219399946892,25.3509160102667 -4.1942837142584,-12.9077923278787 -6.4837596247454,-26.6406241575513 -6.4837596247454,-40.9469864589787 0,-44.0826930452581 21.5037020755815,-83.1524914216934 54.615452694929,-107.2448889282235 -29.1078510756854,0 -56.0582143621914,-9.3842669856543 -77.9219399946902,-25.2925037613949 l 0,-0.058412248871 C 511.8062212372202,424.6329348296707 494.75144266881,401.5732201279005 486.0244269404365,374.7225658748557 z" id="path3568"/>
    <path id="path3570" d="m 233.9171608106915,374.7225658748566 c -8.7274748946225,26.8486694928313 -25.7830848205782,49.9113084551387 -48.1316930701832,66.1810779715017 -0.021869073178,0.015920668363 -0.036533062719,0.042504640195 -0.058412248872,0.058412248871 -21.856877961961,15.8913891537373 -48.7726161060022,25.2925037613948 -77.8635277458181,25.2925037613948 33.111750619347,24.09239750653 54.6738649438004,63.1621958829652 54.6738649438004,107.2448889282234 0,14.304701132878 -2.2904104583485,28.0404911060042 -6.4837596247455,40.9469864589787 21.867318700139,-15.9170883743385 48.7467796124646,-25.3509160102667 77.8635277458182,-25.3509160102667 29.116748133353,0 56.0546212945506,9.4338276359282 77.9219399946894,25.3509160102667 -4.1942837142583,-12.9077923278787 -6.4837596247455,-26.6406241575513 -6.4837596247455,-40.9469864589787 0,-44.0826930452581 21.5037020755813,-83.1524914216934 54.6154526949284,-107.2448889282235 -29.1078510756849,0 -56.0582143621912,-9.3842669856543 -77.9219399946898,-25.2925037613949 l 0,-0.058412248871 C 259.6989551074739,424.632934829671 242.644176539064,401.5732201279009 233.9171608106911,374.722565874856 z" style="fill:#000000;fill-opacity:1;stroke:none"/>
  </g>
  <text style="fill: rgb(51, 51, 51); font-family: Silom; font-size: 30.6px; white-space: pre;" x="152.125" y="148.952">The Sacred Caco
</text>
  <text style="fill: rgb(51, 51, 51); font-family: Arial, sans-serif; font-size: 16px; white-space: pre;" transform="matrix(1, 0, 0, 1, -1.737566, 64.349686)"><textPath startOffset="-262" xlink:href="#text-path-0"><tspan x="264.26" y="777.388">"In all chaos, there is a cosmos, in all disorder a secret order."</tspan><tspan x="264.26" dy="1em">​</tspan></textPath></text>
  <text style="fill: rgb(51, 51, 51); font-family: Arial, sans-serif; font-size: 12px; white-space: pre;" transform="matrix(1, 0, 0, 1, 126.065277, -36.377872)"><tspan x="310.111" y="827.965">- Nte. Jung</tspan><tspan x="310.111" dy="1em">​</tspan></text>
</svg>