<?xml version="1.0" encoding="UTF-8" standalone="no"?>
<!-- Created with Inkscape (http://www.inkscape.org/) -->

<svg
   xmlns:i="http://ns.adobe.com/AdobeIllustrator/10.0/"
   xmlns:dc="http://purl.org/dc/elements/1.1/"
   xmlns:cc="http://creativecommons.org/ns#"
   xmlns:rdf="http://www.w3.org/1999/02/22-rdf-syntax-ns#"
   xmlns:svg="http://www.w3.org/2000/svg"
   xmlns="http://www.w3.org/2000/svg"
   xmlns:sodipodi="http://sodipodi.sourceforge.net/DTD/sodipodi-0.dtd"
   xmlns:inkscape="http://www.inkscape.org/namespaces/inkscape"
   version="1.1"
   id="svg1206"
   xml:space="preserve"
   width="576"
   height="864"
   viewBox="0 0 576 864"
   sodipodi:docname="00017.svg"
   inkscape:version="0.92.3 (2405546, 2018-03-11)"
   inkscape:export-filename="C:\Users\kyleb\Documents\SpiderOak Hive\Projects\poee\public\pd\00017.png"
   inkscape:export-xdpi="170.87"
   inkscape:export-ydpi="170.87"><metadata
     id="metadata1212"><rdf:RDF><cc:Work
         rdf:about=""><dc:format>image/svg+xml</dc:format><dc:type
           rdf:resource="http://purl.org/dc/dcmitype/StillImage" /><dc:title></dc:title></cc:Work></rdf:RDF></metadata><defs
     id="defs1210">
	
	
</defs><sodipodi:namedview
     pagecolor="#ffffff"
     bordercolor="#666666"
     borderopacity="1"
     objecttolerance="10"
     gridtolerance="10"
     guidetolerance="10"
     inkscape:pageopacity="0"
     inkscape:pageshadow="2"
     inkscape:window-width="1366"
     inkscape:window-height="705"
     id="namedview1208"
     showgrid="false"
     inkscape:zoom="0.77257963"
     inkscape:cx="271.17326"
     inkscape:cy="505.22034"
     inkscape:window-x="-8"
     inkscape:window-y="-8"
     inkscape:window-maximized="1"
     inkscape:current-layer="g1214" /><g
     id="g1214"
     inkscape:groupmode="layer"
     inkscape:label="the_discordia_totalis"
     transform="matrix(1.3333333,0,0,-1.3333333,0,864)"><text
       id="text1220"
       style="font-variant:normal;font-weight:normal;font-size:15.50119972px;font-family:TTE264C6E9t00;-inkscape-font-specification:TTE264C6E9t00;writing-mode:lr-tb;fill:#000000;fill-opacity:1;fill-rule:nonzero;stroke:none"
       transform="scale(1,-1)"
       x="165.20531"
       y="-537.03497"><tspan
         style="font-style:normal;font-variant:normal;font-weight:normal;font-stretch:normal;font-size:16px;font-family:'Special Elite';-inkscape-font-specification:'Special Elite'"
         y="-537.03497"
         x="165.20531"
         id="tspan1218"
         sodipodi:role="line">00017</tspan></text>
<text
       id="text1228"
       style="font-variant:normal;font-weight:normal;font-size:8.47060013px;font-family:AkbarPlain;-inkscape-font-specification:AkbarPlain;writing-mode:lr-tb;fill:#000000;fill-opacity:1;fill-rule:nonzero;stroke:none"
       transform="scale(1,-1)"
       x="88.9701"
       y="-512.30103"><tspan
         y="-512.30103"
         x="88.9701"
         id="tspan1226"
         sodipodi:role="line">&quot;YOU WILL FIND that the STATE is the kind of ORGANIZATION</tspan><tspan
         id="tspan1291"
         y="-501.71277"
         x="88.9701"
         sodipodi:role="line">which, though it does big things badly, does small things badly too.&quot;</tspan><tspan
         id="tspan1293"
         y="-491.12451"
         x="88.9701"
         sodipodi:role="line">- JOHN KENNETH GALBRAITH</tspan></text>
<text
       id="text1232"
       style="font-variant:normal;font-weight:normal;font-size:9.91059971px;font-family:'Times New Roman';-inkscape-font-specification:TimesNewRomanPSMT;writing-mode:lr-tb;fill:#000000;fill-opacity:1;fill-rule:nonzero;stroke:none"
       transform="scale(1,-1)"
       x="63.558102"
       y="-426.32458"><tspan
         id="tspan1230"
         sodipodi:role="line"
         y="-426.32458"
         x="63.558102 69.587708 76.717392 82.747002 85.203842 93.988602 101.11829 107.21825 114.34795 116.80478 123.93446 129.41899 131.87584 137.9758 145.08963 151.11925 153.57608 160.70576 166.19029 171.6748 177.7748 183.8044 186.26125 193.39093 198.87546 201.33229 208.46198 211.73643 217.22096 223.80557 230.93526 237.51985">THE MYTH OF THE APPLE OF DISCORD</tspan></text>
<path
       inkscape:connector-curvature="0"
       id="path1234"
       style="fill:none;stroke:#000000;stroke-width:0.50800002;stroke-linecap:butt;stroke-linejoin:miter;stroke-miterlimit:10;stroke-dasharray:none;stroke-opacity:1"
       d="M 63.558,424.969 H 244.575" /><text
       id="text1280"
       style="font-variant:normal;font-weight:normal;font-size:9.91059971px;font-family:'Times New Roman';-inkscape-font-specification:TimesNewRomanPSMT;writing-mode:lr-tb;fill:#000000;fill-opacity:1;fill-rule:nonzero;stroke:none"
       transform="scale(1,-1)"
       x="88.9701"
       y="-403.62341"><tspan
         id="tspan1236"
         sodipodi:role="line"
         y="-403.62341"
         x="88.9701 92.296097 95.077011 97.533852 101.41484 105.73586 110.16193 117.70291 121.5839 124.04074 126.82166 131.80272 136.22879 139.0097 141.46655 147.48228 151.80429 156.78535 160.66635 163.12318 170.23701 174.64326 178.45389 180.91074 185.8918 189.11076 193.53683 198.51791 202.83893 206.16492 208.87746 213.85852 218.83958 221.2112 225.63727 228.0941 235.20793 239.61418 244.52687 249.52478 252.23732 257.15002 262.14792 264.60477 269.58582 273.90784 278.82053 283.80161 288.78265 293.10468 295.88559 298.34244 301.5614 306.5593 309.88531 312.34213 317.8782 322.20023 324.98114 329.4072 334.31989 338.20087 340.65771 345.08377 349.99646">It seems that Zeus was preparing a wedding banquet for Peleus and</tspan><tspan
         id="tspan1238"
         sodipodi:role="line"
         y="-392.2728"
         x="63.558331 69.58596 74.58387 78.956429 81.68383 84.480598 88.375465 90.832298 95.204857 100.13241 105.13033 107.58716 112.51471 115.31149 120.3094 122.68101 127.60855 132.60648 135.40324 137.86008 144.98778 149.36034 154.28789 157.08466 159.45627 162.25304 167.25095 169.62256 172.41933 177.34688 182.27443 185.0712 187.86798 192.27423 194.73106 200.7587 204.03117 206.82794 210.72281 213.09442 218.09233 222.46489 226.83743 231.20999 236.20792 240.03539 244.40794 246.86478 251.79233 255.0648 257.52167 264.64935 269.02191 272.2944 274.75122 278.02371 282.39627 287.32382 292.25137 295.04816 299.42072 302.1481 304.87549 309.87341 314.87134 317.32816 321.70071 325.5282 327.98505 332.35757 334.81442 337.61121 340.9144 345.84195 350.7695 355.69705 358.4938">Thetis and did not want to invite Eris because of Her reputation as a trouble</tspan><tspan
         id="tspan1240"
         sodipodi:role="line"
         y="-380.92218"
         x="63.558331 71.183548 75.589798 80.587715 84.993965 88.297173 90.754005 93.210846">maker. *</tspan><tspan
         id="tspan1242"
         sodipodi:role="line"
         y="-358.22095"
         x="88.9701 94.985832 99.983749 102.69628 106.59115 109.04798 116.58896 120.99521 125.96835 130.38649 132.84334 138.85907 142.16228 144.93526 148.80832 151.26515 155.6833 160.59598 165.56912 168.88719 173.71564 176.21112 178.66797 183.08611 188.05925 193.03238 195.48923 199.29985 204.29776 206.75461 212.17471 217.17262 221.59077 224.04761 227.36568 231.68768 235.56075 240.47343 243.18596 248.1591 253.13225 257.45425 262.4274 264.88425 269.20627 274.20416 276.66101 280.98303 285.98093 290.89362 293.6904 298.10855 300.48013 305.45328 308.77136 311.22818 316.14087 321.13879 324.45685 328.875 331.24661 336.21976 341.13245 343.84497 348.84286 353.75555">This made Eris angry, and so She fashioned an apple of pure gold**</tspan><tspan
         id="tspan1244"
         sodipodi:role="line"
         y="-346.7861"
         x="63.558331 67.982422 72.895103 77.874191 80.331032 83.043564 88.041473 91.920486 96.241508 99.565521 102.27805 107.25714 111.57816 116.55724 119.01408 123.92677 128.83945 133.81854 138.79762 141.16924 143.94817 146.7271 149.18393 156.29776 163.41159 169.42732 175.44305 178.74626 184.28033 190.29607 193.62009 196.07692 199.40094 203.46825 209.48399 214.46307 216.91991 222.93564 227.93355 232.35765 234.81448 240.34856 243.56752 247.99162 250.70415 253.48308 256.19562 260.61972 264.43033 267.20926 269.66611 276.77994 281.77786 286.09985 290.16422 293.48822 295.94504 300.36914 305.28183 310.26093 312.63251 317.6116 322.5907 324.96231 327.74124 332.72031 337.14441 339.51602 344.49509 348.91919 353.74762 356.20447 361.18356">and inscribed upon it KALLISTI (&quot;To The Prettiest One&quot;) and on the day of</tspan><tspan
         id="tspan1246"
         sodipodi:role="line"
         y="-335.43549"
         x="63.558331 66.339241 71.320312 75.746384 78.203224 81.422188 85.828438 88.609352 93.035431 95.492264 100.91238 105.91029 110.33636 112.7932 116.01216 121.01008 123.72261 126.51938 130.84138 135.83931 138.29614 141.00868 143.80545 146.26228 149.0432 153.95589 156.66841 161.66634 164.03793 166.81885 171.73154 176.15761 178.61444 183.59552 187.91753 192.83022 197.81128 202.79234 207.11337 209.89429 212.26588 217.24695 221.67302 224.38556 227.16647 229.62331 234.04938 238.96207 243.94313 246.31474 249.09566 254.00835 258.43442 263.4155 265.78711 268.56802 272.99408 276.21304 278.99396 281.45081 284.16333 289.16125 291.61807 296.59915 301.02524 303.48206 307.80408 310.5166 315.49768 320.47873 324.90482 327.27643 331.70248 336.61517">the fete She rolled it into the banquet hall and then left to be alone and</tspan><tspan
         id="tspan1248"
         sodipodi:role="line"
         y="-324.0849"
         x="63.558331 66.271851 71.27076 76.100197 81.079277 86.058365 89.937378 92.716309 97.545746 100.00258 104.98167 109.40575 112.62571 115.40464 119.82874 124.74241 129.17047 131.6273 136.60638 139.9304 142.38724 146.81134 149.26817 154.18184 159.09552 161.89328 164.26489 169.24397 174.15765 179.13673">joyously partake of a hot dog.</tspan><tspan
         id="tspan1250"
         sodipodi:role="line"
         y="-301.38367"
         x="88.9701 96.083931 101.08184 108.19567 110.65251 113.11034 115.88828 120.86637 124.1894 128.51141 132.93451 135.39233 140.37044 143.69345 146.06606 148.84399 153.75668 158.17978 160.6376 163.35014 168.32823 173.30634 176.01886 178.73138 183.13765 188.11574 190.48834 195.46643 200.37912 205.29179 210.28972 214.61172 218.48975 222.36777 226.68977 230.56779 232.93939 237.9175 242.83017 247.80827 250.2661 257.37994 260.1767 265.08939 269.4104 274.38852 278.81161 281.31204 283.76987 290.8837 295.28995 298.61298 303.0361 305.53653 307.99435 312.41745 317.33014 322.30823 324.76608 331.87988 336.79257 341.77069 345.09369 350.00638 354.91907 357.71582 360.42838 364.83463">Now, three of the invited goddesses,*** Athena, Hera, and Aphrodite,</tspan><tspan
         id="tspan1252"
         sodipodi:role="line"
         y="-290.03207"
         x="63.558331 67.965576 72.372818 76.78006 81.742302 84.113907 86.875992 94.501205 102.12642 106.53268 111.49491 114.257 118.66424 121.42632 125.83356 128.59566 133.42409 135.88094 140.28818 143.05026 147.4575 150.21959 157.76056 162.1678 167.13005 169.58688 172.34897 175.11105 177.48265 180.24474 185.20699 187.66382 192.62605 196.94806 199.71014 204.67239 209.63463 214.59686 217.0537 219.81578 224.77802 227.23485 232.1971 236.60434 239.9115 243.72212 248.12938 250.89146 254.19862 256.57025 261.53247 265.93973 270.34695 274.668 279.63022 283.49237 287.89963 290.35648 295.3187 298.62589 301.0827 303.84479 308.80704 313.21426 315.67111 318.4332 323.39545 327.20605 331.61331 334.92047 337.68256 342.64481 345.40686 348.16895 353.1312 358.09341">each immediately claimed it to belong to herself because of the inscription.</tspan><tspan
         id="tspan1254"
         sodipodi:role="line"
         y="-278.59723"
         x="63.558331 70.688019 75.685928 80.683846 83.140686 85.870064 90.867981 95.242516 100.07096 102.5278 106.42267 109.21944 113.59398 116.86844 119.66521 123.98623 128.98415 131.44098 134.71544 137.44482 142.37436 147.37227 150.16905 152.89842 157.82796 162.82587 165.27776 167.73459 172.10913 177.10704 182.10497 184.47656 187.27333 192.18602 196.56056 201.38901 203.84584 207.74071 210.53748 214.91203 218.18648 220.91586 225.29039 230.28831 232.65991 235.4567 240.45461 243.72906 248.72699 255.85667 258.58606 263.51559 268.51349 270.97034 275.89987 280.82941 285.82733 290.20187 295.19977 297.65662 302.03116 304.76053 307.55731 310.01413 314.94366 319.94159 324.31613 327.59058 329.96219 332.75897 337.7569 342.13141 344.50302 349.43256 352.22934 356.60385 360.97839">And they started fighting, and they started throwing punch all over the place</tspan><tspan
         id="tspan1256"
         sodipodi:role="line"
         y="-267.24661"
         x="63.558331 67.987373 72.900063 77.884102 80.340942 84.769989 89.754028 94.07505 97.404022 102.23247 105.01635 110.00039 112.71292 117.69697 122.68101">and everything.</tspan><tspan
         id="tspan1258"
         sodipodi:role="line"
         y="-244.54539"
         x="88.9701 94.453636 97.250404 102.17895 106.5525 109.28088 112.07765 116.9061 119.36294 121.81977 127.84839 132.22194 137.21985 141.11472 143.57156 147.9451 152.31865 155.11542 162.6564 167.06265 172.06056 174.51741 177.31418 182.24272 184.9711 189.96901 194.89757 198.79242 201.24927 206.17781 211.17572 218.30441 223.30232 225.75917 230.13272 235.06125 240.05917 242.51601 247.51393 251.83495 256.2085 259.00528 263.37881 266.65228 271.02585 276.02374 278.39536 281.12375 286.12167 290.49521 293.29199 295.74881 300.12238 305.1203 307.57712 311.95068 315.22415 320.22205 322.95044 325.74722 329.02069 333.39423 336.12262 341.12054 344.39401 346.85083 354.39182 359.38974 363.28461">Finally, Zeus calmed things down and declared that an arbitrator must</tspan><tspan
         id="tspan1260"
         sodipodi:role="line"
         y="-233.19478"
         x="63.558331 68.556244 72.962502 75.419334 79.248795 83.623329 86.420105 90.741127 95.115662 97.912437 102.28697 107.28489 109.73677 112.19361 119.3233 124.25282 127.0496 131.37161 136.36952 138.82637 145.95605 150.33058 154.22545 156.68228 161.05682 163.51367 166.78813 171.16267 175.5372 179.36667 184.36458 189.3625 193.68451 198.61404 201.41081 205.78534 208.24219 212.07164 217.00117 221.99908 226.92862 231.30316 235.19803 237.9274 240.65678 245.58632 250.58423 253.03612 255.49295 259.86749 264.86542 269.86331 272.23492 276.60947 279.33884 282.13562 284.59247 288.96701 293.9649 297.23938 301.61392 305.98846 310.98636 313.43826 315.89508 323.02478 327.39932 329.85614 333.75101 338.07303 343.07095 345.86771 348.23932 350.96869 355.96661 360.34116">be selected, which was a reasonable suggestion, and all agreed. He sent them</tspan><tspan
         id="tspan1262"
         sodipodi:role="line"
         y="-221.84416"
         x="63.558331 66.338257 71.318329 73.775169 78.200249 80.571861 84.451859 89.36454 93.789627 98.702309 103.68239 108.10747 111.32643 116.30651 118.76334 123.67603 126.97923 129.43607 135.4518 138.755 143.73508 148.56352 151.06595 153.5228 160.63661 165.6167 170.59677 174.47678 178.90186 181.27347 186.25354 190.67862 198.21959 202.64468 205.10152 212.21535 216.6216 220.50159 222.95844 228.4935 232.91858 236.24359 239.02351 242.90352 245.27512 250.2552 254.68028 259.10538 263.42639 268.33908 272.23395 276.65903 279.11588 284.02853 286.82532 290.70532 293.16217 300.70312 305.70105 308.48096 313.39365 317.81873 321.14374 323.60059 328.58066 332.90268 337.88275 340.25436 345.23444 349.55643 354.5365 356.99335">to a shepherd of Troy, whose name was Paris because his mother had had a</tspan><tspan
         id="tspan1264"
         sodipodi:role="line"
         y="-210.49356"
         x="63.558331 66.342216 71.254906 74.038788 76.49662 81.480659 84.809631 87.182228 92.166267 96.487289 101.47133 104.25522 106.71304 111.03407 115.94675 120.93079 123.38862 130.9296 135.33585 138.66483 141.99379 144.77768 149.20673 154.19077 156.64859 161.07764 163.53546 169.07451 172.40347 176.72548 181.70953 186.03154 191.01558 198.55655 202.9856 207.96965 210.75352 213.21135 218.12404 223.12196 225.90584 228.36368 232.79272 237.22177 241.54378 246.52782 248.90042 253.88446 257.21344 259.67126 262.38379 267.38171 271.81076 274.18335 278.06732 282.98001 287.40906 291.8381 296.82214 301.65057 304.10843 309.09247 314.00513 318.91782 323.91574 328.34479 332.15543 336.03937 340.36139 344.24536 346.70319 349.48706 352.70602 355.4899 359.81192">lot of gaul and married a Frenchman; but each of the sneaky goddesses tried</tspan><tspan
         id="tspan1266"
         sodipodi:role="line"
         y="-199.0587"
         x="63.558331 66.340233 71.322296 73.694893 78.676949 83.589638 86.371544 93.485367 96.197899 98.994675 101.4525 104.16503 109.16295 113.59001 115.96261 120.94467 123.6572 128.63925 133.06631 136.28528 140.16727 142.62509 147.60715 152.43559 154.89343 159.87549 164.78816 167.57007 172.48276 177.46481 179.92265 184.34972 188.77678 191.99574 194.77765 199.60608 202.06392 206.49098 211.47304 216.45509 218.8277 223.80975 227.13673 230.46373 234.89079 238.10976 240.82228 245.80435 250.78641 253.24423 257.6713 260.04391 265.02597 268.35297 271.06549 276.04755 280.47461 282.8472 285.62912 290.61118 293.069 298.48911 302.89536 306.22235 308.93488 312.81686">to outwit the others by going early and offering a bribe to Paris.</tspan><tspan
         id="tspan1268"
         sodipodi:role="line"
         y="-176.35748"
         x="88.9701 96.134476 98.898537 103.86275 108.18378 113.148 117.55723 119.92883 124.89305 128.20219 131.51135 135.92058 139.22972 143.55075 148.51497 150.88657 155.85078 158.61485 166.15584 168.61267 175.77704 180.18626 183.49542 188.45964 191.22371 195.63292 198.08977 207.32446 211.73071 215.03987 217.4967 224.66107 227.42514 231.83437 234.59843 239.56265 242.8718 245.63586 249.95789 253.82202 256.30859 258.76544 265.92981 270.33905 273.64819 278.0574 280.51425 285.47845 288.78763 292.09677 296.50598 299.81516 304.13617 309.10037 311.47198 316.43622 319.20029 326.74026 329.19711 336.36148 339.67062 344.07983 348.48907">Athena offered him Heroic War Victories, Hera offered him Great</tspan><tspan
         id="tspan1270"
         sodipodi:role="line"
         y="-165.00687"
         x="63.558331 72.79303 77.219101 81.645172 84.426086 87.207001 92.188072 94.69149 97.148331 101.47034 106.45141 111.43247 113.88931 120.91791 125.89898 130.88005 134.09901 139.01169 144.00961 146.72214 149.51891 153.94498 156.31659 161.29765 164.62366 167.94965 172.37572 175.70172 180.02373 185.00481 187.3764 192.35748 195.1384 202.67937 205.1362 211.15193 216.14986 220.57593 223.03276 231.86905 236.85011 240.66075 243.44167 245.8985 252.53464 256.96072 261.28271 266.26379 268.97632 271.75723 274.9762 279.95728 282.73819 285.19504 294.42972 299.42764 306.96863 311.37488 316.35593 318.81277 323.79385 328.7749 331.23175 337.24747 341.65372 344.87268 347.66946 352.65051">Wealth, and Aphrodite offered him The Most Beautiful Woman on Earth.</tspan><tspan
         id="tspan1272"
         sodipodi:role="line"
         y="-153.65627"
         x="63.558331 70.180595 74.592789 77.359833 82.327026 87.29422 89.751053 94.163254 96.534859 101.50205 105.91425 110.23528 113.00231 115.76936 120.73655 125.56499 128.10606 132.93451 137.9017 142.8689 147.83609 152.80328 155.26012 161.32739 164.63951 169.6067 172.37375 176.69576 181.66295 184.11978 186.88683 191.20883 196.17603 198.66557 201.12241 206.64459 211.05679 214.27576 217.0428 220.90991 223.28152 228.2487 231.46767 236.43486 243.97585 248.94304 251.71007 254.47711 259.30557 261.76239 266.17459 270.58679 274.99899 279.41119 284.37839 287.14542 291.55762 296.52481 298.98166 306.14902 311.11621 316.0834 319.39551 324.3627 329.3299 332.09695 334.86398 339.27618 342.49515">Being a healthy young Trojan lad, Paris promptly accepted Aphrodite’s</tspan><tspan
         id="tspan1274"
         sodipodi:role="line"
         y="-142.30565"
         x="63.558331 68.534439 71.855484 74.568016 79.544128 83.965248 86.422081 90.743103 95.655792 100.6319 103.08874 106.89937 111.89728 116.3184 118.77524 123.68792 128.6006 131.39738 133.85422 136.56674 141.56467 145.98578 148.44261 152.76364 157.76155 162.67424 165.47101 169.89212 172.34897 176.67097 181.58366 186.55977 189.01662 193.99272 198.41385 200.78545 205.76157 210.67424 213.45021 215.90704 219.71767 224.12392 227.44496 231.86607 238.9799 243.30193 248.28101">bribe and she got the apple and he got screwed.</tspan><tspan
         id="tspan1276"
         sodipodi:role="line"
         y="-119.52019"
         x="88.9701 96.083931 99.978798 102.43563 106.32257 111.23525 115.66727 118.12411 123.11112 127.43214 132.41916 134.87599 139.78868 143.09189 148.0789 155.61987 158.40674 162.29367 166.61568 171.60269 174.05954 176.51637 180.327 185.32492 189.75693 192.21378 199.75475 204.161 209.14801 213.58003 218.56705 223.55406 227.87607 231.20801 235.64003 240.62704 242.99866 247.43068 251.8627 255.19464 257.98151 262.8942 265.68106 270.50949 272.96634 277.95334 282.27536 287.26239 292.17505 296.60709 301.51978 304.2323 309.23022 314.14288 318.03775 320.4946 324.30524 329.30313 331.75998 334.4725 339.47043 343.79144">As she had promised, she maneuvered earthly happenings so that</tspan><tspan
         id="tspan1278"
         sodipodi:role="line"
         y="-108.16957"
         x="63.558331 69.036911 73.405502 76.674019 79.397453 83.29232 85.749153 90.117744 95.041336 99.96492 102.76169 107.75961 110.13121 115.12913 119.45015 124.44807 128.85432 131.31116 138.43489 142.80348 145.60027 149.96886 154.89244 157.34927 160.61778 163.41457 168.33815 172.70674 175.16357 182.28731 186.65591 189.45268 193.82127 198.81918 202.08771 204.54454 207.26796 212.26588 216.63448 221.6324 224.08923 226.81267 229.5361 234.53401 237.25745 242.25536 247.25328 249.71011 256.73871 259.53549 262.25891 267.25684 269.71368 274.63727 279.00586 282.27438 284.7312 289.65479 294.65271 298.47623 303.47412 307.84274 312.76633 317.76422 320.22107 328.99988 333.36847 338.36639 342.73499 345.4584 349.827 354.75058 358.64545">Paris could have Helen (the Helen) then living with her husband Menelaus,</tspan></text>
<g
       i:extraneous="self"
       id="g1356"
       transform="matrix(0.140093,0,0,-0.140093,294.8211,497.72883)"
       style="opacity:1;fill-rule:nonzero">
		
			<radialGradient
   id="SVGID_1_"
   cx="297.23541"
   cy="296.63089"
   r="281.2149"
   gradientTransform="matrix(1,0,0,1.11,0,-32.6294)"
   gradientUnits="userSpaceOnUse">
			<stop
   offset="0"
   style="stop-color:#E6D367"
   id="stop1331" />
			<stop
   offset="0.4632"
   style="stop-color:#F2C03E"
   id="stop1333" />
			<stop
   offset="1"
   style="stop-color:#FFAB13"
   id="stop1335" />
		</radialGradient>
		<path
   style="clip-rule:evenodd;fill:none;fill-rule:nonzero"
   inkscape:connector-curvature="0"
   d="m 583.021,292.073 c -8.495,-95.369 -51.426,-136.545 -160.279,-114.485 -13.566,0.589 -24.576,23.54 -34.347,15.265 -4.915,-60.89 45.442,-66.5 76.323,-91.589 11.107,-33.729 -6.522,-55.416 -15.265,-80.142 H 438.005 C 422.651,55.379 398.834,81.174 373.128,105.08 359.431,97.175 340.795,71.509 315.885,66.916 230.31,51.139 197.592,123.644 163.238,158.506 c -19.583,19.875 -49.319,35.011 -76.325,49.612 -29.611,16.01 -74.356,31.346 -76.324,49.609 -3.794,35.224 60.771,47.479 72.508,64.877 -0.768,40.481 6.92,93.937 30.53,133.565 16.993,28.523 67.465,77.035 99.223,91.59 27.119,12.435 52.667,4.982 80.14,0 76.255,60.157 125.869,-3.91 186.996,-53.428 62.381,-50.529 111.861,-103.22 103.035,-202.258 z"
   id="path1338" />
		<g
   id="g1354"
   style="fill-rule:nonzero"
   transform="translate(-236.86879,-1.294365)">
			<path
   style="clip-rule:evenodd;fill-rule:nonzero"
   inkscape:connector-curvature="0"
   d="m 502.882,299.708 c -1.201,5.157 -5.43,7.286 -3.816,15.263 13.535,20.81 2.884,65.807 26.711,76.326 5.006,-28.499 1.512,-79.942 -22.895,-91.589 z"
   id="path1340" />
			<path
   style="clip-rule:evenodd;fill-rule:nonzero"
   inkscape:connector-curvature="0"
   d="m 438.005,368.396 c 13.696,3.162 18.465,-8.603 26.713,0 3.352,25.908 2.051,56.473 26.717,61.061 0.808,-30.068 -9.993,-48.522 -15.268,-72.507 4.078,-8.705 24.881,-12.162 15.268,-22.897 -22.096,7.165 -44.534,13.982 -53.43,34.343 z"
   id="path1342" />
			<path
   style="clip-rule:evenodd;fill-rule:nonzero"
   inkscape:connector-curvature="0"
   d="m 415.106,433.273 c 2.376,-10.344 15.945,-9.497 15.269,-22.897 -3.046,-13.491 -22.282,-10.794 -26.718,-22.896 10.046,-9.038 21.134,-17.029 22.9,-34.347 -16.362,-2.287 -35.498,25.503 -41.98,45.794 8.351,5.644 20.546,7.443 26.714,15.267 -2.911,11.082 -18.085,9.898 -15.263,26.713 15.819,6.769 31.364,30.915 49.61,22.898 -1.45,-18.907 -24.346,-16.362 -30.532,-30.532 z"
   id="path1344" />
			<path
   style="clip-rule:evenodd;fill-rule:nonzero"
   inkscape:connector-curvature="0"
   d="m 258.644,364.584 c -22.979,15.577 -33.418,62.729 -34.347,87.772 23.293,1.666 12.274,-30.977 26.714,-38.163 7.523,12.829 2.556,38.148 19.081,41.977 16.597,-22.154 -13.213,-59.3 -11.448,-91.586 z"
   id="path1346" />
			<path
   style="clip-rule:evenodd;fill-rule:nonzero"
   inkscape:connector-curvature="0"
   d="m 312.072,368.396 c -7.045,33.665 -24.351,57.065 -26.715,95.408 27.621,3.45 12.678,-35.659 30.527,-41.978 3.607,18.018 -0.965,44.216 22.901,41.978 -8.901,-29.264 0.862,-77.188 -19.083,-95.408 z"
   id="path1348" />
			<path
   style="clip-rule:evenodd;fill-rule:nonzero"
   inkscape:connector-curvature="0"
   d="m 350.231,387.479 c 3.46,33.43 -8.01,81.791 19.083,91.589 -1.974,-20.286 12.664,-88.52 -19.083,-91.589 z"
   id="path1350" />
			<path
   style="clip-rule:evenodd;fill-rule:nonzero"
   inkscape:connector-curvature="0"
   d="m 583.021,292.073 c -8.495,-95.369 -51.426,-136.545 -160.279,-114.485 -13.566,0.589 -24.576,23.54 -34.347,15.265 -4.915,-60.89 45.442,-66.5 76.323,-91.589 11.107,-33.729 -6.522,-55.416 -15.265,-80.142 H 438.005 C 422.651,55.379 398.834,81.174 373.128,105.08 359.431,97.175 340.795,71.509 315.885,66.916 230.31,51.139 197.592,123.644 163.238,158.506 c -19.583,19.875 -49.319,35.011 -76.325,49.612 -29.611,16.01 -74.356,31.346 -76.324,49.609 -3.794,35.224 60.771,47.479 72.508,64.877 -0.768,40.481 6.92,93.937 30.53,133.565 16.993,28.523 67.465,77.035 99.223,91.59 27.119,12.435 52.667,4.982 80.14,0 76.255,60.157 125.869,-3.91 186.996,-53.428 62.381,-50.529 111.861,-103.22 103.035,-202.258 z M 441.821,51.652 c 12.858,6.696 5.481,25.145 3.817,38.163 -9.942,-3.779 -10.202,-29.866 -3.817,-38.163 z m -22.896,26.712 c 17.019,2.548 7.192,9.81 11.45,26.716 -29.527,12.451 -48.354,35.603 -57.247,68.691 -12.995,-44.833 30.491,-66.162 45.797,-95.407 z M 25.853,253.913 c 39.701,-23.28 98.351,-36.474 145.016,-83.958 26.812,-27.28 41.833,-62.513 68.692,-76.324 36.764,-18.903 106.59,-17.843 118.303,22.898 6.967,24.235 -10.801,34.376 -7.633,61.06 C 301.904,169.07 260.902,148.703 220.48,158.507 152.969,174.881 121.584,254.57 86.912,303.526 63.465,290.08 32.121,284.534 25.853,253.913 Z m 519.006,148.831 c -5.161,11.334 -21.379,28.646 -30.527,38.162 -39.715,41.283 -100.066,82.115 -133.571,106.854 h -41.975 c 9.973,-16.735 32.635,-20.791 38.158,-41.979 -19.781,-12.932 -23.184,18.791 -38.158,22.897 -127.278,38.694 -224.071,-63.989 -236.608,-171.729 -1.875,-16.112 1.396,-30.806 0,-45.796 8.638,-10.443 14.578,-23.585 22.898,-34.345 13.603,19.471 -8.398,74.542 11.448,87.775 15.473,1.479 4.203,-23.783 7.632,-34.347 19.316,3.581 18.218,27.574 38.163,30.529 -2.355,14.179 -9.092,23.982 -11.45,38.16 28.33,6.706 11.64,-31.611 34.347,-30.53 21.359,-2.277 0.544,37.62 22.898,34.348 9.335,-28.477 -5.939,-65.253 -11.45,-91.59 -23.618,-0.721 -21.857,23.939 -30.53,38.163 -12.32,-10.574 -19.635,-26.158 -34.345,-34.347 11.052,-18.204 30.256,-28.258 34.345,-53.426 -24.346,1.094 -23.622,27.26 -38.162,38.164 -10.518,-4.749 4.839,-35.368 -15.265,-30.531 22.551,-22.854 45.185,-78.037 80.142,-91.589 44.675,-17.322 82.406,16.898 137.382,15.265 -0.533,21.322 -17.485,2.636 -34.347,7.631 4.634,23.868 45.592,23.106 64.876,19.082 17.354,-3.621 27.231,-14.732 38.164,-19.082 h 80.141 c 60.761,15.046 75.822,136.307 45.794,202.261 z M 201.398,341.685 c 13.327,-3.415 6.52,12.447 3.817,15.266 -5.178,-1.182 -3.166,-9.557 -3.817,-15.266 z"
   id="path1352" />
		</g>
	</g></g></svg>